<?xml version="1.0" encoding="UTF-8"?>
<svg width="18px" height="20px" viewBox="0 0 18 20" version="1.1" xmlns="http://www.w3.org/2000/svg" xmlns:xlink="http://www.w3.org/1999/xlink">
    <!-- Generator: Sketch 49.3 (51167) - http://www.bohemiancoding.com/sketch -->
    <title>Quản lý công việc</title>
    <desc>Created with Sketch.</desc>
    <defs></defs>
    <g id="Page-1" stroke="none" stroke-width="1" fill="none" fill-rule="evenodd">
        <g id="02.Chi_Tiet_Cong_Viec" transform="translate(-82.000000, -100.000000)" fill="#157EFB">
            <path d="M83.2857143,117.5 L84.5714286,117.5 L84.5714286,118.75 C84.5714286,119.088543 84.6986603,119.381509 84.9531263,119.628906 C85.2075897,119.876303 85.5089277,120 85.8571429,120 L98.7142857,120 C99.0625009,120 99.3638389,119.876303 99.6183023,119.628906 C99.8727683,119.381509 100,119.088543 100,118.75 L100,103.75 C100,103.411457 99.8727683,103.11849 99.6183023,102.871095 C99.3638389,102.623697 99.0625009,102.5 98.7142857,102.5 L97.4285714,102.5 L97.4285714,101.25 C97.4285714,100.911457 97.3013397,100.61849 97.0468737,100.371095 C96.7924103,100.123697 96.4910723,100 96.1428571,100 L83.2857143,100 C82.9374984,100 82.6361619,100.123697 82.3816964,100.371095 C82.1272309,100.61849 82,100.911457 82,101.25 L82,116.25 C82,116.588543 82.1272309,116.88151 82.3816964,117.128905 C82.6361619,117.376303 82.9374984,117.5 83.2857143,117.5 Z M98.875,103.333333 L98.875,118.888889 L86.5,118.888889 L86.5,117.592593 L96.4,117.592593 C96.7351571,117.592593 97.0251949,117.464314 97.270116,117.207753 C97.5150395,116.951196 97.6375,116.647377 97.6375,116.296296 L97.6375,103.333333 L98.875,103.333333 Z M93.7041925,102.222222 C93.8998456,102.222222 94.0605577,102.274304 94.1863367,102.378471 C94.3121131,102.48264 94.375,102.61574 94.375,102.777778 C94.375,102.939816 94.3121131,103.072916 94.1863367,103.177084 C94.0605577,103.281251 93.8998456,103.333333 93.7041925,103.333333 L88.2958075,103.333333 C88.1001544,103.333333 87.9394423,103.281251 87.8136659,103.177084 C87.6878869,103.072916 87.625,102.939816 87.625,102.777778 C87.625,102.61574 87.6878869,102.48264 87.8136659,102.378471 C87.9394423,102.274304 88.1001544,102.222222 88.2958075,102.222222 L93.7041925,102.222222 Z M84.8803502,106.666667 L93.7446498,106.666667 C93.9285028,106.666667 94.0795221,106.718749 94.1977153,106.822916 C94.3159059,106.927084 94.375,107.060184 94.375,107.222222 C94.375,107.38426 94.3159059,107.51736 94.1977153,107.621529 C94.0795221,107.725696 93.9285028,107.777778 93.7446498,107.777778 L84.8803502,107.777778 C84.6964972,107.777778 84.5454779,107.725696 84.4272873,107.621529 C84.3090941,107.51736 84.25,107.38426 84.25,107.222222 C84.25,107.060184 84.3090941,106.927084 84.4272873,106.822916 C84.5454779,106.718749 84.6964972,106.666667 84.8803502,106.666667 Z M84.8803502,110 L93.7446498,110 C93.9285028,110 94.0795221,110.052082 94.1977153,110.156249 C94.3159059,110.260418 94.375,110.393518 94.375,110.555556 C94.375,110.717593 94.3159059,110.850693 94.1977153,110.954862 C94.0795221,111.059029 93.9285028,111.111111 93.7446498,111.111111 L84.8803502,111.111111 C84.6964972,111.111111 84.5454779,111.059029 84.4272873,110.954862 C84.3090941,110.850693 84.25,110.717593 84.25,110.555556 C84.25,110.393518 84.3090941,110.260418 84.4272873,110.156249 C84.5454779,110.052082 84.6964972,110 84.8803502,110 Z M84.8803502,113.333333 L93.7446498,113.333333 C93.9285028,113.333333 94.0795221,113.385416 94.1977153,113.489582 C94.3159059,113.593751 94.375,113.726851 94.375,113.888889 C94.375,114.050927 94.3159059,114.184027 94.1977153,114.288196 C94.0795221,114.392362 93.9285028,114.444444 93.7446498,114.444444 L84.8803502,114.444444 C84.6964972,114.444444 84.5454779,114.392362 84.4272873,114.288196 C84.3090941,114.184027 84.25,114.050927 84.25,113.888889 C84.25,113.726851 84.3090941,113.593751 84.4272873,113.489582 C84.5454779,113.385416 84.6964972,113.333333 84.8803502,113.333333 Z" id="Quản-lý-công-việc"></path>
        </g>
    </g>
</svg>