<?xml version="1.0" encoding="UTF-8"?>
<svg width="21px" height="20px" viewBox="0 0 21 20" version="1.1" xmlns="http://www.w3.org/2000/svg" xmlns:xlink="http://www.w3.org/1999/xlink">
    <!-- Generator: Sketch 49.3 (51167) - http://www.bohemiancoding.com/sketch -->
    <title>Quản lý hệ thống</title>
    <desc>Created with Sketch.</desc>
    <defs></defs>
    <g id="Page-1" stroke="none" stroke-width="1" fill="none" fill-rule="evenodd">
        <g id="02.Chi_Tiet_Cong_Viec" transform="translate(-842.000000, -100.000000)" fill="#767676">
            <path d="M859.710145,111.009615 L861.980677,112.644231 C862.173914,112.836538 862.206121,113.060895 862.077295,113.317308 L860.000001,116.730769 C859.871175,116.987181 859.677941,117.067308 859.42029,116.971154 L856.811595,115.961538 C856.006438,116.506412 855.426734,116.842948 855.072464,116.971154 L854.685991,119.615385 C854.62158,119.871796 854.444445,120 854.15459,120 L850.04831,120 C849.758455,120 849.58132,119.871796 849.516909,119.615385 L849.130435,116.971154 C848.64734,116.778846 848.067636,116.442311 847.391305,115.961538 L844.782609,116.971154 C844.524959,117.09936 844.331724,117.019232 844.202899,116.730769 L842.125604,113.317308 C841.964573,113.028846 841.996779,112.804489 842.222223,112.644231 L844.396136,111.009615 C844.396136,110.913462 844.388084,110.753206 844.371981,110.528846 C844.355878,110.304486 844.347827,110.128206 844.347827,110 C844.347827,109.871794 844.355878,109.695514 844.371981,109.471154 C844.388084,109.246794 844.396136,109.086538 844.396136,108.990385 L842.173914,107.355769 C841.980676,107.163462 841.94847,106.939105 842.077295,106.682692 L844.15459,103.269231 C844.283415,103.012818 844.47665,102.932692 844.7343,103.028846 L847.342996,104.038462 C848.148153,103.493588 848.727857,103.157052 849.082126,103.028846 L849.4686,100.384615 C849.533011,100.128203 849.710145,100 850.000001,100 L854.106281,100 C854.396136,100 854.57327,100.128203 854.637682,100.384615 L854.975846,103.028846 C855.458941,103.221154 856.038645,103.557689 856.714976,104.038462 L859.275363,103.028846 C859.533014,102.90064 859.74235,102.980769 859.903382,103.269231 L861.980677,106.682692 C862.14171,106.971154 862.109502,107.195511 861.884059,107.355769 L859.710145,108.990385 C859.710145,109.086538 859.718196,109.246794 859.734302,109.471154 C859.750404,109.695514 859.758455,109.871794 859.758455,110 C859.758455,110.480772 859.742353,110.817308 859.710145,111.009615 Z M849.4686,112.5 C850.177138,113.17308 851.030592,113.509615 852.028986,113.509615 C853.02738,113.509615 853.880834,113.17308 854.589373,112.5 C855.297911,111.82692 855.652174,110.993594 855.652174,110 C855.652174,109.006406 855.297911,108.17308 854.589373,107.5 C853.880834,106.82692 853.02738,106.490385 852.028986,106.490385 C851.030592,106.490385 850.185189,106.82692 849.492756,107.5 C848.800319,108.17308 848.454107,109.006406 848.454107,110 C848.454107,110.993594 848.792268,111.82692 849.4686,112.5 Z" id="Quản-lý-hệ-thống"></path>
        </g>
    </g>
</svg>