<?xml version="1.0" encoding="UTF-8"?>
<svg width="22px" height="20px" viewBox="0 0 22 20" version="1.1" xmlns="http://www.w3.org/2000/svg" xmlns:xlink="http://www.w3.org/1999/xlink">
    <!-- Generator: Sketch 49.3 (51167) - http://www.bohemiancoding.com/sketch -->
    <title>Quản lý tham luận</title>
    <desc>Created with Sketch.</desc>
    <defs></defs>
    <g id="Page-1" stroke="none" stroke-width="1" fill="none" fill-rule="evenodd">
        <g id="02.Chi_Tiet_Cong_Viec" transform="translate(-707.000000, -100.000000)" fill="#714CF0">
            <path d="M728.854189,111.121951 L727.396103,109.740923 C727.298896,109.646974 727.182249,109.6 727.046161,109.6 C726.910071,109.6 726.803143,109.646974 726.72538,109.740923 L723.663393,112.672089 L720.134814,116.082385 L717.422765,113.461248 C717.325561,113.3673 717.213774,113.320325 717.087407,113.320325 C716.961036,113.320325 716.849252,113.3673 716.752045,113.461248 L715.293955,114.842276 C715.196748,114.936225 715.148148,115.048959 715.148148,115.180488 C715.148148,115.312017 715.196748,115.42475 715.293955,115.518699 L719.814036,119.887263 C719.891799,119.962421 719.998723,120 720.134814,120 C720.270904,120 720.387548,119.962421 720.484755,119.887263 L728.854189,111.798374 C728.951396,111.704425 729,111.591692 729,111.460163 C729,111.328634 728.951396,111.2159 728.854189,111.121951 Z M713.450617,112.869316 L714.865226,111.448865 C715.468798,110.8428 716.218532,110.539775 717.114456,110.539775 C718.010379,110.539775 718.760114,110.8428 719.363681,111.448865 L720.070988,112.159091 L723.296296,109.090909 L723.296296,100 L707,100 L707,120 L716.053498,120 L713.450617,117.386364 C712.84705,116.76136 712.545267,116.008527 712.545267,115.12784 C712.545267,114.247156 712.84705,113.49432 713.450617,112.869316 Z M712.703704,102.4 L721.666667,102.4 L721.666667,104 L712.703704,104 L712.703704,102.4 Z M712.703704,105.6 L721.666667,105.6 L721.666667,107.2 L712.703704,107.2 L712.703704,105.6 Z M710.259259,111.2 L708.62963,111.2 L708.62963,109.6 L710.259259,109.6 L710.259259,111.2 Z M710.259259,107.2 L708.62963,107.2 L708.62963,105.6 L710.259259,105.6 L710.259259,107.2 Z M710.259259,104 L708.62963,104 L708.62963,102.4 L710.259259,102.4 L710.259259,104 Z M712.703704,109.6 L714.333333,109.6 L714.333333,111.2 L712.703704,111.2 L712.703704,109.6 Z" id="Quản-lý-tham-luận"></path>
        </g>
    </g>
</svg>