<?xml version="1.0" encoding="UTF-8"?>
<svg width="22px" height="20px" viewBox="0 0 22 20" version="1.1" xmlns="http://www.w3.org/2000/svg" xmlns:xlink="http://www.w3.org/1999/xlink">
    <!-- Generator: Sketch 49.3 (51167) - http://www.bohemiancoding.com/sketch -->
    <title>Báo cáo thống kê</title>
    <desc>Created with Sketch.</desc>
    <defs></defs>
    <g id="Page-1" stroke="none" stroke-width="1" fill="none" fill-rule="evenodd">
        <g id="02.Chi_Tiet_Cong_Viec" transform="translate(-414.000000, -100.000000)" fill="#E17E00">
            <path d="M414.846154,100 L414,100 L414,120 L436,120 L436,119.192708 L414.846154,119.166667 L414.846154,100 Z M420.651163,100.833333 C420.651163,100.607637 420.570157,100.412327 420.408139,100.247397 C420.246124,100.082463 420.054266,100 419.832558,100 L417.376744,100 C417.155038,100 416.963179,100.082463 416.801163,100.247397 C416.639146,100.412327 416.55814,100.607637 416.55814,100.833333 L416.55814,117.5 L420.651163,117.5 L420.651163,100.833333 Z M425.767442,105.833333 C425.767442,105.607637 425.686436,105.412327 425.524418,105.247397 C425.362403,105.082463 425.170545,105 424.948837,105 L422.493023,105 C422.271316,105 422.079458,105.082463 421.917443,105.247397 C421.755424,105.412327 421.674419,105.607637 421.674419,105.833333 L421.674419,117.5 L425.767442,117.5 L425.767442,105.833333 Z M430.883721,110.833333 C430.883721,110.607637 430.802715,110.412327 430.640697,110.247397 C430.478682,110.082463 430.286824,110 430.065116,110 L427.609302,110 C427.387595,110 427.195737,110.082463 427.033722,110.247397 C426.871704,110.412327 426.790698,110.607637 426.790698,110.833333 L426.790698,117.5 L430.883721,117.5 L430.883721,110.833333 Z M435.181395,115 L432.725581,115 C432.503874,115 432.312016,115.082463 432.150001,115.247397 C431.987983,115.412327 431.906977,115.607637 431.906977,115.833333 L431.906977,117.5 L436,117.5 L436,115.833333 C436,115.607637 435.918994,115.412327 435.756976,115.247397 C435.594961,115.082463 435.403103,115 435.181395,115 Z" id="Báo-cáo-thống-kê"></path>
        </g>
    </g>
</svg>