<?xml version="1.0" encoding="UTF-8"?>
<svg width="10px" height="6px" viewBox="0 0 10 6" version="1.1" xmlns="http://www.w3.org/2000/svg" xmlns:xlink="http://www.w3.org/1999/xlink">
    <!-- Generator: Sketch 50.2 (55047) - http://www.bohemiancoding.com/sketch -->
    <title>Shape</title>
    <desc>Created with Sketch.</desc>
    <defs></defs>
    <g id="Page-1" stroke="none" stroke-width="1" fill="none" fill-rule="evenodd">
        <g id="03.2._QLDV_Thong_Tin_Doan-KQ_Tiep_Doan" transform="translate(-1410.000000, -27.000000)" fill="#FFFFFF" fill-rule="nonzero">
            <g id="Group-2" transform="translate(1246.000000, 10.000000)">
                <path d="M173.900115,21.9073248 L169.230374,17.1031289 C169.163655,17.0344124 169.086899,17 169.00007,17 C168.913241,17 168.836345,17.0344124 168.769591,17.1031289 L164.100236,21.9073248 C164.033342,21.9761496 164,22.0551212 164,22.1444924 C164,22.2338274 164.033447,22.3129074 164.100236,22.3815877 L164.601134,22.8969072 C164.667923,22.9656237 164.744785,22.9999639 164.831614,22.9999639 C164.918443,22.9999639 164.995304,22.9656237 165.062093,22.8969072 L169.00007,18.8453428 L172.938188,22.89716 C173.004942,22.9658765 173.081838,23 173.168527,23 C173.255496,23 173.332358,22.9656598 173.399111,22.89716 L173.90008,22.3816238 C173.966834,22.3129435 174,22.2338274 174,22.1445285 C174.000035,22.0551212 173.966869,21.9760413 173.900115,21.9073248 Z" id="Shape" transform="translate(169.000000, 20.000000) scale(1, -1) translate(-169.000000, -20.000000) "></path>
            </g>
        </g>
    </g>
</svg>