<?xml version="1.0" encoding="UTF-8"?>
<svg width="24px" height="21px" viewBox="0 0 24 21" version="1.1" xmlns="http://www.w3.org/2000/svg" xmlns:xlink="http://www.w3.org/1999/xlink">
    <!-- Generator: Sketch 50.2 (55047) - http://www.bohemiancoding.com/sketch -->
    <title>folder (1)</title>
    <desc>Created with Sketch.</desc>
    <defs></defs>
    <g id="Page-1" stroke="none" stroke-width="1" fill="none" fill-rule="evenodd">
        <g id="01._QLDA_Danh_Sach_Du_An" transform="translate(-30.000000, -296.000000)" fill-rule="nonzero">
            <g id="folder-(1)" transform="translate(30.000000, 296.000000)">
                <path d="M22.3582763,7.51756495 C23.0211182,7.51756495 23.5358276,8.10763696 23.44281,8.76941713 L22.1008301,18.5960235 C21.958374,19.6327511 21.0765381,20.4047665 20.0412598,20.4047665 L3.98144531,20.4047665 C2.94067383,20.4047665 2.06433103,19.6327511 1.921875,18.5960235 L0.558105469,8.76941713 C0.464904797,8.10763696 0.979797375,7.51203477 1.64245603,7.51203477 L22.3582763,7.51203477 L22.3582763,7.51756495 Z" id="Shape" fill="#4274ED"></path>
                <path d="M21.8269043,5.68688551 L21.8269043,7.51756495 L2.39300536,7.51756495 L2.17932131,2.78629741 C2.12457277,1.59527741 3.07214353,0.597076908 4.26086428,0.597076908 L8.74676513,0.597076908 C9.4753418,0.597076908 10.15448,0.983084609 10.5324097,1.61721382 L11.1020508,2.57670293 C11.4799805,3.21083214 12.1538086,3.59683989 12.8876953,3.59683989 L19.7400513,3.59683989 C20.8903198,3.59130967 21.8269043,4.52886236 21.8269043,5.68688551 Z" id="Shape" fill="#99D3FF"></path>
                <path d="M22.3527832,6.96620438 L22.3527832,5.68688551 C22.3527832,4.22543888 21.1915283,3.05653967 19.7455444,3.05653967 L12.8876953,3.05653967 C12.3510132,3.05653967 11.8471069,2.75864641 11.5731811,2.29558461 L11.0035401,1.31950494 C10.5269165,0.530898876 9.66705323,0.0235955056 8.74676512,0.0235955056 L4.26086428,0.0235955056 C3.53778075,0.0235955056 2.85845948,0.321304436 2.36004638,0.850728593 C1.86163331,1.38015275 1.604187,2.08046 1.63165284,2.8084182 L1.81787109,6.97173455 L1.64245603,6.97173455 C1.16601563,6.97173455 0.716857922,7.17561449 0.404663063,7.53415556 C0.09246825,7.89804247 -0.0499877812,8.37234899 0.0157470938,8.84647123 L1.37420653,18.6896682 C1.55493164,19.9911078 2.67224119,20.9780635 3.97595213,20.9780635 L20.0357666,20.9780635 C21.3447876,20.9780635 22.4622803,19.9855776 22.6430054,18.6786078 L23.9849854,8.84647123 C24.0507202,8.37234899 23.8974609,7.8925123 23.585083,7.53415556 C23.2783814,7.17579882 22.8457031,6.96620438 22.3527832,6.96620438 Z M2.72717287,2.76417663 C2.71069336,2.33964185 2.85845948,1.92598315 3.14886473,1.61721382 C3.43908694,1.3084445 3.83349609,1.12650107 4.25537109,1.12650107 L8.74127198,1.12650107 C9.27813722,1.12650107 9.78204347,1.42421 10.0559692,1.88745612 L10.6256104,2.86335146 C11.0967407,3.6574877 11.9620972,4.16479107 12.8823853,4.16479107 L19.7345581,4.16479107 C20.578125,4.16479107 21.2464599,4.83763168 21.2464599,5.6922314 L21.2464599,6.97155022 L2.91888427,6.97155022 L2.72717287,2.76417663 Z M22.9004517,8.69217871 L21.5639648,18.5298455 C21.4599609,19.2908006 20.8081055,19.8753424 20.0467529,19.8753424 L3.98144531,19.8753424 C3.22009275,19.8753424 2.56823728,19.2908006 2.46423338,18.5353757 L1.10028075,8.69770893 C1.07830809,8.53770191 1.12225341,8.38340943 1.2317505,8.26211376 C1.33575441,8.14081809 1.48370363,8.07464011 1.64245603,8.07464011 L22.3582763,8.07464011 C22.5170288,8.07464011 22.664978,8.13528792 22.7689819,8.26211376 C22.8786621,8.38340943 22.9224243,8.53217169 22.9004517,8.69217871 Z" id="Shape" fill="#225E9B"></path>
                <path d="M13.5857185,14.1024033 L10.9059045,14.1024033 L10.9059045,11.4142815 C10.9059045,11.1865098 10.7235486,11 10.4957769,11 C9.5597666,11 8.68163389,11.3645732 8.01894967,12.0272574 C7.3602809,12.6982494 7,13.5763822 7,14.5000692 C7,16.4302443 8.56975574,18 10.4999308,18 C11.4360795,18 12.3140738,17.6355652 12.9768965,16.9727426 C13.6354268,16.3017506 14,15.4319256 14,14.5082385 C13.9998615,14.2804668 13.8134902,14.1024033 13.5857185,14.1024033 Z" id="Shape" fill="#FFFFFF"></path>
                <path d="M14.9479953,10.049984 C14.2608387,9.37400973 13.3658052,9 12.419866,9 C12.1866071,9 12,9.19126791 12,9.42502399 L12,12.591886 C12,12.8257842 12.1823531,13 12.415612,13 L15.57588,13 C15.8091389,13 16,12.8172581 16,12.5833599 C16,11.6355465 15.6267858,10.7386053 14.9565032,10.049984 C14.9522493,10.049984 14.9522493,10.049984 14.9479953,10.049984 Z" id="Shape" fill="#FFFFFF"></path>
            </g>
        </g>
    </g>
</svg>