<?xml version="1.0" encoding="UTF-8"?>
<svg width="14px" height="14px" viewBox="0 0 14 14" version="1.1" xmlns="http://www.w3.org/2000/svg" xmlns:xlink="http://www.w3.org/1999/xlink">
    <!-- Generator: Sketch 50.2 (55047) - http://www.bohemiancoding.com/sketch -->
    <title>Combined Shape</title>
    <desc>Created with Sketch.</desc>
    <defs></defs>
    <g id="Page-1" stroke="none" stroke-width="1" fill="none" fill-rule="evenodd">
        <g id="01._QLDA_Danh_Sach_Du_An" transform="translate(-998.000000, -306.000000)" fill="#404247" fill-rule="nonzero">
            <g id="Group-5-Copy" transform="translate(658.000000, 271.000000)">
                <path d="M350.554688,41.2890625 C350.252657,41.2890625 350.007812,41.0442182 350.007812,40.7421875 C350.007812,40.4401568 350.252657,40.1953125 350.554688,40.1953125 C350.856718,40.1953125 351.101562,40.4401568 351.101562,40.7421875 C351.101562,41.0442182 350.856718,41.2890625 350.554688,41.2890625 Z M351.8125,36.09375 C353.018687,36.09375 354,37.0750625 354,38.28125 L354,41.3984375 C354,41.7004766 353.755164,41.9453125 353.453125,41.9453125 C353.151086,41.9453125 352.90625,41.7004766 352.90625,41.3984375 L352.90625,38.28125 C352.90625,37.6781563 352.415594,37.1875 351.8125,37.1875 L351.101562,37.1875 L351.101562,37.734375 C351.101562,38.0364141 350.856727,38.28125 350.554688,38.28125 C350.252648,38.28125 350.007812,38.0364141 350.007812,37.734375 L350.007812,37.1875 L347.519531,37.1875 L347.519531,37.734375 C347.519531,38.0364141 347.274695,38.28125 346.972656,38.28125 C346.670617,38.28125 346.425781,38.0364141 346.425781,37.734375 L346.425781,37.1875 L343.964844,37.1875 L343.964844,37.734375 C343.964844,38.0364141 343.720008,38.28125 343.417969,38.28125 C343.11593,38.28125 342.871094,38.0364141 342.871094,37.734375 L342.871094,37.1875 L342.1875,37.1875 C341.584406,37.1875 341.09375,37.6781563 341.09375,38.28125 L341.09375,46.8125 C341.09375,47.4155937 341.584406,47.90625 342.1875,47.90625 L346.371094,47.90625 C346.673133,47.90625 346.917969,48.1510859 346.917969,48.453125 C346.917969,48.7551641 346.673133,49 346.371094,49 L342.1875,49 C340.981313,49 340,48.0186875 340,46.8125 L340,38.28125 C340,37.0750625 340.981313,36.09375 342.1875,36.09375 L342.871094,36.09375 L342.871094,35.546875 C342.871094,35.2448359 343.11593,35 343.417969,35 C343.720008,35 343.964844,35.2448359 343.964844,35.546875 L343.964844,36.09375 L346.425781,36.09375 L346.425781,35.546875 C346.425781,35.2448359 346.670617,35 346.972656,35 C347.274695,35 347.519531,35.2448359 347.519531,35.546875 L347.519531,36.09375 L350.007812,36.09375 L350.007812,35.546875 C350.007812,35.2448359 350.252648,35 350.554688,35 C350.856727,35 351.101562,35.2448359 351.101562,35.546875 L351.101562,36.09375 L351.8125,36.09375 Z M350.691406,42.3828125 C352.515781,42.3828125 354,43.8670312 354,45.6914062 C354,47.5157813 352.515781,49 350.691406,49 C348.867031,49 347.382812,47.5157813 347.382812,45.6914062 C347.382812,43.8670312 348.867031,42.3828125 350.691406,42.3828125 Z M350.691406,47.90625 C351.91266,47.90625 352.90625,46.9126875 352.90625,45.6914062 C352.90625,44.470125 351.91266,43.4765625 350.691406,43.4765625 C349.470152,43.4765625 348.476562,44.470125 348.476562,45.6914062 C348.476562,46.9126875 349.470152,47.90625 350.691406,47.90625 Z M351.484375,45.1445312 C351.786414,45.1445312 352.03125,45.3893672 352.03125,45.6914062 C352.03125,45.9934453 351.786414,46.2382812 351.484375,46.2382812 L350.691406,46.2382812 C350.389367,46.2382812 350.144531,45.9934453 350.144531,45.6914062 L350.144531,44.5703125 C350.144531,44.2682734 350.389367,44.0234375 350.691406,44.0234375 C350.993445,44.0234375 351.238281,44.2682734 351.238281,44.5703125 L351.238281,45.1445312 L351.484375,45.1445312 Z M348.175781,41.2890625 C347.873751,41.2890625 347.628906,41.0442182 347.628906,40.7421875 C347.628906,40.4401568 347.873751,40.1953125 348.175781,40.1953125 C348.477812,40.1953125 348.722656,40.4401568 348.722656,40.7421875 C348.722656,41.0442182 348.477812,41.2890625 348.175781,41.2890625 Z M345.796875,43.6679688 C345.494844,43.6679688 345.25,43.4231245 345.25,43.1210938 C345.25,42.819063 345.494844,42.5742188 345.796875,42.5742188 C346.098906,42.5742188 346.34375,42.819063 346.34375,43.1210938 C346.34375,43.4231245 346.098906,43.6679688 345.796875,43.6679688 Z M343.417969,41.2890625 C343.115938,41.2890625 342.871094,41.0442182 342.871094,40.7421875 C342.871094,40.4401568 343.115938,40.1953125 343.417969,40.1953125 C343.719999,40.1953125 343.964844,40.4401568 343.964844,40.7421875 C343.964844,41.0442182 343.719999,41.2890625 343.417969,41.2890625 Z M343.417969,43.6679688 C343.115938,43.6679688 342.871094,43.4231245 342.871094,43.1210938 C342.871094,42.819063 343.115938,42.5742188 343.417969,42.5742188 C343.719999,42.5742188 343.964844,42.819063 343.964844,43.1210938 C343.964844,43.4231245 343.719999,43.6679688 343.417969,43.6679688 Z M343.417969,46.046875 C343.115938,46.046875 342.871094,45.8020307 342.871094,45.5 C342.871094,45.1979693 343.115938,44.953125 343.417969,44.953125 C343.719999,44.953125 343.964844,45.1979693 343.964844,45.5 C343.964844,45.8020307 343.719999,46.046875 343.417969,46.046875 Z M345.796875,46.046875 C345.494844,46.046875 345.25,45.8020307 345.25,45.5 C345.25,45.1979693 345.494844,44.953125 345.796875,44.953125 C346.098906,44.953125 346.34375,45.1979693 346.34375,45.5 C346.34375,45.8020307 346.098906,46.046875 345.796875,46.046875 Z M345.796875,41.2890625 C345.494844,41.2890625 345.25,41.0442182 345.25,40.7421875 C345.25,40.4401568 345.494844,40.1953125 345.796875,40.1953125 C346.098906,40.1953125 346.34375,40.4401568 346.34375,40.7421875 C346.34375,41.0442182 346.098906,41.2890625 345.796875,41.2890625 Z" id="Combined-Shape"></path>
            </g>
        </g>
    </g>
</svg>