<?xml version="1.0" encoding="UTF-8"?>
<svg width="13px" height="13px" viewBox="0 0 13 13" version="1.1" xmlns="http://www.w3.org/2000/svg" xmlns:xlink="http://www.w3.org/1999/xlink">
    <!-- Generator: Sketch 50.2 (55047) - http://www.bohemiancoding.com/sketch -->
    <title>Combined Shape</title>
    <desc>Created with Sketch.</desc>
    <defs></defs>
    <g id="Page-1" stroke="none" stroke-width="1" fill="none" fill-rule="evenodd">
        <g id="02._Xem_Chi_Tiet_Nhiem_Vu-Lanh_Dao" transform="translate(-1295.000000, -464.000000)" fill="#2569D4" fill-rule="nonzero">
            <g id="Group-4-Copy" transform="translate(278.000000, 407.000000)">
                <g id="Group-11">
                    <g id="Group-50">
                        <g id="Group-47" transform="translate(1.000000, 55.000000)">
                            <g id="Group-4" transform="translate(1016.000000, 0.000000)">
                                <path d="M12.6650518,6.09111523 C12.2195419,5.64561133 11.4946138,5.64563672 11.0489515,6.0912168 C10.9118832,6.22840234 10.0367335,7.10420117 9.90304247,7.23800977 L9.90304247,4.21980078 C9.90304247,3.91460547 9.78418057,3.62769141 9.56834503,3.41189648 L8.49107176,2.33464844 C8.27526161,2.11882812 7.98830191,2 7.68308506,2 L1.14265875,2 C0.512596714,2 0,2.51256055 0,3.14257812 L0,13.8574219 C0,14.4874395 0.512596714,15 1.14265875,15 L8.76038373,15 C9.39044576,15 9.90304247,14.4874395 9.90304247,13.8574219 L9.90304247,10.4710996 L12.6650264,7.70697461 C13.1116028,7.26045508 13.1117044,6.53768555 12.6650518,6.09111523 Z M7.61775037,2.76171875 C7.68971248,2.76171875 7.82838047,2.74925195 7.95242242,2.87325977 L9.02972109,3.95050781 C9.15058899,4.07139258 9.14129537,4.20385547 9.14129537,4.28515625 L7.61775037,4.28515625 L7.61775037,2.76171875 Z M9.14126998,13.8574219 C9.14126998,14.0674277 8.9704298,14.2382812 8.76038373,14.2382812 L1.14265875,14.2382812 C0.932638069,14.2382812 0.761772498,14.0674277 0.761772498,13.8574219 L0.761772498,3.14257812 C0.761772498,2.93257227 0.932638069,2.76171875 1.14265875,2.76171875 L6.85595248,2.76171875 L6.85595248,4.66601562 C6.85595248,4.87635156 7.02648795,5.046875 7.23683873,5.046875 L9.14126998,5.046875 L9.14126998,8.00038867 C9.14126998,8.00038867 8.01755397,9.12499023 8.01750319,9.12501562 L7.47910778,9.66339844 C7.43731186,9.70519141 7.40577448,9.75617578 7.38708566,9.81226367 L6.84841093,11.428123 C6.80278076,11.5649785 6.83840632,11.715875 6.94043305,11.8178691 C7.04258674,11.9200156 7.19354466,11.9554609 7.33020665,11.9098848 L8.94618004,11.3712734 C9.00227189,11.3525859 9.05325986,11.3210762 9.09505578,11.2792578 L9.14126998,11.2330469 L9.14126998,13.8574219 Z M8.28706908,9.9327168 L8.82571842,10.4713281 L8.61996366,10.6770684 L7.81200236,10.9463613 L8.08131433,10.1384316 L8.28706908,9.9327168 Z M9.36426618,9.93258984 L8.82561685,9.39397852 C9.11244958,9.1069375 10.3863617,7.83202344 10.656537,7.56163867 L11.1951864,8.10025 L9.36426618,9.93258984 Z M12.1262755,7.16846484 L11.7336326,7.56141016 L11.1949832,7.02279883 L11.5877531,6.62972656 C11.7363496,6.4812168 11.977933,6.48124219 12.1264279,6.62972656 C12.2748973,6.77826172 12.2756845,7.01904102 12.1262755,7.16846484 Z M7.23683873,5.80859375 C7.44718951,5.80859375 7.61772498,5.97911719 7.61772498,6.18945312 C7.61772498,6.39978906 7.44718951,6.5703125 7.23683873,6.5703125 L1.90443125,6.5703125 C1.69408047,6.5703125 1.523545,6.39978906 1.523545,6.18945312 C1.523545,5.97911719 1.69408047,5.80859375 1.90443125,5.80859375 L7.23683873,5.80859375 Z M5.71329374,7.33203125 C5.92364451,7.33203125 6.09417998,7.50255469 6.09417998,7.71289062 C6.09417998,7.92322656 5.92364451,8.09375 5.71329374,8.09375 L1.90443125,8.09375 C1.69408047,8.09375 1.523545,7.92322656 1.523545,7.71289062 C1.523545,7.50255469 1.69408047,7.33203125 1.90443125,7.33203125 L5.71329374,7.33203125 Z M5.71329374,8.85546875 C5.92364451,8.85546875 6.09417998,9.02599219 6.09417998,9.23632812 C6.09417998,9.44666406 5.92364451,9.6171875 5.71329374,9.6171875 L1.90443125,9.6171875 C1.69408047,9.6171875 1.523545,9.44666406 1.523545,9.23632812 C1.523545,9.02599219 1.69408047,8.85546875 1.90443125,8.85546875 L5.71329374,8.85546875 Z M5.71329374,10.3789062 C5.92364451,10.3789062 6.09417998,10.5494297 6.09417998,10.7597656 C6.09417998,10.9701016 5.92364451,11.140625 5.71329374,11.140625 L1.90443125,11.140625 C1.69408047,11.140625 1.523545,10.9701016 1.523545,10.7597656 C1.523545,10.5494297 1.69408047,10.3789062 1.90443125,10.3789062 L5.71329374,10.3789062 Z M7.23683873,12.7148438 C7.44718951,12.7148438 7.61772498,12.8853672 7.61772498,13.0957031 C7.61772498,13.3060391 7.44718951,13.4765625 7.23683873,13.4765625 L4.95152124,13.4765625 C4.74117046,13.4765625 4.57063499,13.3060391 4.57063499,13.0957031 C4.57063499,12.8853672 4.74117046,12.7148438 4.95152124,12.7148438 L7.23683873,12.7148438 Z" id="Combined-Shape"></path>
                            </g>
                        </g>
                    </g>
                </g>
            </g>
        </g>
    </g>
</svg>