<?xml version="1.0" encoding="UTF-8"?>
<svg width="10px" height="13px" viewBox="0 0 10 13" version="1.1" xmlns="http://www.w3.org/2000/svg" xmlns:xlink="http://www.w3.org/1999/xlink">
    <!-- Generator: Sketch 50.2 (55047) - http://www.bohemiancoding.com/sketch -->
    <title>Combined Shape</title>
    <desc>Created with Sketch.</desc>
    <defs></defs>
    <g id="Page-1" stroke="none" stroke-width="1" fill="none" fill-rule="evenodd">
        <g id="03._QLDV_Thong_Tin_Doan" transform="translate(-667.000000, -391.000000)" fill="#5C6376" fill-rule="nonzero">
            <g id="Group-4-Copy-8" transform="translate(647.000000, 379.000000)">
                <path d="M27.539007,21.4707031 C27.8111503,21.4707031 28.0317525,21.6980508 28.0317525,21.9785156 C28.0317525,22.2589805 27.8111503,22.4863281 27.539007,22.4863281 L26.0854076,22.4863281 C25.8132642,22.4863281 25.592662,22.2589805 25.592662,21.9785156 C25.592662,21.6980508 25.8132642,21.4707031 26.0854076,21.4707031 L27.539007,21.4707031 Z M27.539007,18.3984375 C27.8111503,18.3984375 28.0317525,18.6257852 28.0317525,18.90625 C28.0317525,19.1867148 27.8111503,19.4140625 27.539007,19.4140625 L26.0854076,19.4140625 C25.8132642,19.4140625 25.592662,19.1867148 25.592662,18.90625 C25.592662,18.6257852 25.8132642,18.3984375 26.0854076,18.3984375 L27.539007,18.3984375 Z M29.5072544,20.9375 C29.2351111,20.9375 29.0145089,20.7101523 29.0145089,20.4296875 L29.0145089,14.03125 C29.0145089,13.4712344 28.5724176,13.015625 28.0290178,13.015625 L21.9709822,13.015625 C21.4275824,13.015625 20.9854911,13.4712344 20.9854911,14.03125 L20.9854911,22.96875 C20.9854911,23.5287656 21.4275824,23.984375 21.9709822,23.984375 L28.0290178,23.984375 C28.5724176,23.984375 29.0145089,23.5287656 29.0145089,22.96875 C29.0145089,22.6882852 29.2351111,22.4609375 29.5072544,22.4609375 C29.7793978,22.4609375 30,22.6882852 30,22.96875 C29.9999754,24.0887813 29.1158174,25 28.0289931,25 L21.9709822,25 C20.8841826,25 20,24.0887813 20,22.96875 L20,14.03125 C20,12.9112187 20.8841826,12 21.9709822,12 L28.0290178,12 C29.1158174,12 30,12.9112187 30,14.03125 L30,20.4296875 C30,20.7101523 29.7793978,20.9375 29.5072544,20.9375 Z M24.9949124,14.0206367 C25.2047235,14.1992598 25.2342882,14.519334 25.0609403,14.7355605 L23.9109954,16.1699531 C23.7610283,16.360459 23.5391203,16.4789824 23.3014938,16.4953086 C23.2825723,16.4966289 23.2636263,16.4972637 23.2448034,16.4973145 C23.025507,16.4973145 22.8123206,16.4101738 22.6525971,16.2534883 C22.6480639,16.2490449 22.6436292,16.2445254 22.6392684,16.2399043 L22.1107002,15.6804727 C21.9208454,15.4795313 21.9250091,15.1580352 22.1199638,14.962375 C22.3149432,14.7667148 22.6269251,14.7710059 22.8167553,14.9719219 L23.2367716,15.4164355 L24.3012252,14.0886836 C24.4745485,13.872457 24.7851506,13.8420391 24.9949124,14.0206367 Z M24.9949124,20.2128008 C25.2047235,20.3914238 25.2342882,20.711498 25.0609403,20.9277246 L23.9109954,22.3621426 C23.7610036,22.5526484 23.5390957,22.6711719 23.3014938,22.687498 C23.2825723,22.688793 23.2636509,22.6894277 23.2448034,22.6894785 C23.025507,22.6894785 22.812296,22.6023125 22.6525725,22.445627 C22.6483842,22.4415137 22.6442697,22.4373242 22.6402292,22.433084 L22.1116611,21.8768008 C21.9212888,21.676418 21.9245409,21.3548965 22.1189783,21.1586777 C22.3134157,20.962459 22.6253729,20.9658105 22.8157945,21.1661934 L23.236476,21.6089551 L24.3012252,20.2808477 C24.4745485,20.0646465 24.7851506,20.0342031 24.9949124,20.2128008 Z M27.539007,15.2753906 C27.8111503,15.2753906 28.0317525,15.5027383 28.0317525,15.7832031 C28.0317525,16.063668 27.8111503,16.2910156 27.539007,16.2910156 L26.0854076,16.2910156 C25.8132642,16.2910156 25.592662,16.063668 25.592662,15.7832031 C25.592662,15.5027383 25.8132642,15.2753906 26.0854076,15.2753906 L27.539007,15.2753906 Z M24.9949124,17.1405352 C25.2047235,17.3191582 25.2342882,17.6392324 25.0609403,17.855459 L23.9109954,19.289877 C23.7610036,19.4803828 23.5390957,19.5989063 23.3014938,19.6152324 C23.2825723,19.6165273 23.2636509,19.6171621 23.2448034,19.6172129 C23.025507,19.6172129 22.812296,19.5300469 22.6525725,19.3733613 C22.6483842,19.369248 22.6442697,19.3650586 22.6402292,19.3608184 L22.1116611,18.8045352 C21.9212888,18.6041523 21.9245409,18.2826309 22.1189783,18.0864121 C22.3134157,17.8901934 22.6253729,17.8935449 22.8157945,18.0939277 L23.236476,18.5366895 L24.3012252,17.208582 C24.4745485,16.9923809 24.7851506,16.9619121 24.9949124,17.1405352 Z" id="Combined-Shape"></path>
            </g>
        </g>
    </g>
</svg>