<?xml version="1.0" encoding="UTF-8"?>
<svg width="16px" height="12px" viewBox="0 0 16 12" version="1.1" xmlns="http://www.w3.org/2000/svg" xmlns:xlink="http://www.w3.org/1999/xlink">
    <!-- Generator: Sketch 50.2 (55047) - http://www.bohemiancoding.com/sketch -->
    <title>Shape</title>
    <desc>Created with Sketch.</desc>
    <defs></defs>
    <g id="Page-1" stroke="none" stroke-width="1" fill="none" fill-rule="evenodd">
        <g id="04._QLDA_Giai_Doan_4-Dau_Thau_1" transform="translate(-402.000000, -424.000000)" fill="#FFFFFF" fill-rule="nonzero">
            <g id="Group-4" transform="translate(278.000000, 409.000000)">
                <path d="M124.184615,21.6 C124.061538,21.48 124,21.3 124,21.18 C124,21.06 124.061538,20.88 124.184615,20.76 L125.046154,19.92 C125.292308,19.68 125.661538,19.68 125.907692,19.92 L125.969231,19.98 L129.353846,23.52 C129.476923,23.64 129.661538,23.64 129.784615,23.52 L138.030769,15.18 L138.092308,15.18 C138.338462,14.94 138.707692,14.94 138.953846,15.18 L139.815385,16.02 C140.061538,16.26 140.061538,16.62 139.815385,16.86 L129.969231,26.82 C129.846154,26.94 129.723077,27 129.538462,27 C129.353846,27 129.230769,26.94 129.107692,26.82 L124.307692,21.78 L124.184615,21.6 Z" id="Shape"></path>
            </g>
        </g>
    </g>
</svg>