<?xml version="1.0" encoding="UTF-8"?>
<svg width="16px" height="16px" viewBox="0 0 16 16" version="1.1" xmlns="http://www.w3.org/2000/svg" xmlns:xlink="http://www.w3.org/1999/xlink">
    <!-- Generator: Sketch 51.3 (57544) - http://www.bohemiancoding.com/sketch -->
    <title>Combined Shape</title>
    <desc>Created with Sketch.</desc>
    <defs></defs>
    <g id="Page-1" stroke="none" stroke-width="1" fill="none" fill-rule="evenodd">
        <g id="09.1._QLDA_Chi_Tiet_Cong_Viec" transform="translate(-347.000000, -133.000000)" fill="#5C6376" fill-rule="nonzero">
            <path d="M355,133 C350.5888,133 347,136.588848 347,141.000048 C347,145.411248 350.5888,149 355,149 C359.4112,149 363,145.411248 363,141.000048 C363,136.588848 359.4112,133 355,133 Z M355,147.545455 C351.390788,147.545455 348.454545,144.609212 348.454545,141.000048 C348.454545,137.390885 351.390788,134.454545 355,134.454545 C358.609212,134.454545 361.545455,137.390885 361.545455,141.000048 C361.545455,144.609212 358.609164,147.545455 355,147.545455 Z M354.999903,136.393939 C354.465309,136.393939 354.0304,136.829139 354.0304,137.364073 C354.0304,137.898521 354.465309,138.333333 354.999903,138.333333 C355.534497,138.333333 355.969406,137.898521 355.969406,137.364073 C355.969406,136.829139 355.534497,136.393939 354.999903,136.393939 Z M355,139.787879 C354.598352,139.787879 354.272727,140.113503 354.272727,140.515152 L354.272727,144.878788 C354.272727,145.280436 354.598352,145.606061 355,145.606061 C355.401648,145.606061 355.727273,145.280436 355.727273,144.878788 L355.727273,140.515152 C355.727273,140.113503 355.401648,139.787879 355,139.787879 Z" id="Combined-Shape"></path>
        </g>
    </g>
</svg>