<?xml version="1.0" encoding="UTF-8"?>
<svg width="11px" height="14px" viewBox="0 0 11 14" version="1.1" xmlns="http://www.w3.org/2000/svg" xmlns:xlink="http://www.w3.org/1999/xlink">
    <!-- Generator: Sketch 50.2 (55047) - http://www.bohemiancoding.com/sketch -->
    <title>Combined Shape</title>
    <desc>Created with Sketch.</desc>
    <defs></defs>
    <g id="Page-1" stroke="none" stroke-width="1" fill="none" fill-rule="evenodd">
        <g id="02._QLDA_Them_Moi_Du_An" transform="translate(-298.000000, -902.000000)" fill="#5C6376" fill-rule="nonzero">
            <g id="Group-4" transform="translate(263.000000, 151.000000)">
                <g id="Group-4-Copy-6" transform="translate(15.000000, 740.000000)">
                    <path d="M27.345008,11 L21.5387436,11 C20.6899532,11 20,11.6685831 20,12.4900475 L20,23.5099525 C20,24.3313878 20.6899532,25 21.5387436,25 L29.4612264,25 C30.3090872,25 31,24.3313878 31,23.5099525 L31,14.5265473 L27.345008,11 Z M29.4612264,24.0870392 L21.5387436,24.0870392 C21.2097946,24.0870392 20.9422874,23.8284623 20.9422874,23.5099525 L20.9422874,12.4900475 C20.9422874,12.1720023 21.2097946,11.9134254 21.5387436,11.9134254 L26.9924598,11.9079373 L26.9924598,13.8597645 C26.9924598,14.430434 27.4707103,14.8935784 28.0595799,14.8935784 L30.035013,14.8880904 L30.056753,23.5099816 C30.056753,23.8284623 29.7902054,24.0870392 29.4612264,24.0870392 Z M25.7131272,15.7198339 C25.5954612,15.6054271 25.404059,15.6054271 25.2859133,15.7198339 L23.5968787,17.3556485 C23.5099186,17.4396533 23.4844303,17.5655008 23.5311789,17.6743906 C23.5784372,17.783774 23.6880968,17.8551476 23.8100209,17.8551476 L24.5487017,17.8551476 L24.5487017,19.9765524 C24.5487017,20.1918638 24.7287691,20.3662326 24.9504273,20.3662326 L26.0487031,20.3662326 C26.2708111,20.3662326 26.4508485,20.1918638 26.4508485,19.9765524 L26.4508485,17.8551476 L27.1895294,17.8551476 C27.3114834,17.8551476 27.4215628,17.783774 27.4688511,17.6743906 C27.5151798,17.5655008 27.4896016,17.4396243 27.4031513,17.3556485 L25.7131272,15.7198339 Z" id="Combined-Shape"></path>
                </g>
            </g>
        </g>
    </g>
</svg>