<?xml version="1.0" encoding="UTF-8"?>
<svg width="12px" height="12px" viewBox="0 0 12 12" version="1.1" xmlns="http://www.w3.org/2000/svg" xmlns:xlink="http://www.w3.org/1999/xlink">
    <!-- Generator: Sketch 50.2 (55047) - http://www.bohemiancoding.com/sketch -->
    <title>Shape</title>
    <desc>Created with Sketch.</desc>
    <defs></defs>
    <g id="Page-1" stroke="none" stroke-width="1" fill="none" fill-rule="evenodd">
        <g id="06._QLCV-Xem_Chi_Tiet_Cong_Viec" transform="translate(-1082.000000, -135.000000)" fill="#C2C7CE" fill-rule="nonzero">
            <g id="Group-6" transform="translate(327.000000, 110.000000)">
                <path d="M762.061266,31.0001251 L766.780117,26.2810774 C767.073294,25.9881382 767.073294,25.5128312 766.780117,25.219892 C766.48694,24.9267027 766.012153,24.9267027 765.718976,25.219892 L761.000125,29.9389397 L756.281024,25.219892 C755.987847,24.9267027 755.51306,24.9267027 755.219883,25.219892 C754.926706,25.5128312 754.926706,25.9881382 755.219883,26.2810774 L759.938984,31.0001251 L755.219883,35.7191728 C754.926706,36.012112 754.926706,36.487419 755.219883,36.7803581 C755.366471,36.9267027 755.558587,37 755.750453,37 C755.942319,37 756.134435,36.9267027 756.281024,36.780108 L761.000125,32.0610603 L765.718976,36.780108 C765.865565,36.9267027 766.057681,37 766.249547,37 C766.441413,37 766.633529,36.9267027 766.780117,36.780108 C767.073294,36.4871688 767.073294,36.0118618 766.780117,35.7189226 L762.061266,31.0001251 Z" id="Shape"></path>
            </g>
        </g>
    </g>
</svg>