<?xml version="1.0" encoding="UTF-8"?>
<svg width="12px" height="16px" viewBox="0 0 12 16" version="1.1" xmlns="http://www.w3.org/2000/svg" xmlns:xlink="http://www.w3.org/1999/xlink">
    <!-- Generator: Sketch 51.3 (57544) - http://www.bohemiancoding.com/sketch -->
    <title>Combined Shape</title>
    <desc>Created with Sketch.</desc>
    <defs></defs>
    <g id="Page-1" stroke="none" stroke-width="1" fill="none" fill-rule="evenodd">
        <g id="03._QLDA_Thong_Tin_Du_An" transform="translate(-843.000000, -986.000000)" fill="#4274ED" fill-rule="nonzero">
            <g id="Group-11" transform="translate(843.000000, 952.000000)">
                <path d="M11.9992147,37.2384126 C11.998152,37.1422874 11.9609566,37.0480997 11.8902853,36.9774121 L9.02201744,34.109719 C9.02189241,34.109594 9.02179864,34.1095627 9.02167361,34.109469 C8.95394042,34.0418126 8.86035797,34 8.75705469,34 L0.788855701,34 C0.3538567,34 0,34.3537507 0,34.7886578 L0,49.2113422 C0,49.6462181 0.353825443,50 0.788824444,50 L11.2111717,50 C11.6461395,50 11.9999962,49.6462493 11.9999962,49.2113422 L11.9999962,37.2422876 C12.0000587,37.2409126 11.9993398,37.2397563 11.9992147,37.2384126 Z M9.13175959,35.2790962 L10.7206609,36.8676619 L9.1712055,36.8676619 C9.14948212,36.8676619 9.13175959,36.8499431 9.13175959,36.8282243 L9.13175959,35.2790962 Z M11.2506176,49.2113735 C11.2506176,49.2330923 11.2329264,49.2507798 11.211203,49.2507798 L0.788855701,49.2507798 C0.767132319,49.2507798 0.749441047,49.2330923 0.749441047,49.2113735 L0.749441047,34.7886578 C0.749441047,34.766939 0.767132319,34.7492515 0.788855701,34.7492515 L8.3823498,34.7492515 L8.3823498,36.8282243 C8.3823498,37.2631001 8.73623775,37.6169446 9.17123675,37.6169446 L11.2506489,37.6169446 L11.2506489,49.2113735 L11.2506176,49.2113735 Z M9.31598637,39.1254475 L2.6840723,39.1254475 C2.47715318,39.1254475 2.30936741,39.2931666 2.30936741,39.5000732 C2.30936741,39.7069486 2.47715318,39.874699 2.6840723,39.874699 L9.31595511,39.874699 C9.52287423,39.874699 9.69066001,39.7069486 9.69066001,39.5000732 C9.69069126,39.2931666 9.52287423,39.1254475 9.31598637,39.1254475 Z M9.31598637,41.3860457 L2.6840723,41.3860457 C2.47715318,41.3860457 2.30936741,41.553796 2.30936741,41.7606714 C2.30936741,41.9675468 2.47715318,42.1352971 2.6840723,42.1352971 L9.31595511,42.1352971 C9.52287423,42.1352971 9.69066001,41.9675468 9.69066001,41.7606714 C9.69069126,41.553796 9.52287423,41.3860457 9.31598637,41.3860457 Z M9.31598637,43.6466126 L2.6840723,43.6466126 C2.47715318,43.6466126 2.30936741,43.8143629 2.30936741,44.0212383 C2.30936741,44.228145 2.47715318,44.3958641 2.6840723,44.3958641 L9.31595511,44.3958641 C9.52287423,44.3958641 9.69066001,44.228145 9.69066001,44.0212383 C9.69069126,43.8143942 9.52287423,43.6466126 9.31598637,43.6466126 Z M6.00002933,45.907242 L2.6840723,45.907242 C2.47715318,45.907242 2.30936741,46.0749923 2.30936741,46.2818677 C2.30936741,46.4887744 2.47715318,46.6564935 2.6840723,46.6564935 L6.00002933,46.6564935 C6.20694845,46.6564935 6.37473423,46.4887744 6.37473423,46.2818677 C6.37473423,46.0749611 6.20694845,45.907242 6.00002933,45.907242 Z" id="Combined-Shape"></path>
            </g>
        </g>
    </g>
</svg>