<?xml version="1.0" encoding="UTF-8"?>
<svg width="13px" height="13px" viewBox="0 0 13 13" version="1.1" xmlns="http://www.w3.org/2000/svg" xmlns:xlink="http://www.w3.org/1999/xlink">
    <!-- Generator: Sketch 50.2 (55047) - http://www.bohemiancoding.com/sketch -->
    <title>Combined Shape</title>
    <desc>Created with Sketch.</desc>
    <defs></defs>
    <g id="Page-1" stroke="none" stroke-width="1" fill="none" fill-rule="evenodd">
        <g id="02._QLDV_Danh_Sach_Doan_Vao-Them_Doan_Vao" transform="translate(-497.000000, -391.000000)" fill="#5C6376" fill-rule="nonzero">
            <g id="Group-4-Copy-7" transform="translate(477.000000, 379.000000)">
                <path d="M32.9302492,14.039442 C33.0026817,14.1623233 33.0197649,14.3098551 32.9765051,14.4466405 C32.9644418,14.4849828 31.7371625,18.1001497 30.5279914,21.3265862 C29.6910225,23.5590401 29.0230454,24.9524996 27.1222698,24.9976878 C26.417577,25.0297415 25.769206,24.7179346 25.7682073,24.7174039 L21.6148223,22.8135532 C21.6148223,22.8135532 19.6514173,22.1930704 20.0545532,19.6132798 L25.7274969,21.9268497 C25.7274969,21.9268497 25.6956171,24.2131156 27.471896,23.9617278 C27.471896,23.9632668 27.4728422,23.9642751 27.4738671,23.9653099 C28.3430049,23.8170086 28.8002812,23.0908123 29.5949364,20.9701482 C30.5064141,18.5395877 31.4572618,15.9291763 31.8568496,14.678499 L25.4586345,13.030096 L22.7986578,19.8753876 L21.861608,19.5306248 L24.6684472,12.331416 C24.7524437,12.097302 24.9918705,11.9619495 25.2345562,12.0094463 L32.5982843,13.8017724 C32.737052,13.8299521 32.8573173,13.9162953 32.9302492,14.039442 Z M29.5737008,16.9426882 L27.4123941,16.2694813 C27.1458971,16.1960868 26.9899149,15.9188013 27.0623737,15.6504313 C27.1348062,15.3823001 27.4124992,15.2246321 27.6750277,15.298 L29.8362555,15.9714723 C30.1017276,16.0446013 30.2591553,16.3218604 30.1862497,16.5902569 C30.1249081,16.8137039 29.9247462,16.9609704 29.7059768,16.9609704 C29.6617446,16.9609704 29.6169605,16.9546287 29.5737008,16.9426882 Z M26.1968102,17.6673189 C26.2844599,17.4042028 26.5658324,17.2622432 26.828466,17.3499928 L28.9775516,18.1251452 C29.2396859,18.2133194 29.3800568,18.4984061 29.2931956,18.7620264 C29.2231809,18.9734799 29.0267511,19.107028 28.8170489,19.1059136 C28.7653002,19.1056217 28.7139982,19.0977409 28.6618026,19.0802016 L26.5119022,18.304545 C26.2508193,18.2163178 26.1101856,17.9316556 26.1968102,17.6673189 Z M26.0076604,19.4516582 L28.1623966,20.2235999 C28.4239527,20.3099432 28.5667678,20.5948176 28.4808001,20.8593932 C28.4118631,21.0706874 28.2166947,21.2052174 28.0074657,21.2052174 C27.9550598,21.2052174 27.9033636,21.197602 27.8514572,21.1798504 L25.6970626,20.4074044 C25.4355066,20.3210877 25.2921659,20.0356826 25.3781598,19.7726195 C25.4636806,19.5074868 25.7461044,19.3632983 26.0076604,19.4516582 Z M25.9278953,14.7107914 C26.2332105,14.7107914 26.4809423,14.9540332 26.4809423,15.2536609 C26.4809423,15.5535273 26.2332105,15.7965037 25.9278953,15.7965037 C25.6223436,15.7965037 25.3746117,15.5535008 25.3746117,15.2536609 C25.374638,14.9540332 25.6223436,14.7107914 25.9278953,14.7107914 Z M25.1455136,16.7288731 C25.4510916,16.7288731 25.6985607,16.9718761 25.6985607,17.2714772 C25.6985607,17.5708395 25.4510916,17.8138159 25.1455136,17.8138159 C24.8399619,17.8138159 24.5922301,17.5708395 24.5922301,17.2714772 C24.5922301,16.9719026 24.8399619,16.7288731 25.1455136,16.7288731 Z M24.3110678,18.810956 C24.6166458,18.810956 24.8643514,19.0542244 24.8643514,19.3543561 C24.8643514,19.6539307 24.6166458,19.8966683 24.3110678,19.8966683 C24.0055161,19.8966683 23.7577843,19.6539837 23.7577843,19.3543561 C23.7577843,19.0542244 24.0055161,18.810956 24.3110678,18.810956 Z" id="Combined-Shape"></path>
            </g>
        </g>
    </g>
</svg>