<?xml version="1.0" encoding="UTF-8"?>
<svg width="16px" height="16px" viewBox="0 0 16 16" version="1.1" xmlns="http://www.w3.org/2000/svg" xmlns:xlink="http://www.w3.org/1999/xlink">
    <!-- Generator: Sketch 51.3 (57544) - http://www.bohemiancoding.com/sketch -->
    <title>Combined Shape</title>
    <desc>Created with Sketch.</desc>
    <defs></defs>
    <g id="Page-1" stroke="none" stroke-width="1" fill="none" fill-rule="evenodd">
        <g id="02.1._QLDV_DS_Thanh_Vien" transform="translate(-157.000000, -93.000000)" fill="#5C6376" fill-rule="nonzero">
            <g id="Group-2" transform="translate(137.000000, 70.000000)">
                <path d="M35.9141528,25.5100824 C36.0033006,25.6613209 36.024326,25.8428986 35.9710832,26.0112498 C35.956236,26.0584404 34.4457385,30.5078766 32.9575279,34.4788753 C31.9274123,37.2265109 31.1052866,38.941538 28.7658705,38.9971543 C27.8985563,39.036605 27.1005613,38.6528426 27.0993321,38.6521894 L21.9874736,36.3089886 C21.9874736,36.3089886 19.5709751,35.5453174 20.0671424,32.3701905 L27.0492269,35.2176612 C27.0492269,35.2176612 27.0099903,38.0315269 29.1961797,37.7221265 C29.1961797,37.7240206 29.1973442,37.7252616 29.1986057,37.7265353 C30.2683137,37.5440105 30.8311153,36.6502305 31.8091525,34.0401824 C32.9309712,31.0487233 34.1012453,27.8359092 34.5930457,26.2966141 L26.7183194,24.2678104 L23.4445019,32.6927848 L22.2912098,32.2684613 L25.7457811,23.4078966 C25.8491614,23.1197564 26.1438406,22.9531687 26.4425308,23.0116262 L35.5055807,25.2175661 C35.6763717,25.2522487 35.8243905,25.3585173 35.9141528,25.5100824 Z M31.7830163,29.0833085 L29.1229466,28.2547462 C28.7949503,28.1644146 28.6029721,27.82314 28.6921522,27.4928385 C28.7812999,27.1628309 29.123076,26.968778 29.446188,27.0590769 L32.1061606,27.8879659 C32.4328955,27.9779709 32.6266527,28.3192128 32.5369227,28.6495469 C32.4614253,28.9245587 32.2150722,29.1058098 31.9458177,29.1058098 C31.891378,29.1058098 31.8362591,29.0980045 31.7830163,29.0833085 Z M27.6268434,29.9751617 C27.7347199,29.6513265 28.0810245,29.476607 28.4042659,29.5846065 L31.0492943,30.5386403 C31.3719211,30.6471623 31.5446852,30.9980383 31.4377791,31.322494 C31.3516073,31.5827445 31.1098475,31.7471114 30.8517525,31.7457398 C30.7880617,31.7453805 30.7249208,31.7356812 30.6606801,31.7140943 L28.0146489,30.75944 C27.693316,30.6508527 27.5202284,30.3004993 27.6268434,29.9751617 Z M27.3940436,32.1712716 L30.0460266,33.1213538 C30.3679418,33.2276224 30.5437142,33.5782371 30.4379079,33.9038685 C30.3530623,34.163923 30.1128551,34.3294983 29.8553424,34.3294983 C29.7908429,34.3294983 29.7272168,34.3201255 29.6633319,34.2982774 L27.0117694,33.3475747 C26.6898542,33.2413387 26.5134349,32.8900709 26.6192736,32.5663009 C26.72453,32.2399837 27.0721285,32.0625209 27.3940436,32.1712716 Z M27.2958711,26.3363587 C27.6716437,26.3363587 27.9765444,26.6357332 27.9765444,27.0045057 C27.9765444,27.373572 27.6716437,27.67262 27.2958711,27.67262 C26.9198075,27.67262 26.6149067,27.3735394 26.6149067,27.0045057 C26.6149391,26.6357332 26.9198075,26.3363587 27.2958711,26.3363587 Z M26.3329399,28.8201515 C26.7090359,28.8201515 27.0136131,29.1192321 27.0136131,29.4879719 C27.0136131,29.8564178 26.7090359,30.1554657 26.3329399,30.1554657 C25.9568762,30.1554657 25.6519755,29.8564178 25.6519755,29.4879719 C25.6519755,29.1192648 25.9568762,28.8201515 26.3329399,28.8201515 Z M25.3059296,31.3827151 C25.6820256,31.3827151 25.986894,31.6821223 25.986894,32.0515152 C25.986894,32.4202224 25.6820256,32.7189764 25.3059296,32.7189764 C24.929866,32.7189764 24.6249652,32.4202877 24.6249652,32.0515152 C24.6249652,31.6821223 24.929866,31.3827151 25.3059296,31.3827151 Z" id="Combined-Shape"></path>
            </g>
        </g>
    </g>
</svg>