<?xml version="1.0" encoding="UTF-8"?>
<svg width="12px" height="13px" viewBox="0 0 12 13" version="1.1" xmlns="http://www.w3.org/2000/svg" xmlns:xlink="http://www.w3.org/1999/xlink">
    <!-- Generator: Sketch 50.2 (55047) - http://www.bohemiancoding.com/sketch -->
    <title>Combined Shape</title>
    <desc>Created with Sketch.</desc>
    <defs></defs>
    <g id="Page-1" stroke="none" stroke-width="1" fill="none" fill-rule="evenodd">
        <g id="02.1._QLDA_Them_Moi_Du_An-Chi_Tiet_1" transform="translate(-1073.000000, -2357.000000)" fill="#FFFFFF" fill-rule="nonzero">
            <g id="Group-4-Copy-17" transform="translate(1053.000000, 2345.000000)">
                <g id="Group-5" transform="translate(20.000000, 10.000000)">
                    <path d="M8.52256637,7.5859375 C8.52256637,7.86640234 8.28840363,8.09375 7.99953145,8.09375 L2.61227176,8.09375 C2.32339957,8.09375 2.08923684,7.86640234 2.08923684,7.5859375 C2.08923684,7.30547266 2.32339957,7.078125 2.61227176,7.078125 L7.99953145,7.078125 C8.28840363,7.078125 8.52256637,7.30547266 8.52256637,7.5859375 Z M2.61227176,9.109375 L5.88414286,9.109375 C6.17301505,9.109375 6.40717778,9.33672266 6.40717778,9.6171875 C6.40717778,9.89765234 6.17301505,10.125 5.88414286,10.125 L2.61227176,10.125 C2.32339957,10.125 2.08923684,9.89765234 2.08923684,9.6171875 C2.08923684,9.33672266 2.32339957,9.109375 2.61227176,9.109375 Z M3.84140383,13.984375 C4.13027601,13.984375 4.36443875,14.2117227 4.36443875,14.4921875 C4.36443875,14.7726523 4.13027601,15 3.84140383,15 L2.09213968,15 C0.938533862,15 0,14.0887813 0,12.96875 L0,4.03125 C0,2.91121875 0.938533862,2 2.09213968,2 L8.52256637,2 C9.67617219,2 10.6147061,2.91121875 10.6147061,4.03125 L10.6147061,7.15429688 C10.6147061,7.43476172 10.3805433,7.66210938 10.0916711,7.66210938 C9.80279895,7.66210938 9.56863621,7.43476172 9.56863621,7.15429688 L9.56863621,4.03125 C9.56863621,3.47123437 9.09936928,3.015625 8.52256637,3.015625 L2.09213968,3.015625 C1.51533677,3.015625 1.04606984,3.47123437 1.04606984,4.03125 L1.04606984,12.96875 C1.04606984,13.5287656 1.51533677,13.984375 2.09213968,13.984375 L3.84140383,13.984375 Z M11.5411317,9.35241406 C12.1529518,9.94645313 12.1529518,10.9129219 11.5411578,11.5069102 L8.67563254,14.2838066 C8.61182228,14.3456582 8.53263479,14.3904219 8.44575869,14.4137813 L6.33465899,14.981541 C6.28855346,14.993957 6.24158493,15 6.19506097,15 C6.05601214,15 5.92044149,14.9460957 5.82064642,14.846793 C5.68742943,14.7142285 5.63912715,14.521793 5.69456885,14.3445664 L6.31993556,12.3456895 C6.34498893,12.2656582 6.38996993,12.1928887 6.45095581,12.1338047 L9.32249598,9.35200781 C9.93389765,8.75840039 10.9293377,8.75842578 11.5411317,9.35241406 Z M8.0339733,13.4706719 L9.9601017,11.6041055 L9.2202688,10.8858047 L7.28271209,12.7628066 L6.97189859,13.7563164 L8.0339733,13.4706719 Z M10.8018479,10.788457 C11.0054131,10.5907656 11.0054131,10.2686094 10.8014818,10.0706133 C10.5975505,9.87261719 10.2657372,9.87261719 10.0618058,10.0706133 L9.96080779,10.1684688 L10.7005099,10.8866426 L10.8018479,10.788457 Z M7.99953145,5.046875 C8.28840363,5.046875 8.52256637,5.27422266 8.52256637,5.5546875 C8.52256637,5.83515234 8.28840363,6.0625 7.99953145,6.0625 L2.61227176,6.0625 C2.32339957,6.0625 2.08923684,5.83515234 2.08923684,5.5546875 C2.08923684,5.27422266 2.32339957,5.046875 2.61227176,5.046875 L7.99953145,5.046875 Z" id="Combined-Shape"></path>
                </g>
            </g>
        </g>
    </g>
</svg>