<?xml version="1.0" encoding="UTF-8"?>
<svg width="13px" height="13px" viewBox="0 0 13 13" version="1.1" xmlns="http://www.w3.org/2000/svg" xmlns:xlink="http://www.w3.org/1999/xlink">
    <!-- Generator: Sketch 51.3 (57544) - http://www.bohemiancoding.com/sketch -->
    <title>Combined Shape</title>
    <desc>Created with Sketch.</desc>
    <defs></defs>
    <g id="Page-1" stroke="none" stroke-width="1" fill="none" fill-rule="evenodd">
        <g id="03._QLDA_Thong_Tin_Du_An" transform="translate(-848.000000, -1564.000000)" fill="#FFFFFF" fill-rule="nonzero">
            <g id="Group-7" transform="translate(828.000000, 1552.000000)">
                <g id="Group-4-Copy-6">
                    <path d="M25.0275073,17.8274237 C24.9770634,17.6444579 24.9132204,17.3264271 25.0267191,17.1780127 C25.043271,17.1575959 25.0613992,17.1395349 25.0826802,17.1254002 C24.9415951,16.2812443 25.0480001,15.9365146 25.0724338,15.871338 C25.337264,15.0609484 26.209785,14.7130776 26.2468297,14.6981577 C26.2752044,14.687164 26.4367823,14.6321957 26.5447637,14.6479009 C26.5865375,14.6533978 26.6393459,14.6392631 26.6558978,14.6345515 C26.6756024,14.6298399 26.6968834,14.6282694 26.7173762,14.6298399 C26.729199,14.6306252 27.0129457,14.6620356 27.4637876,14.8002416 L27.7364996,14.894473 C28.308722,15.0625189 28.576705,15.3813349 28.6200552,15.435518 C29.0976954,15.976563 28.9637039,16.7712474 28.8588753,17.1552401 C28.8628162,17.1623075 28.870698,17.1693748 28.8762153,17.1772274 C28.989714,17.3256418 28.9242946,17.6444579 28.874639,17.8274237 C28.8470525,17.9915433 28.7839977,18.0944126 28.7209429,18.158804 C28.5680349,19.0594986 27.7719679,20.0410752 26.8970824,20.0410752 C26.1475184,20.0410752 25.3270176,19.1333132 25.179627,18.1572335 C25.1173604,18.0920568 25.0543056,17.9899728 25.0275073,17.8274237 Z M29.6943515,20.3528239 C30.1160306,20.5130172 30.2949486,20.7540924 30.2941604,20.7564482 C30.918403,21.6791302 30.9924924,23.7318031 30.9924924,23.7318031 C30.9838224,24.1990335 30.7804706,24.248505 30.7804706,24.248505 C29.3451855,24.8861371 27.0925524,25 27.0925524,25 L27.0901878,24.9882211 C26.9774773,24.9952884 26.8639787,25.0015705 26.7425982,24.9984295 C26.7425982,24.9984295 24.489965,24.8861371 23.0546799,24.248505 C23.0546799,24.248505 22.8513281,24.1998188 22.8434463,23.7302326 C22.8434463,23.7302326 22.9167475,21.6783449 23.5409901,20.7548777 C23.5409901,20.7548777 23.7191199,20.5114467 24.1415872,20.3512534 C24.1415872,20.3512534 25.5618968,19.9209302 25.6801246,19.5510722 C25.6801246,19.5510722 25.7550022,20.900151 26.8844715,20.9998792 L27.057084,21.0077318 C28.3047811,20.9755361 28.1566023,19.5542132 28.1566023,19.5542132 C28.2007407,19.6877076 28.4135507,19.8298399 28.6673463,19.9546965 C28.7288247,19.9829659 28.7950323,20.0096648 28.8722744,20.0355784 C28.8722744,20.0355784 29.2277459,20.1478707 29.6044984,20.3237693 C29.6588832,20.341045 29.6943515,20.3528239 29.6943515,20.3528239 Z M28.1069466,19.6154636 C28.1227103,19.5864089 28.138474,19.5636364 28.1526614,19.5337964 C28.1526614,19.5337964 28.1534496,19.5408638 28.1566023,19.5542132 C28.1392622,19.57463 28.1234985,19.5950468 28.1069466,19.6154636 Z M25.6872182,19.5495017 C25.6856419,19.5440048 25.6848537,19.5424343 25.6848537,19.5424343 C25.6832773,19.5440048 25.6809128,19.5479311 25.6801246,19.5510722 L25.6832773,19.5345817 L25.6872182,19.5495017 Z M26.8584614,12 C30.2445047,12 33,14.7452733 33,18.1187557 C33,19.1372395 32.7438398,20.1431592 32.2598942,21.0312896 L31.2210661,20.4682573 C31.612006,19.7536696 31.8185105,18.9409242 31.8185105,18.1187557 C31.8185105,15.3946844 29.5934638,13.1778919 26.8592496,13.1778919 C24.1250353,13.1778919 21.8999886,15.3938991 21.8999886,18.1187557 C21.8999886,18.5993355 21.9756544,19.0657807 22.1088577,19.5157354 L22.242061,18.9228632 C22.2909285,18.7061311 22.5045266,18.5710661 22.7244303,18.6189671 C22.9411812,18.6676533 23.0783254,18.8828149 23.0294579,19.099547 L22.6361536,20.8436122 C22.5935916,21.0297191 22.4264963,21.1569314 22.242061,21.1569314 C22.2128981,21.1569314 22.1837353,21.1537904 22.1537843,21.1475083 L20.3157365,20.7368167 C20.0974092,20.6881305 19.9610532,20.4729689 20.0099207,20.257022 C20.0587881,20.0395047 20.2739627,19.9012987 20.49229,19.9523407 L21.0455959,20.0756267 C20.8335741,19.4474177 20.7169227,18.7854425 20.7169227,18.1187557 C20.7169227,14.7452733 23.472418,12 26.8584614,12 Z" id="Combined-Shape"></path>
                </g>
            </g>
        </g>
    </g>
</svg>