<?xml version="1.0" encoding="UTF-8"?>
<svg width="11px" height="11px" viewBox="0 0 11 11" version="1.1" xmlns="http://www.w3.org/2000/svg" xmlns:xlink="http://www.w3.org/1999/xlink">
    <!-- Generator: Sketch 50.2 (55047) - http://www.bohemiancoding.com/sketch -->
    <title>Shape</title>
    <desc>Created with Sketch.</desc>
    <defs></defs>
    <g id="Page-1" stroke="none" stroke-width="1" fill="none" fill-rule="evenodd">
        <g id="02._QLDA_Them_Moi_Du_An" transform="translate(-302.000000, -971.000000)" fill="#5C6376" fill-rule="nonzero">
            <g id="Group-4" transform="translate(263.000000, 151.000000)">
                <g id="Group-4-Copy-4" transform="translate(15.000000, 807.000000)">
                    <g id="Group-3" transform="translate(20.000000, 9.000000)">
                        <path d="M14.2386632,12.9559922 C14.3960809,13.1134099 14.5237822,13.6686059 14.0962128,14.0961754 C13.6686433,14.5237448 13.113466,14.3960996 12.956067,14.2387006 L9.50001608,10.7826497 L6.04395115,14.2387146 C5.88655146,14.3961143 5.33137364,14.5237618 4.90380592,14.0961941 C4.47623821,13.6686264 4.6038857,13.1134485 4.76128538,12.9560489 L8.21735031,9.49998392 L4.76129943,6.04393304 C4.6038817,5.8865153 4.47629254,5.33131931 4.90382461,4.90378723 C5.33135669,4.47625516 5.88653399,4.60386301 6.04393304,4.76129943 L9.49996523,8.21733163 L12.9560302,4.76126669 C13.1134485,4.60384832 13.6686264,4.47623821 14.0961754,4.90378723 C14.5237244,5.33133626 14.396133,5.8864954 14.2386959,6.04393246 L10.7826497,9.4999787 L14.2386632,12.9559922 Z" id="Shape"></path>
                    </g>
                </g>
            </g>
        </g>
    </g>
</svg>