<?xml version="1.0" encoding="UTF-8"?>
<svg width="12px" height="13px" viewBox="0 0 12 13" version="1.1" xmlns="http://www.w3.org/2000/svg" xmlns:xlink="http://www.w3.org/1999/xlink">
    <!-- Generator: Sketch 51.3 (57544) - http://www.bohemiancoding.com/sketch -->
    <title>Combined Shape</title>
    <desc>Created with Sketch.</desc>
    <defs></defs>
    <g id="Page-1" stroke="none" stroke-width="1" fill="none" fill-rule="evenodd">
        <g id="05._QLDA_Giao_Viec_Moi" transform="translate(-998.000000, -706.000000)" fill="#FFFFFF" fill-rule="nonzero">
            <g id="Group" transform="translate(327.000000, 110.000000)">
                <g id="Group-4-Copy-3" transform="translate(651.000000, 584.000000)">
                    <g id="Group-5" transform="translate(20.000000, 10.000000)">
                        <path d="M1.36840601,12.6546948 L5.68814534,12.6546948 L6.65548981,14.0750441 L0.684069763,14.0750441 C0.306192504,14.0750441 0,13.7569523 0,13.3647312 L0,2.71031299 C0,2.31809187 0.306192504,2 0.684069763,2 L9.23827288,2 C9.61615014,2 9.92234264,2.31809187 9.92234264,2.71031299 L9.92234264,10.0020852 L8.55340366,11.1757059 L8.55340366,3.42062597 L1.36840601,3.42062597 L1.36840601,12.6546948 Z M11.8927407,9.6366944 C12.0182557,9.76005872 12.0355772,9.96059491 11.9343125,10.1047044 L8.57658795,14.8547841 C8.51209832,14.9466159 8.40950118,15 8.30077486,15 C8.29970891,15 8.29864297,15 8.29757702,15 C8.18778476,14.9988936 8.08465465,14.9430201 8.02123096,14.8498053 L5.75450038,11.5203515 C5.66096376,11.3831571 5.67295564,11.1970042 5.7827479,11.0741931 C5.89333962,10.9502755 6.07108584,10.9245516 6.20992509,11.0108513 L8.30157431,12.3133684 L11.4402473,9.6209281 C11.5729574,9.50752144 11.7666928,9.51333007 11.8927407,9.6366944 Z M7.01418007,4.48609545 C7.39205733,4.48609545 7.69771686,4.80418732 7.69771686,5.19640843 C7.69771686,5.58862955 7.39179084,5.90672142 7.01391358,5.90672142 L2.90789609,5.90672142 C2.53001883,5.90672142 2.22382632,5.58862955 2.22382632,5.19640843 C2.22382632,4.80418732 2.53001883,4.48609545 2.90789609,4.48609545 L7.01418007,4.48609545 Z M7.01418007,6.6167578 C7.39205733,6.6167578 7.69851632,6.93484968 7.69771686,7.32707079 C7.69771686,7.7195685 7.39179084,8.03738377 7.01391358,8.03738377 L2.90789609,8.03738377 C2.53001883,8.03738377 2.22382632,7.7192919 2.22382632,7.32707079 C2.22382632,6.93484968 2.53001883,6.6167578 2.90789609,6.6167578 L7.01418007,6.6167578 Z M7.01418007,8.74769676 C7.39205733,8.74769676 7.69851632,9.06578863 7.69771686,9.45800974 C7.69771686,9.85023086 7.39179084,10.1683227 7.01391358,10.1683227 L2.90789609,10.1683227 C2.53001883,10.1683227 2.22382632,9.85023086 2.22382632,9.45800974 C2.22382632,9.06578863 2.53001883,8.74769676 2.90789609,8.74769676 L7.01418007,8.74769676 Z" id="Combined-Shape"></path>
                    </g>
                </g>
            </g>
        </g>
    </g>
</svg>