<?xml version="1.0" encoding="UTF-8"?>
<svg width="14px" height="15px" viewBox="0 0 14 15" version="1.1" xmlns="http://www.w3.org/2000/svg" xmlns:xlink="http://www.w3.org/1999/xlink">
    <!-- Generator: Sketch 50.2 (55047) - http://www.bohemiancoding.com/sketch -->
    <title>Combined Shape</title>
    <desc>Created with Sketch.</desc>
    <defs></defs>
    <g id="Page-1" stroke="none" stroke-width="1" fill="none" fill-rule="evenodd">
        <g id="03.2._QLDA_Giai_Doan_3" transform="translate(-1277.000000, -762.000000)" fill="#FFFFFF" fill-rule="nonzero">
            <g id="Group-4-Copy-5" transform="translate(1257.000000, 751.000000)">
                <g id="Group-5" transform="translate(20.000000, 10.000000)">
                    <path d="M1.59647368,13.2938786 L6.63616957,13.2938786 L7.76473811,14.9327432 L0.79808139,14.9327432 C0.357224588,14.9327432 0,14.5657142 0,14.1131513 L0,1.81959191 C0,1.36702909 0.357224588,1 0.79808139,1 L10.777985,1 C11.2188418,1 11.5760664,1.36702909 11.5760664,1.81959191 L11.5760664,10.2331752 L9.97897094,11.5873529 L9.97897094,2.63918381 L1.59647368,2.63918381 L1.59647368,13.2938786 Z M13.8748642,9.81157046 C14.0212983,9.95391391 14.0415068,10.1853018 13.9233646,10.3515819 L10.0060193,15.8324432 C9.93078137,15.9384029 9.81108471,16 9.68423733,16 C9.68299373,16 9.68175013,16 9.68050653,16 C9.55241555,15.9987234 9.43209709,15.9342539 9.35810279,15.8266984 L6.71358377,11.985021 C6.60445772,11.8267197 6.61844824,11.6119279 6.74653922,11.4702228 C6.87556289,11.327241 7.08293348,11.2975595 7.2449126,11.3971361 L9.68517003,12.9000404 L13.3469552,9.79337858 C13.5017836,9.66252473 13.7278083,9.669227 13.8748642,9.81157046 Z M8.18321008,3.86857167 C8.62406688,3.86857167 8.98066967,4.23560076 8.98066967,4.68816358 C8.98066967,5.1407264 8.62375598,5.50775548 8.18289918,5.50775548 L3.39254544,5.50775548 C2.95168863,5.50775548 2.59446405,5.1407264 2.59446405,4.68816358 C2.59446405,4.23560076 2.95168863,3.86857167 3.39254544,3.86857167 L8.18321008,3.86857167 Z M8.18321008,6.32702823 C8.62406688,6.32702823 8.98160237,6.69405732 8.98066967,7.14662014 C8.98066967,7.59950212 8.62375598,7.96621205 8.18289918,7.96621205 L3.39254544,7.96621205 C2.95168863,7.96621205 2.59446405,7.59918296 2.59446405,7.14662014 C2.59446405,6.69405732 2.95168863,6.32702823 3.39254544,6.32702823 L8.18321008,6.32702823 Z M8.18321008,8.78580395 C8.62406688,8.78580395 8.98160237,9.15283304 8.98066967,9.60539586 C8.98066967,10.0579587 8.62375598,10.4249878 8.18289918,10.4249878 L3.39254544,10.4249878 C2.95168863,10.4249878 2.59446405,10.0579587 2.59446405,9.60539586 C2.59446405,9.15283304 2.95168863,8.78580395 3.39254544,8.78580395 L8.18321008,8.78580395 Z" id="Combined-Shape"></path>
                </g>
            </g>
        </g>
    </g>
</svg>