<?xml version="1.0" encoding="UTF-8"?>
<svg width="14px" height="14px" viewBox="0 0 14 14" version="1.1" xmlns="http://www.w3.org/2000/svg" xmlns:xlink="http://www.w3.org/1999/xlink">
    <!-- Generator: Sketch 51.3 (57544) - http://www.bohemiancoding.com/sketch -->
    <title>LS van ban</title>
    <desc>Created with Sketch.</desc>
    <defs></defs>
    <g id="Page-1" stroke="none" stroke-width="1" fill="none" fill-rule="evenodd">
        <g id="06._QLDA_Xem_Chi_Tiet_Du_An" transform="translate(-1229.000000, -825.000000)" fill="#4274ED" fill-rule="nonzero">
            <g id="LS-van-ban" transform="translate(1229.000000, 825.000000)">
                <path d="M13.4246575,4.24827586 C13.8082192,5.11724138 13.9041096,5.9862069 14,6.95172414 C14,7.91724138 13.8082192,8.7862069 13.4246575,9.65517241 C12.6575342,11.3931034 11.4109589,12.6482759 9.68493151,13.4206897 C8.82191781,13.8068966 7.95890411,14 7,14 C6.04109589,14 5.17808219,13.8068966 4.31506849,13.4206897 C2.5890411,12.6482759 1.34246575,11.3931034 0.575342466,9.65517241 C0.191780822,8.7862069 0,7.91724138 0,6.95172414 C0,5.9862069 0.191780822,5.11724138 0.575342466,4.24827586 C1.34246575,2.60689655 2.5890411,1.35172414 4.31506849,0.579310345 C6.04109589,-0.193103448 7.95890411,-0.193103448 9.68493151,0.579310345 C11.4109589,1.25517241 12.6575342,2.51034483 13.4246575,4.24827586 Z M7.81543624,6.92307692 L9.7885906,8.94230769 C10.0704698,9.13461538 10.0704698,9.51923077 9.7885906,9.80769231 C9.60067114,9.90384615 9.50671141,10 9.31879195,10 C9.13087248,10 8.94295302,9.90384615 8.84899329,9.80769231 L6.68791946,7.59615385 C6.59395973,7.5 6.5,7.30769231 6.5,7.11538462 C6.5,7.11538462 6.5,7.01923077 6.5,7.01923077 L6.5,3.17307692 C6.5,2.78846154 6.78187919,2.5 7.15771812,2.5 C7.53355705,2.5 7.81543624,2.78846154 7.81543624,3.17307692 L7.81543624,6.92307692 Z M13,7 C13,5.9 12.7,4.9 12.2,4 C11.6,3.1 10.9,2.3 10,1.8 C9.1,1.3 8.1,1 7,1 C5.9,1 4.9,1.3 4,1.8 C3,2.4 2.3,3.1 1.8,4 C1.3,4.9 1,5.9 1,7 C1,7.8 1.2,8.6 1.5,9.3 C1.9,10 2.3,10.7 2.8,11.2 C3.3,11.8 4,12.2 4.7,12.5 C5.4,12.8 6.2,13 7,13 C8.1,13 9.1,12.7 10,12.2 C10.9,11.6 11.7,10.9 12.2,10 C12.7,9.1 13,8.1 13,7 Z"></path>
            </g>
        </g>
    </g>
</svg>