<?xml version="1.0" encoding="UTF-8"?>
<svg width="16px" height="16px" viewBox="0 0 16 16" version="1.1" xmlns="http://www.w3.org/2000/svg" xmlns:xlink="http://www.w3.org/1999/xlink">
    <!-- Generator: Sketch 51.3 (57544) - http://www.bohemiancoding.com/sketch -->
    <title>Shape</title>
    <desc>Created with Sketch.</desc>
    <defs></defs>
    <g id="Page-1" stroke="none" stroke-width="1" fill="none" fill-rule="evenodd">
        <g id="08._QLDA_Giao_Viec_Moi" transform="translate(-465.000000, -133.000000)" fill="#5C6376" fill-rule="nonzero">
            <path d="M480.342466,137.855172 C480.780822,138.848276 480.890411,139.841379 481,140.944828 C481,142.048276 480.780822,143.041379 480.342466,144.034483 C479.465753,146.02069 478.041096,147.455172 476.068493,148.337931 C475.082192,148.77931 474.09589,149 473,149 C471.90411,149 470.917808,148.77931 469.931507,148.337931 C467.958904,147.455172 466.534247,146.02069 465.657534,144.034483 C465.219178,143.041379 465,142.048276 465,140.944828 C465,139.841379 465.219178,138.848276 465.657534,137.855172 C466.534247,135.97931 467.958904,134.544828 469.931507,133.662069 C471.90411,132.77931 474.09589,132.77931 476.068493,133.662069 C478.041096,134.434483 479.465753,135.868966 480.342466,137.855172 Z M473.931927,140.912088 L476.186961,143.21978 C476.509108,143.43956 476.509108,143.879121 476.186961,144.208791 C475.972196,144.318681 475.864813,144.428571 475.650048,144.428571 C475.435283,144.428571 475.220518,144.318681 475.113135,144.208791 L472.643337,141.681319 C472.535954,141.571429 472.428571,141.351648 472.428571,141.131868 C472.428571,141.131868 472.428571,141.021978 472.428571,141.021978 L472.428571,136.626374 C472.428571,136.186813 472.750719,135.857143 473.180249,135.857143 C473.609779,135.857143 473.931927,136.186813 473.931927,136.626374 L473.931927,140.912088 Z M479.857143,141 C479.857143,139.742857 479.514286,138.6 478.942857,137.571429 C478.257143,136.542857 477.457143,135.628571 476.428571,135.057143 C475.4,134.485714 474.257143,134.142857 473,134.142857 C471.742857,134.142857 470.6,134.485714 469.571429,135.057143 C468.428571,135.742857 467.628571,136.542857 467.057143,137.571429 C466.485714,138.6 466.142857,139.742857 466.142857,141 C466.142857,141.914286 466.371429,142.828571 466.714286,143.628571 C467.171429,144.428571 467.628571,145.228571 468.2,145.8 C468.771429,146.485714 469.571429,146.942857 470.371429,147.285714 C471.171429,147.628571 472.085714,147.857143 473,147.857143 C474.257143,147.857143 475.4,147.514286 476.428571,146.942857 C477.457143,146.257143 478.371429,145.457143 478.942857,144.428571 C479.514286,143.4 479.857143,142.257143 479.857143,141 Z" id="Shape"></path>
        </g>
    </g>
</svg>