<?xml version="1.0" encoding="UTF-8"?>
<svg width="13px" height="13px" viewBox="0 0 13 13" version="1.1" xmlns="http://www.w3.org/2000/svg" xmlns:xlink="http://www.w3.org/1999/xlink">
    <!-- Generator: Sketch 50.2 (55047) - http://www.bohemiancoding.com/sketch -->
    <title>Combined Shape</title>
    <desc>Created with Sketch.</desc>
    <defs></defs>
    <g id="Page-1" stroke="none" stroke-width="1" fill="none" fill-rule="evenodd">
        <g id="02._QLDA_Them_Moi_Du_An" transform="translate(-1339.000000, -970.000000)" fill="#FFFFFF" fill-rule="nonzero">
            <g id="Group-4" transform="translate(263.000000, 151.000000)">
                <g id="Group-4-Copy-3" transform="translate(1056.000000, 807.000000)">
                    <g id="Group-5" transform="translate(20.000000, 10.000000)">
                        <path d="M12.4921875,10.9375 C12.2117227,10.9375 11.984375,10.7101523 11.984375,10.4296875 L11.984375,4.80017969 L10.1998203,3.015625 L10.1816406,3.015625 L10.1816406,6.01171875 C10.1816406,6.85174219 9.49822656,7.53515625 8.65820312,7.53515625 L3.5546875,7.53515625 C2.71466406,7.53515625 2.03125,6.85174219 2.03125,6.01171875 L2.03125,3.015625 C1.47123438,3.015625 1.015625,3.47123437 1.015625,4.03125 L1.015625,12.96875 C1.015625,13.5287656 1.47123438,13.984375 2.03125,13.984375 L2.03125,9.921875 C2.03125,9.64141016 2.25859766,9.4140625 2.5390625,9.4140625 L10.4609375,9.4140625 C10.7414023,9.4140625 10.96875,9.64141016 10.96875,9.921875 L10.96875,13.984375 C11.5287656,13.984375 11.984375,13.5287656 11.984375,12.96875 C11.984375,12.6882852 12.2117227,12.4609375 12.4921875,12.4609375 C12.7726523,12.4609375 13,12.6882852 13,12.96875 C13,14.0887813 12.0887813,15 10.96875,15 L2.03125,15 C0.91121875,15 0,14.0887813 0,12.96875 L0,4.03125 C0,2.91121875 0.91121875,2 2.03125,2 L10.4101562,2 C10.5448281,2 10.6740156,2.05349805 10.7692305,2.14873828 L12.8512617,4.23076953 C12.946502,4.32598437 13,4.45517187 13,4.58984375 L13,10.4296875 C13,10.7101523 12.7726523,10.9375 12.4921875,10.9375 Z M3.046875,10.4296875 L3.046875,13.984375 L9.953125,13.984375 L9.953125,10.4296875 L3.046875,10.4296875 Z M7.74414062,5.7578125 C7.46367578,5.7578125 7.23632812,5.53046484 7.23632812,5.25 L7.23632812,4.28515625 C7.23632812,4.00469141 7.46367578,3.77734375 7.74414062,3.77734375 C8.02460547,3.77734375 8.25195312,4.00469141 8.25195312,4.28515625 L8.25195312,5.25 C8.25195312,5.53046484 8.02460547,5.7578125 7.74414062,5.7578125 Z M9.16601562,6.01171875 L9.16601562,3.015625 L3.046875,3.015625 L3.046875,6.01171875 C3.046875,6.29172656 3.27467969,6.51953125 3.5546875,6.51953125 L8.65820312,6.51953125 C8.93821094,6.51953125 9.16601562,6.29172656 9.16601562,6.01171875 Z" id="Combined-Shape"></path>
                    </g>
                </g>
            </g>
        </g>
    </g>
</svg>