<?xml version="1.0" encoding="UTF-8"?>
<svg width="19px" height="16px" viewBox="0 0 19 16" version="1.1" xmlns="http://www.w3.org/2000/svg" xmlns:xlink="http://www.w3.org/1999/xlink">
    <!-- Generator: Sketch 50.2 (55047) - http://www.bohemiancoding.com/sketch -->
    <title>Shape</title>
    <desc>Created with Sketch.</desc>
    <defs></defs>
    <g id="Page-1" stroke="none" stroke-width="1" fill="none" fill-rule="evenodd">
        <g id="01._QLDA_Danh_Sach_Du_An" transform="translate(-263.000000, -22.000000)" fill="#FFFFFF" fill-rule="nonzero">
            <path d="M263,23.4318182 C263,22.6414545 263.687838,22 264.535354,22 L280.464646,22 C281.312162,22 282,22.6414545 282,23.4318182 C282,24.2221818 281.312162,24.8636364 280.464646,24.8636364 L264.535354,24.8636364 C263.687838,24.8636364 263,24.2221818 263,23.4318182 Z M273.796922,28.5681818 L264.535354,28.5681818 C263.687838,28.5681818 263,29.2096364 263,30 C263,30.7903636 263.687838,31.4318182 264.535354,31.4318182 L273.796922,31.4318182 C274.644437,31.4318182 275.332275,30.7903636 275.332275,30 C275.332275,29.2096364 274.645205,28.5681818 273.796922,28.5681818 Z M268.84885,35.1363636 L264.535354,35.1363636 C263.687838,35.1363636 263,35.7778182 263,36.5681818 C263,37.3585455 263.687838,38 264.535354,38 L268.84885,38 C269.696365,38 270.384203,37.3585455 270.384203,36.5681818 C270.384203,35.7778182 269.697133,35.1363636 268.84885,35.1363636 Z" id="Shape"></path>
        </g>
    </g>
</svg>