<?xml version="1.0" encoding="UTF-8"?>
<svg width="12px" height="13px" viewBox="0 0 12 13" version="1.1" xmlns="http://www.w3.org/2000/svg" xmlns:xlink="http://www.w3.org/1999/xlink">
    <!-- Generator: Sketch 50.2 (55047) - http://www.bohemiancoding.com/sketch -->
    <title>Combined Shape</title>
    <desc>Created with Sketch.</desc>
    <defs></defs>
    <g id="Page-1" stroke="none" stroke-width="1" fill="none" fill-rule="evenodd">
        <g id="02._Xem_Chi_Tiet_Nhiem_Vu-Lanh_Dao" transform="translate(-403.000000, -839.000000)" fill="#5C6376" fill-rule="nonzero">
            <g id="Group-4-Copy-5" transform="translate(383.000000, 827.000000)">
                <path d="M31.3633898,21.671543 C31.3117034,21.395877 31.0460254,21.2142832 30.7699746,21.2659531 C30.4939746,21.317623 30.3121186,21.5829551 30.3638305,21.8585957 C30.4022203,22.0631172 30.3121949,22.2088594 30.2551441,22.277541 C30.1982203,22.3460195 30.0717119,22.4609375 29.8641271,22.4609375 L22.1456864,22.4609375 C21.9381017,22.4609375 21.8115932,22.3460449 21.7546695,22.277541 C21.6976186,22.2088594 21.6075932,22.0631172 21.6459831,21.8585957 C21.7902119,21.0899707 22.0796102,20.584418 22.3594746,20.0954961 C22.6993898,19.5017871 23.0508475,18.8878164 23.0508475,17.9414062 L23.0508475,17.1796875 C23.0508475,15.578377 24.3541441,14.2579375 25.9568305,14.2347051 L26.0529576,14.2347051 C27.6502034,14.2578613 28.9491525,15.5783008 28.9491525,17.1796875 L28.9491525,17.9414062 C28.9491525,18.746873 29.2129746,19.301125 29.4602712,19.7574199 C29.5523051,19.9272324 29.7272203,20.0236152 29.9078814,20.0236152 C29.9896186,20.0236152 30.0725508,20.0038867 30.1494576,19.9622969 C30.3964492,19.8288184 30.4882797,19.520627 30.3546017,19.2740078 C30.1085763,18.8199727 29.9661017,18.4563535 29.9661017,17.9414062 L29.9661017,17.1796875 C29.9661017,16.134584 29.5607712,15.147498 28.8247288,14.4002773 C28.1939661,13.759875 27.3840424,13.3602773 26.5084746,13.2499805 L26.5084746,12.5078125 C26.5084746,12.2273477 26.2808305,12 26,12 C25.7191695,12 25.4915254,12.2273477 25.4915254,12.5078125 L25.4915254,13.2514785 C23.547678,13.5033535 22.0338983,15.1784238 22.0338983,17.1796875 L22.0338983,17.9414062 C22.0338983,18.6179902 21.7879746,19.0475742 21.4766356,19.5914414 C21.1699237,20.1272852 20.8222542,20.7346035 20.6464237,21.671543 C20.5625,22.1188242 20.6812288,22.5761094 20.972178,22.9261953 C21.2628729,23.2759766 21.6906017,23.4765625 22.1456864,23.4765625 L24.4843898,23.4765625 C24.4843898,24.3165859 25.1686949,25 26.0098136,25 C26.8509322,25 27.5352373,24.3165859 27.5352373,23.4765625 L29.8641271,23.4765625 C30.3192119,23.4765625 30.7469661,23.2759766 31.0376356,22.9261953 C31.3285847,22.5761094 31.4473136,22.1188242 31.3633898,21.671543 Z M26.009839,23.984375 C25.7294661,23.984375 25.5013644,23.7565703 25.5013644,23.4765625 L26.5183136,23.4765625 C26.5183136,23.7565703 26.2902119,23.984375 26.009839,23.984375 Z M22.2465169,13.1450664 C22.4557542,13.3321191 22.4735254,13.6531582 22.2862288,13.862123 C21.4677119,14.7752715 21.0169492,15.9535234 21.0169492,17.1798398 C21.0169492,17.4603047 20.7893051,17.6876523 20.5084746,17.6876523 C20.2276441,17.6876523 20,17.4603047 20,17.1798398 C20,15.7032227 20.5428475,14.2843945 21.5285254,13.1847266 C21.715822,12.9757617 22.0372797,12.9579883 22.2465169,13.1450664 Z M30.4714746,13.1847266 C31.4571525,14.2843945 32,15.7032227 32,17.1798398 C32,17.4603047 31.7723559,17.6876523 31.4915254,17.6876523 C31.2106949,17.6876523 30.9830508,17.4603047 30.9830508,17.1798398 C30.9830508,15.9535234 30.5322881,14.7752969 29.7137712,13.862123 C29.5264746,13.6531582 29.5442712,13.3321191 29.7534831,13.1450664 C29.9626949,12.9580137 30.284178,12.9757871 30.4714746,13.1847266 Z" id="Combined-Shape"></path>
            </g>
        </g>
    </g>
</svg>