<?xml version="1.0" encoding="UTF-8"?>
<svg width="16px" height="16px" viewBox="0 0 16 16" version="1.1" xmlns="http://www.w3.org/2000/svg" xmlns:xlink="http://www.w3.org/1999/xlink">
    <!-- Generator: Sketch 51.3 (57544) - http://www.bohemiancoding.com/sketch -->
    <title>Combined Shape</title>
    <desc>Created with Sketch.</desc>
    <defs></defs>
    <g id="Page-1" stroke="none" stroke-width="1" fill="none" fill-rule="evenodd">
        <g id="08.1._QLDA_Nhan_Viec" transform="translate(-347.000000, -133.000000)" fill="#5C6376" fill-rule="nonzero">
            <g id="Group" transform="translate(327.000000, 110.000000)">
                <path d="M35,26.0000065 L34,26.0000065 C34.0007813,25.8671003 33.9485938,25.7393504 33.855,25.6450067 L31.355,23.1450079 C31.2606563,23.0514142 31.1329062,22.999258 31,23.000008 L22.5,23.000008 C22.2238438,23.000008 22,23.2238516 22,23.5000077 L22,26.0000065 L21,26.0000065 C20.4477187,26.0000065 20,26.447725 20,27.000006 L20,38.0000005 C20,38.5522815 20.4477187,39 21,39 L35,39 C35.5522813,39 36,38.5522815 36,38.0000005 L36,27.000006 C36,26.447725 35.5522813,26.0000065 35,26.0000065 Z M23,24.0000075 L30.5,24.0000075 L30.5,26.0000065 C30.5,26.2761626 30.7238438,26.5000062 31,26.5000062 L33,26.5000062 L33,33.000003 L30.5,33.000003 C30.2238438,33.000003 30,33.2238466 30,33.5000027 L30,35.000002 L26,35.000002 L26,33.5000027 C26,33.2238466 25.7761562,33.000003 25.5,33.000003 L23,33.000003 L23,24.0000075 Z M21,27.000006 L22,27.000006 L22,33.000003 L21,33.000003 L21,27.000006 Z M35,38.0000005 L21,38.0000005 L21,34.0000025 L25,34.0000025 L25,35.5000017 C25,35.7761579 25.2238438,36.0000015 25.5,36.0000015 L30.5,36.0000015 C30.7761562,36.0000015 31,35.7761579 31,35.5000017 L31,34.0000025 L35,34.0000025 L35,38.0000005 Z M35,33.000003 L34,33.000003 L34,27.000006 L35,27.000006 L35,33.000003 Z M24.5,28.0000055 L31.5,28.0000055 L31.5,29.000005 L24.5,29.000005 L24.5,28.0000055 Z M24.5,30.5000042 L31.5,30.5000042 L31.5,31.5000037 L24.5,31.5000037 L24.5,30.5000042 Z" id="Combined-Shape"></path>
            </g>
        </g>
    </g>
</svg>