<?xml version="1.0" encoding="UTF-8"?>
<svg width="11px" height="13px" viewBox="0 0 11 13" version="1.1" xmlns="http://www.w3.org/2000/svg" xmlns:xlink="http://www.w3.org/1999/xlink">
    <!-- Generator: Sketch 50.2 (55047) - http://www.bohemiancoding.com/sketch -->
    <title>Combined Shape</title>
    <desc>Created with Sketch.</desc>
    <defs></defs>
    <g id="Page-1" stroke="none" stroke-width="1" fill="none" fill-rule="evenodd">
        <g id="02.1._QLDV_Danh_Sach_Doan_Vao-DS_Thanh_Vien" transform="translate(-403.000000, -1080.000000)" fill="#5C6376" fill-rule="nonzero">
            <g id="Group-4" transform="translate(263.000000, 624.000000)">
                <g id="Group-4-Copy-4" transform="translate(120.000000, 444.000000)">
                    <path d="M30.8724746,24.521472 L30.8724746,16.0595215 C30.8724746,15.9239292 30.8161083,15.7963311 30.7194641,15.7085916 L26.8295343,12.1275981 C26.7409343,12.0478528 26.620129,12 26.4993237,12 L20.4832211,12 C20.2174495,12 20,12.2153376 20,12.478528 L20,17.8220807 C20,18.0852711 20.2174495,18.3006087 20.4832211,18.3006087 C20.7489927,18.3006087 20.9664422,18.0852711 20.9664422,17.8220807 L20.9664422,12.9570559 L25.8791805,12.9570559 L25.8791805,16.6257608 C25.8791805,16.8889512 26.09663,17.1042888 26.3624016,17.1042888 L29.8254766,17.1042888 C29.8496377,17.1042888 29.881843,17.1042888 29.906004,17.0963227 L29.906004,24.0429441 L20.9664422,24.0429441 L20.9664422,22.1288323 C20.9664422,21.8656419 20.7489927,21.6503043 20.4832211,21.6503043 C20.2174495,21.6503043 20,21.8656419 20,22.1288323 L20,24.521472 C20,24.7846624 20.2174495,25 20.4832211,25 L30.3892535,25 C30.6550251,25 30.8724746,24.7846624 30.8724746,24.521472 Z M26.8456227,13.4515442 L29.7691103,16.147261 L26.8456227,16.147261 L26.8456227,13.4515442 Z M20.8724746,19.8957112 C20.8724746,19.6325208 21.0899241,19.4171833 21.3556957,19.4171833 L26.4134288,19.4171833 L24.834916,18.0294522 C24.633555,17.8540013 24.6174665,17.5509243 24.7946381,17.351547 C24.9718097,17.1521416 25.2778592,17.1362094 25.4791919,17.3116603 L27.9919132,19.528821 C28.09663,19.6245266 28.1529963,19.7521247 28.1529963,19.887717 C28.1529963,20.0233093 28.0966016,20.1588734 27.9919132,20.246613 L25.4791635,22.4638019 C25.3825192,22.5435471 25.2697866,22.5834338 25.1570255,22.5834338 C25.0201034,22.5834338 24.8912539,22.5275868 24.7946097,22.4239151 C24.6174381,22.2245379 24.633555,21.9214608 24.8348876,21.7460099 L26.3892393,20.3742392 L21.3556957,20.3742392 C21.0899241,20.3742392 20.8724746,20.1589016 20.8724746,19.8957112 Z" id="Combined-Shape" transform="translate(25.436237, 18.500000) scale(-1, 1) translate(-25.436237, -18.500000) "></path>
                </g>
            </g>
        </g>
    </g>
</svg>