<?xml version="1.0" encoding="UTF-8"?>
<svg width="18px" height="20px" viewBox="0 0 18 20" version="1.1" xmlns="http://www.w3.org/2000/svg" xmlns:xlink="http://www.w3.org/1999/xlink">
    <!-- Generator: Sketch 50.2 (55047) - http://www.bohemiancoding.com/sketch -->
    <title>Shape</title>
    <desc>Created with Sketch.</desc>
    <defs></defs>
    <g id="Page-1" stroke="none" stroke-width="1" fill="none" fill-rule="evenodd">
        <g id="01._QLDA_Danh_Sach_Du_An" transform="translate(-1189.000000, -24.000000)" fill="#FFFFFF" fill-rule="nonzero">
            <g id="Group-3" transform="translate(1189.000000, 16.000000)">
                <path d="M9,28 C10.1647059,28 11.1176471,27.1 11.1176471,26 L6.88235294,26 C6.88235294,27.1 7.83529412,28 9,28 Z M15.8823529,22 L15.8823529,16.5 C15.8823529,13.4 13.6588235,10.9 10.5882353,10.2 L10.5882353,9.5 C10.5882353,8.7 9.84705882,8 9,8 C8.15294118,8 7.41176471,8.7 7.41176471,9.5 L7.41176471,10.2 C4.34117647,10.9 2.11764706,13.4 2.11764706,16.5 L2.11764706,22 L0,24 L0,25 L18,25 L18,24 L15.8823529,22 Z M13.7647059,23 L4.23529412,23 L4.23529412,16.5 C4.23529412,14 6.35294118,12 9,12 C11.6470588,12 13.7647059,14 13.7647059,16.5 L13.7647059,23 Z" id="Shape"></path>
            </g>
        </g>
    </g>
</svg>