<?xml version="1.0" encoding="UTF-8"?>
<svg width="16px" height="16px" viewBox="0 0 16 16" version="1.1" xmlns="http://www.w3.org/2000/svg" xmlns:xlink="http://www.w3.org/1999/xlink">
    <!-- Generator: Sketch 50.2 (55047) - http://www.bohemiancoding.com/sketch -->
    <title>Shape</title>
    <desc>Created with Sketch.</desc>
    <defs></defs>
    <g id="Page-1" stroke="none" stroke-width="1" fill="none" fill-rule="evenodd">
        <g id="03.1._QTHT-Quan_Ly_Danh_Muc-Them_Danh_Muc" transform="translate(-537.000000, -243.000000)" fill="#5C6376" fill-rule="nonzero">
            <g id="Group-9" transform="translate(517.000000, 220.000000)">
                <path d="M35.1316879,29.8837103 L29.1162526,29.8837103 L29.1162526,23.8682181 C29.1162526,23.5941878 28.7441467,23 27.9999675,23 C27.2557882,23 26.8836823,23.5942203 26.8836823,23.8682181 L26.8836823,29.8837429 L20.8682145,29.8837429 C20.5942179,29.8837103 20,30.2558177 20,30.9999675 C20,31.7441172 20.5942179,32.1162571 20.8682145,32.1162571 L26.8837149,32.1162571 L26.8837149,38.1317819 C26.8837149,38.4057472 27.2557882,39 28,39 C28.7442118,39 29.1162851,38.4057472 29.1162851,38.1317819 L29.1162851,32.1162571 L35.1317855,32.1162571 C35.4057496,32.1162571 36,31.7441823 36,30.9999675 C36,30.2557527 35.4056845,29.8837103 35.1316879,29.8837103 Z" id="Shape"></path>
            </g>
        </g>
    </g>
</svg>