<?xml version="1.0" encoding="UTF-8"?>
<svg width="24px" height="21px" viewBox="0 0 24 21" version="1.1" xmlns="http://www.w3.org/2000/svg" xmlns:xlink="http://www.w3.org/1999/xlink">
    <!-- Generator: Sketch 50.2 (55047) - http://www.bohemiancoding.com/sketch -->
    <title>folder (5)</title>
    <desc>Created with Sketch.</desc>
    <defs></defs>
    <g id="Page-1" stroke="none" stroke-width="1" fill="none" fill-rule="evenodd">
        <g id="01._QLDA_Danh_Sach_Du_An" transform="translate(-30.000000, -101.000000)" fill-rule="nonzero">
            <g id="folder-(5)" transform="translate(30.000000, 101.000000)">
                <path d="M22.3630371,7.49562853 C23.0258789,7.49562853 23.5409546,8.08588483 23.4477539,8.74766505 L22.1055908,18.5762992 C21.9631348,19.613211 21.0809326,20.3854108 20.0456543,20.3854108 L3.98236083,20.3854108 C2.94140625,20.3854108 2.06469727,19.613211 1.92224119,18.5762992 L0.558105469,8.74766505 C0.464904797,8.08588483 0.979980469,7.49009831 1.64282227,7.49009831 L22.3630371,7.49009831 L22.3630371,7.49562853 Z" id="Shape" fill="#4274ED"></path>
                <path d="M21.8316651,5.66439607 L21.8316651,7.49562853 L2.39355469,7.49562853 L2.17987059,2.76325494 C2.12512209,1.57205056 3.072876,0.57366573 4.26159666,0.57366573 L8.7485962,0.57366573 C9.47735597,0.57366573 10.1566772,0.959673479 10.5346069,1.59398702 L11.1044311,2.55366045 C11.482544,3.18797404 12.1563721,3.57398174 12.8904419,3.57398174 L19.7442627,3.57398174 C20.8947143,3.5686359 21.8316651,4.50618854 21.8316651,5.66439607 Z" id="Shape" fill="#99D3FF"></path>
                <path d="M23.5902099,7.50668888 C23.2833252,7.14814781 22.850647,6.94408359 22.357544,6.93855337 L22.357544,5.65886585 C22.357544,4.19741922 21.196106,3.02796697 19.7442627,3.02796697 L12.8904419,3.02796697 C12.3535767,3.02796697 11.8494873,2.73025809 11.5755615,2.26682759 L11.0059204,1.29074787 C10.5292969,0.507487699 9.66906741,0 8.7485962,0 L4.26159666,0 C3.53851317,0 2.85919191,0.297893258 2.3605957,0.827317416 C1.8619995,1.35674157 1.60455323,2.05723315 1.63201903,2.78537573 L1.81823728,6.94961376 L1.64282227,6.94961376 C1.16619872,6.94961376 0.717041016,7.15367803 0.404663062,7.5122191 C0.09246825,7.87610606 -0.0499877813,8.35059691 0.0157470937,8.82490343 L1.37438962,18.6701281 C1.55529787,19.9717521 2.67297366,20.9590765 3.97668459,20.9590765 L20.039978,20.9590765 C21.3493652,20.9590765 22.467041,19.9662219 22.6479492,18.6590678 L23.9846191,8.82490343 C24.050354,8.35059691 23.9025879,7.87076017 23.5902099,7.50668888 Z M2.72772216,2.74131848 C2.71124269,2.31659938 2.85919191,1.90294067 3.14959716,1.59398702 C3.43981931,1.2852177 3.83441161,1.10308989 4.25628661,1.10308989 L8.74328616,1.10308989 C9.28015134,1.10308989 9.78424073,1.40098315 10.0581665,1.86422927 L10.6278076,2.84049332 C11.0991211,3.63462955 11.9646607,4.1421173 12.8851318,4.1421173 L19.7387695,4.1421173 C20.5825195,4.1421173 21.2563477,4.81495787 21.2563477,5.66992629 L21.2563477,6.94961376 L2.91943359,6.94961376 L2.72772216,2.74131848 Z M22.9053955,8.67042663 L21.5632324,18.5101211 C21.4590454,19.2712606 20.80719,19.8559866 20.0456543,19.8559866 L3.98236083,19.8559866 C3.22082522,19.8559866 2.56878661,19.2712606 2.4647827,18.5156513 L1.10046384,8.6759568 C1.07867433,8.51594978 1.1224365,8.3616573 1.23193359,8.24017731 C1.33612059,8.11888168 1.48406981,8.05270365 1.64282227,8.05270365 L22.3630371,8.05270365 C22.5217896,8.05270365 22.6697388,8.11335146 22.7739258,8.24017731 C22.8834229,8.3616573 22.9273682,8.5104196 22.9053955,8.67042663 Z" id="Shape" fill="#225E9B"></path>
                <path d="M8.49393754,16.4358644 L9.56436498,17.5060625 L8,18 L8.49393754,16.4358644 Z M10.1393141,16.139333 L9.86070471,15.8606859 C9.47020685,15.4701352 9.47024969,14.8369702 9.86080041,14.4464723 C9.86109875,14.446174 9.86139728,14.4458759 9.86169599,14.445578 L13.6119909,10.7052705 C14.0026858,10.3156161 14.6351609,10.3160593 15.0253092,10.7062609 L15.2939317,10.9749201 C15.6840424,11.365084 15.6844425,11.9974848 15.2948257,12.388142 L11.5545177,16.1384374 C11.1645145,16.529482 10.53135,16.5303263 10.1403054,16.140323 C10.1399747,16.1399932 10.1396443,16.1396632 10.1393141,16.139333 Z" id="Shape" fill="#FFFFFF"></path>
            </g>
        </g>
    </g>
</svg>