<?xml version="1.0" encoding="UTF-8"?>
<svg width="24px" height="21px" viewBox="0 0 24 21" version="1.1" xmlns="http://www.w3.org/2000/svg" xmlns:xlink="http://www.w3.org/1999/xlink">
    <!-- Generator: Sketch 50.2 (55047) - http://www.bohemiancoding.com/sketch -->
    <title>folder (2)</title>
    <desc>Created with Sketch.</desc>
    <defs></defs>
    <g id="Page-1" stroke="none" stroke-width="1" fill="none" fill-rule="evenodd">
        <g id="01._QLDA_Danh_Sach_Du_An" transform="translate(-30.000000, -361.000000)" fill-rule="nonzero">
            <g id="folder-(2)" transform="translate(30.000000, 361.000000)">
                <path d="M22.3630371,7.49562853 C23.0258789,7.49562853 23.5409546,8.08588483 23.4477539,8.74766505 L22.1055908,18.5762992 C21.9631348,19.613211 21.0809326,20.3854108 20.0456543,20.3854108 L3.98236083,20.3854108 C2.94140625,20.3854108 2.06469727,19.613211 1.92224119,18.5762992 L0.558105469,8.74766505 C0.464904797,8.08588483 0.979980469,7.49009831 1.64282227,7.49009831 L22.3630371,7.49009831 L22.3630371,7.49562853 Z" id="Shape" fill="#4274ED"></path>
                <path d="M21.8316651,5.66439607 L21.8316651,7.49562853 L2.39355469,7.49562853 L2.17987059,2.76325494 C2.12512209,1.57205056 3.072876,0.57366573 4.26159666,0.57366573 L8.7485962,0.57366573 C9.47735597,0.57366573 10.1566772,0.959673479 10.5346069,1.59398702 L11.1044311,2.55366045 C11.482544,3.18797404 12.1563721,3.57398174 12.8904419,3.57398174 L19.7442627,3.57398174 C20.8947143,3.5686359 21.8316651,4.50618854 21.8316651,5.66439607 Z" id="Shape" fill="#99D3FF"></path>
                <path d="M14.3642578,13.9543452 C14.3642578,15.2672138 13.3070068,16.3315924 12.0029297,16.3315924 C10.6988526,16.3315924 9.64160156,15.2672138 9.64160156,13.9543452 C9.64160156,12.6414765 10.6988526,11.577098 12.0029297,11.577098 C13.3070068,11.577098 14.3642578,12.6414765 14.3642578,13.9543452 Z" id="Shape" fill="#00ACEA"></path>
                <path d="M23.5902099,7.50668888 C23.2833252,7.14814781 22.850647,6.94408359 22.357544,6.93855337 L22.357544,5.65886585 C22.357544,4.19741922 21.196106,3.02796697 19.7442627,3.02796697 L12.8904419,3.02796697 C12.3535767,3.02796697 11.8494873,2.73025809 11.5755615,2.26682759 L11.0059204,1.29074787 C10.5292969,0.507487699 9.66906741,0 8.7485962,0 L4.26159666,0 C3.53851317,0 2.85919191,0.297893258 2.3605957,0.827317416 C1.8619995,1.35674157 1.60455323,2.05723315 1.63201903,2.78537573 L1.81823728,6.94961376 L1.64282227,6.94961376 C1.16619872,6.94961376 0.717041016,7.15367803 0.404663062,7.5122191 C0.09246825,7.87610606 -0.0499877813,8.35059691 0.0157470937,8.82490343 L1.37438962,18.6701281 C1.55529787,19.9717521 2.67297366,20.9590765 3.97668459,20.9590765 L20.039978,20.9590765 C21.3493652,20.9590765 22.467041,19.9662219 22.6479492,18.6590678 L23.9846191,8.82490343 C24.050354,8.35059691 23.9025879,7.87076017 23.5902099,7.50668888 Z M2.72772216,2.74131848 C2.71124269,2.31659938 2.85919191,1.90294067 3.14959716,1.59398702 C3.43981931,1.2852177 3.83441161,1.10308989 4.25628661,1.10308989 L8.74328616,1.10308989 C9.28015134,1.10308989 9.78424073,1.40098315 10.0581665,1.86422927 L10.6278076,2.84049332 C11.0991211,3.63462955 11.9646607,4.1421173 12.8851318,4.1421173 L19.7387695,4.1421173 C20.5825195,4.1421173 21.2563477,4.81495787 21.2563477,5.66992629 L21.2563477,6.94961376 L2.91943359,6.94961376 L2.72772216,2.74131848 Z M22.9053955,8.67042663 L21.5632324,18.5101211 C21.4590454,19.2712606 20.80719,19.8559866 20.0456543,19.8559866 L3.98236083,19.8559866 C3.22082522,19.8559866 2.56878661,19.2712606 2.4647827,18.5156513 L1.10046384,8.6759568 C1.07867433,8.51594978 1.1224365,8.3616573 1.23193359,8.24017731 C1.33612059,8.11888168 1.48406981,8.05270365 1.64282227,8.05270365 L22.3630371,8.05270365 C22.5217896,8.05270365 22.6697388,8.11335146 22.7739258,8.24017731 C22.8834229,8.3616573 22.9273682,8.5104196 22.9053955,8.67042663 Z" id="Shape" fill="#225E9B"></path>
                <path d="M16.3859253,14.1805302 L15.8161011,14.2356478 C15.5804443,14.2575843 15.3832397,14.4341819 15.3339844,14.6657128 C15.25177,15.0574351 15.0875244,15.4434428 14.8518677,15.807514 C14.7203979,16.0115783 14.7368775,16.2707602 14.8901367,16.4584182 L15.2572632,16.9050737 L14.9448853,17.2195576 L14.5012207,16.8499561 C14.3150025,16.6954793 14.0518799,16.679073 13.8491821,16.8167749 C13.5095215,17.04296 13.1206055,17.2084972 12.7207031,17.296796 C12.4850464,17.3463834 12.3153076,17.5449175 12.2933349,17.7819786 L12.2385864,18.3611745 L11.7837525,18.3611745 L11.7290039,17.7819786 C11.7072143,17.5449175 11.5317993,17.3463834 11.3018189,17.296796 C10.9127198,17.2140274 10.5292969,17.0484902 10.1676636,16.8112447 C9.96496584,16.6788887 9.70751953,16.6954793 9.52111819,16.8499561 L9.07745363,17.2195576 L8.76507567,16.9050737 L9.13220213,16.4584182 C9.28564453,16.2707602 9.30194091,16.0005179 9.16497802,15.8019838 C8.94049073,15.4655635 8.776062,15.0740256 8.68835447,14.6657128 C8.63909911,14.4286517 8.43640134,14.2575843 8.20074464,14.2356478 L7.62011719,14.1805302 L7.62011719,13.7281601 L8.20074464,13.6730425 C8.43640134,13.6509217 8.63360597,13.4745084 8.68304442,13.2427932 C8.76507567,12.8512553 8.92950441,12.4650632 9.16516116,12.1011763 C9.29663086,11.897112 9.28015134,11.6377458 9.12670898,11.4502721 L8.75976562,11.0034322 L9.07196044,10.6891327 L9.51580809,11.0587342 C9.70202634,11.2130267 9.97045898,11.2296173 10.1676636,11.091731 C10.501831,10.865546 10.8964233,10.7001931 11.2963257,10.6118943 C11.5317993,10.5623069 11.7017212,10.3637728 11.7236939,10.1265274 L11.7784424,9.54733146 L12.2276001,9.54733146 L12.2823487,10.1265274 C12.3043213,10.3635885 12.4797363,10.5623069 12.7097168,10.6118943 C13.0988159,10.6946629 13.4822388,10.8600158 13.8438721,11.0972612 C14.0465698,11.2296173 14.3040161,11.2130267 14.4902344,11.0587342 L14.9285888,10.6946629 L15.2354737,11.0089624 L14.8683472,11.4558023 C14.7149048,11.643276 14.6986084,11.9135183 14.8355713,12.1120523 C15.0600586,12.4484726 15.2244873,12.8401949 15.3121948,13.2483234 C15.3614502,13.4853845 15.5641479,13.6564519 15.7998047,13.6785727 L16.3804321,13.7336903 L16.3804321,14.1803458 L16.3859253,14.1803458 L16.3859253,14.1805302 Z" id="Shape" fill="#FFFFFF"></path>
                <path d="M12.0029297,11.025553 C10.397644,11.025553 9.09375,12.3382374 9.09375,13.9543452 C9.09375,15.5704529 10.397644,16.8831373 12.0029297,16.8831373 C13.6082153,16.8831373 14.9121094,15.5704529 14.9121094,13.9543452 C14.9121094,12.3382374 13.6082153,11.025553 12.0029297,11.025553 Z M12.0029297,15.7800474 C11.0059204,15.7800474 10.1894531,14.9636061 10.1894531,13.9543452 C10.1894531,12.9450843 11.0004272,12.1286429 12.0029297,12.1286429 C13.0054321,12.1286429 13.8164062,12.9450843 13.8164062,13.9543452 C13.8164062,14.9636061 13.0001221,15.7800474 12.0029297,15.7800474 Z" id="Shape" fill="#4274ED"></path>
            </g>
        </g>
    </g>
</svg>