<?xml version="1.0" encoding="UTF-8"?>
<svg width="24px" height="21px" viewBox="0 0 24 21" version="1.1" xmlns="http://www.w3.org/2000/svg" xmlns:xlink="http://www.w3.org/1999/xlink">
    <!-- Generator: Sketch 50.2 (55047) - http://www.bohemiancoding.com/sketch -->
    <title>folder (3)</title>
    <desc>Created with Sketch.</desc>
    <defs></defs>
    <g id="Page-1" stroke="none" stroke-width="1" fill="none" fill-rule="evenodd">
        <g id="01._QLDA_Danh_Sach_Du_An" transform="translate(-30.000000, -166.000000)" fill-rule="nonzero">
            <g id="folder-(3)" transform="translate(30.000000, 166.000000)">
                <path d="M22.3582763,7.51756495 C23.0211182,7.51756495 23.5358276,8.10763696 23.44281,8.76941713 L22.1008301,18.5960235 C21.958374,19.6327511 21.0765381,20.4047665 20.0412598,20.4047665 L3.98144531,20.4047665 C2.94067383,20.4047665 2.06433103,19.6327511 1.921875,18.5960235 L0.558105469,8.76941713 C0.464904797,8.10763696 0.979797375,7.51203477 1.64245603,7.51203477 L22.3582763,7.51203477 L22.3582763,7.51756495 Z" id="Shape" fill="#4274ED"></path>
                <path d="M21.8269043,5.68688551 L21.8269043,7.51756495 L2.39300536,7.51756495 L2.17932131,2.78629741 C2.12457277,1.59527741 3.07214353,0.597076908 4.26086428,0.597076908 L8.74676513,0.597076908 C9.4753418,0.597076908 10.15448,0.983084609 10.5324097,1.61721382 L11.1020508,2.57670293 C11.4799805,3.21083214 12.1538086,3.59683989 12.8876953,3.59683989 L19.7400513,3.59683989 C20.8903198,3.59130967 21.8269043,4.52886236 21.8269043,5.68688551 Z" id="Shape" fill="#99D3FF"></path>
                <path d="M16.546875,14.9705905 L16.546875,16.5168539 L13.8074767,16.5168539 L13.8074767,15.7262719 C13.8074767,15.2689077 13.5956769,14.8612353 13.265625,14.6028046 L13.2705659,14.592833 C13.4430032,13.9912129 13.9897959,13.5438202 14.6451236,13.5438202 L15.1327901,13.5438202 C15.90637,13.5438202 16.546875,14.175189 16.546875,14.9705905 Z" id="Shape" fill="#FFFFFF"></path>
                <path d="M15.84375,11.7294477 C15.84375,11.9966119 15.7402923,12.2391276 15.5628657,12.4123294 C15.3903812,12.5855312 15.1488701,12.694382 14.8828125,12.694382 C14.3554748,12.694382 13.921875,12.268739 13.921875,11.7294477 C13.921875,11.4670808 14.0253327,11.2247306 14.2027593,11.046566 C14.3752438,10.8733642 14.6165901,10.7595506 14.8828125,10.7595506 C15.1439279,10.7595506 15.385439,10.8684014 15.5628657,11.0416032 C15.7353501,11.214805 15.84375,11.4573206 15.84375,11.7294477 Z" id="Shape" fill="#FFFFFF"></path>
                <path d="M13.8354492,16.5998069 L13.8354492,17.4380003 L10.1489868,17.4380003 L10.1489868,15.722902 C10.1489868,15.2155987 10.3844604,14.7634129 10.7570801,14.4712342 C11.0253296,14.2616398 11.3540039,14.1403441 11.7211304,14.1403441 L12.2633057,14.1403441 C12.630249,14.1403441 12.9699097,14.2671699 13.2328491,14.4767644 C13.5997925,14.7634129 13.8352661,15.2155987 13.8352661,15.722902 L13.8354492,16.5998069 Z" id="Shape" fill="#FFFFFF"></path>
                <path d="M12.7454224,11.6478845 C12.9371338,11.8408883 13.0576172,12.1111306 13.0576172,12.4088395 C13.0576172,12.7065484 12.9371338,12.9767907 12.7454224,13.1697946 C12.5537109,13.3627984 12.2852783,13.4840941 11.9893799,13.4840941 C11.4034424,13.4840941 10.9213257,13.0099719 10.9213257,12.4088395 C10.9213257,12.1164765 11.0418091,11.8464185 11.2335205,11.6478845 C11.4252319,11.4548806 11.6936646,11.3280548 11.9893799,11.3280548 C12.2852783,11.3335849 12.5537109,11.4548806 12.7454224,11.6478845 Z" id="Shape" fill="#FFFFFF"></path>
                <path d="M10.7713533,14.5828614 L10.78125,14.5978187 C10.445587,14.8562495 10.2334678,15.2689077 10.2334678,15.7262719 L10.2334678,16.5168539 L7.5,16.5168539 L7.5,14.9705905 C7.5,14.1851605 8.1266259,13.5438202 8.91605244,13.5438202 L9.40461938,13.5438202 C10.0558221,13.5438202 10.5986559,13.9812413 10.7713533,14.5828614 Z" id="Shape" fill="#FFFFFF"></path>
                <path d="M9.79724062,11.046566 C9.96972504,11.2197678 10.078125,11.462118 10.078125,11.7294477 C10.0731827,11.9966119 9.96478281,12.2391276 9.79229839,12.4123294 C9.61981397,12.5855312 9.3832451,12.694382 9.11718748,12.694382 C8.58984977,12.694382 8.15625,12.268739 8.15625,11.7294477 C8.15625,11.4670808 8.2597077,11.2247306 8.43713434,11.046566 C8.60961876,10.8733642 8.8511299,10.7595506 9.11718748,10.7595506 C9.3832451,10.7694762 9.62475624,10.8733642 9.79724062,11.046566 Z" id="Shape" fill="#FFFFFF"></path>
                <path d="M22.3527832,6.96620438 L22.3527832,5.68688551 C22.3527832,4.22543888 21.1915283,3.05653967 19.7400513,3.05653967 L12.8876953,3.05653967 C12.3510132,3.05653967 11.8471069,2.75864641 11.5731811,2.29558461 L11.0035401,1.31950494 C10.5269165,0.530898876 9.66705323,0.0235955056 8.74676512,0.0235955056 L4.26086428,0.0235955056 C3.53778075,0.0235955056 2.85845948,0.321304436 2.36004638,0.850728593 C1.86163331,1.38015275 1.604187,2.08046 1.63165284,2.8084182 L1.81787109,6.97173455 L1.64245603,6.97173455 C1.16601563,6.97173455 0.716857922,7.17561449 0.404663063,7.53415556 C0.09246825,7.89804247 -0.0499877812,8.37234899 0.0157470938,8.84647123 L1.37420653,18.6896682 C1.55493164,19.9911078 2.67224119,20.9780635 3.97595213,20.9780635 L20.0357666,20.9780635 C21.3447876,20.9780635 22.4622803,19.9855776 22.6430054,18.6786078 L23.9849854,8.84647123 C24.0507202,8.37234899 23.8974609,7.8925123 23.585083,7.53415556 C23.2783814,7.17579882 22.8457031,6.96620438 22.3527832,6.96620438 Z M2.72717287,2.76417663 C2.71069336,2.33964185 2.85845948,1.92598315 3.14886473,1.61721382 C3.43908694,1.3084445 3.83349609,1.12650107 4.25537109,1.12650107 L8.74127198,1.12650107 C9.27813722,1.12650107 9.78204347,1.42421 10.0559692,1.88745612 L10.6256104,2.86335146 C11.0967407,3.6574877 11.9620972,4.16479107 12.8823853,4.16479107 L19.7345581,4.16479107 C20.578125,4.16479107 21.25177,4.83763168 21.25177,5.6922314 L21.25177,6.97155022 L2.91888427,6.97155022 L2.72717287,2.76417663 Z M22.9004517,8.69217871 L21.5584717,18.5298455 C21.4544678,19.2908006 20.8026123,19.8753424 20.0412598,19.8753424 L3.98144531,19.8753424 C3.22009275,19.8753424 2.56823728,19.2908006 2.46423338,18.5353757 L1.10028075,8.69770893 C1.07830809,8.53770191 1.12225341,8.38340943 1.2317505,8.26211376 C1.33575441,8.14081809 1.48370363,8.07464011 1.64245603,8.07464011 L22.3582763,8.07464011 C22.5170288,8.07464011 22.664978,8.13528792 22.7689819,8.26211376 C22.8786621,8.38340943 22.9224243,8.53217169 22.9004517,8.69217871 Z" id="Shape" fill="#225E9B"></path>
            </g>
        </g>
    </g>
</svg>