<?xml version="1.0" encoding="utf-8"?>
<!-- Generator: Adobe Illustrator 19.0.0, SVG Export Plug-In . SVG Version: 6.00 Build 0)  -->
<svg version="1.1" id="Layer_1" xmlns="http://www.w3.org/2000/svg" xmlns:xlink="http://www.w3.org/1999/xlink" x="0px" y="0px"
	 viewBox="-413 291.3 14 14" style="enable-background:new -413 291.3 14 14;" xml:space="preserve">
<style type="text/css">
	.st0{fill:#4274ED;}
</style>
<title>Shape</title>
<desc>Created with Sketch.</desc>
<path class="st0" d="M-400.7,293c-0.5-0.5-1.2-0.8-1.9-0.8s-1.4,0.3-1.9,0.8l-6.9,6.9c-0.1,0.1-0.1,0.2-0.1,0.3l-0.5,3.8
	c0,0.1,0,0.3,0.1,0.4c0.1,0.1,0.2,0.1,0.3,0.1c0,0,0,0,0.1,0l2.3-0.3c0.1,0,0.2-0.1,0.3-0.2s0.1-0.2,0.1-0.3c0-0.1-0.1-0.2-0.2-0.3
	c-0.1-0.1-0.2-0.1-0.3-0.1l-1.7,0.2l0.3-2.3l2.6,2.6c0.2,0.2,0.5,0.2,0.6,0l6.9-6.9c0.5-0.5,0.8-1.2,0.8-1.9
	C-399.9,294.2-400.2,293.5-400.7,293z M-410.5,300.2l6.1-6.1l1,1l-6.1,6.1L-410.5,300.2z M-407.9,302.8l-1-1l6.1-6.1l1,1
	L-407.9,302.8z M-401.1,296l-2.6-2.6c0.3-0.2,0.7-0.4,1.1-0.4c0.5,0,1,0.2,1.3,0.5c0.3,0.3,0.5,0.8,0.5,1.3
	C-400.8,295.3-400.9,295.7-401.1,296z"/>
</svg>
