<?xml version="1.0" encoding="UTF-8"?>
<svg width="12px" height="15px" viewBox="0 0 12 15" version="1.1" xmlns="http://www.w3.org/2000/svg" xmlns:xlink="http://www.w3.org/1999/xlink">
    <!-- Generator: Sketch 50.2 (55047) - http://www.bohemiancoding.com/sketch -->
    <title>Combined Shape</title>
    <desc>Created with Sketch.</desc>
    <defs></defs>
    <g id="Page-1" stroke="none" stroke-width="1" fill="none" fill-rule="evenodd">
        <g id="03._QLDA_Giai_Doan_1" transform="translate(-1048.000000, -669.000000)" fill="#5C6376" fill-rule="nonzero">
            <g id="Group-4-Copy-9" transform="translate(1032.000000, 658.000000)">
                <path d="M20.3254147,16.1050392 C19.4623255,16.4664531 18.6465614,17.0259311 17.9664603,17.7228819 C17.5914716,18.1072515 17.2596394,18.5143149 16.9801747,18.9328748 C16.8033007,19.1978217 16.581047,19.5483006 16.430059,19.9103885 C16.4053641,19.9696692 16.3546245,20.0131842 16.2942373,20.0325075 C16.2581875,20.0440791 16.2187234,20.047 16.1791799,20.0395478 C16.0734525,20.0196627 15.9979387,19.9311724 16.0000429,19.8294627 C16.0085392,19.4174562 16.0862367,19.010318 16.1611153,18.6663925 C16.3676866,17.7177889 16.7205213,16.8246463 17.2097733,16.0116806 C17.4938039,15.5397567 17.8255963,15.0859204 18.1960192,14.6629041 C18.6061841,14.2037127 19.0067014,13.8279937 19.4218291,13.5127536 C19.6794179,13.3170861 19.893612,13.1635854 20.0959351,13.0297825 C20.1493745,12.9943564 20.20333,12.9620385 20.255618,12.9308441 L19.9794882,11.2421492 C19.9673393,11.167964 19.9981086,11.0932921 20.0601236,11.0462944 C20.1221387,10.9992593 20.2060694,10.9870886 20.2802731,11.0142761 L26.541015,13.3090347 C26.615179,13.3362222 26.6683405,13.398686 26.6804497,13.4728337 C26.6925986,13.5469814 26.6618293,13.6216534 26.5998142,13.668651 L21.3630751,17.6360392 C21.3010998,17.6830369 21.217169,17.6953199 21.1429256,17.668095 C21.0687617,17.6409075 21.0156002,17.5784811 21.0034513,17.5042586 L20.7480461,15.9422888 C20.6089291,15.9910091 20.469296,16.0447849 20.3254147,16.1050392 Z M27.8208598,16.9605463 C27.9266268,16.9804688 28.0020613,17.0689592 27.9999571,17.170594 C27.9914608,17.5826005 27.9137633,17.9897387 27.8388846,18.3336641 C27.6322737,19.2821928 27.2794389,20.1753354 26.790187,20.9883012 C26.5061564,21.4602999 26.1743242,21.9141362 25.803941,22.3371151 C25.3937761,22.7963065 24.9932192,23.1720255 24.5781312,23.4872656 C24.320463,23.6829705 24.1063085,23.8364712 23.9040251,23.9702741 C23.8505858,24.0057002 23.7965906,24.0379807 23.7443423,24.0691751 L24.0204721,25.75787 C24.0325813,25.8320552 24.001812,25.9066897 23.9397969,25.9537248 C23.8777819,26.0007224 23.7938511,26.0129306 23.7196871,25.9857057 L17.4589452,23.6910219 C17.3847812,23.6638344 17.3316198,23.6013706 17.3195106,23.5271855 C17.3074014,23.4530004 17.3380913,23.3784033 17.400146,23.3313682 L22.6368851,19.3640174 C22.6989002,19.3169823 22.7827912,19.3047367 22.8570346,19.3319617 C22.9311986,19.3591866 22.98436,19.4216504 22.9965486,19.4957981 L23.2519538,21.0578053 C23.3910708,21.0090476 23.5307437,20.9552343 23.674625,20.8950174 C24.5376745,20.5336036 25.3534386,19.974163 26.0335794,19.2771748 C26.4086077,18.8928426 26.7404399,18.4857418 27.0199047,18.0671818 C27.1967389,17.8022724 27.4190324,17.4517935 27.5699807,17.0897056 C27.5946755,17.0304249 27.6454151,16.9869099 27.7058024,16.9675866 C27.7418521,16.9560525 27.781356,16.9530941 27.8208598,16.9605463 Z" id="Combined-Shape"></path>
            </g>
        </g>
    </g>
</svg>