<?xml version="1.0" encoding="UTF-8"?>
<svg width="13px" height="13px" viewBox="0 0 13 13" version="1.1" xmlns="http://www.w3.org/2000/svg" xmlns:xlink="http://www.w3.org/1999/xlink">
    <!-- Generator: Sketch 50.2 (55047) - http://www.bohemiancoding.com/sketch -->
    <title>Combined Shape</title>
    <desc>Created with Sketch.</desc>
    <defs></defs>
    <g id="Page-1" stroke="none" stroke-width="1" fill="none" fill-rule="evenodd">
        <g id="02._QLDV_Danh_Sach_Doan_Vao-Them_Doan_Vao" transform="translate(-298.000000, -391.000000)" fill="#5C6376" fill-rule="nonzero">
            <g id="Group-4-Copy-6" transform="translate(278.000000, 379.000000)">
                <path d="M32.6650518,16.0911152 C32.2195419,15.6456113 31.4946138,15.6456367 31.0489515,16.0912168 C30.9118832,16.2284023 30.0367335,17.1042012 29.9030425,17.2380098 L29.9030425,14.2198008 C29.9030425,13.9146055 29.7841806,13.6276914 29.568345,13.4118965 L28.4910718,12.3346484 C28.2752616,12.1188281 27.9883019,12 27.6830851,12 L21.1426587,12 C20.5125967,12 20,12.5125605 20,13.1425781 L20,23.8574219 C20,24.4874395 20.5125967,25 21.1426587,25 L28.7603837,25 C29.3904458,25 29.9030425,24.4874395 29.9030425,23.8574219 L29.9030425,20.4710996 L32.6650264,17.7069746 C33.1116028,17.2604551 33.1117044,16.5376855 32.6650518,16.0911152 Z M27.6177504,12.7617188 C27.6897125,12.7617188 27.8283805,12.749252 27.9524224,12.8732598 L29.0297211,13.9505078 C29.150589,14.0713926 29.1412954,14.2038555 29.1412954,14.2851562 L27.6177504,14.2851562 L27.6177504,12.7617188 Z M29.14127,23.8574219 C29.14127,24.0674277 28.9704298,24.2382812 28.7603837,24.2382812 L21.1426587,24.2382812 C20.9326381,24.2382812 20.7617725,24.0674277 20.7617725,23.8574219 L20.7617725,13.1425781 C20.7617725,12.9325723 20.9326381,12.7617188 21.1426587,12.7617188 L26.8559525,12.7617188 L26.8559525,14.6660156 C26.8559525,14.8763516 27.026488,15.046875 27.2368387,15.046875 L29.14127,15.046875 L29.14127,18.0003887 C29.14127,18.0003887 28.017554,19.1249902 28.0175032,19.1250156 L27.4791078,19.6633984 C27.4373119,19.7051914 27.4057745,19.7561758 27.3870857,19.8122637 L26.8484109,21.428123 C26.8027808,21.5649785 26.8384063,21.715875 26.9404331,21.8178691 C27.0425867,21.9200156 27.1935447,21.9554609 27.3302066,21.9098848 L28.94618,21.3712734 C29.0022719,21.3525859 29.0532599,21.3210762 29.0950558,21.2792578 L29.14127,21.2330469 L29.14127,23.8574219 Z M28.2870691,19.9327168 L28.8257184,20.4713281 L28.6199637,20.6770684 L27.8120024,20.9463613 L28.0813143,20.1384316 L28.2870691,19.9327168 Z M29.3642662,19.9325898 L28.8256168,19.3939785 C29.1124496,19.1069375 30.3863617,17.8320234 30.656537,17.5616387 L31.1951864,18.10025 L29.3642662,19.9325898 Z M32.1262755,17.1684648 L31.7336326,17.5614102 L31.1949832,17.0227988 L31.5877531,16.6297266 C31.7363496,16.4812168 31.977933,16.4812422 32.1264279,16.6297266 C32.2748973,16.7782617 32.2756845,17.019041 32.1262755,17.1684648 Z M27.2368387,15.8085938 C27.4471895,15.8085938 27.617725,15.9791172 27.617725,16.1894531 C27.617725,16.3997891 27.4471895,16.5703125 27.2368387,16.5703125 L21.9044312,16.5703125 C21.6940805,16.5703125 21.523545,16.3997891 21.523545,16.1894531 C21.523545,15.9791172 21.6940805,15.8085938 21.9044312,15.8085938 L27.2368387,15.8085938 Z M25.7132937,17.3320312 C25.9236445,17.3320312 26.09418,17.5025547 26.09418,17.7128906 C26.09418,17.9232266 25.9236445,18.09375 25.7132937,18.09375 L21.9044312,18.09375 C21.6940805,18.09375 21.523545,17.9232266 21.523545,17.7128906 C21.523545,17.5025547 21.6940805,17.3320312 21.9044312,17.3320312 L25.7132937,17.3320312 Z M25.7132937,18.8554688 C25.9236445,18.8554688 26.09418,19.0259922 26.09418,19.2363281 C26.09418,19.4466641 25.9236445,19.6171875 25.7132937,19.6171875 L21.9044312,19.6171875 C21.6940805,19.6171875 21.523545,19.4466641 21.523545,19.2363281 C21.523545,19.0259922 21.6940805,18.8554688 21.9044312,18.8554688 L25.7132937,18.8554688 Z M25.7132937,20.3789062 C25.9236445,20.3789062 26.09418,20.5494297 26.09418,20.7597656 C26.09418,20.9701016 25.9236445,21.140625 25.7132937,21.140625 L21.9044312,21.140625 C21.6940805,21.140625 21.523545,20.9701016 21.523545,20.7597656 C21.523545,20.5494297 21.6940805,20.3789062 21.9044312,20.3789062 L25.7132937,20.3789062 Z M27.2368387,22.7148438 C27.4471895,22.7148438 27.617725,22.8853672 27.617725,23.0957031 C27.617725,23.3060391 27.4471895,23.4765625 27.2368387,23.4765625 L24.9515212,23.4765625 C24.7411705,23.4765625 24.570635,23.3060391 24.570635,23.0957031 C24.570635,22.8853672 24.7411705,22.7148438 24.9515212,22.7148438 L27.2368387,22.7148438 Z" id="Combined-Shape"></path>
            </g>
        </g>
    </g>
</svg>