<?xml version="1.0" encoding="UTF-8"?>
<svg width="10px" height="13px" viewBox="0 0 10 13" version="1.1" xmlns="http://www.w3.org/2000/svg" xmlns:xlink="http://www.w3.org/1999/xlink">
    <!-- Generator: Sketch 50.2 (55047) - http://www.bohemiancoding.com/sketch -->
    <title>Shape</title>
    <desc>Created with Sketch.</desc>
    <defs></defs>
    <g id="Page-1" stroke="none" stroke-width="1" fill="none" fill-rule="evenodd">
        <g id="01._QLDA_Danh_Sach_Du_An" transform="translate(-298.000000, -374.000000)" fill="#5C6376" fill-rule="nonzero">
            <g id="Group-4-Copy-5" transform="translate(278.000000, 362.000000)">
                <g id="Group-3" transform="translate(20.000000, 10.000000)">
                    <path d="M0.0327983228,8.9551784 C-0.0457435281,8.26711803 0.0197080143,7.60287513 0.19773621,6.98891358 C0.789418153,4.94854994 2.64562389,3.44804906 4.84741378,3.4215852 L4.84741378,2.08780664 C4.84741378,2.01370783 4.93904594,1.97401204 4.99926136,2.01900061 L7.71419134,4.03554676 C7.75869839,4.06994978 7.75869839,4.13875582 7.71419134,4.17051245 L5.00187942,6.18705861 C4.93904594,6.23204717 4.85003184,6.19235138 4.85003184,6.11825257 L4.85003184,4.7871204 C3.40224372,4.81093787 2.1665186,5.71335551 1.63505208,6.98891358 C1.43346133,7.47055583 1.33135692,8.00247943 1.3601556,8.56086688 C1.39942653,9.32831883 1.68479525,10.0349039 2.13510186,10.6065233 C2.37596354,10.9108577 2.31836618,11.3554505 2.00681684,11.5856861 C1.71097587,11.8053362 1.29732212,11.7444693 1.06955075,11.4533668 C0.511903613,10.7494281 0.140138852,9.89199905 0.0327983228,8.9551784 Z M7.87127504,6.39347672 C8.32419971,6.96244972 8.60956844,7.67168117 8.6462213,8.43913312 C8.67501998,9.00016696 8.57029751,9.53209055 8.37132482,10.0110864 C7.8398583,11.2866445 6.60413318,12.1917085 5.15634506,12.2128796 L5.15634506,10.8817474 C5.15634506,10.8076486 5.0647129,10.7679528 5.00449748,10.8129414 L2.2895675,12.8294875 C2.24506046,12.8638906 2.24506046,12.9326966 2.2895675,12.9644532 L5.00187942,14.9809994 C5.0647129,15.025988 5.153727,14.9862922 5.153727,14.9121934 L5.153727,13.5784148 C7.35551688,13.5545973 9.21434069,12.0540964 9.80340457,10.0110864 C9.98143276,9.39712487 10.0442662,8.73288197 9.96834246,8.0448216 C9.86361999,7.10800095 9.49185523,6.25057187 8.93420809,5.54663319 C8.70381866,5.25553072 8.29278297,5.19466385 7.996942,5.41431389 C7.68801072,5.64454947 7.63041336,6.08914232 7.87127504,6.39347672 Z" id="Shape"></path>
                </g>
            </g>
        </g>
    </g>
</svg>