<?xml version="1.0" encoding="UTF-8"?>
<svg width="16px" height="16px" viewBox="0 0 16 16" version="1.1" xmlns="http://www.w3.org/2000/svg" xmlns:xlink="http://www.w3.org/1999/xlink">
    <!-- Generator: Sketch 51.3 (57544) - http://www.bohemiancoding.com/sketch -->
    <title>xem thong ke</title>
    <desc>Created with Sketch.</desc>
    <defs></defs>
    <g id="Page-1" stroke="none" stroke-width="1" fill="none" fill-rule="evenodd">
        <g id="01._BCTK_Thong_Ke_Du_An" transform="translate(-1282.000000, -230.000000)" fill="#FFFFFF" fill-rule="nonzero">
            <g id="Group-6" transform="translate(1262.000000, 220.000000)">
                <path d="M30.7121237,12.2009641 C26.3870254,10.2546501 21.8771784,13.3852466 21.5934573,17.4659082 C21.0722021,17.4197245 20.5509469,17.3768396 20,17.3273571 C20.3233102,14.6256094 21.58356,12.5308478 23.9028156,11.148635 C26.3045483,9.72023852 28.8151508,9.66745713 31.3884358,10.7494757 C31.1542009,11.2541978 30.9331623,11.7259315 30.7121237,12.2009641 Z M35.8850865,16.6379001 C36.7494463,21.9292349 32.5794049,25.838357 28.6864865,25.9769081 C28.6402994,25.4622895 28.5974113,24.9476709 28.5512241,24.419857 C30.4119071,24.2153291 31.9294855,23.407114 33.0643702,21.9391314 C34.2091521,20.4645512 34.5918458,18.7821443 34.3147228,16.9117036 C34.8524734,16.8193361 35.3671304,16.7269687 35.8850865,16.6379001 Z M21.5670646,18.5875129 C22.1345069,21.9490279 24.0809661,23.892043 27.4328348,24.4528454 C27.3899468,24.9542686 27.3437596,25.4721861 27.2975724,26 C23.008764,25.6503233 20.1616551,21.9820163 20.0428881,18.7194663 C20.5575451,18.6732826 21.0722021,18.6303977 21.5670646,18.5875129 Z M33.0742674,14.1175885 C32.6750783,13.599671 32.2033094,13.1609257 31.6754561,12.7716629 C31.9855699,12.3263199 32.2857865,11.8974711 32.5926012,11.4620246 C33.9650199,12.4483769 34.9349504,13.7052338 35.5287855,15.2853768 C35.0141284,15.4734106 34.522565,15.6515478 34.0244034,15.8329838 C33.7835703,15.2062047 33.4734565,14.6355059 33.0742674,14.1175885 Z M29.96983,15.8659722 L31.7546341,15.8659722 C31.8997937,15.8659722 32.0152617,15.9814315 32.0152617,16.1265803 L32.0152617,21.2826628 C32.0152617,21.4278117 31.8997937,21.543271 31.7546341,21.543271 L29.96983,21.543271 C29.8246703,21.543271 29.7092024,21.4278117 29.7092024,21.2826628 L29.7092024,16.1265803 C29.7092024,15.9814315 29.8246703,15.8659722 29.96983,15.8659722 Z M31.4940065,21.0220547 L31.4940065,16.3904873 L30.2304576,16.3904873 L30.2304576,21.0220547 L31.4940065,21.0220547 Z M24.2459203,17.2349896 L26.0307244,17.2349896 C26.1758841,17.2349896 26.291352,17.3504489 26.291352,17.4955978 L26.291352,21.2826628 C26.291352,21.4278117 26.1758841,21.543271 26.0307244,21.543271 L24.2459203,21.543271 C24.1007606,21.543271 23.9852927,21.4278117 23.9852927,21.2826628 L23.9852927,17.4955978 C23.9852927,17.3504489 24.1007606,17.2349896 24.2459203,17.2349896 Z M24.5065479,21.0220547 L24.9123351,21.0220547 L24.5065479,20.6162977 L24.5065479,21.0220547 Z M25.3247206,21.0220547 L25.3247206,21.0253535 L25.7404051,21.0253535 L24.5065479,19.7915884 L24.5065479,20.2039431 L25.3247206,21.0220547 Z M25.7700968,20.6393896 L25.7700968,20.2270349 L24.5065479,18.9635803 L24.5065479,19.3759349 L25.7700968,20.6393896 Z M25.7700968,19.8146803 L25.7700968,19.4023256 L24.5065479,18.138871 L24.5065479,18.5512256 L25.7700968,19.8146803 Z M25.7700968,18.989971 L25.7700968,18.5776163 L24.9519241,17.7595047 L24.5395387,17.7595047 L25.7700968,18.989971 Z M25.7700968,18.1619629 L25.7700968,17.7562059 L25.3643096,17.7562059 L25.7700968,18.1619629 Z M27.1062256,13.7712106 C27.1062256,13.7712106 28.8910297,13.7712106 28.8910297,13.7712106 C29.0361894,13.7712106 29.1516573,13.8866699 29.1516573,14.0318187 L29.1516573,21.2826628 C29.1516573,21.4278117 29.0361894,21.543271 28.8910297,21.543271 L27.1062256,21.543271 C26.9610659,21.543271 26.845598,21.4278117 26.845598,21.2826628 L26.845598,14.0318187 C26.845598,13.8866699 26.9610659,13.7712106 27.1062256,13.7712106 Z" id="xem-thong-ke"></path>
            </g>
        </g>
    </g>
</svg>