<?xml version="1.0" encoding="UTF-8"?>
<svg width="13px" height="15px" viewBox="0 0 13 15" version="1.1" xmlns="http://www.w3.org/2000/svg" xmlns:xlink="http://www.w3.org/1999/xlink">
    <!-- Generator: Sketch 50.2 (55047) - http://www.bohemiancoding.com/sketch -->
    <title>Combined Shape</title>
    <desc>Created with Sketch.</desc>
    <defs></defs>
    <g id="Page-1" stroke="none" stroke-width="1" fill="none" fill-rule="evenodd">
        <g id="03._QLDA_Giai_Doan_1" transform="translate(-994.000000, -669.000000)" fill="#5C6376" fill-rule="nonzero">
            <g id="Group-4-Copy-6" transform="translate(979.000000, 658.000000)">
                <path d="M23.3430316,11 L19.6569684,11 L19.6569684,12.9175684 L15,12.9175684 L15,16.1152344 L15.8668046,16.1152344 L16.835788,26 L26.164212,26 L27.1331954,16.1152344 L28,16.1152344 L28,12.9175684 L23.3430316,12.9175684 L23.3430316,11 Z M20.5439368,11.8789062 L22.4560632,11.8789062 L22.4560632,12.9175684 L20.5439368,12.9175684 L20.5439368,11.8789062 Z M25.359229,25.1210938 L17.640771,25.1210938 L16.7579418,16.1152344 L26.2420287,16.1152344 L25.359229,25.1210938 Z M27.1130316,13.7964746 L27.1130316,15.2363281 L15.8869684,15.2363281 L15.8869684,13.7964746 L27.1130316,13.7964746 Z M21.0565158,17.8261719 L21.9434842,17.8261719 L21.9434842,23.412207 L21.0565158,23.412207 L21.0565158,17.8261719 Z M23.4284171,17.8261719 L24.3163612,17.8261719 L24.0521924,23.4121191 L23.1642779,23.4121191 L23.4284171,17.8261719 Z M19.5715829,17.8261719 L19.8357221,23.4121191 L18.947778,23.4121191 L18.6836388,17.8261719 L19.5715829,17.8261719 Z" id="Combined-Shape"></path>
            </g>
        </g>
    </g>
</svg>