<?xml version="1.0" encoding="UTF-8"?>
<svg width="10px" height="12px" viewBox="0 0 10 12" version="1.1" xmlns="http://www.w3.org/2000/svg" xmlns:xlink="http://www.w3.org/1999/xlink">
    <!-- Generator: Sketch 50.2 (55047) - http://www.bohemiancoding.com/sketch -->
    <title>Combined Shape</title>
    <desc>Created with Sketch.</desc>
    <defs></defs>
    <g id="Page-1" stroke="none" stroke-width="1" fill="none" fill-rule="evenodd">
        <g id="01._QLDA_Danh_Sach_Du_An" transform="translate(-1356.000000, -559.000000)" fill="#C73A3A" fill-rule="nonzero">
            <g id="Group-4-Copy" transform="translate(263.000000, 433.000000)">
                <g id="Group-11" transform="translate(15.000000, 68.000000)">
                    <g id="Group-50">
                        <g id="Group-47" transform="translate(1.000000, 56.000000)">
                            <g id="Group-7" transform="translate(1077.000000, 0.000000)">
                                <path d="M0,4.40147794 L10,4.40147794 L10,5.286125 L9.11022081,5.286125 L8.4155418,13.5963015 C8.39664154,13.8246985 8.21484697,14 7.99705391,14 L1.98878137,14 C1.77100926,14 1.58934042,13.8248309 1.57029348,13.5964559 L0.875635422,5.286125 L0,5.286125 L0,4.40147794 Z M7.04453925,6.59983824 L6.86247229,11.8339118 L6.0226887,11.8016176 L6.20475566,6.56741176 L7.04453925,6.59983824 Z M4.57983581,6.583625 L5.42016419,6.583625 L5.42016419,11.8178529 L4.57983581,11.8178529 L4.57983581,6.583625 Z M3.97716463,11.8014853 L3.13740199,11.8339118 L2.95531408,6.59970588 L3.79509767,6.56725735 L3.97716463,11.8014853 Z M7.61219675,13.1153529 L8.2666865,5.286125 L1.71919068,5.286125 L2.37353376,13.1153529 L7.61219675,13.1153529 Z M6.37255313,2 C6.75868846,2 7.07282678,2.33070588 7.07282678,2.73720588 L7.07282678,4.13791912 L6.2324984,4.13791912 L6.2324984,2.88464706 L3.7675016,2.88464706 L3.7675016,4.13791912 L2.92717322,4.13791912 L2.92717322,2.73720588 C2.92717322,2.33070588 3.24131154,2 3.62744687,2 L6.37255313,2 Z" id="Combined-Shape"></path>
                            </g>
                        </g>
                    </g>
                </g>
            </g>
        </g>
    </g>
</svg>