<?xml version="1.0" encoding="UTF-8"?>
<svg width="11px" height="13px" viewBox="0 0 11 13" version="1.1" xmlns="http://www.w3.org/2000/svg" xmlns:xlink="http://www.w3.org/1999/xlink">
    <!-- Generator: Sketch 50.2 (55047) - http://www.bohemiancoding.com/sketch -->
    <title>Combined Shape</title>
    <desc>Created with Sketch.</desc>
    <defs></defs>
    <g id="Page-1" stroke="none" stroke-width="1" fill="none" fill-rule="evenodd">
        <g id="02.1._QLDV_Danh_Sach_Doan_Vao-DS_Thanh_Vien" transform="translate(-552.000000, -1080.000000)" fill="#5C6376" fill-rule="nonzero">
            <g id="Group-4" transform="translate(263.000000, 624.000000)">
                <g id="Group-4-Copy-6" transform="translate(269.000000, 444.000000)">
                    <path d="M30.8724746,24.521472 L30.8724746,16.0595215 C30.8724746,15.9239292 30.8161083,15.7963311 30.7194641,15.7085916 L26.8295343,12.1275981 C26.7409343,12.0478528 26.620129,12 26.4993237,12 L20.4832211,12 C20.2174495,12 20,12.2153376 20,12.478528 L20,17.8220807 C20,18.0852711 20.2174495,18.3006087 20.4832211,18.3006087 C20.7489927,18.3006087 20.9664422,18.0852711 20.9664422,17.8220807 L20.9664422,12.9570559 L25.8791805,12.9570559 L25.8791805,16.6257608 C25.8791805,16.8889512 26.09663,17.1042888 26.3624016,17.1042888 L29.8254766,17.1042888 C29.8496377,17.1042888 29.881843,17.1042888 29.906004,17.0963227 L29.906004,24.0429441 L20.9664422,24.0429441 L20.9664422,22.1288323 C20.9664422,21.8656419 20.7489927,21.6503043 20.4832211,21.6503043 C20.2174495,21.6503043 20,21.8656419 20,22.1288323 L20,24.521472 C20,24.7846624 20.2174495,25 20.4832211,25 L30.3892535,25 C30.6550251,25 30.8724746,24.7846624 30.8724746,24.521472 Z M26.8456227,13.4515442 L29.7691103,16.147261 L26.8456227,16.147261 L26.8456227,13.4515442 Z M28.1529963,19.8957112 C28.1529963,20.1589016 27.9355468,20.3742392 27.6697752,20.3742392 L22.6362316,20.3742392 L24.1905833,21.7460099 C24.391916,21.9214608 24.4080328,22.2245379 24.2308612,22.4239151 C24.134217,22.5275868 24.0053675,22.5834338 23.8684454,22.5834338 C23.7556844,22.5834338 23.6429517,22.5435471 23.5463075,22.4638019 L21.0335578,20.246613 C20.9288694,20.1588734 20.8724746,20.0233093 20.8724746,19.887717 C20.8724746,19.7521247 20.928841,19.6245266 21.0335578,19.528821 L23.5462791,17.3116603 C23.7476117,17.1362094 24.0536612,17.1521416 24.2308328,17.351547 C24.4080044,17.5509243 24.391916,17.8540013 24.1905549,18.0294522 L22.6120422,19.4171833 L27.6697752,19.4171833 C27.9355468,19.4171833 28.1529963,19.6325208 28.1529963,19.8957112 Z" id="Combined-Shape" transform="translate(25.436237, 18.500000) scale(-1, 1) translate(-25.436237, -18.500000) "></path>
                </g>
            </g>
        </g>
    </g>
</svg>