<?xml version="1.0" encoding="UTF-8"?>
<svg width="13px" height="13px" viewBox="0 0 13 13" version="1.1" xmlns="http://www.w3.org/2000/svg" xmlns:xlink="http://www.w3.org/1999/xlink">
    <!-- Generator: Sketch 50.2 (55047) - http://www.bohemiancoding.com/sketch -->
    <title>Shape</title>
    <desc>Created with Sketch.</desc>
    <defs></defs>
    <g id="Page-1" stroke="none" stroke-width="1" fill="none" fill-rule="evenodd">
        <g id="02._QLDA_Them_Moi_Du_An" transform="translate(-157.000000, -836.000000)" fill="#4274ED" fill-rule="nonzero">
            <path d="M167,838.3 C166.6,838.1 166.1,838.2 165.9,838.5 C165.8,838.7 165.8,838.9 165.8,839.1 C165.8,839.3 165.9,839.5 166.1,839.6 C166.1,839.6 166.1,839.6 166.1,839.6 C166.3,839.8 166.5,839.9 166.7,840.1 C167.9,841.4 168.2,843.3 167.4,844.9 C166.8,845.9 166,846.6 164.9,847 C163.9,847.4 162.7,847.3 161.7,846.8 C160.7,846.3 160,845.5 159.6,844.4 C159.2,843.3 159.3,842.2 159.8,841.2 C160.4,840.1 161.4,839.3 162.7,839 L162.7,839.7 C162.7,839.9 162.8,840.1 163,840.2 C163.2,840.3 163.5,840.3 163.6,840.1 L165,838.6 C165.1,838.5 165.1,838.4 165.1,838.2 C165.1,838 165,837.9 164.9,837.8 L163.4,836.4 C163.2,836.3 163,836.2 162.8,836.3 C162.7,836.3 162.6,836.4 162.6,836.4 C162.6,836.5 162.5,836.7 162.5,836.8 L162.5,837.5 C160.7,837.8 159.1,839 158.3,840.6 C157.6,841.9 157.5,843.5 158,844.9 C158.5,846.3 159.5,847.5 160.9,848.2 C161.7,848.6 162.6,848.8 163.5,848.8 C165.7,848.8 167.7,847.6 168.8,845.4 C170,842.9 169.3,839.9 167,838.3 Z" id="Shape"></path>
        </g>
    </g>
</svg>