<?xml version="1.0" encoding="UTF-8"?>
<svg width="13px" height="13px" viewBox="0 0 13 13" version="1.1" xmlns="http://www.w3.org/2000/svg" xmlns:xlink="http://www.w3.org/1999/xlink">
    <!-- Generator: Sketch 50.2 (55047) - http://www.bohemiancoding.com/sketch -->
    <title>Shape</title>
    <desc>Created with Sketch.</desc>
    <defs></defs>
    <g id="Page-1" stroke="none" stroke-width="1" fill="none" fill-rule="evenodd">
        <path d="M10,2.3 C9.6,2.1 9.1,2.2 8.9,2.5 C8.8,2.7 8.8,2.9 8.8,3.1 C8.8,3.3 8.9,3.5 9.1,3.6 C9.1,3.6 9.1,3.6 9.1,3.6 C9.3,3.8 9.5,3.9 9.7,4.1 C10.9,5.4 11.2,7.3 10.4,8.9 C9.8,9.9 9,10.6 7.9,11 C6.9,11.4 5.7,11.3 4.7,10.8 C3.7,10.3 3,9.5 2.6,8.4 C2.2,7.3 2.3,6.2 2.8,5.2 C3.4,4.1 4.4,3.3 5.7,3 L5.7,3.7 C5.7,3.9 5.8,4.1 6,4.2 C6.2,4.3 6.5,4.3 6.6,4.1 L8,2.6 C8.1,2.5 8.1,2.4 8.1,2.2 C8.1,2 8,1.9 7.9,1.8 L6.4,0.4 C6.2,0.3 6,0.2 5.8,0.3 C5.7,0.3 5.6,0.4 5.6,0.4 C5.6,0.5 5.5,0.7 5.5,0.8 L5.5,1.5 C3.7,1.8 2.1,3 1.3,4.6 C0.6,5.9 0.5,7.5 1,8.9 C1.5,10.3 2.5,11.5 3.9,12.2 C4.7,12.6 5.6,12.8 6.5,12.8 C8.7,12.8 10.7,11.6 11.8,9.4 C13,6.9 12.3,3.9 10,2.3 Z" id="Shape" fill="#FFFFFF" fill-rule="nonzero"></path>
    </g>
</svg>