<?xml version="1.0" encoding="utf-8"?>
<!-- Generator: Adobe Illustrator 19.0.0, SVG Export Plug-In . SVG Version: 6.00 Build 0)  -->
<svg version="1.1" id="Layer_1" xmlns="http://www.w3.org/2000/svg" xmlns:xlink="http://www.w3.org/1999/xlink" x="0px" y="0px"
	 viewBox="-414 291.3 13 14" style="enable-background:new -414 291.3 13 14;" xml:space="preserve">
<style type="text/css">
	.st0{fill:#4274ED;}
</style>
<title>Shape</title>
<desc>Created with Sketch.</desc>
<path class="st0" d="M-818,585.3c-0.4-0.2-0.9-0.1-1.1,0.2c-0.1,0.2-0.1,0.4-0.1,0.6c0,0.2,0.1,0.4,0.3,0.5c0,0,0,0,0,0
	c0.2,0.2,0.4,0.3,0.6,0.5c1.2,1.3,1.5,3.2,0.7,4.8c-0.6,1-1.4,1.7-2.5,2.1c-1,0.4-2.2,0.3-3.2-0.2s-1.7-1.3-2.1-2.4
	c-0.4-1.1-0.3-2.2,0.2-3.2c0.6-1.1,1.6-1.9,2.9-2.2v0.7c0,0.2,0.1,0.4,0.3,0.5c0.2,0.1,0.5,0.1,0.6-0.1l1.4-1.5
	c0.1-0.1,0.1-0.2,0.1-0.4c0-0.2-0.1-0.3-0.2-0.4l-1.5-1.4c-0.2-0.1-0.4-0.2-0.6-0.1c-0.1,0-0.2,0.1-0.2,0.1c0,0.1-0.1,0.3-0.1,0.4
	v0.7c-1.8,0.3-3.4,1.5-4.2,3.1c-0.7,1.3-0.8,2.9-0.3,4.3c0.5,1.4,1.5,2.6,2.9,3.3c0.8,0.4,1.7,0.6,2.6,0.6c2.2,0,4.2-1.2,5.3-3.4
	C-815,589.9-815.7,586.9-818,585.3z"/>
</svg>
