<?xml version="1.0" encoding="UTF-8" standalone="no"?>
<svg width="10px" height="10px" viewBox="0 0 10 10" version="1.1" xmlns="http://www.w3.org/2000/svg" xmlns:xlink="http://www.w3.org/1999/xlink">
    <!-- Generator: Sketch 47.1 (45422) - http://www.bohemiancoding.com/sketch -->
    <title>Shape</title>
    <desc>Created with Sketch.</desc>
    <defs></defs>
    <g id="Page-1" stroke="none" stroke-width="1" fill="none" fill-rule="evenodd">
        <g id="02.-Popup---Chua-Add-Hinh" transform="translate(-427.000000, -661.000000)" fill-rule="nonzero" fill="#666666">
            <g id="Group-3" transform="translate(389.000000, 648.000000)">
                <g id="Button">
                    <g id="Group" transform="translate(38.000000, 9.000000)">
                        <path d="M6.43835616,9.15981735 C6.34703196,9.06849315 6.34703196,8.93150685 6.43835616,8.84018265 L9.8630137,5.41552511 C9.9543379,5.32420091 10,5.18721461 10,5.09589041 C10,5.00456621 9.9543379,4.86757991 9.8630137,4.77625571 L9.22374429,4.1369863 C9.13242009,4.0456621 8.99543379,4 8.90410959,4 C8.76712329,4 8.67579909,4.0456621 8.58447489,4.1369863 L5.15981735,7.56164384 C5.06849315,7.65296804 4.93150685,7.65296804 4.84018265,7.56164384 L1.41552511,4.1369863 C1.32420091,4.0456621 1.18721461,4 1.09589041,4 C1.00456621,4 0.867579909,4.0456621 0.776255708,4.1369863 L0.136986301,4.77625571 C0.0456621005,4.86757991 0,5.00456621 0,5.09589041 C0,5.18721461 0.0456621005,5.32420091 0.136986301,5.41552511 L3.56164384,8.84018265 C3.65296804,8.93150685 3.65296804,9.06849315 3.56164384,9.15981735 L0.136986301,12.5844749 C0.0456621005,12.6757991 0,12.8127854 0,12.9041096 C0,12.9954338 0.0456621005,13.1324201 0.136986301,13.2237443 L0.776255708,13.8630137 C0.867579909,13.9543379 1.00456621,14 1.09589041,14 C1.18721461,14 1.32420091,13.9543379 1.41552511,13.8630137 L4.84018265,10.4383562 C4.93150685,10.347032 5.06849315,10.347032 5.15981735,10.4383562 L8.58447489,13.8630137 C8.67579909,13.9543379 8.81278539,14 8.90410959,14 C8.99543379,14 9.13242009,13.9543379 9.22374429,13.8630137 L9.8630137,13.2237443 C9.9543379,13.1324201 10,12.9954338 10,12.9041096 C10,12.8127854 9.9543379,12.6757991 9.8630137,12.5844749 L6.43835616,9.15981735 Z" id="Shape"></path>
                    </g>
                </g>
            </g>
        </g>
    </g>
</svg>