<?xml version="1.0" encoding="UTF-8"?>
<svg width="13px" height="20px" viewBox="0 0 13 20" version="1.1" xmlns="http://www.w3.org/2000/svg" xmlns:xlink="http://www.w3.org/1999/xlink">
    <!-- Generator: Sketch 49.3 (51167) - http://www.bohemiancoding.com/sketch -->
    <title>Quản lý báo cáo xử lý công việc</title>
    <desc>Created with Sketch.</desc>
    <defs></defs>
    <g id="Page-1" stroke="none" stroke-width="1" fill="none" fill-rule="evenodd">
        <g id="02.Chi_Tiet_Cong_Viec" transform="translate(-256.000000, -100.000000)" fill="#67CC75">
            <path d="M260.789474,102.068966 L260.789474,101.37931 C260.789474,101.005746 260.92489,100.682472 261.195725,100.409484 C261.466557,100.136494 261.78728,100 262.157895,100 L262.842105,100 C263.226976,100 263.551259,100.132902 263.814968,100.398706 C264.078673,100.664513 264.210526,100.991377 264.210526,101.37931 L264.210526,102.068966 L265.578947,102.068966 C265.764256,102.068966 265.924616,102.137211 266.060032,102.273708 C266.195451,102.410201 266.263158,102.571837 266.263158,102.758621 L266.263158,103.448276 C266.263158,103.635059 266.195451,103.796695 266.060032,103.933189 C265.924616,104.069686 265.764256,104.137931 265.578947,104.137931 L259.421053,104.137931 C259.235744,104.137931 259.075384,104.069686 258.939968,103.933189 C258.804549,103.796695 258.736842,103.635059 258.736842,103.448276 L258.736842,102.758621 C258.736842,102.571837 258.804549,102.410201 258.939968,102.273708 C259.075384,102.137211 259.235744,102.068966 259.421053,102.068966 L260.789474,102.068966 Z M266.947368,102.758621 L267.631579,102.758621 C268.01645,102.758621 268.340733,102.895114 268.604441,103.168105 C268.868147,103.441092 269,103.764367 269,104.137931 L269,118.62069 C269,119.008623 268.868147,119.335487 268.604441,119.601293 C268.340733,119.867099 268.01645,120 267.631579,120 L257.368421,120 C256.983551,120 256.659267,119.863507 256.395559,119.590517 C256.131852,119.317527 256,118.994255 256,118.62069 L256,104.137931 C256,103.749997 256.131852,103.423134 256.395559,103.157327 C256.659267,102.891523 256.983551,102.758621 257.368421,102.758621 L258.052632,102.758621 C258.052632,102.758621 258.052632,102.758621 258.052632,102.758621 L258.052632,103.448276 C258.052632,103.82184 258.184483,104.145114 258.448191,104.418102 C258.711898,104.691092 259.036181,104.827586 259.421053,104.827586 L265.578947,104.827586 C265.949562,104.827586 266.270285,104.694684 266.541117,104.42888 C266.811952,104.163073 266.947368,103.83621 266.947368,103.448276 L266.947368,102.758621 C266.947368,102.758621 266.947368,102.758621 266.947368,102.758621 Z M262.5,102.068966 C262.599783,102.068966 262.681743,102.036637 262.745889,101.971983 C262.810032,101.907327 262.842105,101.824714 262.842105,101.724138 C262.842105,101.623561 262.810032,101.540949 262.745889,101.476292 C262.681743,101.411639 262.599783,101.37931 262.5,101.37931 C262.400217,101.37931 262.318257,101.411639 262.254111,101.476292 C262.189968,101.540949 262.157895,101.623561 262.157895,101.724138 C262.157895,101.824714 262.189968,101.907327 262.254111,101.971983 C262.318257,102.036637 262.400217,102.068966 262.5,102.068966 Z M261.473684,108.275862 L261.473684,108.965517 L266.947368,108.965517 L266.947368,108.275862 L261.473684,108.275862 Z M258.052632,107.586207 L258.052632,109.655172 L260.105263,109.655172 L260.105263,107.586207 L258.052632,107.586207 Z M259.421053,108.275862 L259.421053,108.965517 L258.736842,108.965517 L258.736842,108.275862 L259.421053,108.275862 Z M258.052632,111.034483 L258.052632,113.103448 L260.105263,113.103448 L260.105263,111.034483 L258.052632,111.034483 Z M259.421053,111.724138 L259.421053,112.413793 L258.736842,112.413793 L258.736842,111.724138 L259.421053,111.724138 Z M261.473684,111.724138 L261.473684,112.413793 L266.947368,112.413793 L266.947368,111.724138 L261.473684,111.724138 Z M258.052632,114.482759 L258.052632,116.551724 L260.105263,116.551724 L260.105263,114.482759 L258.052632,114.482759 Z M259.421053,115.172414 L259.421053,115.862069 L258.736842,115.862069 L258.736842,115.172414 L259.421053,115.172414 Z M261.473684,115.172414 L261.473684,115.862069 L266.947368,115.862069 L266.947368,115.172414 L261.473684,115.172414 Z" id="Quản-lý-báo-cáo-xử-lý-công-việc"></path>
        </g>
    </g>
</svg>