<?xml version="1.0" encoding="UTF-8"?>
<svg width="19px" height="20px" viewBox="0 0 19 20" version="1.1" xmlns="http://www.w3.org/2000/svg" xmlns:xlink="http://www.w3.org/1999/xlink">
    <!-- Generator: Sketch 49.3 (51167) - http://www.bohemiancoding.com/sketch -->
    <title>Quản lý chuyên viên</title>
    <desc>Created with Sketch.</desc>
    <defs></defs>
    <g id="Page-1" stroke="none" stroke-width="1" fill="none" fill-rule="evenodd">
        <g id="02.Chi_Tiet_Cong_Viec" transform="translate(-566.000000, -100.000000)" fill="#E94966" fill-rule="nonzero">
            <path d="M577.84389,110.560036 C579.565584,109.423575 580.746715,107.180452 580.746715,105.161939 C580.746715,102.310916 578.398469,100 575.500189,100 C572.60191,100 570.2548,102.310916 570.2548,105.161939 C570.2548,107.180452 571.435931,109.421712 573.157625,110.560036 C569.047152,111.582888 566,115.094333 566,117.693182 C566,119.230812 570.750663,119.997765 575.499811,119.997765 L572.837909,117.382527 L575.07971,112.056693 L575.055466,112.056693 L574.184959,111.077049 C574.604681,111.224554 575.044102,111.315441 575.499811,111.315441 C575.956656,111.315441 576.392288,111.226789 576.813526,111.079284 L575.944155,112.058928 L575.921048,112.058928 L578.162091,117.384762 L575.500189,120 C580.253125,120 585,119.231185 585,117.695417 C585,115.094333 581.953227,111.58773 577.84389,110.560036 Z" id="Quản-lý-chuyên-viên"></path>
        </g>
    </g>
</svg>