<?xml version="1.0" encoding="UTF-8"?>
<svg width="10px" height="6px" viewBox="0 0 10 6" version="1.1" xmlns="http://www.w3.org/2000/svg" xmlns:xlink="http://www.w3.org/1999/xlink">
    <!-- Generator: Sketch 49.3 (51167) - http://www.bohemiancoding.com/sketch -->
    <title>arrow slect</title>
    <desc>Created with Sketch.</desc>
    <defs></defs>
    <g id="Page-1" stroke="none" stroke-width="1" fill="none" fill-rule="evenodd">
        <g id="07.1.-Them-Danh-Sach-Nhom-Nguoi-Dung" transform="translate(-938.000000, -186.000000)" fill="#0076D7" fill-rule="nonzero">
            <g id="Group-10" transform="translate(380.000000, 64.000000)">
                <path d="M567.900115,126.907325 L563.230374,122.103129 C563.163655,122.034412 563.086899,122 563.00007,122 C562.913241,122 562.836345,122.034412 562.769591,122.103129 L558.100236,126.907325 C558.033342,126.97615 558,127.055121 558,127.144492 C558,127.233827 558.033447,127.312907 558.100236,127.381588 L558.601134,127.896907 C558.667923,127.965624 558.744785,127.999964 558.831614,127.999964 C558.918443,127.999964 558.995304,127.965624 559.062093,127.896907 L563.00007,123.845343 L566.938188,127.89716 C567.004942,127.965876 567.081838,128 567.168527,128 C567.255496,128 567.332358,127.96566 567.399111,127.89716 L567.90008,127.381624 C567.966834,127.312943 568,127.233827 568,127.144528 C568.000035,127.055121 567.966869,126.976041 567.900115,126.907325 Z" id="arrow-slect" transform="translate(563.000000, 125.000000) scale(1, -1) translate(-563.000000, -125.000000) "></path>
            </g>
        </g>
    </g>
</svg>