<?xml version="1.0" encoding="UTF-8"?>
<svg width="20px" height="17px" viewBox="0 0 20 17" version="1.1" xmlns="http://www.w3.org/2000/svg" xmlns:xlink="http://www.w3.org/1999/xlink">
    <!-- Generator: Sketch 50.2 (55047) - http://www.bohemiancoding.com/sketch -->
    <title>cai dat tham so</title>
    <desc>Created with Sketch.</desc>
    <defs></defs>
    <g id="Page-1" stroke="none" stroke-width="1" fill="none" fill-rule="evenodd">
        <g id="cai-dat-tham-so" fill-rule="nonzero">
            <path d="M17.9786328,14.6224626 L16.1857422,14.6224626 C15.8736328,14.6224626 15.620625,14.3651589 15.620625,14.0478388 C15.620625,13.7305187 15.8736328,13.473215 16.1857422,13.473215 L17.9786328,13.473215 C18.4700391,13.473215 18.8698047,13.0667243 18.8698047,12.5670514 L18.8698047,2.06613551 C18.8698047,1.56646262 18.4700391,1.15993224 17.9786328,1.15993224 L2.02136719,1.15993224 C1.52996094,1.15997196 1.13019531,1.56646262 1.13019531,2.06613551 L1.13019531,12.5671308 C1.13019531,13.066764 1.52996094,13.4732944 2.02136719,13.4732944 L12.7011328,13.4732944 C13.0132422,13.4732944 13.26625,13.7305981 13.26625,14.0479182 C13.26625,14.3652383 13.0132422,14.6225421 12.7011328,14.6225421 L2.02136719,14.6225421 C0.906757812,14.6224626 0,13.7004509 0,12.5671308 L0,2.06613551 C0,0.93285514 0.906757812,0.0107640187 2.02136719,0.0107640187 L17.9786328,0.0107640187 C19.0932422,0.0107640187 20,0.93285514 20,2.06621495 L20,12.5672103 C20,13.7004509 19.0932422,14.6224626 17.9786328,14.6224626 Z" id="Shape" fill="#969CA8"></path>
            <rect id="Rectangle-path" fill="#E0E2E6" x="7.29882813" y="14.0477991" width="5.40234375" height="2.36681308"></rect>
            <g id="Group" transform="translate(5.039062, 13.464953)" fill="#969CA8">
                <path d="M7.66207031,3.52428271 L2.25980469,3.52428271 C1.94769531,3.52428271 1.6946875,3.26697897 1.6946875,2.94965888 L1.6946875,0.582925234 C1.6946875,0.26564486 1.94769531,0.00830140187 2.25980469,0.00830140187 L7.66203125,0.00830140187 C7.97414063,0.00830140187 8.22714844,0.26560514 8.22714844,0.582925234 L8.22714844,2.94965888 C8.22714844,3.26701869 7.97414062,3.52428271 7.66207031,3.52428271 Z M2.82492188,2.37507477 L7.09695313,2.37507477 L7.09695313,1.15754907 L2.82492188,1.15754907 L2.82492188,2.37507477 Z" id="Shape"></path>
                <path d="M9.35285156,3.52428271 L0.569023438,3.52428271 C0.256914062,3.52428271 0.00390625,3.26697897 0.00390625,2.94965888 C0.00390625,2.63233879 0.256914062,2.37503505 0.569023438,2.37503505 L9.3528125,2.37503505 C9.66492188,2.37503505 9.91792969,2.63233879 9.91792969,2.94965888 C9.91792969,3.26697897 9.66492188,3.52428271 9.35285156,3.52428271 Z" id="Shape"></path>
            </g>
            <path d="M8.59605469,10.7984159 C8.42953125,10.5345981 8.3325,10.2210911 8.3325,9.88434813 C8.3325,8.94791822 9.0790625,8.18879673 10,8.18879673 C10.9209375,8.18879673 11.6675391,8.94791822 11.6675391,9.88434813 C11.6675391,10.2211308 11.5705078,10.5346379 11.4039844,10.7984159 L15.3339844,10.7984159 L15.3339844,8.79960514 L14.1484766,8.60680607 C13.9532422,7.95032009 13.6115625,7.35853738 13.1619141,6.87101869 L13.5909375,5.72979439 L11.743125,4.64493224 L10.9861719,5.59228505 C10.6692578,5.51745327 10.3392969,5.47753505 9.99992188,5.47753505 C9.66085938,5.47753505 9.330625,5.51745327 9.01386719,5.59228505 L8.25691406,4.64493224 L6.40921875,5.72979439 L6.83824219,6.87101869 C6.3884375,7.3585771 6.04671875,7.95032009 5.85148438,8.60680607 L4.66625,8.79960514 L4.66625,10.7984159 L8.59605469,10.7984159 Z" id="Shape" fill="#E0E2E6"></path>
            <path d="M15.3339063,11.3730397 L11.4039844,11.3730397 C11.1973438,11.3730397 11.0071875,11.2583294 10.908125,11.0739509 C10.8090625,10.8895724 10.8167969,10.6648785 10.9284766,10.4880864 C11.0423438,10.3076799 11.1025391,10.0989533 11.1025391,9.88434813 C11.1025391,9.26623131 10.6080078,8.76342056 10.0000781,8.76342056 C9.39214844,8.76342056 8.89761719,9.26627103 8.89761719,9.88434813 C8.89761719,10.0989136 8.9578125,10.3076799 9.07167969,10.4880864 C9.18335938,10.6648785 9.19109375,10.8895724 9.09203125,11.0739509 C8.99296875,11.2583294 8.80277344,11.3730397 8.59617187,11.3730397 L4.66609375,11.3730397 C4.35398438,11.3730397 4.10097656,11.115736 4.10097656,10.7984159 L4.10097656,8.79964486 C4.10097656,8.51735748 4.30265625,8.27681542 4.57679688,8.23228972 L5.42765625,8.09386682 C5.61082031,7.61171028 5.8690625,7.15759579 6.18929688,6.75436215 L5.88125,5.93498598 C5.78214844,5.67128738 5.88605469,5.37342991 6.12648438,5.23222664 L7.97417969,4.14736449 C8.21464844,4.00620093 8.52027344,4.06359579 8.69535156,4.28260981 L9.23898438,4.96300701 C9.74179687,4.88321028 10.2578125,4.88313084 10.7607422,4.96304673 L11.3044141,4.28260981 C11.4795313,4.06351636 11.7852734,4.00624065 12.0255859,4.14736449 L13.8733594,5.23222664 C14.1138281,5.37339019 14.2177734,5.6713271 14.1185938,5.93498598 L13.8105078,6.75448131 C14.130625,7.15779439 14.3887891,7.61186916 14.5719141,8.09390654 L15.4230859,8.23228972 C15.6972266,8.27689486 15.8989063,8.5173972 15.8989063,8.7997243 L15.8989063,10.7984953 C15.8990234,11.115736 15.6460156,11.3730397 15.3339063,11.3730397 Z M12.2076172,10.2238318 L14.7688281,10.2238318 L14.7688281,9.28962617 L14.0591797,9.17420093 C13.8455078,9.13948598 13.6701562,8.98378505 13.6075391,8.77319159 C13.4413281,8.21425701 13.1446484,7.69242056 12.7496484,7.26404439 C12.6017187,7.1035771 12.5567969,6.87129673 12.6340234,6.66586682 L12.8909766,5.9823715 L11.8778516,5.38753037 L11.4246875,5.95460748 C11.2885156,6.12504439 11.0686328,6.20150467 10.8583594,6.15205374 C10.2967578,6.01950935 9.70285156,6.01950935 9.14164063,6.15205374 C8.93109375,6.20158411 8.71136719,6.12504439 8.57523438,5.95460748 L8.12214844,5.38753037 L7.10910156,5.9823715 L7.36605469,6.66586682 C7.44332031,6.87133645 7.39835938,7.10369626 7.2503125,7.26416355 C6.85519531,7.69234112 6.55851563,8.21417757 6.39226563,8.77319159 C6.32964844,8.98378505 6.15429688,9.13948598 5.940625,9.17420093 L5.23125,9.28962617 L5.23125,10.2238318 L7.79246094,10.2238318 C7.77585937,10.1120607 7.76742188,9.99858178 7.76742188,9.88434813 C7.76742188,8.63258411 8.76902344,7.61421262 10.0000781,7.61421262 C11.2311328,7.61421262 12.2327344,8.63258411 12.2327344,9.88434813 C12.2326563,9.99858178 12.2242188,10.1120607 12.2076172,10.2238318 Z" id="Shape" fill="#969CA8"></path>
        </g>
    </g>
</svg>