<?xml version="1.0" encoding="UTF-8"?>
<svg width="18px" height="15px" viewBox="0 0 18 15" version="1.1" xmlns="http://www.w3.org/2000/svg" xmlns:xlink="http://www.w3.org/1999/xlink">
    <!-- Generator: Sketch 49.3 (51167) - http://www.bohemiancoding.com/sketch -->
    <title>camera</title>
    <desc>Created with Sketch.</desc>
    <defs></defs>
    <g id="Page-1" stroke="none" stroke-width="1" fill="none" fill-rule="evenodd">
        <g id="08.1.-Them-Moi-Nguoi-Dung" transform="translate(-991.000000, -396.000000)" fill="#0076D7" fill-rule="nonzero">
            <g id="Group-3" transform="translate(982.000000, 385.000000)">
                <path d="M18,16.625 C16.5087,16.625 15.3,17.884625 15.3,19.4375 C15.3,20.9909375 16.5087,22.25 18,22.25 C19.49094,22.25 20.7,20.9909375 20.7,19.4375 C20.7,17.884625 19.49094,16.625 18,16.625 Z M25.2,13.8125 L23.04,13.8125 C22.743,13.8125 22.42296,13.5725 22.32918,13.278875 L21.77082,11.5334375 C21.67668,11.24 21.357,11 21.06,11 L14.94,11 C14.643,11 14.32296,11.24 14.22918,11.533625 L13.67082,13.2790625 C13.57668,13.5725 13.257,13.8125 12.96,13.8125 L10.8,13.8125 C9.81,13.8125 9,14.65625 9,15.6875 L9,24.125 C9,25.15625 9.81,26 10.8,26 L25.2,26 C26.19,26 27,25.15625 27,24.125 L27,15.6875 C27,14.65625 26.19,13.8125 25.2,13.8125 Z M18,24.125 C15.51474,24.125 13.5,22.0263125 13.5,19.4375 C13.5,16.848875 15.51474,14.75 18,14.75 C20.4849,14.75 22.5,16.848875 22.5,19.4375 C22.5,22.0263125 20.4849,24.125 18,24.125 Z M24.57,16.9986875 C24.22224,16.9986875 23.94,16.7050625 23.94,16.3424375 C23.94,15.9801875 24.22224,15.6861875 24.57,15.6861875 C24.91812,15.6861875 25.2,15.9801875 25.2,16.3424375 C25.2,16.7050625 24.91794,16.9986875 24.57,16.9986875 Z" id="camera"></path>
            </g>
        </g>
    </g>
</svg>