<?xml version="1.0" encoding="UTF-8"?>
<svg width="16px" height="16px" viewBox="0 0 16 16" version="1.1" xmlns="http://www.w3.org/2000/svg" xmlns:xlink="http://www.w3.org/1999/xlink">
    <!-- Generator: Sketch 49.3 (51167) - http://www.bohemiancoding.com/sketch -->
    <title>cau hinh he thong</title>
    <desc>Created with Sketch.</desc>
    <defs></defs>
    <g id="Page-1" stroke="none" stroke-width="1" fill="none" fill-rule="evenodd">
        <g id="06.-Don-Vi-Su-Dung" transform="translate(-23.000000, -323.000000)" fill="#4A4A4A" fill-rule="nonzero">
            <path d="M38.1810256,329.320451 L37.0579907,329.129935 C36.9410079,328.752246 36.7906014,328.387926 36.6067713,328.040318 L37.2685597,327.114477 C37.5493184,326.720075 37.5058677,326.181951 37.161604,325.841028 L36.165579,324.844997 C35.9784065,324.657823 35.7310714,324.554209 35.4670245,324.554209 C35.2597979,324.554209 35.0625983,324.617715 34.89548,324.738041 L33.9663023,325.399833 C33.6053268,325.209317 33.2276394,325.052225 32.8365826,324.935241 L32.6494101,323.825569 C32.5691934,323.347608 32.1580824,323 31.6734393,323 L30.2663033,323 C29.7816603,323 29.3705493,323.347608 29.2903325,323.825569 L29.0964753,324.96198 C28.7221303,325.078964 28.3578124,325.232714 28.0102064,325.419887 L27.0910558,324.758095 C26.9239375,324.637769 26.7233955,324.574264 26.5161689,324.574264 C26.252122,324.574264 26.0014445,324.677878 25.8176144,324.865051 L24.818247,325.861082 C24.4773257,326.202005 24.4305326,326.74013 24.7112913,327.134531 L25.3797645,328.073741 C25.1959343,328.424692 25.0488703,328.789012 24.9352298,329.166701 L23.8255644,329.353875 C23.347606,329.434092 23,329.845206 23,330.329852 L23,331.736996 C23,332.221642 23.347606,332.632755 23.8255644,332.712973 L24.9619687,332.906831 C25.0789515,333.281178 25.2327004,333.645498 25.4198729,333.993106 L24.7614268,334.90892 C24.4806681,335.303321 24.5241188,335.841446 24.8683825,336.182369 L25.8644075,337.1784 C26.05158,337.365573 26.2989151,337.469187 26.562962,337.469187 C26.7701887,337.469187 26.9673882,337.405682 27.1345065,337.285356 L28.0737113,336.616879 C28.4112903,336.794025 28.7655811,336.937748 29.1298989,337.051389 L29.3170714,338.174431 C29.3972882,338.652392 29.8083992,339 30.2930422,339 L31.7035206,339 C32.1881637,339 32.5992747,338.652392 32.6794914,338.174431 L32.8700063,337.051389 C33.2476936,336.934406 33.6120115,336.783998 33.9596175,336.600167 L34.8854529,337.261959 C35.0525712,337.382285 35.2531131,337.445791 35.4603398,337.445791 C35.7243867,337.445791 35.9717218,337.342177 36.1588943,337.155003 L37.1549193,336.158972 C37.4958406,335.818049 37.5426337,335.279925 37.261875,334.885523 L36.6000866,333.95634 C36.7839167,333.60539 36.9376655,333.24107 37.0513059,332.866722 L38.1743409,332.679549 C38.6522992,332.599332 38.9999052,332.188218 38.9999052,331.703572 L38.9999052,330.296428 C39.0065899,329.811782 38.6589839,329.400668 38.1810256,329.320451 Z M38.1041512,331.703572 C38.1041512,331.747023 38.0740699,331.783789 38.0306191,331.790474 L36.6268255,332.024441 C36.4496801,332.054523 36.3093007,332.184876 36.26585,332.355337 C36.1388401,332.846668 35.9449828,333.317944 35.6842783,333.755797 C35.5940344,333.909547 35.6007192,334.100063 35.7043325,334.247128 L36.5298969,335.410278 C36.5532934,335.443702 36.5499511,335.493837 36.5198698,335.523919 L35.5238448,336.51995 C35.5004482,336.543347 35.4770516,336.546689 35.4603398,336.546689 C35.4402856,336.546689 35.4235738,336.540004 35.4102043,336.529977 L34.2504034,335.704408 C34.1066816,335.600794 33.9128244,335.594109 33.7590756,335.684353 C33.3212257,335.94506 32.8499521,336.138918 32.3586243,336.265929 C32.1848213,336.30938 32.054469,336.453102 32.0277301,336.626906 L31.7904221,338.030708 C31.7837374,338.074159 31.7469714,338.104241 31.7035206,338.104241 L30.2963846,338.104241 C30.2529338,338.104241 30.2161678,338.074159 30.2094831,338.030708 L29.9755175,336.626906 C29.9454362,336.44976 29.8150839,336.30938 29.6446233,336.265929 C29.166665,336.14226 28.7054185,335.951744 28.2742533,335.704408 C28.2040636,335.664299 28.1238468,335.644245 28.0469724,335.644245 C27.9567285,335.644245 27.8631423,335.670984 27.7862679,335.727804 L26.6164398,336.560058 C26.599728,336.570086 26.5830162,336.57677 26.5663043,336.57677 C26.5529349,336.57677 26.5261959,336.573428 26.5027994,336.550031 L25.5067744,335.554 C25.4766931,335.523919 25.4733507,335.477126 25.4967473,335.440359 L26.3189693,334.287236 C26.4225826,334.140171 26.4292673,333.946313 26.3390235,333.792563 C26.0783189,333.358053 25.877777,332.886777 25.7507671,332.395446 C25.703974,332.224984 25.5635946,332.094631 25.3897916,332.06455 L23.9759708,331.823898 C23.9325201,331.817213 23.9024388,331.780447 23.9024388,331.736996 L23.9024388,330.329852 C23.9024388,330.286401 23.9325201,330.249634 23.9759708,330.24295 L25.3697374,330.008983 C25.5468828,329.978901 25.6906045,329.848548 25.7340552,329.674744 C25.8577228,329.183413 26.0482376,328.708795 26.3055998,328.270942 C26.3958437,328.117192 26.3858166,327.926676 26.2822032,327.782954 L25.4499542,326.613119 C25.4265576,326.579695 25.4299,326.529559 25.4599812,326.499478 L26.4560063,325.503447 C26.4794028,325.48005 26.5027994,325.476708 26.5195112,325.476708 C26.5395654,325.476708 26.5562772,325.483393 26.5696467,325.49342 L27.7227629,326.315647 C27.869827,326.41926 28.0636842,326.425945 28.2174331,326.335701 C28.6519406,326.074995 29.1232142,325.874452 29.614542,325.747441 C29.7850026,325.700648 29.9153549,325.560267 29.9454362,325.386463 L30.1860865,323.972634 C30.1927713,323.929183 30.2295373,323.899102 30.272988,323.899102 L31.6801241,323.899102 C31.7235748,323.899102 31.7603408,323.929183 31.7670256,323.972634 L32.0009912,325.366409 C32.0310725,325.543555 32.1614247,325.687278 32.3352278,325.730729 C32.839925,325.85774 33.3212257,326.05494 33.7691027,326.318989 C33.9228515,326.409233 34.1133664,326.402549 34.2604305,326.298935 L35.4135467,325.470023 C35.4302585,325.459996 35.4469703,325.453311 35.4636822,325.453311 C35.4770516,325.453311 35.5037906,325.456653 35.5271871,325.48005 L36.5232121,326.476081 C36.5532934,326.506163 36.5566358,326.552956 36.5332392,326.589722 L35.7076749,327.74953 C35.6040615,327.893253 35.5973768,328.087111 35.6876207,328.240861 C35.9483252,328.678713 36.1421824,329.14999 36.2691923,329.64132 C36.3126431,329.815124 36.4563648,329.945477 36.6301678,329.972216 L38.0339615,330.209526 C38.0774122,330.216211 38.1074935,330.252977 38.1074935,330.296428 L38.1074935,331.703572 L38.1041512,331.703572 Z M31.0016238,327.545644 C29.0964753,327.545644 27.5489599,329.093169 27.5489599,330.998329 C27.5489599,332.903489 29.0964753,334.451013 31.0016238,334.451013 C32.9067723,334.451013 34.4542877,332.903489 34.4542877,330.998329 C34.4542877,329.093169 32.9067723,327.545644 31.0016238,327.545644 Z M31.0016238,333.548569 C29.5944878,333.548569 28.4513987,332.405473 28.4513987,330.998329 C28.4513987,329.591184 29.5944878,328.448089 31.0016238,328.448089 C32.4087598,328.448089 33.5518489,329.591184 33.5518489,330.998329 C33.5518489,332.405473 32.4087598,333.548569 31.0016238,333.548569 Z" id="cau-hinh-he-thong"></path>
        </g>
    </g>
</svg>