<?xml version="1.0" encoding="UTF-8"?>
<svg width="18px" height="18px" viewBox="0 0 18 18" version="1.1" xmlns="http://www.w3.org/2000/svg" xmlns:xlink="http://www.w3.org/1999/xlink">
    <!-- Generator: Sketch 49.3 (51167) - http://www.bohemiancoding.com/sketch -->
    <title>cau hinh tro giup</title>
    <desc>Created with Sketch.</desc>
    <defs></defs>
    <g id="Page-1" stroke="none" stroke-width="1" fill="none" fill-rule="evenodd">
        <g id="10.-Cau-Hinh-He-Thong" transform="translate(-350.000000, -444.000000)" fill="#2C2C2C" fill-rule="nonzero">
            <path d="M366.945345,449.821746 C367.526875,449.821746 368.000035,450.293719 368,450.873799 L368,458.799791 C368,459.37994 367.526875,459.851914 366.94531,459.851914 L365.679696,459.851914 L365.679696,461.649281 C365.679696,461.785441 365.600684,461.909262 365.477054,461.966953 C365.429513,461.989137 365.378729,462 365.328192,462 C365.247311,462 365.167241,461.972191 365.102748,461.918472 L362.622622,459.851949 L356.187523,459.851949 C355.605958,459.851949 355.132833,459.379975 355.132833,458.799826 L355.132833,457.528433 L353.585142,458.679415 C353.523292,458.72547 353.449354,458.748955 353.374993,458.748955 C353.321214,458.748955 353.267223,458.73665 353.217356,458.711724 C353.098484,458.652204 353.023454,458.53095 353.023454,458.39827 L353.023454,456.134449 L351.05469,456.134449 C350.473125,456.134449 350,455.662476 350,455.082326 L350,445.052123 C350,444.471974 350.47316,444 351.05469,444 L364.625007,444 C365.206571,444 365.679696,444.471974 365.679732,445.052123 L365.679732,449.821746 L366.945345,449.821746 Z M361.109397,454.030203 C361.30344,454.030203 361.460972,454.187317 361.460972,454.380923 C361.460972,454.574528 361.303475,454.731642 361.109397,454.731642 C360.915319,454.731642 360.757822,454.574528 360.757822,454.380923 C360.757822,454.187317 360.915319,454.030203 361.109397,454.030203 Z M361.165679,450.313442 C361.333784,450.410298 361.391369,450.624751 361.294313,450.792517 L360.591198,452.007379 C360.544572,452.087957 360.467815,452.146739 360.377736,452.170785 C360.287693,452.194903 360.191658,452.182246 360.110954,452.135735 L359.31776,451.678843 C359.115259,451.8355 358.891402,451.963047 358.648443,452.060219 L358.648443,452.97815 C358.648443,453.171862 358.491051,453.32887 358.296868,453.32887 L356.890603,453.32887 C356.696419,453.32887 356.539028,453.171862 356.539028,452.97815 L356.539028,452.059762 C356.29776,451.962519 356.072,451.833847 355.87038,451.678667 L355.076481,452.13577 C354.908376,452.23259 354.693365,452.17511 354.596273,452.007379 L353.893158,450.792517 C353.796101,450.624751 353.853687,450.410298 354.021791,450.313477 L354.811848,449.858379 C354.791267,449.724749 354.781188,449.59657 354.781188,449.471097 C354.781188,449.345624 354.791302,449.217444 354.811848,449.083815 L354.021791,448.628716 C353.853687,448.531825 353.796101,448.317372 353.893158,448.149641 L354.596273,446.934779 C354.6934,446.767013 354.908306,446.709533 355.076481,446.806388 L355.87038,447.263491 C356.072,447.108276 356.297796,446.979603 356.539028,446.882396 L356.539028,445.85875 C356.539028,445.665038 356.696419,445.50803 356.890603,445.50803 L358.296868,445.50803 C358.491051,445.50803 358.648443,445.665038 358.648443,445.85875 L358.648443,446.881869 C358.891437,446.979111 359.115259,447.106658 359.31776,447.263245 L360.110954,446.806353 C360.191693,446.759841 360.287587,446.74722 360.377736,446.771302 C360.467815,446.795384 360.544572,446.854166 360.591198,446.934709 L361.294313,448.149606 C361.391369,448.317372 361.333784,448.531825 361.165679,448.628681 L360.375622,449.083779 C360.396203,449.217409 360.406282,449.345589 360.406282,449.471061 C360.406282,449.596534 360.396168,449.724714 360.375622,449.858343 L361.165679,450.313442 Z M360.158037,451.352874 L360.509612,450.745513 L359.806462,450.340442 C359.671802,450.262887 359.604243,450.106301 359.640296,449.955375 C359.682586,449.778574 359.703132,449.620159 359.703132,449.471061 C359.703132,449.321999 359.682586,449.163584 359.640296,448.986748 C359.604243,448.835857 359.671802,448.679271 359.806462,448.601681 L360.509612,448.19661 L360.158037,447.589214 L359.454218,447.994637 C359.319699,448.072121 359.150078,448.052328 359.037128,447.945945 C358.80231,447.724882 358.519175,447.563444 358.195476,447.466237 C358.046966,447.421624 357.945293,447.285147 357.945293,447.130424 L357.945293,446.209469 L357.242178,446.209469 L357.242178,447.130389 C357.242178,447.285147 357.14054,447.421589 356.991994,447.466202 C356.66819,447.56348 356.385231,447.724812 356.150836,447.945734 C356.037885,448.052258 355.8683,448.072121 355.73364,447.994602 L355.029468,447.589109 L354.677893,448.196575 L355.381043,448.601646 C355.515668,448.679201 355.583227,448.835822 355.547174,448.986713 C355.504884,449.163514 355.484338,449.321928 355.484338,449.471026 C355.484338,449.620089 355.504884,449.778503 355.547174,449.95534 C355.583262,450.106231 355.515703,450.262817 355.381043,450.340407 L354.677893,450.745478 L355.029468,451.352944 L355.73364,450.947451 C355.868265,450.869931 356.03792,450.88983 356.150836,450.996318 C356.385231,451.217241 356.668225,451.378608 356.991994,451.475851 C357.140504,451.520464 357.242178,451.656941 357.242178,451.811664 L357.242178,452.627396 L357.945293,452.627396 L357.945293,451.811664 C357.945293,451.656906 358.046931,451.520464 358.195476,451.475851 C358.519175,451.378573 358.80231,451.217206 359.037128,450.996143 C359.150078,450.889724 359.319663,450.869931 359.454218,450.947451 L360.158037,451.352874 Z M357.593753,448.068184 C358.369184,448.068184 359.000018,448.697517 359.000018,449.471026 C359.000018,450.244571 358.369149,450.873869 357.593753,450.873869 C356.818321,450.873869 356.187488,450.244536 356.187488,449.471026 C356.187488,448.697482 356.818356,448.068184 357.593753,448.068184 Z M357.593753,450.17243 C357.981486,450.17243 358.296903,449.857781 358.296868,449.471026 C358.296868,449.084272 357.981451,448.769623 357.593753,448.769623 C357.206055,448.769623 356.890638,449.084272 356.890638,449.471026 C356.890638,449.857781 357.206055,450.17243 357.593753,450.17243 Z M359.703132,454.030203 C359.897316,454.030203 360.054707,454.187211 360.054707,454.380923 C360.054707,454.574634 359.897316,454.731642 359.703132,454.731642 L354.781258,454.731642 C354.587074,454.731642 354.429683,454.574634 354.429683,454.380923 C354.429683,454.187211 354.587074,454.030203 354.781258,454.030203 L359.703132,454.030203 Z M353.726568,457.699398 L356.680525,455.502585 C356.741212,455.457409 356.814903,455.433046 356.890638,455.433046 L364.625007,455.433046 C364.818873,455.433046 364.976582,455.275721 364.976582,455.082326 L364.976582,445.052123 C364.976582,444.858728 364.818873,444.701404 364.625007,444.701404 L351.05469,444.701404 C350.860823,444.701404 350.703115,444.858728 350.703115,445.052123 L350.703115,455.082326 C350.703115,455.275721 350.860823,455.433046 351.05469,455.433046 L353.374993,455.433046 C353.569177,455.433046 353.726568,455.590054 353.726568,455.783765 L353.726568,457.699398 Z M367.296885,458.799826 L367.296885,450.873869 C367.296885,450.680474 367.139177,450.523149 366.94531,450.523149 L365.679696,450.523149 L365.679696,455.082361 C365.679696,455.662511 365.206571,456.134485 364.625007,456.134485 L357.007254,456.134485 L355.835948,457.005623 L355.835948,458.799896 C355.835948,458.993291 355.993656,459.150616 356.187523,459.150616 L362.750128,459.150616 C362.832524,459.150616 362.912277,459.179479 362.975501,459.232143 L364.976546,460.899467 L364.976546,459.501265 C364.976546,459.307553 365.133938,459.150545 365.328121,459.150545 L366.94531,459.150545 C367.139177,459.150545 367.296885,458.993221 367.296885,458.799826 Z" id="cau-hinh-tro-giup"></path>
        </g>
    </g>
</svg>