<?xml version="1.0" encoding="UTF-8"?>
<svg width="19px" height="18px" viewBox="0 0 19 18" version="1.1" xmlns="http://www.w3.org/2000/svg" xmlns:xlink="http://www.w3.org/1999/xlink">
    <!-- Generator: Sketch 49.3 (51167) - http://www.bohemiancoding.com/sketch -->
    <title>ch thong tin ho tro</title>
    <desc>Created with Sketch.</desc>
    <defs></defs>
    <g id="Page-1" stroke="none" stroke-width="1" fill="none" fill-rule="evenodd">
        <g id="10.-Cau-Hinh-He-Thong" transform="translate(-350.000000, -120.000000)" fill="#2C2C2C" fill-rule="nonzero">
            <path d="M362.216775,132.478768 L362.216775,132.151689 C362.31027,132.077029 362.40017,131.99526 362.486474,131.909935 C363.17749,131.157698 363.612605,130.21028 363.730689,129.200869 C364.351717,129.107323 364.911479,128.778289 365.291351,128.283626 C365.81277,127.554809 365.859518,126.506024 365.424402,125.190598 C365.398826,125.114739 365.348167,125.04959 365.280563,125.005728 L365.082783,124.874185 C365.111955,123.68728 364.697067,122.531483 363.91768,121.628284 C362.950358,120.551057 361.465211,120.00711 359.498202,120 C357.534789,120 356.046046,120.551057 355.078724,121.614063 C354.299337,122.517262 353.884449,123.673059 353.913621,124.859964 L353.715841,124.991507 C353.648237,125.035369 353.597578,125.100518 353.572002,125.176378 C353.136886,126.498914 353.183634,127.540589 353.705053,128.269405 C354.083487,128.767534 354.643249,129.100346 355.265715,129.197314 C355.384293,130.208325 355.820757,131.157076 356.513526,131.909935 C356.599155,131.995082 356.689145,132.075785 356.783225,132.151689 L356.783225,132.478768 C355.405959,132.741853 349.907682,134.018171 350.001178,137.64448 C350.001178,137.840816 350.162189,138 350.360778,138 L368.639222,138 C368.837811,138 368.998822,137.840816 368.998822,137.64448 C369.092318,134.018171 363.594041,132.741853 362.216775,132.478768 Z M355.049956,128.404503 C354.744386,128.303047 354.478058,128.110577 354.287605,127.853447 L354.305585,127.857002 C353.945985,127.337942 353.913621,126.552242 354.233665,125.514122 L354.496172,125.339917 C354.606614,125.267035 354.667432,125.139937 354.654396,125.009283 C354.593894,123.946721 354.943469,122.901002 355.632507,122.08335 C356.445202,121.173217 357.750548,120.718151 359.498202,120.711041 C361.245856,120.70393 362.551202,121.173217 363.378281,122.08335 C364.067319,122.901002 364.416894,123.946721 364.356392,125.009283 C364.343356,125.139937 364.404174,125.267035 364.514616,125.339917 L364.777123,125.514122 C365.097167,126.548687 365.075591,127.337942 364.705203,127.857002 C364.513447,128.114354 364.24595,128.306824 363.939256,128.408058 C364.373023,127.920107 364.584962,127.277415 364.525404,126.630456 C364.458024,126.241206 364.252782,125.888396 363.946448,125.634999 C363.79182,122.079795 361.271028,121.681612 360.185037,121.681612 C359.955163,121.680945 359.725559,121.69761 359.498202,121.731385 C359.27089,121.697566 359.041241,121.680945 358.811367,121.681612 C357.732568,121.681612 355.215372,122.072684 355.049956,125.634999 C354.741644,125.886352 354.533885,126.237962 354.463808,126.626901 C354.403845,127.273904 354.615829,127.916774 355.049956,128.404503 Z M363.230845,125.489236 C361.721921,125.575449 360.222435,125.203264 358.933631,124.422674 C358.787768,124.321395 358.588865,124.341082 358.466151,124.468892 C357.746952,125.233261 356.434414,125.411021 355.801519,125.450128 C355.995702,122.936599 357.534789,122.389097 358.829347,122.389097 C359.035397,122.387631 359.241178,122.404296 359.444262,122.43887 C359.491729,122.448469 359.540635,122.448469 359.588102,122.43887 C359.791186,122.404385 359.996967,122.38772 360.203017,122.389097 C361.486787,122.389097 363.033065,122.95082 363.212865,125.48568 L363.230845,125.489236 Z M355.927379,128.472052 L355.941763,128.475607 C355.942527,128.387972 355.910522,128.303135 355.851863,128.237409 C355.359211,127.679242 355.132664,127.170847 355.193796,126.751333 C355.223103,126.517667 355.339838,126.303333 355.521031,126.150504 C355.995702,126.150504 357.678628,126.061624 358.757427,125.140826 C359.972379,125.83138 361.347577,126.198854 362.748982,126.207387 C362.989914,126.207387 363.234441,126.207387 363.489757,126.16828 C363.666006,126.317065 363.781122,126.524422 363.813396,126.751333 C363.874528,127.163737 363.647981,127.679242 363.155329,128.237409 C363.09667,128.303135 363.064665,128.387972 363.065429,128.475607 C363.065429,128.475607 363.065429,128.546711 363.065429,128.660478 L360.97256,129.769702 C360.557223,129.38094 359.901718,129.398672 359.508496,129.809298 C359.115273,130.219924 359.133208,130.867993 359.548546,131.256755 C359.963883,131.645516 360.619388,131.627785 361.012611,131.217159 C361.194838,131.026866 361.296335,130.774758 361.2962,130.512739 C361.297818,130.480743 361.297818,130.448746 361.2962,130.416749 L362.946762,129.542169 C362.805079,130.243211 362.471776,130.892435 361.983035,131.419317 C361.345555,132.026101 360.482651,132.345225 359.59889,132.301007 L359.41909,132.301007 C358.537217,132.344292 357.676201,132.026723 357.038541,131.422872 C355.902207,130.302982 355.927379,128.489828 355.927379,128.472052 Z M360.577001,130.512739 C360.577001,130.687478 360.4337,130.829153 360.256957,130.829153 C360.080214,130.829153 359.936913,130.687478 359.936913,130.512739 C359.936913,130.338001 360.080214,130.196326 360.256957,130.196326 C360.4337,130.196326 360.577001,130.338001 360.577001,130.512739 Z M359.138602,137.267628 L350.731165,137.267628 C351.015249,134.597669 355.405959,133.481335 356.779629,133.193364 L356.779629,133.829745 C356.779629,134.636777 357.772124,135.251827 359.138602,135.354928 L359.138602,137.267628 Z M357.498829,133.829745 L357.498829,133.81908 L357.498829,132.6032 C358.096573,132.877262 358.749516,133.013426 359.408302,133.001383 L359.588102,133.001383 C360.246888,133.013426 360.899831,132.877262 361.497575,132.6032 L361.497575,133.829745 C361.497575,134.16749 360.717244,134.654553 359.498202,134.654553 C358.27916,134.654553 357.498829,134.16749 357.498829,133.829745 Z M359.857802,137.278294 L359.857802,135.351373 C361.22428,135.258937 362.216775,134.640332 362.216775,133.82619 L362.216775,133.204029 C363.601233,133.488446 367.970367,134.60478 368.265239,137.278294 L359.857802,137.278294 Z" id="ch-thong-tin-ho-tro"></path>
        </g>
    </g>
</svg>