<?xml version="1.0" encoding="UTF-8"?>
<svg width="12px" height="12px" viewBox="0 0 12 12" version="1.1" xmlns="http://www.w3.org/2000/svg" xmlns:xlink="http://www.w3.org/1999/xlink">
    <!-- Generator: Sketch 49.3 (51167) - http://www.bohemiancoding.com/sketch -->
    <title>close pu</title>
    <desc>Created with Sketch.</desc>
    <defs></defs>
    <g id="Page-1" stroke="none" stroke-width="1" fill="none" fill-rule="evenodd">
        <g id="06.1.-Don-Vi-Su-Dung---Them-Moi" transform="translate(-893.000000, -232.000000)" fill="#AFB2C0" fill-rule="nonzero">
            <g id="Group-11" transform="translate(515.000000, 207.000000)">
                <path d="M385.061266,31.0001251 L389.780117,26.2810774 C390.073294,25.9881382 390.073294,25.5128312 389.780117,25.219892 C389.48694,24.9267027 389.012153,24.9267027 388.718976,25.219892 L384.000125,29.9389397 L379.281024,25.219892 C378.987847,24.9267027 378.51306,24.9267027 378.219883,25.219892 C377.926706,25.5128312 377.926706,25.9881382 378.219883,26.2810774 L382.938984,31.0001251 L378.219883,35.7191728 C377.926706,36.012112 377.926706,36.487419 378.219883,36.7803581 C378.366471,36.9267027 378.558587,37 378.750453,37 C378.942319,37 379.134435,36.9267027 379.281024,36.780108 L384.000125,32.0610603 L388.718976,36.780108 C388.865565,36.9267027 389.057681,37 389.249547,37 C389.441413,37 389.633529,36.9267027 389.780117,36.780108 C390.073294,36.4871688 390.073294,36.0118618 389.780117,35.7189226 L385.061266,31.0001251 Z" id="close-pu"></path>
            </g>
        </g>
    </g>
</svg>