<?xml version="1.0" encoding="UTF-8"?>
<svg width="14px" height="14px" viewBox="0 0 14 14" version="1.1" xmlns="http://www.w3.org/2000/svg" xmlns:xlink="http://www.w3.org/1999/xlink">
    <!-- Generator: Sketch 49.3 (51167) - http://www.bohemiancoding.com/sketch -->
    <title>them moi don vi</title>
    <desc>Created with Sketch.</desc>
    <defs></defs>
    <g id="Page-1" stroke="none" stroke-width="1" fill="none" fill-rule="evenodd">
        <g id="06.-Don-Vi-Su-Dung" transform="translate(-1269.000000, -119.000000)" fill="#0076D7" fill-rule="nonzero">
            <g id="Group-9" transform="translate(1269.000000, 117.000000)">
                <path d="M13.2402269,8.02324655 L7.97672102,8.02324655 L7.97672102,2.75969081 C7.97672102,2.51991428 7.65112837,2 6.99997154,2 C6.3488147,2 6.02322206,2.51994275 6.02322206,2.75969081 L6.02322206,8.02327501 L0.759687716,8.02327501 C0.519940634,8.02324655 0,8.34884052 0,8.99997154 C0,9.65110255 0.519940634,9.97672499 0.759687716,9.97672499 L6.02325052,9.97672499 L6.02325052,15.2403092 C6.02325052,15.4800288 6.3488147,16 7,16 C7.6511853,16 7.97674948,15.4800288 7.97674948,15.2403092 L7.97674948,9.97672499 L13.2403123,9.97672499 C13.4800309,9.97672499 14,9.65115948 14,8.99997154 C14,8.34878359 13.479974,8.02324655 13.2402269,8.02324655 Z" id="them-moi-don-vi"></path>
            </g>
        </g>
    </g>
</svg>