<?xml version="1.0" encoding="UTF-8"?>
<svg width="14px" height="15px" viewBox="0 0 14 15" version="1.1" xmlns="http://www.w3.org/2000/svg" xmlns:xlink="http://www.w3.org/1999/xlink">
    <!-- Generator: Sketch 49.3 (51167) - http://www.bohemiancoding.com/sketch -->
    <title>delete</title>
    <desc>Created with Sketch.</desc>
    <defs></defs>
    <g id="Page-1" stroke="none" stroke-width="1" fill="none" fill-rule="evenodd">
        <g id="06.-Don-Vi-Su-Dung" transform="translate(-1348.000000, -374.000000)" fill="#A6ACBB" fill-rule="nonzero">
            <g id="Group-6" transform="translate(351.000000, 366.000000)">
                <g id="Group-2-Copy" transform="translate(945.000000, 0.000000)">
                    <g id="Group-5-Copy" transform="translate(44.000000, 0.000000)">
                        <path d="M8,10.2519629 L22,10.2519629 L22,11.4268848 L20.7543091,11.4268848 L19.7817585,22.4638379 C19.7552982,22.7671777 19.5007858,23 19.1958755,23 L10.7842939,23 C10.479413,23 10.2250766,22.7673535 10.1984109,22.464043 L9.22588959,11.4268848 L8,11.4268848 L8,10.2519629 Z M17.8623549,13.1716602 L17.6074612,20.1231641 L16.4317642,20.0802734 L16.6866579,13.1285938 L17.8623549,13.1716602 Z M14.4117701,13.150127 L15.5882299,13.150127 L15.5882299,20.1018359 L14.4117701,20.1018359 L14.4117701,13.150127 Z M13.5680305,20.0800977 L12.3923628,20.1231641 L12.1374397,13.1714844 L13.3131367,13.1283887 L13.5680305,20.0800977 Z M18.6570754,21.8250781 L19.5733611,11.4268848 L10.406867,11.4268848 L11.3229473,21.8250781 L18.6570754,21.8250781 Z M16.9215744,8 C17.4621638,8 17.9019575,8.43505401 17.9019575,8.96981758 L17.9019575,10.2399378 L16.7254978,10.2399378 L16.7254978,9.1637811 L13.2745022,9.1637811 L13.2745022,10.2399378 L12.0980425,10.2399378 L12.0980425,8.96981758 C12.0980425,8.43505401 12.5378362,8 13.0784256,8 L16.9215744,8 Z" id="delete"></path>
                    </g>
                </g>
            </g>
        </g>
    </g>
</svg>