<?xml version="1.0" encoding="UTF-8"?>
<svg width="16px" height="18px" viewBox="0 0 16 18" version="1.1" xmlns="http://www.w3.org/2000/svg" xmlns:xlink="http://www.w3.org/1999/xlink">
    <!-- Generator: Sketch 49.3 (51167) - http://www.bohemiancoding.com/sketch -->
    <title>file doc</title>
    <desc>Created with Sketch.</desc>
    <defs></defs>
    <g id="Page-1" stroke="none" stroke-width="1" fill="none" fill-rule="evenodd">
        <g id="10.-Cau-Hinh-He-Thong" transform="translate(-503.000000, -362.000000)" fill="#0076D7" fill-rule="nonzero">
            <path d="M517.987448,368.43861 L517.55368,368.43861 L517.55368,366.352835 C517.55368,366.339834 517.551571,366.326735 517.549858,366.313571 C517.549166,366.230742 517.522706,366.149424 517.4658,366.08498 L513.982447,362.120713 C513.981426,362.119696 513.980339,362.119334 513.979647,362.118251 C513.95892,362.095139 513.934701,362.075901 513.909098,362.05929 C513.901487,362.054234 513.893875,362.049999 513.885901,362.045567 C513.863758,362.033552 513.840231,362.023539 513.816012,362.016283 C513.809454,362.014478 513.803589,362.011884 513.797032,362.010111 C513.770671,362.003874 513.743355,362 513.715742,362 L505.154899,362 C504.763968,362 504.446419,362.31677 504.446419,362.705895 L504.446419,368.438413 L504.012684,368.438413 C503.453439,368.438413 503,368.889914 503,369.447257 L503,374.69377 C503,375.250588 503.453439,375.702647 504.012684,375.702647 L504.446419,375.702647 L504.446419,379.294138 C504.446419,379.683296 504.763968,380 505.154899,380 L516.845167,380 C517.235736,380 517.55368,379.683296 517.55368,379.294138 L517.55368,375.70268 L517.987448,375.70268 C518.546495,375.70268 519,375.250818 519,374.693803 L519,369.447454 C519.000033,368.889947 518.546495,368.43861 517.987448,368.43861 Z M505.154899,362.705895 L513.361452,362.705895 L513.361452,366.317313 C513.361452,366.512418 513.52021,366.670261 513.715709,366.670261 L516.845167,366.670261 L516.845167,368.438577 L505.154899,368.438577 L505.154899,362.705895 Z M513.655672,371.783783 C513.655672,373.38838 512.679201,374.361046 511.243393,374.361046 C509.786002,374.361046 508.933328,373.26481 508.933328,371.870977 C508.933328,370.404263 509.873355,369.308028 511.323497,369.308028 C512.831797,369.308028 513.655672,370.433186 513.655672,371.783783 Z M504.08689,374.259505 L504.08689,369.453462 C504.494955,369.387967 505.026818,369.351625 505.588205,369.351625 C506.520884,369.351625 507.125601,369.518694 507.599305,369.8743 C508.109387,370.251936 508.430198,370.854616 508.430198,371.718452 C508.430198,372.655072 508.087771,373.301152 507.614199,373.700455 C507.096736,374.128877 506.309635,374.332024 505.347629,374.332024 C504.771612,374.332057 504.363711,374.295748 504.08689,374.259505 Z M516.845167,379.102809 L505.154899,379.102809 L505.154899,375.70268 L516.845167,375.70268 L516.845167,379.102809 Z M516.898746,373.439265 C517.233989,373.439265 517.60571,373.366285 517.824175,373.279485 L517.991995,374.143387 C517.78783,374.245421 517.32879,374.35379 516.731354,374.35379 C515.033454,374.35379 514.1589,373.301185 514.1589,371.907155 C514.1589,370.237688 515.353935,369.308028 516.84029,369.308028 C517.415945,369.308028 517.853568,369.424178 518.05045,369.525949 L517.824373,370.404263 C517.598626,370.309978 517.285228,370.222685 516.891562,370.222685 C516.009859,370.222685 515.324741,370.752779 515.324741,371.841694 C515.324576,372.82191 515.907644,373.439265 516.898746,373.439265 Z M507.249431,371.754794 C507.249431,372.923583 506.593541,373.47541 505.588007,373.468319 C505.449481,373.468319 505.296193,373.468319 505.201689,373.446487 L505.201689,370.244582 C505.296226,370.222652 505.456895,370.200952 505.704687,370.200952 C506.659047,370.200952 507.256713,370.738137 507.249431,371.754794 Z M510.106615,371.848916 C510.106615,370.898147 510.544172,370.186671 511.294434,370.186474 C512.059689,370.186474 512.482253,370.941219 512.482253,371.819993 C512.482253,372.770926 512.052407,373.482665 511.301716,373.482665 C510.558506,373.482665 510.106615,372.807597 510.106615,371.848916 Z" id="file-doc"></path>
        </g>
    </g>
</svg>