<?xml version="1.0" encoding="UTF-8"?>
<svg width="12px" height="12px" viewBox="0 0 12 12" version="1.1" xmlns="http://www.w3.org/2000/svg" xmlns:xlink="http://www.w3.org/1999/xlink">
    <!-- Generator: Sketch 49.3 (51167) - http://www.bohemiancoding.com/sketch -->
    <title>dong</title>
    <desc>Created with Sketch.</desc>
    <defs></defs>
    <g id="Page-1" stroke="none" stroke-width="1" fill="none" fill-rule="evenodd">
        <g id="06.1.-Don-Vi-Su-Dung---Them-Moi" transform="translate(-555.000000, -572.000000)" fill="#4A4A4A" fill-rule="nonzero">
            <g id="Group-11" transform="translate(515.000000, 207.000000)">
                <g id="Group-5" transform="translate(20.000000, 353.000000)">
                    <path d="M27.0612662,18.0001251 L31.7801172,13.2810774 C32.0732943,12.9881382 32.0732943,12.5128312 31.7801172,12.219892 C31.48694,11.9267027 31.0121532,11.9267027 30.718976,12.219892 L26.0001251,16.9389397 L21.281024,12.219892 C20.9878468,11.9267027 20.51306,11.9267027 20.2198828,12.219892 C19.9267057,12.5128312 19.9267057,12.9881382 20.2198828,13.2810774 L24.938984,18.0001251 L20.2198828,22.7191728 C19.9267057,23.012112 19.9267057,23.487419 20.2198828,23.7803581 C20.3664714,23.9267027 20.5585875,24 20.7504534,24 C20.9423193,24 21.1344354,23.9267027 21.281024,23.780108 L26.0001251,19.0610603 L30.718976,23.780108 C30.8655646,23.9267027 31.0576807,24 31.2495466,24 C31.4414125,24 31.6335286,23.9267027 31.7801172,23.780108 C32.0732943,23.4871688 32.0732943,23.0118618 31.7801172,22.7189226 L27.0612662,18.0001251 Z" id="dong"></path>
                </g>
            </g>
        </g>
    </g>
</svg>