<?xml version="1.0" encoding="UTF-8"?>
<svg width="17px" height="20px" viewBox="0 0 17 20" version="1.1" xmlns="http://www.w3.org/2000/svg" xmlns:xlink="http://www.w3.org/1999/xlink">
    <!-- Generator: Sketch 49.3 (51167) - http://www.bohemiancoding.com/sketch -->
    <title>don vi su dung</title>
    <desc>Created with Sketch.</desc>
    <defs></defs>
    <g id="Page-1" stroke="none" stroke-width="1" fill="none" fill-rule="evenodd">
        <g id="06.-Don-Vi-Su-Dung" transform="translate(-23.000000, -85.000000)" fill="#0076D7" fill-rule="nonzero">
            <path d="M28.1274622,98.9486719 L27.3885114,98.5820703 C27.3815829,98.5786328 27.3772919,98.5717188 27.3772919,98.5640234 L27.3772919,98.1202734 C27.7599354,97.8383984 28.0084175,97.386875 28.0084175,96.87875 L28.0084175,96.2525 C28.0084175,95.5729688 27.4513012,95.0201562 26.7664796,95.0201562 L26.1353146,95.0201562 C25.450493,95.0201562 24.8933767,95.5729688 24.8933767,96.2525 L24.8933767,96.87875 C24.8933767,97.386875 25.1418588,97.8383984 25.5245022,98.1202734 L25.5245022,98.5640234 C25.5245022,98.5717188 25.5202113,98.5786328 25.5132828,98.5820703 L24.774332,98.9486719 C24.4584543,99.1053906 24.2622118,99.4204297 24.2622118,99.7708594 L24.2622118,102.543828 C24.2622118,102.787969 24.3343708,103.024336 24.4708154,103.227422 L24.7839375,103.693477 C24.855506,103.800039 24.8933373,103.924023 24.8933373,104.05207 L24.8933373,104.707031 C24.8933373,104.868828 25.0255304,105 25.1885869,105 C25.3516434,105 25.4838365,104.868828 25.4838365,104.707031 L25.4838365,104.05207 C25.4838365,103.807969 25.4117169,103.571602 25.2752722,103.368477 L24.9621108,102.902383 C24.8905423,102.795859 24.852711,102.671875 24.852711,102.543828 L24.852711,99.7708594 C24.852711,99.6438281 24.9238858,99.5295703 25.0384033,99.4727344 L25.5510747,99.2183984 L26.0189863,99.6826953 C26.1380703,99.8008594 26.2944739,99.8599609 26.4508774,99.8599609 C26.6073203,99.8599609 26.7637239,99.8008594 26.8828079,99.6826953 L27.3507195,99.2183984 L27.8633909,99.4727344 C27.9779084,99.5295703 28.0490832,99.6437891 28.0490832,99.7708594 L28.0490832,102.543828 C28.0490832,102.671875 28.0112519,102.795859 27.9396834,102.902383 L27.626522,103.368477 C27.4900773,103.571602 27.4179577,103.807969 27.4179577,104.05207 L27.4179577,104.707031 C27.4179577,104.868828 27.5501508,105 27.7132073,105 C27.8762638,105 28.0084569,104.868828 28.0084569,104.707031 L28.0084569,104.05207 C28.0084569,103.924023 28.0462882,103.800039 28.1178567,103.693477 L28.4310181,103.227422 C28.5674628,103.024336 28.6396218,102.787969 28.6396218,102.543828 L28.6396218,99.7708594 C28.6395824,99.4204687 28.4433399,99.1053906 28.1274622,98.9486719 Z M26.4652462,99.2683984 C26.4573729,99.2762109 26.4445,99.27625 26.436548,99.2683984 L26.0329614,98.8679297 C26.0856733,98.7775391 26.1150015,98.6735156 26.1150015,98.5640234 L26.1150015,98.4242578 L26.7867927,98.4242578 L26.7867927,98.5640234 C26.7867927,98.6734766 26.8161209,98.7775391 26.8688328,98.8679297 L26.4652462,99.2683984 Z M26.4509168,97.8382812 C25.917696,97.8382812 25.4839153,97.4078125 25.4839153,96.87875 L25.4839153,96.2525 L25.4838759,96.2525 C25.4838759,95.8960547 25.7760943,95.6060937 26.1353146,95.6060937 L26.7664796,95.6060937 C27.1256999,95.6060937 27.4179183,95.8960547 27.4179183,96.2525 L27.4179183,96.87875 C27.4179183,97.4078516 26.9840982,97.8382812 26.4509168,97.8382812 Z M33.1765454,98.9486719 C33.4924231,99.1053906 33.6886657,99.4204297 33.6886263,99.7708594 L33.6886263,102.543828 C33.6886263,102.787969 33.6164673,103.024336 33.4800226,103.227422 L33.1669006,103.693477 C33.095332,103.800039 33.0575007,103.924023 33.0575007,104.05207 L33.0575007,104.707031 C33.0575007,104.868828 32.9253076,105 32.7622511,105 C32.5991946,105 32.4670015,104.868828 32.4670015,104.707031 L32.4670015,104.05207 C32.4670015,103.807969 32.5391212,103.571602 32.6756052,103.368477 L32.9887273,102.902383 C33.0602958,102.795859 33.0981271,102.671875 33.0981271,102.543828 L33.0981271,99.7708594 C33.0981271,99.6437891 33.0269916,99.5295703 32.9124741,99.4727344 L32.3998027,99.2183984 L31.9319305,99.6826953 C31.8128465,99.8008203 31.6564036,99.8599219 31.5,99.8599219 C31.3435964,99.8599219 31.1871929,99.8008203 31.0681089,99.6826953 L30.6001973,99.2183984 L30.0875259,99.4727344 C29.9730084,99.5295703 29.9018729,99.6437891 29.9018729,99.7708594 L29.9018729,102.543828 C29.9018729,102.671875 29.9397042,102.795859 30.0112727,102.902383 L30.3243948,103.368477 C30.4608788,103.571602 30.5329985,103.807969 30.5329985,104.05207 L30.5329985,104.707031 C30.5329985,104.868828 30.4008054,105 30.2377489,105 C30.0746924,105 29.9424993,104.868828 29.9424993,104.707031 L29.9424993,104.052109 C29.9424993,103.924062 29.904668,103.800078 29.8330994,103.693516 L29.5199774,103.227422 C29.3835327,103.024336 29.3113737,102.787969 29.3113737,102.543828 L29.3113737,99.7708594 C29.3113737,99.4204297 29.5075769,99.1053906 29.8234546,98.9486719 L30.5624053,98.5820703 C30.5693339,98.5786328 30.5736248,98.5717188 30.5736248,98.5640234 L30.5736248,98.1202734 C30.1909813,97.8383984 29.9424993,97.386875 29.9424993,96.87875 L29.9424993,96.2525 C29.9424993,95.5729688 30.4996156,95.0201562 31.1844372,95.0201562 L31.8155628,95.0201562 C32.5003844,95.0201562 33.0575007,95.5729688 33.0575007,96.2525 L33.0575007,96.87875 C33.0575007,97.386875 32.8090187,97.8383984 32.4263752,98.1202734 L32.4263752,98.5640234 C32.4263752,98.5717188 32.4306661,98.5786328 32.4375947,98.5820703 L33.1765454,98.9486719 Z M31.5143688,99.2683594 L31.917916,98.8679297 C31.8652041,98.7775391 31.835876,98.6734766 31.835876,98.5640234 L31.835876,98.4242578 L31.164124,98.4242578 L31.164124,98.5640234 C31.164124,98.6735156 31.1347959,98.7775391 31.082084,98.8679297 L31.4856312,99.2683984 C31.4935439,99.27625 31.5064561,99.27625 31.5143688,99.2683594 Z M31.5,97.8382812 C32.0331814,97.8382812 32.4670015,97.4078516 32.4670015,96.87875 L32.4670015,96.2525 C32.4670015,95.8960547 32.1747831,95.6060937 31.8155628,95.6060937 L31.1844372,95.6060937 C30.8252169,95.6060937 30.5329985,95.8960547 30.5329985,96.2525 L30.5329985,96.87875 C30.5329985,97.4078125 30.9668186,97.8382812 31.5,97.8382812 Z M38.2256286,98.9486719 C38.5415063,99.1053906 38.7377489,99.4204687 38.7377882,99.7708594 L38.7377882,102.543828 C38.7377882,102.787969 38.6656292,103.024336 38.5291846,103.227422 L38.2160231,103.693477 C38.1444546,103.800039 38.1066233,103.924023 38.1066233,104.05207 L38.1066233,104.707031 C38.1066233,104.868828 37.9744302,105 37.8113737,105 C37.6483172,105 37.5161241,104.868828 37.5161241,104.707031 L37.5161241,104.05207 C37.5161241,103.807969 37.5882437,103.571602 37.7246884,103.368477 L38.0378498,102.902383 C38.1094183,102.795859 38.1472497,102.671875 38.1472497,102.543828 L38.1472497,99.7708594 C38.1472497,99.6437891 38.0760748,99.5295703 37.9615573,99.4727344 L37.4488859,99.2183984 L36.9809743,99.6826953 C36.8618903,99.8008594 36.7054868,99.8599609 36.5490832,99.8599609 C36.3926403,99.8599609 36.2362367,99.8008594 36.1171527,99.6826953 L35.6492412,99.2183984 L35.1365697,99.4727344 C35.0220523,99.5295703 34.9508774,99.6438281 34.9508774,99.7708594 L34.9508774,102.543828 C34.9508774,102.671875 34.9887087,102.795859 35.0602772,102.902383 L35.3734387,103.368477 C35.5098833,103.571602 35.582003,103.807969 35.582003,104.05207 L35.582003,104.707031 C35.582003,104.868828 35.4498099,105 35.2867534,105 C35.1236968,105 34.9915038,104.868828 34.9915038,104.707031 L34.9915038,104.05207 C34.9915038,103.924023 34.9536724,103.800039 34.8821039,103.693477 L34.5689819,103.227422 C34.4325372,103.024336 34.3603782,102.787969 34.3603782,102.543828 L34.3603782,99.7708594 C34.3603782,99.4204297 34.5566208,99.1053906 34.8724985,98.9486719 L35.6114492,98.5820703 C35.6183777,98.5786328 35.6226687,98.5717188 35.6226687,98.5640234 L35.6226687,98.1202734 C35.2400252,97.8383984 34.9915431,97.386875 34.9915431,96.87875 L34.9915431,96.2525 C34.9915431,95.5729688 35.5486595,95.0201562 36.2334811,95.0201562 L36.864646,95.0201562 C37.5494676,95.0201562 38.106584,95.5729688 38.106584,96.2525 L38.106584,96.87875 C38.106584,97.386875 37.8581019,97.8383984 37.4754584,98.1202734 L37.4754584,98.5640234 C37.4754584,98.5717188 37.4797494,98.5786328 37.4866779,98.5820703 L38.2256286,98.9486719 Z M36.5634127,99.2683984 L36.9669992,98.8679297 C36.9142873,98.7775391 36.8849592,98.6734766 36.8849592,98.5640234 L36.8849592,98.4242578 L36.2131679,98.4242578 L36.2131679,98.5640234 C36.2131679,98.6735156 36.1838398,98.7775391 36.1311279,98.8679297 L36.5347144,99.2683984 C36.5425877,99.2762109 36.5555,99.27625 36.5634127,99.2683984 Z M36.5490832,97.8382812 C37.0822646,97.8382812 37.5160847,97.4078516 37.5160847,96.87875 L37.5160847,96.2525 C37.5160847,95.8960547 37.2238664,95.6060937 36.864646,95.6060937 L36.2334811,95.6060937 C35.8742607,95.6060937 35.5820423,95.8960547 35.5820423,96.2525 L35.5820817,96.2525 L35.5820817,96.87875 C35.5820817,97.4078125 36.0158624,97.8382812 36.5490832,97.8382812 Z M37.5104159,87.4703516 C39.1158652,89.0633984 40,91.1814453 40,93.4343359 C40,94.5582031 39.7807673,95.6496875 39.3484432,96.6783984 C39.3011639,96.7908594 39.1914097,96.8586719 39.0758294,96.8586719 C39.0379193,96.8586719 38.9994188,96.8514062 38.962296,96.8360156 C38.8117581,96.7737109 38.740662,96.6021875 38.8034124,96.4528516 C39.1679079,95.5855469 39.3689925,94.6699609 39.4035564,93.7272656 L37.1562345,93.7272656 C37.1535576,93.8437891 37.1496603,93.9601562 37.1438734,94.0753906 C37.1360394,94.2320313 37.0055391,94.3537891 36.8492537,94.3537891 C36.8442935,94.3537891 36.8393333,94.3536719 36.8343337,94.3534375 C36.6714347,94.3453906 36.5460126,94.2078516 36.5541221,94.04625 C36.5593973,93.940625 36.5631765,93.8340625 36.5657353,93.7272656 L31.7952496,93.7272656 L31.7952496,94.0605469 C31.7952496,94.2223438 31.6630565,94.3535156 31.5,94.3535156 C31.3369435,94.3535156 31.2047504,94.2223438 31.2047504,94.0605469 L31.2047504,93.7272656 L26.4342647,93.7272656 C26.4368235,93.8339062 26.4406027,93.9403906 26.4458779,94.0459375 C26.4539874,94.2075 26.328526,94.3450391 26.1656663,94.3530859 C26.0033577,94.3610547 25.8642755,94.2366406 25.8561266,94.0750391 C25.8503791,93.9598438 25.8464424,93.8436328 25.8438049,93.7272656 L23.5964829,93.7272656 C23.6310468,94.6698047 23.8320134,95.5852344 24.1963908,96.4523828 C24.2591412,96.6017578 24.1880057,96.7732813 24.0375071,96.8355469 C23.8870479,96.8977734 23.7141104,96.8272266 23.65136,96.6778906 C23.2191539,95.6493359 23,94.5580469 23,93.4343359 C23,91.1814453 23.8841348,89.0633984 25.4895841,87.4703516 C27.0950333,85.8773047 29.2295699,85 31.5,85 C33.7704301,85 35.9049667,85.8773047 37.5104159,87.4703516 Z M28.6976876,86.0952734 C27.2747813,86.6320313 26.0469366,87.5647266 25.1520547,88.7575391 L26.783604,88.7575391 C26.980319,88.3173828 27.2059291,87.9019531 27.4594894,87.5171875 C27.831622,86.9524219 28.2481996,86.4764453 28.6976876,86.0952734 Z M25.8438442,93.1413672 C25.8744321,91.7922266 26.1157101,90.4972656 26.5442944,89.3434766 L24.7524836,89.3434766 C24.0640402,90.4573828 23.6481319,91.7539844 23.5965617,93.1413672 L25.8438442,93.1413672 Z M31.2047504,93.1413672 L31.2047504,89.3434766 L27.1753018,89.3434766 C26.7340808,90.4573828 26.4675295,91.7539453 26.4344615,93.1413672 L31.2047504,93.1413672 Z M31.2047504,88.7575781 L31.2047504,85.5996094 C29.6615004,85.7375 28.301187,86.9487109 27.4314604,88.7575781 L31.2047504,88.7575781 Z M37.8479453,88.7575391 C36.9529453,87.5645703 35.7249038,86.6317969 34.3017613,86.0950391 C34.7514461,86.4762109 35.1682205,86.9521875 35.5405106,87.5171875 C35.7940709,87.9019531 36.019681,88.3174219 36.216396,88.7575391 L37.8479453,88.7575391 Z M31.7952496,85.5996094 L31.7952496,88.7575781 L35.5685396,88.7575781 C34.698813,86.94875 33.3384996,85.7375 31.7952496,85.5996094 Z M31.7952496,93.1413672 L36.5654991,93.1413672 C36.5324311,91.7539453 36.2658798,90.4573828 35.8246588,89.3434766 L31.7952496,89.3434766 L31.7952496,93.1413672 Z M37.1561951,93.1413672 L39.4034383,93.1413672 C39.3518681,91.7539844 38.9359598,90.4573828 38.2475558,89.3434766 L36.455745,89.3434766 C36.8843293,90.4972656 37.1256073,91.7922266 37.1561951,93.1413672 Z" id="don-vi-su-dung"></path>
        </g>
    </g>
</svg>