<?xml version="1.0" encoding="UTF-8"?>
<svg width="20px" height="16px" viewBox="0 0 20 16" version="1.1" xmlns="http://www.w3.org/2000/svg" xmlns:xlink="http://www.w3.org/1999/xlink">
    <!-- Generator: Sketch 50.2 (55047) - http://www.bohemiancoding.com/sketch -->
    <title>gop y phan mem</title>
    <desc>Created with Sketch.</desc>
    <defs></defs>
    <g id="Page-1" stroke="none" stroke-width="1" fill="none" fill-rule="evenodd">
        <g id="gop-y-phan-mem" fill-rule="nonzero">
            <path d="M1.32226121,10.5596 C0.843196881,9.61844 0.571968811,8.54832 0.571968811,7.41308 C0.571968811,3.65356 3.54241715,0.60588 7.20666667,0.60588 C10.8709162,0.60588 13.8413645,3.65356 13.8413645,7.41308 C13.8413645,11.1726 10.8709162,14.22028 7.20666667,14.22028 C5.83649123,14.22028 4.5634308,13.79408 3.50631579,13.06392 L0.627251462,13.72856 L1.32226121,10.5596 Z" id="Shape" fill="#E0E2E6"></path>
            <g id="Group" fill="#969CA8">
                <path d="M7.20666667,14.80712 C5.85095517,14.80712 4.53929825,14.42188 3.39719298,13.69064 L0.752826511,14.30108 C0.561442495,14.34508 0.361481481,14.28576 0.222807018,14.14352 C0.08417154,14.00128 0.0261598441,13.796 0.0692397661,13.59972 L0.719259259,10.6356 C0.248187135,9.6374 0,8.52804 0,7.41308 C0,3.336 3.2328655,0.01904 7.20666667,0.01904 C11.1804678,0.01904 14.4133333,3.33596 14.4133333,7.41308 C14.4133333,11.4902 11.1804288,14.80712 7.20666667,14.80712 Z M3.50631579,12.47712 C3.61922027,12.47712 3.7305653,12.5114 3.82576998,12.57716 C4.8262768,13.2682 5.99536062,13.63344 7.20666667,13.63344 C10.5497076,13.63344 13.2693957,10.843 13.2693957,7.41308 C13.2693957,3.98316 10.5497076,1.19272 7.20666667,1.19272 C3.86362573,1.19272 1.14389864,3.98312 1.14389864,7.41308 C1.14389864,8.42736 1.37446394,9.39456 1.82920078,10.28796 C1.89181287,10.411 1.90990253,10.55296 1.88023392,10.6884 L1.3837037,12.95244 L3.38074074,12.49144 C3.42230019,12.4818 3.46444444,12.47712 3.50631579,12.47712 Z" id="Shape"></path>
                <path d="M13.3263158,15.981 C12.9396881,15.981 12.5512671,15.94636 12.1717739,15.878 C11.8607018,15.82196 11.6527096,15.51776 11.7072904,15.19852 C11.7618713,14.87928 12.0584795,14.66596 12.3695517,14.72196 C12.6838986,14.7786 13.005809,14.80728 13.3263158,14.80728 C14.4233138,14.80728 15.4821442,14.47648 16.3882261,13.85064 C16.5187524,13.76052 16.6798051,13.72956 16.8332164,13.76496 L18.5820273,14.16864 L18.1454581,12.17784 C18.1157115,12.04236 18.1338012,11.90044 18.1964912,11.77732 C18.6083041,10.96824 18.817115,10.09232 18.817115,9.17368 C18.817115,6.83568 17.4458869,4.77528 15.3237037,3.92452 C15.0294737,3.80656 14.8841715,3.4662 14.9991813,3.16436 C15.114152,2.86244 15.44577,2.71352 15.740078,2.83132 C16.9699415,3.32436 18.02,4.17504 18.7767251,5.29124 C19.551501,6.4342 19.9610916,7.77668 19.9610916,9.17364 C19.9610916,10.1942 19.7352827,11.20964 19.3063548,12.12452 L19.8965692,14.81588 C19.9396491,15.01216 19.8816374,15.2174 19.7430019,15.35968 C19.6043665,15.502 19.4044055,15.56148 19.2129825,15.51724 L16.8162573,14.96396 C15.7688499,15.63016 14.5676413,15.981 13.3263158,15.981 Z" id="Shape"></path>
                <path d="M10.6765692,8.1562 L9.95212476,8.1562 C9.63621832,8.1562 9.38015595,7.89348 9.38015595,7.56936 C9.38015595,7.24524 9.63621832,6.98252 9.95212476,6.98252 L10.6765692,6.98252 C10.9924756,6.98252 11.248538,7.24524 11.248538,7.56936 C11.248499,7.89348 10.9924366,8.1562 10.6765692,8.1562 Z" id="Shape"></path>
                <path d="M7.59746589,8.1562 L6.87302144,8.1562 C6.55711501,8.1562 6.30105263,7.89348 6.30105263,7.56936 C6.30105263,7.24524 6.55711501,6.98252 6.87302144,6.98252 L7.59746589,6.98252 C7.91337232,6.98252 8.1694347,7.24524 8.1694347,7.56936 C8.1694347,7.89348 7.91337232,8.1562 7.59746589,8.1562 Z" id="Shape"></path>
                <path d="M4.51847953,8.1562 L3.79403509,8.1562 C3.47812865,8.1562 3.22206628,7.89348 3.22206628,7.56936 C3.22206628,7.24524 3.47812865,6.98252 3.79403509,6.98252 L4.51847953,6.98252 C4.83438596,6.98252 5.09044834,7.24524 5.09044834,7.56936 C5.09040936,7.89348 4.83434698,8.1562 4.51847953,8.1562 Z" id="Shape"></path>
            </g>
        </g>
    </g>
</svg>