<?xml version="1.0" encoding="UTF-8"?>
<svg width="17px" height="20px" viewBox="0 0 17 20" version="1.1" xmlns="http://www.w3.org/2000/svg" xmlns:xlink="http://www.w3.org/1999/xlink">
    <!-- Generator: Sketch 49.3 (51167) - http://www.bohemiancoding.com/sketch -->
    <title>Combined Shape</title>
    <desc>Created with Sketch.</desc>
    <defs></defs>
    <g id="Page-1" stroke="none" stroke-width="1" fill="none" fill-rule="evenodd">
        <g id="06.-Don-Vi-Su-Dung" transform="translate(-350.000000, -118.000000)" fill="#2C2C2C" fill-rule="nonzero">
            <path d="M355.127462,131.948672 L354.388511,131.58207 C354.381583,131.578633 354.377292,131.571719 354.377292,131.564023 L354.377292,131.120273 C354.759935,130.838398 355.008418,130.386875 355.008418,129.87875 L355.008418,129.2525 C355.008418,128.572969 354.451301,128.020156 353.76648,128.020156 L353.135315,128.020156 C352.450493,128.020156 351.893377,128.572969 351.893377,129.2525 L351.893377,129.87875 C351.893377,130.386875 352.141859,130.838398 352.524502,131.120273 L352.524502,131.564023 C352.524502,131.571719 352.520211,131.578633 352.513283,131.58207 L351.774332,131.948672 C351.458454,132.105391 351.262212,132.42043 351.262212,132.770859 L351.262212,135.543828 C351.262212,135.787969 351.334371,136.024336 351.470815,136.227422 L351.783937,136.693477 C351.855506,136.800039 351.893337,136.924023 351.893337,137.05207 L351.893337,137.707031 C351.893337,137.868828 352.02553,138 352.188587,138 C352.351643,138 352.483837,137.868828 352.483837,137.707031 L352.483837,137.05207 C352.483837,136.807969 352.411717,136.571602 352.275272,136.368477 L351.962111,135.902383 C351.890542,135.795859 351.852711,135.671875 351.852711,135.543828 L351.852711,132.770859 C351.852711,132.643828 351.923886,132.52957 352.038403,132.472734 L352.551075,132.218398 L353.018986,132.682695 C353.13807,132.800859 353.294474,132.859961 353.450877,132.859961 C353.60732,132.859961 353.763724,132.800859 353.882808,132.682695 L354.350719,132.218398 L354.863391,132.472734 C354.977908,132.52957 355.049083,132.643789 355.049083,132.770859 L355.049083,135.543828 C355.049083,135.671875 355.011252,135.795859 354.939683,135.902383 L354.626522,136.368477 C354.490077,136.571602 354.417958,136.807969 354.417958,137.05207 L354.417958,137.707031 C354.417958,137.868828 354.550151,138 354.713207,138 C354.876264,138 355.008457,137.868828 355.008457,137.707031 L355.008457,137.05207 C355.008457,136.924023 355.046288,136.800039 355.117857,136.693477 L355.431018,136.227422 C355.567463,136.024336 355.639622,135.787969 355.639622,135.543828 L355.639622,132.770859 C355.639582,132.420469 355.44334,132.105391 355.127462,131.948672 Z M353.465246,132.268398 C353.457373,132.276211 353.4445,132.27625 353.436548,132.268398 L353.032961,131.86793 C353.085673,131.777539 353.115001,131.673516 353.115001,131.564023 L353.115001,131.424258 L353.786793,131.424258 L353.786793,131.564023 C353.786793,131.673477 353.816121,131.777539 353.868833,131.86793 L353.465246,132.268398 Z M353.450917,130.838281 C352.917696,130.838281 352.483915,130.407813 352.483915,129.87875 L352.483915,129.2525 L352.483876,129.2525 C352.483876,128.896055 352.776094,128.606094 353.135315,128.606094 L353.76648,128.606094 C354.1257,128.606094 354.417918,128.896055 354.417918,129.2525 L354.417918,129.87875 C354.417918,130.407852 353.984098,130.838281 353.450917,130.838281 Z M360.176545,131.948672 C360.492423,132.105391 360.688666,132.42043 360.688626,132.770859 L360.688626,135.543828 C360.688626,135.787969 360.616467,136.024336 360.480023,136.227422 L360.166901,136.693477 C360.095332,136.800039 360.057501,136.924023 360.057501,137.05207 L360.057501,137.707031 C360.057501,137.868828 359.925308,138 359.762251,138 C359.599195,138 359.467002,137.868828 359.467002,137.707031 L359.467002,137.05207 C359.467002,136.807969 359.539121,136.571602 359.675605,136.368477 L359.988727,135.902383 C360.060296,135.795859 360.098127,135.671875 360.098127,135.543828 L360.098127,132.770859 C360.098127,132.643789 360.026992,132.52957 359.912474,132.472734 L359.399803,132.218398 L358.93193,132.682695 C358.812846,132.80082 358.656404,132.859922 358.5,132.859922 C358.343596,132.859922 358.187193,132.80082 358.068109,132.682695 L357.600197,132.218398 L357.087526,132.472734 C356.973008,132.52957 356.901873,132.643789 356.901873,132.770859 L356.901873,135.543828 C356.901873,135.671875 356.939704,135.795859 357.011273,135.902383 L357.324395,136.368477 C357.460879,136.571602 357.532998,136.807969 357.532998,137.05207 L357.532998,137.707031 C357.532998,137.868828 357.400805,138 357.237749,138 C357.074692,138 356.942499,137.868828 356.942499,137.707031 L356.942499,137.052109 C356.942499,136.924062 356.904668,136.800078 356.833099,136.693516 L356.519977,136.227422 C356.383533,136.024336 356.311374,135.787969 356.311374,135.543828 L356.311374,132.770859 C356.311374,132.42043 356.507577,132.105391 356.823455,131.948672 L357.562405,131.58207 C357.569334,131.578633 357.573625,131.571719 357.573625,131.564023 L357.573625,131.120273 C357.190981,130.838398 356.942499,130.386875 356.942499,129.87875 L356.942499,129.2525 C356.942499,128.572969 357.499616,128.020156 358.184437,128.020156 L358.815563,128.020156 C359.500384,128.020156 360.057501,128.572969 360.057501,129.2525 L360.057501,129.87875 C360.057501,130.386875 359.809019,130.838398 359.426375,131.120273 L359.426375,131.564023 C359.426375,131.571719 359.430666,131.578633 359.437595,131.58207 L360.176545,131.948672 Z M358.514369,132.268359 L358.917916,131.86793 C358.865204,131.777539 358.835876,131.673477 358.835876,131.564023 L358.835876,131.424258 L358.164124,131.424258 L358.164124,131.564023 C358.164124,131.673516 358.134796,131.777539 358.082084,131.86793 L358.485631,132.268398 C358.493544,132.27625 358.506456,132.27625 358.514369,132.268359 Z M358.5,130.838281 C359.033181,130.838281 359.467002,130.407852 359.467002,129.87875 L359.467002,129.2525 C359.467002,128.896055 359.174783,128.606094 358.815563,128.606094 L358.184437,128.606094 C357.825217,128.606094 357.532998,128.896055 357.532998,129.2525 L357.532998,129.87875 C357.532998,130.407813 357.966819,130.838281 358.5,130.838281 Z M365.225629,131.948672 C365.541506,132.105391 365.737749,132.420469 365.737788,132.770859 L365.737788,135.543828 C365.737788,135.787969 365.665629,136.024336 365.529185,136.227422 L365.216023,136.693477 C365.144455,136.800039 365.106623,136.924023 365.106623,137.05207 L365.106623,137.707031 C365.106623,137.868828 364.97443,138 364.811374,138 C364.648317,138 364.516124,137.868828 364.516124,137.707031 L364.516124,137.05207 C364.516124,136.807969 364.588244,136.571602 364.724688,136.368477 L365.03785,135.902383 C365.109418,135.795859 365.14725,135.671875 365.14725,135.543828 L365.14725,132.770859 C365.14725,132.643789 365.076075,132.52957 364.961557,132.472734 L364.448886,132.218398 L363.980974,132.682695 C363.86189,132.800859 363.705487,132.859961 363.549083,132.859961 C363.39264,132.859961 363.236237,132.800859 363.117153,132.682695 L362.649241,132.218398 L362.13657,132.472734 C362.022052,132.52957 361.950877,132.643828 361.950877,132.770859 L361.950877,135.543828 C361.950877,135.671875 361.988709,135.795859 362.060277,135.902383 L362.373439,136.368477 C362.509883,136.571602 362.582003,136.807969 362.582003,137.05207 L362.582003,137.707031 C362.582003,137.868828 362.44981,138 362.286753,138 C362.123697,138 361.991504,137.868828 361.991504,137.707031 L361.991504,137.05207 C361.991504,136.924023 361.953672,136.800039 361.882104,136.693477 L361.568982,136.227422 C361.432537,136.024336 361.360378,135.787969 361.360378,135.543828 L361.360378,132.770859 C361.360378,132.42043 361.556621,132.105391 361.872498,131.948672 L362.611449,131.58207 C362.618378,131.578633 362.622669,131.571719 362.622669,131.564023 L362.622669,131.120273 C362.240025,130.838398 361.991543,130.386875 361.991543,129.87875 L361.991543,129.2525 C361.991543,128.572969 362.548659,128.020156 363.233481,128.020156 L363.864646,128.020156 C364.549468,128.020156 365.106584,128.572969 365.106584,129.2525 L365.106584,129.87875 C365.106584,130.386875 364.858102,130.838398 364.475458,131.120273 L364.475458,131.564023 C364.475458,131.571719 364.479749,131.578633 364.486678,131.58207 L365.225629,131.948672 Z M363.563413,132.268398 L363.966999,131.86793 C363.914287,131.777539 363.884959,131.673477 363.884959,131.564023 L363.884959,131.424258 L363.213168,131.424258 L363.213168,131.564023 C363.213168,131.673516 363.18384,131.777539 363.131128,131.86793 L363.534714,132.268398 C363.542588,132.276211 363.5555,132.27625 363.563413,132.268398 Z M363.549083,130.838281 C364.082265,130.838281 364.516085,130.407852 364.516085,129.87875 L364.516085,129.2525 C364.516085,128.896055 364.223866,128.606094 363.864646,128.606094 L363.233481,128.606094 C362.874261,128.606094 362.582042,128.896055 362.582042,129.2525 L362.582082,129.2525 L362.582082,129.87875 C362.582082,130.407813 363.015862,130.838281 363.549083,130.838281 Z M364.510416,120.470352 C366.115865,122.063398 367,124.181445 367,126.434336 C367,127.558203 366.780767,128.649687 366.348443,129.678398 C366.301164,129.790859 366.19141,129.858672 366.075829,129.858672 C366.037919,129.858672 365.999419,129.851406 365.962296,129.836016 C365.811758,129.773711 365.740662,129.602188 365.803412,129.452852 C366.167908,128.585547 366.368993,127.669961 366.403556,126.727266 L364.156235,126.727266 C364.153558,126.843789 364.14966,126.960156 364.143873,127.075391 C364.136039,127.232031 364.005539,127.353789 363.849254,127.353789 C363.844293,127.353789 363.839333,127.353672 363.834334,127.353437 C363.671435,127.345391 363.546013,127.207852 363.554122,127.04625 C363.559397,126.940625 363.563176,126.834063 363.565735,126.727266 L358.79525,126.727266 L358.79525,127.060547 C358.79525,127.222344 358.663057,127.353516 358.5,127.353516 C358.336943,127.353516 358.20475,127.222344 358.20475,127.060547 L358.20475,126.727266 L353.434265,126.727266 C353.436824,126.833906 353.440603,126.940391 353.445878,127.045938 C353.453987,127.2075 353.328526,127.345039 353.165666,127.353086 C353.003358,127.361055 352.864275,127.236641 352.856127,127.075039 C352.850379,126.959844 352.846442,126.843633 352.843805,126.727266 L350.596483,126.727266 C350.631047,127.669805 350.832013,128.585234 351.196391,129.452383 C351.259141,129.601758 351.188006,129.773281 351.037507,129.835547 C350.887048,129.897773 350.71411,129.827227 350.65136,129.677891 C350.219154,128.649336 350,127.558047 350,126.434336 C350,124.181445 350.884135,122.063398 352.489584,120.470352 C354.095033,118.877305 356.22957,118 358.5,118 C360.77043,118 362.904967,118.877305 364.510416,120.470352 Z M355.697688,119.095273 C354.274781,119.632031 353.046937,120.564727 352.152055,121.757539 L353.783604,121.757539 C353.980319,121.317383 354.205929,120.901953 354.459489,120.517188 C354.831622,119.952422 355.2482,119.476445 355.697688,119.095273 Z M352.843844,126.141367 C352.874432,124.792227 353.11571,123.497266 353.544294,122.343477 L351.752484,122.343477 C351.06404,123.457383 350.648132,124.753984 350.596562,126.141367 L352.843844,126.141367 Z M358.20475,126.141367 L358.20475,122.343477 L354.175302,122.343477 C353.734081,123.457383 353.467529,124.753945 353.434462,126.141367 L358.20475,126.141367 Z M358.20475,121.757578 L358.20475,118.599609 C356.6615,118.7375 355.301187,119.948711 354.43146,121.757578 L358.20475,121.757578 Z M364.847945,121.757539 C363.952945,120.56457 362.724904,119.631797 361.301761,119.095039 C361.751446,119.476211 362.16822,119.952187 362.540511,120.517187 C362.794071,120.901953 363.019681,121.317422 363.216396,121.757539 L364.847945,121.757539 Z M358.79525,118.599609 L358.79525,121.757578 L362.56854,121.757578 C361.698813,119.94875 360.3385,118.7375 358.79525,118.599609 Z M358.79525,126.141367 L363.565499,126.141367 C363.532431,124.753945 363.26588,123.457383 362.824659,122.343477 L358.79525,122.343477 L358.79525,126.141367 Z M364.156195,126.141367 L366.403438,126.141367 C366.351868,124.753984 365.93596,123.457383 365.247556,122.343477 L363.455745,122.343477 C363.884329,123.497266 364.125607,124.792227 364.156195,126.141367 Z" id="Combined-Shape"></path>
        </g>
    </g>
</svg>