<?xml version="1.0" encoding="UTF-8"?>
<svg width="13px" height="13px" viewBox="0 0 13 13" version="1.1" xmlns="http://www.w3.org/2000/svg" xmlns:xlink="http://www.w3.org/1999/xlink">
    <!-- Generator: Sketch 49.3 (51167) - http://www.bohemiancoding.com/sketch -->
    <title>cap nhat thay doi</title>
    <desc>Created with Sketch.</desc>
    <defs></defs>
    <g id="Page-1" stroke="none" stroke-width="1" fill="none" fill-rule="evenodd">
        <g id="10.-Cau-Hinh-He-Thong" transform="translate(-1266.000000, -852.000000)" fill="#FFFFFF" fill-rule="nonzero">
            <g id="Group-5-Copy" transform="translate(1246.000000, 840.000000)">
                <path d="M32.4921875,20.9375 C32.2117227,20.9375 31.984375,20.7101523 31.984375,20.4296875 L31.984375,14.8001797 L30.1998203,13.015625 L30.1816406,13.015625 L30.1816406,16.0117188 C30.1816406,16.8517422 29.4982266,17.5351562 28.6582031,17.5351562 L23.5546875,17.5351562 C22.7146641,17.5351562 22.03125,16.8517422 22.03125,16.0117188 L22.03125,13.015625 C21.4712344,13.015625 21.015625,13.4712344 21.015625,14.03125 L21.015625,22.96875 C21.015625,23.5287656 21.4712344,23.984375 22.03125,23.984375 L22.03125,19.921875 C22.03125,19.6414102 22.2585977,19.4140625 22.5390625,19.4140625 L30.4609375,19.4140625 C30.7414023,19.4140625 30.96875,19.6414102 30.96875,19.921875 L30.96875,23.984375 C31.5287656,23.984375 31.984375,23.5287656 31.984375,22.96875 C31.984375,22.6882852 32.2117227,22.4609375 32.4921875,22.4609375 C32.7726523,22.4609375 33,22.6882852 33,22.96875 C33,24.0887813 32.0887812,25 30.96875,25 L22.03125,25 C20.9112187,25 20,24.0887813 20,22.96875 L20,14.03125 C20,12.9112187 20.9112187,12 22.03125,12 L30.4101562,12 C30.5448281,12 30.6740156,12.053498 30.7692305,12.1487383 L32.8512617,14.2307695 C32.946502,14.3259844 33,14.4551719 33,14.5898438 L33,20.4296875 C33,20.7101523 32.7726523,20.9375 32.4921875,20.9375 Z M23.046875,20.4296875 L23.046875,23.984375 L29.953125,23.984375 L29.953125,20.4296875 L23.046875,20.4296875 Z M27.7441406,15.7578125 C27.4636758,15.7578125 27.2363281,15.5304648 27.2363281,15.25 L27.2363281,14.2851562 C27.2363281,14.0046914 27.4636758,13.7773438 27.7441406,13.7773438 C28.0246055,13.7773438 28.2519531,14.0046914 28.2519531,14.2851562 L28.2519531,15.25 C28.2519531,15.5304648 28.0246055,15.7578125 27.7441406,15.7578125 Z M29.1660156,16.0117188 L29.1660156,13.015625 L23.046875,13.015625 L23.046875,16.0117188 C23.046875,16.2917266 23.2746797,16.5195312 23.5546875,16.5195312 L28.6582031,16.5195312 C28.9382109,16.5195312 29.1660156,16.2917266 29.1660156,16.0117188 Z" id="cap-nhat-thay-doi"></path>
            </g>
        </g>
    </g>
</svg>