<?xml version="1.0" encoding="UTF-8"?>
<svg width="16px" height="20px" viewBox="0 0 16 20" version="1.1" xmlns="http://www.w3.org/2000/svg" xmlns:xlink="http://www.w3.org/1999/xlink">
    <!-- Generator: Sketch 49.3 (51167) - http://www.bohemiancoding.com/sketch -->
    <title>nguoi dung</title>
    <desc>Created with Sketch.</desc>
    <defs></defs>
    <g id="Page-1" stroke="none" stroke-width="1" fill="none" fill-rule="evenodd">
        <g id="06.-Don-Vi-Su-Dung" transform="translate(-23.000000, -203.000000)" fill="#4A4A4A" fill-rule="nonzero">
            <path d="M37.550769,217.550277 C38.4174709,217.851715 38.9997775,218.647054 39,219.529339 L39,222.600921 C39,222.821319 38.8132213,223 38.5828351,223 C38.3524488,223 38.1656701,222.821319 38.1656701,222.600921 L38.1656701,219.529339 C38.1656701,218.981483 37.8040159,218.487582 37.2658175,218.300334 L34.5596963,217.358932 L33.4331285,218.975523 C33.2890675,219.182193 33.0583475,219.314794 32.7999277,219.339218 C32.7711711,219.341984 32.7424702,219.343315 32.7139361,219.343315 C32.4859415,219.343315 32.2676252,219.257539 32.1044859,219.101419 L31.4171649,218.443896 L31.4171649,222.600921 C31.4171649,222.821319 31.2303863,223 31,223 C30.7696137,223 30.5828351,222.821319 30.5828351,222.600921 L30.5828351,218.443896 L29.8955141,219.101419 C29.7323192,219.257486 29.5140028,219.343315 29.2860639,219.343315 C29.2575298,219.343315 29.2288289,219.341931 29.2000723,219.339218 C28.9416525,219.314794 28.7108769,219.182193 28.5668715,218.975576 L27.4403037,217.358932 L24.7341825,218.300334 C24.1959285,218.487529 23.8343299,218.981483 23.8343299,219.529339 L23.8343299,222.600921 C23.8343299,222.821319 23.6475512,223 23.4171649,223 C23.1867787,223 23,222.821319 23,222.600921 L23,219.529339 C23,218.647054 23.5823066,217.851715 24.4490085,217.550277 L27.0156854,216.657404 C27.0069527,216.54763 27.0456657,216.435994 27.1293768,216.351868 L27.9065272,215.570737 L27.9065272,214.228819 C26.8157243,213.342756 26.1223406,211.998763 26.1223406,210.506951 L26.1223406,209.606042 C25.8263203,208.98981 25.6763078,208.337661 25.6763078,207.666143 L25.6763078,206.812752 C25.6763078,204.710401 27.4641655,203 29.6617905,203 L35.9063604,203 C36.1367467,203 36.3235253,203.178681 36.3235253,203.399079 L36.3235253,207.666143 C36.3235253,208.337661 36.1735128,208.98981 35.8774926,209.606042 L35.8774926,210.65312 C35.8774926,211.937996 35.3152655,213.179027 34.3349278,214.058119 C34.2564452,214.128464 34.1754596,214.194977 34.0933059,214.259734 L34.0933059,215.570843 L34.8704008,216.351868 C34.9541119,216.435994 34.9928248,216.54763 34.9840921,216.657404 L37.550769,217.550277 Z M34.4171928,207.810823 C34.5801096,207.96657 34.5801096,208.219321 34.4171928,208.375175 C34.2543316,208.531028 33.9901827,208.531028 33.8272659,208.375175 C33.2698223,207.841898 32.3276413,207.529499 31.0267542,207.44665 C29.9213227,207.376146 28.8542148,207.495763 28.3165726,207.573291 C28.3041132,207.5751 28.2947688,207.5867 28.2947688,207.600269 L28.2947688,208.519748 C28.2947688,208.740146 28.1079901,208.918827 27.8776038,208.918827 C27.6472175,208.918827 27.4604389,208.740146 27.4604389,208.519748 L27.4604389,207.600322 C27.4604389,207.188525 27.7681397,206.845264 28.1921462,206.784125 C29.5383096,206.589959 32.8394193,206.301398 34.4171928,207.810823 Z M26.9566148,210.506951 C26.9566148,212.622178 28.614039,214.381746 30.7298996,214.512751 C31.8629196,214.582882 32.9403732,214.214612 33.7643574,213.475783 C34.5890091,212.736315 35.0431627,211.733881 35.0431627,210.65312 L35.0431627,209.516808 C35.0431627,209.456733 35.0573463,209.397403 35.0846567,209.343288 C35.3530884,208.811501 35.4891954,208.247203 35.4891954,207.666197 L35.4891954,203.798212 L29.6617348,203.798212 C27.924215,203.798212 26.5105821,205.150559 26.5105821,206.812805 L26.5105821,207.666197 C26.5105821,208.247203 26.6466891,208.811501 26.9151208,209.343288 C26.9424312,209.397403 26.9566148,209.456733 26.9566148,209.516808 L26.9566148,210.506951 Z M29.305476,218.537015 L30.3493339,217.538358 L28.3811497,216.251354 L27.963651,216.671026 L29.261034,218.532758 C29.2633145,218.536057 29.2685986,218.543666 29.282226,218.544943 C29.295909,218.54606 29.3025836,218.539782 29.305476,218.537015 Z M30.9998888,216.996994 L33.258976,215.519761 L33.258976,214.790776 C32.5694858,215.137017 31.801791,215.319423 31.004116,215.319423 C30.8952082,215.319423 30.7859109,215.316071 30.6760019,215.30926 C29.9798926,215.266159 29.3253887,215.077102 28.7408015,214.774813 L28.7408015,215.519761 L30.9998888,216.996994 Z M32.7387991,218.532864 L34.0361821,216.671185 L33.6186834,216.251513 L31.6504992,217.538518 L32.6943571,218.537121 C32.6972495,218.539835 32.7039798,218.546167 32.7176071,218.545049 C32.7312345,218.543772 32.7365186,218.536163 32.7387991,218.532864 Z M26.0934171,220.495005 C26.3238034,220.495005 26.5105821,220.673633 26.5105821,220.894084 L26.5105821,222.600921 C26.5105821,222.821319 26.3238034,223 26.0934171,223 C25.8630308,223 25.6762522,222.821319 25.6762522,222.600921 L25.6762522,220.894084 C25.6762522,220.673686 25.8630308,220.495005 26.0934171,220.495005 Z M35.9063604,220.495005 C36.1367467,220.495005 36.3235253,220.673633 36.3235253,220.894084 L36.3235253,222.600921 C36.3235253,222.821319 36.1367467,223 35.9063604,223 C35.6759741,223 35.4891954,222.821319 35.4891954,222.600921 L35.4891954,220.894084 C35.4891954,220.673686 35.6759741,220.495005 35.9063604,220.495005 Z" id="nguoi-dung"></path>
        </g>
    </g>
</svg>