<?xml version="1.0" encoding="UTF-8"?>
<svg width="16px" height="20px" viewBox="0 0 16 20" version="1.1" xmlns="http://www.w3.org/2000/svg" xmlns:xlink="http://www.w3.org/1999/xlink">
    <!-- Generator: Sketch 49.3 (51167) - http://www.bohemiancoding.com/sketch -->
    <title>nguoi dung copy</title>
    <desc>Created with Sketch.</desc>
    <defs></defs>
    <g id="Page-1" stroke="none" stroke-width="1" fill="none" fill-rule="evenodd">
        <path d="M14.550769,14.5502774 C15.4174709,14.8517154 15.9997775,15.6470541 16,16.529339 L16,19.6009205 C16,19.8213188 15.8132213,20 15.5828351,20 C15.3524488,20 15.1656701,19.8213188 15.1656701,19.6009205 L15.1656701,16.529339 C15.1656701,15.9814827 14.8040159,15.487582 14.2658175,15.3003339 L11.5596963,14.3589321 L10.4331285,15.9755231 C10.2890675,16.1821931 10.0583475,16.3147939 9.79992769,16.3392175 C9.77117112,16.3419845 9.74247017,16.3433148 9.71393609,16.3433148 C9.48594154,16.3433148 9.26762522,16.2575393 9.10448591,16.1014194 L8.41716495,15.4438961 L8.41716495,19.6009205 C8.41716495,19.8213188 8.23038629,20 8,20 C7.76961371,20 7.58283505,19.8213188 7.58283505,19.6009205 L7.58283505,15.4438961 L6.89551409,16.1014194 C6.73231916,16.2574861 6.51400284,16.3433148 6.28606391,16.3433148 C6.25752983,16.3433148 6.22882888,16.3419313 6.20007231,16.3392175 C5.94165253,16.3147939 5.71087688,16.1821931 5.56687154,15.9755763 L4.4403037,14.3589321 L1.7341825,15.3003339 C1.19592847,15.4875288 0.834329894,15.9814827 0.834329894,16.529339 L0.834329894,19.6009205 C0.834329894,19.8213188 0.647551242,20 0.417164947,20 C0.186778652,20 0,19.8213188 0,19.6009205 L0,16.529339 C0,15.6470541 0.582306644,14.8517154 1.44900854,14.5502774 L4.0156854,13.6574036 C4.00695275,13.5476301 4.04566566,13.4359943 4.12937676,13.3518684 L4.90652724,12.5707368 L4.90652724,11.2288189 C3.81572434,10.342756 3.12234057,8.99876285 3.12234057,7.50695063 L3.12234057,6.60604206 C2.82632033,5.98981017 2.67630781,5.33766113 2.67630781,4.66614343 L2.67630781,3.81275192 C2.67630781,1.71040134 4.46416553,0 6.66179047,0 L12.9063604,0 C13.1367467,0 13.3235253,0.178681175 13.3235253,0.399079457 L13.3235253,4.66614343 C13.3235253,5.33766113 13.1735128,5.98981017 12.8774926,6.60604206 L12.8774926,7.65312014 C12.8774926,8.93799636 12.3152655,10.179027 11.3349278,11.0581193 C11.2564452,11.1284637 11.1754596,11.1949769 11.0933059,11.2597342 L11.0933059,12.5708433 L11.8704008,13.3518684 C11.9541119,13.4359943 11.9928248,13.5476301 11.9840921,13.6574036 L14.550769,14.5502774 Z M11.4171928,4.81082303 C11.5801096,4.96657044 11.5801096,5.21932077 11.4171928,5.3751746 C11.2543316,5.53102843 10.9901827,5.53102843 10.8272659,5.3751746 C10.2698223,4.84189802 9.32764135,4.52949862 8.02675418,4.44664973 C6.92132269,4.37614569 5.85421476,4.49576311 5.31657257,4.57329094 C5.30411325,4.5751001 5.29476875,4.58670001 5.29476875,4.60026871 L5.29476875,5.51974778 C5.29476875,5.74014606 5.1079901,5.91882724 4.8776038,5.91882724 C4.64721751,5.91882724 4.46043886,5.74014606 4.46043886,5.51974778 L4.46043886,4.60032192 C4.46043886,4.18852514 4.76813972,3.84526359 5.19214617,3.78412462 C6.53830965,3.58995916 9.83941931,3.30139811 11.4171928,4.81082303 Z M3.95661485,7.50695063 C3.95661485,9.62217818 5.61403899,11.3817461 7.7298996,11.5127506 C8.8629196,11.5828822 9.94037322,11.2146116 10.7643574,10.4757825 C11.5890091,9.7363149 12.0431627,8.73388052 12.0431627,7.65312014 L12.0431627,6.5168079 C12.0431627,6.45673314 12.0573463,6.39740332 12.0846567,6.34328815 C12.3530884,5.81150147 12.4891954,5.24720312 12.4891954,4.66619664 L12.4891954,0.798212124 L6.66173485,0.798212124 C4.92421503,0.798212124 3.51058208,2.15055938 3.51058208,3.81280513 L3.51058208,4.66619664 C3.51058208,5.24720312 3.6466891,5.81150147 3.91512084,6.34328815 C3.94243124,6.39740332 3.95661485,6.45673314 3.95661485,6.5168079 L3.95661485,7.50695063 Z M6.30547599,15.5370146 L7.34933393,14.5383582 L5.38114971,13.2513535 L4.96365103,13.6710255 L6.26103401,15.5327578 C6.26331451,15.5360568 6.2685986,15.5436659 6.28222599,15.544943 C6.295909,15.5460604 6.30258364,15.5397816 6.30547599,15.5370146 Z M7.99988876,13.9969936 L10.258976,12.5197611 L10.258976,11.7907759 C9.56948577,12.1370173 8.80179103,12.3194232 8.00411603,12.3194232 C7.89520817,12.3194232 7.78591095,12.3160709 7.67600189,12.30926 C6.97989265,12.2661594 6.32538866,12.0771022 5.74080151,11.7748128 L5.74080151,12.5197611 L7.99988876,13.9969936 Z M9.73879912,15.5328642 L11.0361821,13.6711851 L10.6186834,13.2515132 L8.65049921,14.5385178 L9.69435715,15.537121 C9.69724949,15.5398348 9.70397975,15.5461668 9.71760714,15.5450494 C9.73123453,15.5437724 9.73651862,15.5361633 9.73879912,15.5328642 Z M3.09341714,17.4950049 C3.32380343,17.4950049 3.51058208,17.6736328 3.51058208,17.8940843 L3.51058208,19.6009205 C3.51058208,19.8213188 3.32380343,20 3.09341714,20 C2.86303084,20 2.67625219,19.8213188 2.67625219,19.6009205 L2.67625219,17.8940843 C2.67625219,17.673686 2.86303084,17.4950049 3.09341714,17.4950049 Z M12.9063604,17.4950049 C13.1367467,17.4950049 13.3235253,17.6736328 13.3235253,17.8940843 L13.3235253,19.6009205 C13.3235253,19.8213188 13.1367467,20 12.9063604,20 C12.6759741,20 12.4891954,19.8213188 12.4891954,19.6009205 L12.4891954,17.8940843 C12.4891954,17.673686 12.6759741,17.4950049 12.9063604,17.4950049 Z" id="nguoi-dung-copy" fill="#0076D7" fill-rule="nonzero"></path>
    </g>
</svg>