<?xml version="1.0" encoding="UTF-8"?>
<svg width="25px" height="18px" viewBox="0 0 25 18" version="1.1" xmlns="http://www.w3.org/2000/svg" xmlns:xlink="http://www.w3.org/1999/xlink">
    <!-- Generator: Sketch 49.3 (51167) - http://www.bohemiancoding.com/sketch -->
    <title>nhom nguoi dung copy</title>
    <desc>Created with Sketch.</desc>
    <defs></defs>
    <g id="Page-1" stroke="none" stroke-width="1" fill="none" fill-rule="evenodd">
        <path d="M23.8824219,13.216244 C24.5404297,13.4006657 25,13.998276 25,14.6695879 L25,17.6408304 C25,17.8391878 24.8360352,18 24.6337891,18 C24.431543,18 24.2675781,17.8391878 24.2675781,17.6408304 L24.2675781,14.6695879 C24.2675781,14.3174101 24.026416,14.003879 23.6812012,13.9071427 L22.1687012,13.4833226 C22.1141113,13.4680459 22.0622559,13.4472619 22.0128906,13.4226468 L21.084375,14.3333094 L21.084375,17.6408304 C21.084375,17.8391878 20.9204102,18 20.7181641,18 C20.515918,18 20.3519531,17.8391878 20.3519531,17.6408304 L20.3519531,14.3333094 L19.4169434,13.4162776 C19.2919434,13.4763786 19.1674316,13.5113857 19.0761719,13.5369586 L18.9856934,13.562292 C19.3250488,13.9086751 19.5273438,14.3770323 19.5273438,14.8764217 L19.5273438,17.6408304 C19.5273438,17.8391878 19.3633789,18 19.1611328,18 C18.9588867,18 18.7949219,17.8391878 18.7949219,17.6408304 L18.7949219,14.8764217 C18.7949219,14.3833537 18.4774414,13.9388454 18.0049805,13.770323 L15.6294434,12.9231138 L14.6404785,14.3779901 C14.5140625,14.5639921 14.3114746,14.6832842 14.0846191,14.7053133 C14.059375,14.7077557 14.0341797,14.7089529 14.0091309,14.7089529 C13.8089844,14.7089529 13.617334,14.6317075 13.4741211,14.4912003 L12.8708008,13.8994804 L12.8708008,17.6407825 C12.8708008,17.8391399 12.7068359,17.9999521 12.5045898,17.9999521 C12.3023438,17.9999521 12.1383789,17.8391399 12.1383789,17.6407825 L12.1383789,13.8994804 L11.5350586,14.4912003 C11.3917969,14.6316596 11.2001465,14.708905 11.0000488,14.708905 C10.9749512,14.708905 10.9498047,14.7077078 10.9245117,14.7052654 C10.6977051,14.6832364 10.4951172,14.5639442 10.3687012,14.3779422 L9.37978516,12.923018 L7.00419922,13.7702272 C6.53168945,13.9387496 6.21425781,14.3832579 6.21425781,14.8763259 L6.21425781,17.6407346 C6.21425781,17.839092 6.05029297,17.9999042 5.84804688,17.9999042 C5.64580078,17.9999042 5.48183594,17.839092 5.48183594,17.6407346 L5.48183594,14.8763259 C5.48183594,14.5141393 5.58847656,14.1683787 5.77636719,13.8735244 L5.37734375,13.6778488 L4.95170898,14.0745636 C4.65415039,14.3518904 4.27211914,14.4906257 3.89023438,14.4906257 C3.50825195,14.4906257 3.12641602,14.3519862 2.82875977,14.0745636 L2.40307617,13.6778009 L1.17929688,14.2779015 C0.903662109,14.4130929 0.732421875,14.6848646 0.732421875,14.9871417 L0.732421875,17.6406388 C0.732421875,17.8389962 0.568457031,17.9998084 0.366210938,17.9998084 C0.163964844,17.9998084 0,17.8389962 0,17.6406388 L0,14.9871417 C0,14.4110816 0.326367187,13.893159 0.851757813,13.6353231 L1.83452148,13.1534133 C0.779199219,12.7032541 0.446240234,12.0721691 0.430224609,12.0407538 C0.378662109,11.9396595 0.378662109,11.8206068 0.430224609,11.7195125 C0.694189453,11.2016378 0.726220703,10.2525202 0.751904297,9.48988339 C0.760449219,9.23592654 0.768554688,8.99604913 0.784033203,8.78241506 C0.908837891,7.05959821 2.24423828,5.76045782 3.89023438,5.76045782 C5.53623047,5.76045782 6.87158203,7.0596461 6.99643555,8.78241506 C7.01191406,8.99600125 7.02001953,9.23587865 7.02856445,9.48978761 C7.05424805,10.2524723 7.08623047,11.2016857 7.35024414,11.7195604 C7.40180664,11.8206546 7.40180664,11.9397074 7.35024414,12.0408017 C7.33422852,12.072217 7.00058594,12.704595 5.94736328,13.1542274 L6.30117187,13.3277303 C6.43891602,13.2321912 6.590625,13.1533175 6.75390625,13.0950842 L9.00708008,12.2915499 C8.99941406,12.1927544 9.03339844,12.0922826 9.10688477,12.0165697 L9.7890625,11.3136508 L9.7890625,10.1058832 C8.83149414,9.30843091 8.22280273,8.09884347 8.22280273,6.75621962 L8.22280273,5.94540622 C7.96293945,5.39080047 7.83125,4.80391734 7.83125,4.19950674 L7.83125,3.43141058 C7.83125,1.53935302 9.40073242,0 11.3299316,0 L16.8118164,0 C17.0140625,0 17.1780273,0.160812202 17.1780273,0.3591696 L17.1780273,4.19941096 C17.1780273,4.80382156 17.0463379,5.39070469 16.7864746,5.94531044 L16.7864746,6.88767569 C16.7864746,8.04405814 16.2929199,9.1610277 15.4323242,9.95215861 C15.3634277,10.0154682 15.292334,10.0753298 15.2202148,10.1336111 L15.2202148,11.3136029 L15.9023926,12.0165218 C15.9758789,12.0922348 16.0098633,12.1927065 16.0021973,12.291502 L18.1370117,13.0528458 L18.875,12.8460599 C19.1773926,12.7612959 19.1773926,12.7281565 19.1773926,12.6481335 L19.1772949,12.1292053 C18.4697266,11.6272298 18.0025879,10.7930465 18.0025879,9.86332399 L18.0025879,9.27668032 L17.8150391,8.90879487 C17.6815918,8.64703206 17.6110352,8.35390178 17.6110352,8.0612025 L17.6110352,8.03979599 C17.6110352,6.78298973 18.6536133,5.76045782 19.9350586,5.76045782 L23.4591309,5.76045782 C23.661377,5.76045782 23.8253418,5.92127002 23.8253418,6.11962742 L23.8253418,7.97054809 C23.8253418,8.3225343 23.7405273,8.67504729 23.5800293,8.98991931 L23.4337891,9.2767282 L23.4337891,9.95996456 C23.4337891,10.6865407 23.1409668,11.3653713 22.6092285,11.8714652 C22.4995117,11.9759117 22.3821289,12.0694873 22.259082,12.153102 L22.259082,12.6482293 C22.259082,12.7148433 22.3046875,12.7741302 22.3699707,12.7924239 L23.8824219,13.216244 Z M2.34936523,12.5818548 L2.34936523,12.151378 C1.92299805,11.8621268 1.58476563,11.4566961 1.3828125,10.9817781 C1.33891602,11.2917654 1.27407227,11.5854225 1.17407227,11.8418217 C1.32075195,12.0178148 1.66435547,12.3401097 2.34936523,12.5818548 Z M4.44726562,13.5539114 L4.78779297,13.2365491 C4.73027344,13.1309053 4.69873047,13.0111343 4.69873047,12.8856643 L4.6987793,12.5031248 C4.44287109,12.5809927 4.17143555,12.6234226 3.89033203,12.6234226 C3.60888672,12.6234226 3.33730469,12.5811843 3.08183594,12.5028853 L3.08183594,12.8857122 C3.08183594,13.0111343 3.05024414,13.1308575 2.99277344,13.2364533 L3.33334961,13.5538635 C3.64560547,13.8449345 4.13491211,13.8449824 4.44726562,13.5539114 Z M3.89042969,11.9050834 C4.87382812,11.9050834 5.70009766,11.2048464 5.84916992,10.2620023 C5.25673828,8.98254436 3.73344727,8.80880205 3.25996094,8.78610253 L2.71015625,9.34530565 C2.56977539,9.4880636 2.33793945,9.49222996 2.19233398,9.35454828 C2.04672852,9.2168666 2.0425293,8.9894883 2.18291016,8.84668247 L2.84365234,8.17460431 C2.91020508,8.10688887 3.0012207,8.06752388 3.09711914,8.06488997 C3.1237793,8.06421952 3.75551758,8.04990063 4.49003906,8.28134952 C5.28510742,8.53190623 5.90043945,8.97560041 6.29887695,9.57766444 C6.29814453,9.55630582 6.29741211,9.53480353 6.29667969,9.51358858 C6.28837891,9.26667146 6.28046875,9.03345066 6.26601562,8.83341714 C6.21923828,8.1880612 5.95629883,7.59337212 5.52563477,7.1588248 C5.09106445,6.72035055 4.51035156,6.4788928 3.89033203,6.4788928 C3.2703125,6.4788928 2.68955078,6.72035055 2.2550293,7.1588248 C1.82436523,7.59337212 1.56142578,8.1880612 1.51464844,8.83341714 C1.50014648,9.03349855 1.49228516,9.26676723 1.48413086,9.51373225 C1.48305664,9.5443335 1.48203125,9.57526998 1.48095703,9.60615856 C1.50053711,9.60294998 1.52055664,9.60089074 1.54106445,9.60089074 C1.74331055,9.60089074 1.90727539,9.76170294 1.90727539,9.96006034 C1.90727539,11.0325408 2.796875,11.9050834 3.89042969,11.9050834 Z M5.43110352,12.583052 C6.11542969,12.3414027 6.46064453,12.0162345 6.60649414,11.8419175 C6.50668945,11.586093 6.44189453,11.2931063 6.39799805,10.9838374 C6.19589844,11.4623471 5.85717773,11.8670115 5.43115234,12.1546824 L5.43110352,12.583052 Z M8.95522461,6.75617173 C8.95522461,8.65986639 10.4102051,10.2434691 12.2676758,10.3614204 C13.1351563,10.416541 13.9658203,10.1711084 14.6439941,9.66611594 C14.6460938,9.66463137 14.6481445,9.66305103 14.650293,9.66161435 C14.7472656,9.58906209 14.8410645,9.51119412 14.9314453,9.42815411 C15.6553711,8.76263678 16.0540527,7.86045064 16.0540527,6.88777147 L16.0540527,5.8650959 C16.0540527,5.8110289 16.0665039,5.75763235 16.0904785,5.70892896 C16.326123,5.23032349 16.4456055,4.72250557 16.4456055,4.19955463 L16.4456055,0.718387089 L11.3299316,0.718387089 C9.80463867,0.718387089 8.56367188,1.93544525 8.56367188,3.43145847 L8.56367188,4.19950674 C8.56367188,4.72245768 8.6831543,5.2302756 8.91879883,5.70888107 C8.94277344,5.75758446 8.95522461,5.81098101 8.95522461,5.86504801 L8.95522461,6.75617173 Z M11.0171875,13.9831909 L11.9335449,13.0844049 L10.2057617,11.9261068 L9.83925781,12.3038096 L10.9781738,13.9793597 C10.9801758,13.9823289 10.9848633,13.989177 10.9967773,13.9903264 C11.0087402,13.9915715 11.0146484,13.9856811 11.0171875,13.9831909 Z M12.5046387,12.5971314 L14.487793,11.2676292 L14.487793,10.6115461 C13.8825684,10.9231617 13.2086426,11.0873261 12.5083984,11.0873261 C12.4127441,11.0873261 12.3167969,11.0843091 12.2202637,11.0781792 C11.6091797,11.0393889 11.0346191,10.8692383 10.5214844,10.5971793 L10.5214844,11.2676292 L12.5046387,12.5971314 Z M14.0311035,13.9794555 L15.1700684,12.3039054 L14.8035156,11.9262026 L13.0757324,13.0845485 L13.9920898,13.9832866 C13.9946777,13.985729 14.0005371,13.9919067 14.0125,13.9904221 C14.0244141,13.9892728 14.0291016,13.9824246 14.0311035,13.9794555 Z M20.7181641,13.6764121 L21.553125,12.8575533 C21.5358398,12.7900773 21.5266602,12.7198717 21.5266602,12.6482293 L21.5266602,12.5036037 C21.268457,12.58219 20.997168,12.6233748 20.7192383,12.6233748 C20.6911133,12.6233748 20.6631348,12.6229916 20.6349121,12.6221296 C20.3833984,12.6147547 20.140332,12.5706965 19.9097168,12.4964682 L19.9097656,12.6480377 C19.9098145,12.7260494 19.9016113,12.7967818 19.8871094,12.8613845 L20.7181641,13.6764121 Z M22.0566406,8.10257884 C22.2375488,8.19131767 22.3108887,8.40705888 22.2204102,8.58448866 C22.15625,8.7102938 22.0269043,8.78308551 21.8925781,8.78308551 C21.8375488,8.78308551 21.7816895,8.77092163 21.7291016,8.74510931 C21.1500488,8.46117377 19.9550781,8.39901348 19.5435059,8.39896559 C19.3412598,8.39896559 19.1772949,8.23815339 19.1772949,8.03979599 C19.1772949,7.84143859 19.3412598,7.68062639 19.5435059,7.68062639 C19.6109863,7.68062639 21.205957,7.68546321 22.0566406,8.10257884 Z M22.0991699,11.355985 C22.4875,10.9863755 22.7013672,10.4906257 22.7013672,9.96001245 L22.7013672,9.19196418 C22.7013672,9.13617317 22.7145996,9.08124416 22.7400391,9.03134353 L22.9249023,8.66872591 C23.0348145,8.45308048 23.0929199,8.21167062 23.0929199,7.97059598 L23.0929199,6.47884491 L19.9350586,6.47884491 C19.0574707,6.47884491 18.343457,7.17908196 18.343457,8.03984388 L18.343457,8.06125039 C18.343457,8.2430381 18.3872559,8.42501736 18.4701172,8.58760147 L18.6963379,9.03134353 C18.7217773,9.08119627 18.7350098,9.13617317 18.7350098,9.19196418 L18.7350098,9.86341977 C18.7350098,10.9574504 19.597168,11.8729497 20.6569336,11.9041257 C21.198291,11.9205038 21.7110352,11.7254029 22.0991699,11.355985 Z M23.0675293,14.9772765 C23.2697754,14.9772765 23.4337402,15.1381366 23.4337402,15.3364461 L23.4337402,17.6406388 C23.4337402,17.8389962 23.2697754,17.9998084 23.0675293,17.9998084 C22.8652832,17.9998084 22.7013184,17.8389962 22.7013184,17.6406388 L22.7013184,15.3364461 C22.7013184,15.1380887 22.8652832,14.9772765 23.0675293,14.9772765 Z M1.9324707,15.4520509 C2.1347168,15.4520509 2.29868164,15.6129109 2.29868164,15.8112205 L2.29868164,17.6406388 C2.29868164,17.8389962 2.1347168,17.9998084 1.9324707,17.9998084 C1.73022461,17.9998084 1.56625977,17.8389962 1.56625977,17.6406388 L1.56625977,15.8112205 C1.56625977,15.6128631 1.73022461,15.4520509 1.9324707,15.4520509 Z M15.5044922,4.32962191 C15.6475098,4.46984173 15.6475098,4.69726792 15.5044922,4.83753562 C15.3615234,4.97780332 15.1296387,4.97780332 14.9866211,4.83753562 C14.4973145,4.35758925 13.670166,4.07643129 12.5281738,4.00186768 C11.5577148,3.93841439 10.6210449,4.04606949 10.1490234,4.11584417 C10.1380859,4.1174724 10.1298828,4.12791227 10.1298828,4.14012403 L10.1298828,4.9676029 C10.1298828,5.1659603 9.96591797,5.3267725 9.76367187,5.3267725 C9.56142578,5.3267725 9.39746094,5.1659603 9.39746094,4.9676029 L9.39746094,4.14017192 C9.39746094,3.76955678 9.66757812,3.46062304 10.0397949,3.40559826 C11.2215332,3.23089816 14.1194336,2.9711946 15.5044922,4.32962191 Z M8.19746094,15.7453727 C8.39970703,15.7453727 8.56367188,15.9062328 8.56367188,16.1045423 L8.56367188,17.6406867 C8.56367188,17.8390441 8.39970703,17.9998563 8.19746094,17.9998563 C7.99521484,17.9998563 7.83125,17.8390441 7.83125,17.6406867 L7.83125,16.1045423 C7.83125,15.9061849 7.99521484,15.7453727 8.19746094,15.7453727 Z M16.8118164,15.7453727 C17.0140625,15.7453727 17.1780273,15.9062328 17.1780273,16.1045423 L17.1780273,17.6406867 C17.1780273,17.8390441 17.0140625,17.9998563 16.8118164,17.9998563 C16.6095703,17.9998563 16.4456055,17.8390441 16.4456055,17.6406867 L16.4456055,16.1045423 C16.4456055,15.9061849 16.6095703,15.7453727 16.8118164,15.7453727 Z" id="nhom-nguoi-dung-copy" fill="#0076D7" fill-rule="nonzero"></path>
    </g>
</svg>