<?xml version="1.0" encoding="UTF-8" standalone="no"?>
<svg
   xmlns:dc="http://purl.org/dc/elements/1.1/"
   xmlns:cc="http://creativecommons.org/ns#"
   xmlns:rdf="http://www.w3.org/1999/02/22-rdf-syntax-ns#"
   xmlns:svg="http://www.w3.org/2000/svg"
   xmlns="http://www.w3.org/2000/svg"
   id="svg11"
   version="1.1"
   viewBox="0 0 25 18"
   height="18px"
   width="25px">
  <metadata
     id="metadata15">
    <rdf:RDF>
      <cc:Work
         rdf:about="">
        <dc:format>image/svg+xml</dc:format>
        <dc:type
           rdf:resource="http://purl.org/dc/dcmitype/StillImage" />
      </cc:Work>
    </rdf:RDF>
  </metadata>
  <!-- Generator: Sketch 49.3 (51167) - http://www.bohemiancoding.com/sketch -->
  <title
     id="title2">nhom nguoi dung</title>
  <desc
     id="desc4">Created with Sketch.</desc>
  <defs
     id="defs6" />
  <g
     fill-rule="evenodd"
     fill="none"
     stroke-width="1"
     stroke="none"
     id="Page-1">
    <g
       fill-rule="nonzero"
       fill="#4A4A4A"
       transform="translate(-19.000000, -145.000000)"
       id="06.-Don-Vi-Su-Dung">
      <path
         id="nhom-nguoi-dung"
         d="M42.8824219,158.216244 C43.5404297,158.400666 44,158.998276 44,159.669588 L44,162.64083 C44,162.839188 43.8360352,163 43.6337891,163 C43.431543,163 43.2675781,162.839188 43.2675781,162.64083 L43.2675781,159.669588 C43.2675781,159.31741 43.026416,159.003879 42.6812012,158.907143 L41.1687012,158.483323 C41.1141113,158.468046 41.0622559,158.447262 41.0128906,158.422647 L40.084375,159.333309 L40.084375,162.64083 C40.084375,162.839188 39.9204102,163 39.7181641,163 C39.515918,163 39.3519531,162.839188 39.3519531,162.64083 L39.3519531,159.333309 L38.4169434,158.416278 C38.2919434,158.476379 38.1674316,158.511386 38.0761719,158.536959 L37.9856934,158.562292 C38.3250488,158.908675 38.5273438,159.377032 38.5273438,159.876422 L38.5273438,162.64083 C38.5273438,162.839188 38.3633789,163 38.1611328,163 C37.9588867,163 37.7949219,162.839188 37.7949219,162.64083 L37.7949219,159.876422 C37.7949219,159.383354 37.4774414,158.938845 37.0049805,158.770323 L34.6294434,157.923114 L33.6404785,159.37799 C33.5140625,159.563992 33.3114746,159.683284 33.0846191,159.705313 C33.059375,159.707756 33.0341797,159.708953 33.0091309,159.708953 C32.8089844,159.708953 32.617334,159.631707 32.4741211,159.4912 L31.8708008,158.89948 L31.8708008,162.640783 C31.8708008,162.83914 31.7068359,162.999952 31.5045898,162.999952 C31.3023437,162.999952 31.1383789,162.83914 31.1383789,162.640783 L31.1383789,158.89948 L30.5350586,159.4912 C30.3917969,159.63166 30.2001465,159.708905 30.0000488,159.708905 C29.9749512,159.708905 29.9498047,159.707708 29.9245117,159.705265 C29.6977051,159.683236 29.4951172,159.563944 29.3687012,159.377942 L28.3797852,157.923018 L26.0041992,158.770227 C25.5316895,158.93875 25.2142578,159.383258 25.2142578,159.876326 L25.2142578,162.640735 C25.2142578,162.839092 25.050293,162.999904 24.8480469,162.999904 C24.6458008,162.999904 24.4818359,162.839092 24.4818359,162.640735 L24.4818359,159.876326 C24.4818359,159.514139 24.5884766,159.168379 24.7763672,158.873524 L24.3773438,158.677849 L23.951709,159.074564 C23.6541504,159.35189 23.2721191,159.490626 22.8902344,159.490626 C22.508252,159.490626 22.126416,159.351986 21.8287598,159.074564 L21.4030762,158.677801 L20.1792969,159.277901 C19.9036621,159.413093 19.7324219,159.684865 19.7324219,159.987142 L19.7324219,162.640639 C19.7324219,162.838996 19.568457,162.999808 19.3662109,162.999808 C19.1639648,162.999808 19,162.838996 19,162.640639 L19,159.987142 C19,159.411082 19.3263672,158.893159 19.8517578,158.635323 L20.8345215,158.153413 C19.7791992,157.703254 19.4462402,157.072169 19.4302246,157.040754 C19.3786621,156.93966 19.3786621,156.820607 19.4302246,156.719512 C19.6941895,156.201638 19.7262207,155.25252 19.7519043,154.489883 C19.7604492,154.235927 19.7685547,153.996049 19.7840332,153.782415 C19.9088379,152.059598 21.2442383,150.760458 22.8902344,150.760458 C24.5362305,150.760458 25.871582,152.059646 25.9964355,153.782415 C26.0119141,153.996001 26.0200195,154.235879 26.0285645,154.489788 C26.054248,155.252472 26.0862305,156.201686 26.3502441,156.71956 C26.4018066,156.820655 26.4018066,156.939707 26.3502441,157.040802 C26.3342285,157.072217 26.0005859,157.704595 24.9473633,158.154227 L25.3011719,158.32773 C25.438916,158.232191 25.590625,158.153318 25.7539062,158.095084 L28.0070801,157.29155 C27.9994141,157.192754 28.0333984,157.092283 28.1068848,157.01657 L28.7890625,156.313651 L28.7890625,155.105883 C27.8314941,154.308431 27.2228027,153.098843 27.2228027,151.75622 L27.2228027,150.945406 C26.9629395,150.3908 26.83125,149.803917 26.83125,149.199507 L26.83125,148.431411 C26.83125,146.539353 28.4007324,145 30.3299316,145 L35.8118164,145 C36.0140625,145 36.1780273,145.160812 36.1780273,145.35917 L36.1780273,149.199411 C36.1780273,149.803822 36.0463379,150.390705 35.7864746,150.94531 L35.7864746,151.887676 C35.7864746,153.044058 35.2929199,154.161028 34.4323242,154.952159 C34.3634277,155.015468 34.292334,155.07533 34.2202148,155.133611 L34.2202148,156.313603 L34.9023926,157.016522 C34.9758789,157.092235 35.0098633,157.192706 35.0021973,157.291502 L37.1370117,158.052846 L37.875,157.84606 C38.1773926,157.761296 38.1773926,157.728157 38.1773926,157.648134 L38.1772949,157.129205 C37.4697266,156.62723 37.0025879,155.793046 37.0025879,154.863324 L37.0025879,154.27668 L36.8150391,153.908795 C36.6815918,153.647032 36.6110352,153.353902 36.6110352,153.061202 L36.6110352,153.039796 C36.6110352,151.78299 37.6536133,150.760458 38.9350586,150.760458 L42.4591309,150.760458 C42.661377,150.760458 42.8253418,150.92127 42.8253418,151.119627 L42.8253418,152.970548 C42.8253418,153.322534 42.7405273,153.675047 42.5800293,153.989919 L42.4337891,154.276728 L42.4337891,154.959965 C42.4337891,155.686541 42.1409668,156.365371 41.6092285,156.871465 C41.4995117,156.975912 41.3821289,157.069487 41.259082,157.153102 L41.259082,157.648229 C41.259082,157.714843 41.3046875,157.77413 41.3699707,157.792424 L42.8824219,158.216244 Z M21.3493652,157.581855 L21.3493652,157.151378 C20.922998,156.862127 20.5847656,156.456696 20.3828125,155.981778 C20.338916,156.291765 20.2740723,156.585423 20.1740723,156.841822 C20.320752,157.017815 20.6643555,157.34011 21.3493652,157.581855 Z M23.4472656,158.553911 L23.787793,158.236549 C23.7302734,158.130905 23.6987305,158.011134 23.6987305,157.885664 L23.6987793,157.503125 C23.4428711,157.580993 23.1714355,157.623423 22.890332,157.623423 C22.6088867,157.623423 22.3373047,157.581184 22.0818359,157.502885 L22.0818359,157.885712 C22.0818359,158.011134 22.0502441,158.130857 21.9927734,158.236453 L22.3333496,158.553863 C22.6456055,158.844935 23.1349121,158.844982 23.4472656,158.553911 Z M22.8904297,156.905083 C23.8738281,156.905083 24.7000977,156.204846 24.8491699,155.262002 C24.2567383,153.982544 22.7334473,153.808802 22.2599609,153.786103 L21.7101562,154.345306 C21.5697754,154.488064 21.3379395,154.49223 21.192334,154.354548 C21.0467285,154.216867 21.0425293,153.989488 21.1829102,153.846682 L21.8436523,153.174604 C21.9102051,153.106889 22.0012207,153.067524 22.0971191,153.06489 C22.1237793,153.06422 22.7555176,153.049901 23.4900391,153.28135 C24.2851074,153.531906 24.9004395,153.9756 25.298877,154.577664 C25.2981445,154.556306 25.2974121,154.534804 25.2966797,154.513589 C25.2883789,154.266671 25.2804687,154.033451 25.2660156,153.833417 C25.2192383,153.188061 24.9562988,152.593372 24.5256348,152.158825 C24.0910645,151.720351 23.5103516,151.478893 22.890332,151.478893 C22.2703125,151.478893 21.6895508,151.720351 21.2550293,152.158825 C20.8243652,152.593372 20.5614258,153.188061 20.5146484,153.833417 C20.5001465,154.033499 20.4922852,154.266767 20.4841309,154.513732 C20.4830566,154.544334 20.4820312,154.57527 20.480957,154.606159 C20.5005371,154.60295 20.5205566,154.600891 20.5410645,154.600891 C20.7433105,154.600891 20.9072754,154.761703 20.9072754,154.96006 C20.9072754,156.032541 21.796875,156.905083 22.8904297,156.905083 Z M24.4311035,157.583052 C25.1154297,157.341403 25.4606445,157.016234 25.6064941,156.841917 C25.5066895,156.586093 25.4418945,156.293106 25.397998,155.983837 C25.1958984,156.462347 24.8571777,156.867011 24.4311523,157.154682 L24.4311035,157.583052 Z M27.9552246,151.756172 C27.9552246,153.659866 29.4102051,155.243469 31.2676758,155.36142 C32.1351563,155.416541 32.9658203,155.171108 33.6439941,154.666116 C33.6460938,154.664631 33.6481445,154.663051 33.650293,154.661614 C33.7472656,154.589062 33.8410645,154.511194 33.9314453,154.428154 C34.6553711,153.762637 35.0540527,152.860451 35.0540527,151.887771 L35.0540527,150.865096 C35.0540527,150.811029 35.0665039,150.757632 35.0904785,150.708929 C35.326123,150.230323 35.4456055,149.722506 35.4456055,149.199555 L35.4456055,145.718387 L30.3299316,145.718387 C28.8046387,145.718387 27.5636719,146.935445 27.5636719,148.431458 L27.5636719,149.199507 C27.5636719,149.722458 27.6831543,150.230276 27.9187988,150.708881 C27.9427734,150.757584 27.9552246,150.810981 27.9552246,150.865048 L27.9552246,151.756172 Z M30.0171875,158.983191 L30.9335449,158.084405 L29.2057617,156.926107 L28.8392578,157.30381 L29.9781738,158.97936 C29.9801758,158.982329 29.9848633,158.989177 29.9967773,158.990326 C30.0087402,158.991571 30.0146484,158.985681 30.0171875,158.983191 Z M31.5046387,157.597131 L33.487793,156.267629 L33.487793,155.611546 C32.8825684,155.923162 32.2086426,156.087326 31.5083984,156.087326 C31.4127441,156.087326 31.3167969,156.084309 31.2202637,156.078179 C30.6091797,156.039389 30.0346191,155.869238 29.5214844,155.597179 L29.5214844,156.267629 L31.5046387,157.597131 Z M33.0311035,158.979455 L34.1700684,157.303905 L33.8035156,156.926203 L32.0757324,158.084549 L32.9920898,158.983287 C32.9946777,158.985729 33.0005371,158.991907 33.0125,158.990422 C33.0244141,158.989273 33.0291016,158.982425 33.0311035,158.979455 Z M39.7181641,158.676412 L40.553125,157.857553 C40.5358398,157.790077 40.5266602,157.719872 40.5266602,157.648229 L40.5266602,157.503604 C40.268457,157.58219 39.997168,157.623375 39.7192383,157.623375 C39.6911133,157.623375 39.6631348,157.622992 39.6349121,157.62213 C39.3833984,157.614755 39.140332,157.570697 38.9097168,157.496468 L38.9097656,157.648038 C38.9098145,157.726049 38.9016113,157.796782 38.8871094,157.861384 L39.7181641,158.676412 Z M41.0566406,153.102579 C41.2375488,153.191318 41.3108887,153.407059 41.2204102,153.584489 C41.15625,153.710294 41.0269043,153.783086 40.8925781,153.783086 C40.8375488,153.783086 40.7816895,153.770922 40.7291016,153.745109 C40.1500488,153.461174 38.9550781,153.399013 38.5435059,153.398966 C38.3412598,153.398966 38.1772949,153.238153 38.1772949,153.039796 C38.1772949,152.841439 38.3412598,152.680626 38.5435059,152.680626 C38.6109863,152.680626 40.205957,152.685463 41.0566406,153.102579 Z M41.0991699,156.355985 C41.4875,155.986375 41.7013672,155.490626 41.7013672,154.960012 L41.7013672,154.191964 C41.7013672,154.136173 41.7145996,154.081244 41.7400391,154.031344 L41.9249023,153.668726 C42.0348145,153.45308 42.0929199,153.211671 42.0929199,152.970596 L42.0929199,151.478845 L38.9350586,151.478845 C38.0574707,151.478845 37.343457,152.179082 37.343457,153.039844 L37.343457,153.06125 C37.343457,153.243038 37.3872559,153.425017 37.4701172,153.587601 L37.6963379,154.031344 C37.7217773,154.081196 37.7350098,154.136173 37.7350098,154.191964 L37.7350098,154.86342 C37.7350098,155.95745 38.597168,156.87295 39.6569336,156.904126 C40.198291,156.920504 40.7110352,156.725403 41.0991699,156.355985 Z M42.0675293,159.977277 C42.2697754,159.977277 42.4337402,160.138137 42.4337402,160.336446 L42.4337402,162.640639 C42.4337402,162.838996 42.2697754,162.999808 42.0675293,162.999808 C41.8652832,162.999808 41.7013184,162.838996 41.7013184,162.640639 L41.7013184,160.336446 C41.7013184,160.138089 41.8652832,159.977277 42.0675293,159.977277 Z M20.9324707,160.452051 C21.1347168,160.452051 21.2986816,160.612911 21.2986816,160.81122 L21.2986816,162.640639 C21.2986816,162.838996 21.1347168,162.999808 20.9324707,162.999808 C20.7302246,162.999808 20.5662598,162.838996 20.5662598,162.640639 L20.5662598,160.81122 C20.5662598,160.612863 20.7302246,160.452051 20.9324707,160.452051 Z M34.5044922,149.329622 C34.6475098,149.469842 34.6475098,149.697268 34.5044922,149.837536 C34.3615234,149.977803 34.1296387,149.977803 33.9866211,149.837536 C33.4973145,149.357589 32.670166,149.076431 31.5281738,149.001868 C30.5577148,148.938414 29.6210449,149.046069 29.1490234,149.115844 C29.1380859,149.117472 29.1298828,149.127912 29.1298828,149.140124 L29.1298828,149.967603 C29.1298828,150.16596 28.965918,150.326773 28.7636719,150.326773 C28.5614258,150.326773 28.3974609,150.16596 28.3974609,149.967603 L28.3974609,149.140172 C28.3974609,148.769557 28.6675781,148.460623 29.0397949,148.405598 C30.2215332,148.230898 33.1194336,147.971195 34.5044922,149.329622 Z M27.1974609,160.745373 C27.399707,160.745373 27.5636719,160.906233 27.5636719,161.104542 L27.5636719,162.640687 C27.5636719,162.839044 27.399707,162.999856 27.1974609,162.999856 C26.9952148,162.999856 26.83125,162.839044 26.83125,162.640687 L26.83125,161.104542 C26.83125,160.906185 26.9952148,160.745373 27.1974609,160.745373 Z M35.8118164,160.745373 C36.0140625,160.745373 36.1780273,160.906233 36.1780273,161.104542 L36.1780273,162.640687 C36.1780273,162.839044 36.0140625,162.999856 35.8118164,162.999856 C35.6095703,162.999856 35.4456055,162.839044 35.4456055,162.640687 L35.4456055,161.104542 C35.4456055,160.906185 35.6095703,160.745373 35.8118164,160.745373 Z" />
    </g>
  </g>
</svg>
