<?xml version="1.0" encoding="UTF-8"?>
<svg width="13px" height="20px" viewBox="0 0 13 20" version="1.1" xmlns="http://www.w3.org/2000/svg" xmlns:xlink="http://www.w3.org/1999/xlink">
    <!-- Generator: Sketch 49.3 (51167) - http://www.bohemiancoding.com/sketch -->
    <title>quan ly phien lam viec</title>
    <desc>Created with Sketch.</desc>
    <defs></defs>
    <g id="Page-1" stroke="none" stroke-width="1" fill="none" fill-rule="evenodd">
        <g id="06.-Don-Vi-Su-Dung" transform="translate(-24.000000, -262.000000)" fill="#4A4A4A" fill-rule="nonzero">
            <path d="M35.884686,263.252502 L33.2722343,263.252502 C33.161258,262.888908 32.8498949,262.626251 32.4838391,262.626251 L31.618655,262.626251 C31.3562219,262.236211 30.9404584,262 30.5000177,262 C30.059577,262 29.6438135,262.236211 29.3813804,262.626251 L28.5161962,262.626251 C28.1501758,262.626251 27.8388128,262.888908 27.7278011,263.252502 L25.1153494,263.252502 C24.5003304,263.252502 24,263.805316 24,264.484849 L24,280.767654 C24,281.447186 24.5003304,282 25.1153494,282 L35.8846506,282 C36.4996696,282 37,281.447186 37,280.767654 L37,264.484888 C37.0000354,263.805355 36.4997049,263.252502 35.884686,263.252502 Z M28.2145555,263.546644 C28.2145555,263.546253 28.2145909,263.545901 28.2145909,263.545511 C28.2145909,263.545316 28.2145555,263.54512 28.2145555,263.544964 C28.2148737,263.361409 28.3500676,263.21219 28.5161962,263.21219 L29.5236097,263.21219 C29.618005,263.21219 29.7052941,263.15676 29.7527746,263.066565 C29.9113375,262.765626 30.1906698,262.585939 30.5000177,262.585939 C30.8093656,262.585939 31.0886979,262.765626 31.2472607,263.066604 C31.2947412,263.15676 31.3820304,263.212229 31.4764257,263.212229 L32.4838391,263.212229 C32.6501799,263.212229 32.7854798,263.36176 32.7854798,263.545511 L32.7854798,264.505044 L28.2145555,264.505044 L28.2145555,263.546644 Z M36.4697247,280.767693 C36.4697247,281.124139 36.2072916,281.4141 35.884686,281.4141 L25.1153494,281.4141 C24.7927437,281.4141 24.5303107,281.124139 24.5303107,280.767693 L24.5303107,264.484888 C24.5303107,264.128442 24.7927437,263.83848 25.1153494,263.83848 L27.6842449,263.83848 L27.6842449,264.798013 C27.6842449,264.95981 27.8029638,265.090983 27.9494002,265.090983 L33.0506351,265.090983 C33.1970716,265.090983 33.3157905,264.95981 33.3157905,264.798013 L33.3157905,263.838441 L35.884686,263.838441 C36.2072916,263.838441 36.4697247,264.128403 36.4697247,264.484849 L36.4697247,280.767693 Z M30.502846,263.252502 C30.6492824,263.252502 30.7680013,263.383675 30.7680013,263.545472 C30.7680013,263.707269 30.6492824,263.838441 30.502846,263.838441 C30.3564096,263.838441 30.2362765,263.707269 30.2362765,263.545472 C30.2362765,263.383675 30.3535812,263.252502 30.5000177,263.252502 L30.502846,263.252502 Z M35.601288,264.505044 L34.1842272,264.505044 C34.0377908,264.505044 33.9190719,264.636216 33.9190719,264.798013 C33.9190719,264.95981 34.0377908,265.090983 34.1842272,265.090983 L35.3361326,265.090983 L35.3361326,279.535308 L25.6639027,279.535308 L25.6639027,265.090983 L26.8157021,265.090983 C26.9621385,265.090983 27.0808574,264.95981 27.0808574,264.798013 C27.0808574,264.636216 26.9621385,264.505044 26.8157021,264.505044 L25.3987474,264.505044 C25.2523109,264.505044 25.1335921,264.636216 25.1335921,264.798013 L25.1335921,279.828277 C25.1335921,279.990074 25.2523109,280.121246 25.3987474,280.121246 L35.6012526,280.121246 C35.7476891,280.121246 35.8664079,279.990074 35.8664079,279.828277 L35.8664079,264.798013 C35.8664433,264.636216 35.7477244,264.505044 35.601288,264.505044 Z M27.6660022,270.767673 C27.2072481,270.767673 26.8340508,271.180057 26.8340508,271.686894 C26.8340508,272.193731 27.2072835,272.606114 27.6660022,272.606114 C28.1247209,272.606114 28.4979535,272.193731 28.4979535,271.686894 C28.4979535,271.180057 28.1247209,270.767673 27.6660022,270.767673 Z M27.6660022,272.020176 C27.4996614,272.020176 27.3643615,271.870644 27.3643615,271.686894 C27.3643615,271.503144 27.4996968,271.353612 27.6660022,271.353612 C27.8323076,271.353612 27.9676429,271.503144 27.9676429,271.686894 C27.9676429,271.870644 27.8323076,272.020176 27.6660022,272.020176 Z M27.6660022,273.585843 C27.2072481,273.585843 26.8340508,273.998227 26.8340508,274.505063 C26.8340508,275.0119 27.2072835,275.424284 27.6660022,275.424284 C28.1247209,275.424284 28.4979535,275.0119 28.4979535,274.505063 C28.4979535,273.998227 28.1247209,273.585843 27.6660022,273.585843 Z M27.6660022,274.838345 C27.4996614,274.838345 27.3643615,274.688814 27.3643615,274.505063 C27.3643615,274.321313 27.4996968,274.171782 27.6660022,274.171782 C27.8323076,274.171782 27.9676429,274.321313 27.9676429,274.505063 C27.9676429,274.688814 27.8323076,274.838345 27.6660022,274.838345 Z M27.6660022,276.404013 C27.2072481,276.404013 26.8340508,276.816396 26.8340508,277.323272 C26.8340508,277.830148 27.2072835,278.242493 27.6660022,278.242493 C28.1247209,278.242493 28.4979535,277.830109 28.4979535,277.323272 C28.4979535,276.816357 28.1247209,276.404013 27.6660022,276.404013 Z M27.6660022,277.656554 C27.4996614,277.656554 27.3643615,277.507022 27.3643615,277.323272 C27.3643615,277.139483 27.4996968,276.989951 27.6660022,276.989951 C27.8323076,276.989951 27.9676429,277.139483 27.9676429,277.323272 C27.9676429,277.507022 27.8323076,277.656554 27.6660022,277.656554 Z M31.9170431,270.767673 L29.3664256,270.767673 C29.2199892,270.767673 29.1012703,270.898846 29.1012703,271.060643 C29.1012703,271.22244 29.2199538,271.353612 29.3664256,271.353612 L31.9170431,271.353612 C32.0634795,271.353612 32.1821984,271.22244 32.1821984,271.060643 C32.1821984,270.898846 32.0634795,270.767673 31.9170431,270.767673 Z M33.9008292,272.020176 L29.3664256,272.020176 C29.2199892,272.020176 29.1012703,272.151348 29.1012703,272.313145 C29.1012703,272.474942 29.2199892,272.606114 29.3664256,272.606114 L33.9008645,272.606114 C34.047301,272.606114 34.1660199,272.474942 34.1660199,272.313145 C34.1660199,272.151348 34.0472656,272.020176 33.9008292,272.020176 Z M31.9170431,273.585843 L29.3664256,273.585843 C29.2199892,273.585843 29.1012703,273.717015 29.1012703,273.878812 C29.1012703,274.040609 29.2199538,274.171782 29.3664256,274.171782 L31.9170431,274.171782 C32.0634795,274.171782 32.1821984,274.040609 32.1821984,273.878812 C32.1821984,273.717015 32.0634795,273.585843 31.9170431,273.585843 Z M33.9008292,274.838345 L29.3664256,274.838345 C29.2199892,274.838345 29.1012703,274.969518 29.1012703,275.131315 C29.1012703,275.293112 29.2199892,275.424284 29.3664256,275.424284 L33.9008645,275.424284 C34.047301,275.424284 34.1660199,275.293112 34.1660199,275.131315 C34.1660199,274.969518 34.0472656,274.838345 33.9008292,274.838345 Z M31.9170431,276.404013 L29.3664256,276.404013 C29.2199892,276.404013 29.1012703,276.535185 29.1012703,276.696982 C29.1012703,276.858779 29.2199538,276.989951 29.3664256,276.989951 L31.9170431,276.989951 C32.0634795,276.989951 32.1821984,276.858779 32.1821984,276.696982 C32.1821984,276.535185 32.0634795,276.404013 31.9170431,276.404013 Z M33.9008645,277.656554 L29.3664256,277.656554 C29.2199892,277.656554 29.1012703,277.787726 29.1012703,277.949523 C29.1012703,278.111321 29.2199538,278.242493 29.3664256,278.242493 L33.9008645,278.242493 C34.047301,278.242493 34.1660199,278.111321 34.1660199,277.949523 C34.1660199,277.787726 34.047301,277.656554 33.9008645,277.656554 Z M33.9008645,266.070672 L29.3664256,266.070672 C29.2199892,266.070672 29.1012703,266.201844 29.1012703,266.363641 C29.1012703,266.525439 29.2199538,266.656611 29.3664256,266.656611 L33.9008645,266.656611 C34.047301,266.656611 34.1660199,266.525439 34.1660199,266.363641 C34.1660199,266.201844 34.047301,266.070672 33.9008645,266.070672 Z M33.9008292,268.888881 L27.0992062,268.888881 C26.9527697,268.888881 26.8340508,269.020053 26.8340508,269.18185 C26.8340508,269.343647 26.9527697,269.474819 27.0992062,269.474819 L33.9008645,269.474819 C34.047301,269.474819 34.1660199,269.343647 34.1660199,269.18185 C34.1660199,269.020053 34.0472656,268.888881 33.9008292,268.888881 Z M30.2166197,267.323214 L29.3664256,267.323214 C29.2199892,267.323214 29.1012703,267.454386 29.1012703,267.616183 C29.1012703,267.77798 29.2199538,267.909152 29.3664256,267.909152 L30.2166197,267.909152 C30.3630561,267.909152 30.481775,267.77798 30.481775,267.616183 C30.481775,267.454386 30.3630561,267.323214 30.2166197,267.323214 Z M32.2004411,267.323214 L31.3502471,267.323214 C31.2038106,267.323214 31.0850917,267.454386 31.0850917,267.616183 C31.0850917,267.77798 31.2038106,267.909152 31.3502471,267.909152 L32.2004411,267.909152 C32.3468776,267.909152 32.4655964,267.77798 32.4655964,267.616183 C32.4655964,267.454386 32.3468776,267.323214 32.2004411,267.323214 Z M28.2327982,266.070672 L27.0992062,266.070672 C26.9527697,266.070672 26.8340508,266.201844 26.8340508,266.363641 L26.8340508,267.616183 C26.8340508,267.77798 26.9527697,267.909152 27.0992062,267.909152 L28.2327982,267.909152 C28.3792347,267.909152 28.4979535,267.77798 28.4979535,267.616183 L28.4979535,266.363641 C28.4979535,266.201844 28.3792347,266.070672 28.2327982,266.070672 Z M27.9676429,267.323214 L27.3643615,267.323214 L27.3643615,266.656611 L27.9676429,266.656611 L27.9676429,267.323214 Z" id="quan-ly-phien-lam-viec"></path>
        </g>
    </g>
</svg>