<?xml version="1.0" encoding="UTF-8"?>
<svg width="13px" height="20px" viewBox="0 0 13 20" version="1.1" xmlns="http://www.w3.org/2000/svg" xmlns:xlink="http://www.w3.org/1999/xlink">
    <!-- Generator: Sketch 49.3 (51167) - http://www.bohemiancoding.com/sketch -->
    <title>quan ly phien lam viec copy</title>
    <desc>Created with Sketch.</desc>
    <defs></defs>
    <g id="Page-1" stroke="none" stroke-width="1" fill="none" fill-rule="evenodd">
        <path d="M11.884686,1.25250245 L9.27223429,1.25250245 C9.16125795,0.888907986 8.84989489,0.626251223 8.48383912,0.626251223 L7.61865497,0.626251223 C7.3562219,0.236211399 6.94045835,0 6.50001768,0 C6.059577,0 5.64381345,0.236211399 5.38138039,0.626251223 L4.51619623,0.626251223 C4.15017582,0.626251223 3.83881276,0.888907986 3.72780106,1.25250245 L1.11534937,1.25250245 C0.500330424,1.25250245 0,1.80531603 0,2.4848486 L0,18.7676538 C0,19.4471864 0.500330424,20 1.11534937,20 L11.8846506,20 C12.4996696,20 13,19.4471864 13,18.7676538 L13,2.48488767 C13.0000354,1.80535509 12.4997049,1.25250245 11.884686,1.25250245 Z M4.21455553,1.54664365 C4.21455553,1.54625302 4.21459089,1.54590146 4.21459089,1.54551083 C4.21459089,1.54531552 4.21455553,1.54512021 4.21455553,1.54496396 C4.21487372,1.36140891 4.35006758,1.21218987 4.51619623,1.21218987 L5.5236097,1.21218987 C5.618005,1.21218987 5.70529413,1.15676007 5.75277461,1.06656458 C5.9113375,0.765626495 6.1906698,0.585938644 6.50001768,0.585938644 C6.80936556,0.585938644 7.08869786,0.765626495 7.24726074,1.06660365 C7.29474122,1.15676007 7.38203036,1.21222893 7.47642565,1.21222893 L8.48383912,1.21222893 C8.6501799,1.21222893 8.78547982,1.36176047 8.78547982,1.54551083 L8.78547982,2.50504396 L4.21455553,2.50504396 L4.21455553,1.54664365 Z M12.4697247,18.7676929 C12.4697247,19.1241389 12.2072916,19.4141004 11.884686,19.4141004 L1.11534937,19.4141004 C0.792743719,19.4141004 0.530310653,19.1241389 0.530310653,18.7676929 L0.530310653,2.48488767 C0.530310653,2.12844166 0.792743719,1.83848015 1.11534937,1.83848015 L3.68424488,1.83848015 L3.68424488,2.79801328 C3.68424488,2.95981047 3.80296376,3.0909826 3.94940021,3.0909826 L9.05063515,3.0909826 C9.1970716,3.0909826 9.31579048,2.95981047 9.31579048,2.79801328 L9.31579048,1.83844109 L11.884686,1.83844109 C12.2072916,1.83844109 12.4697247,2.12840259 12.4697247,2.4848486 L12.4697247,18.7676929 Z M6.502846,1.25250245 C6.64928245,1.25250245 6.76800133,1.38367458 6.76800133,1.54547177 C6.76800133,1.70726896 6.64928245,1.83844109 6.502846,1.83844109 C6.35640955,1.83844109 6.23627651,1.70726896 6.23627651,1.54547177 C6.23627651,1.38367458 6.35358123,1.25250245 6.50001768,1.25250245 L6.502846,1.25250245 Z M11.601288,2.50504396 L10.1842272,2.50504396 C10.0377908,2.50504396 9.91907187,2.63621609 9.91907187,2.79801328 C9.91907187,2.95981047 10.0377908,3.0909826 10.1842272,3.0909826 L11.3361326,3.0909826 L11.3361326,17.5353077 L1.66390271,17.5353077 L1.66390271,3.0909826 L2.81570209,3.0909826 C2.96213854,3.0909826 3.08085742,2.95981047 3.08085742,2.79801328 C3.08085742,2.63621609 2.96213854,2.50504396 2.81570209,2.50504396 L1.39874738,2.50504396 C1.25231093,2.50504396 1.13359205,2.63621609 1.13359205,2.79801328 L1.13359205,17.828277 C1.13359205,17.9900742 1.25231093,18.1212463 1.39874738,18.1212463 L11.6012526,18.1212463 C11.7476891,18.1212463 11.8664079,17.9900742 11.8664079,17.828277 L11.8664079,2.79801328 C11.8664433,2.63621609 11.7477244,2.50504396 11.601288,2.50504396 Z M3.66600219,8.76767337 C3.20724812,8.76767337 2.83405084,9.18005699 2.83405084,9.68689392 C2.83405084,10.1937308 3.20728348,10.6061145 3.66600219,10.6061145 C4.12472091,10.6061145 4.49795354,10.1937308 4.49795354,9.68689392 C4.49795354,9.18005699 4.12472091,8.76767337 3.66600219,8.76767337 Z M3.66600219,10.0201758 C3.49966142,10.0201758 3.36436149,9.87064428 3.36436149,9.68689392 C3.36436149,9.50314356 3.49969677,9.35361202 3.66600219,9.35361202 C3.83230761,9.35361202 3.96764289,9.50314356 3.96764289,9.68689392 C3.96764289,9.87064428 3.83230761,10.0201758 3.66600219,10.0201758 Z M3.66600219,11.5858429 C3.20724812,11.5858429 2.83405084,11.9982266 2.83405084,12.5050635 C2.83405084,13.0119004 3.20728348,13.424284 3.66600219,13.424284 C4.12472091,13.424284 4.49795354,13.0119004 4.49795354,12.5050635 C4.49795354,11.9982266 4.12472091,11.5858429 3.66600219,11.5858429 Z M3.66600219,12.8383454 C3.49966142,12.8383454 3.36436149,12.6888138 3.36436149,12.5050635 C3.36436149,12.3213131 3.49969677,12.1717816 3.66600219,12.1717816 C3.83230761,12.1717816 3.96764289,12.3213131 3.96764289,12.5050635 C3.96764289,12.6888138 3.83230761,12.8383454 3.66600219,12.8383454 Z M3.66600219,14.4040125 C3.20724812,14.4040125 2.83405084,14.8163961 2.83405084,15.3232721 C2.83405084,15.8301481 3.20728348,16.2424927 3.66600219,16.2424927 C4.12472091,16.2424927 4.49795354,15.830109 4.49795354,15.3232721 C4.49795354,14.8163571 4.12472091,14.4040125 3.66600219,14.4040125 Z M3.66600219,15.656554 C3.49966142,15.656554 3.36436149,15.5070225 3.36436149,15.3232721 C3.36436149,15.1394827 3.49969677,14.9899512 3.66600219,14.9899512 C3.83230761,14.9899512 3.96764289,15.1394827 3.96764289,15.3232721 C3.96764289,15.5070225 3.83230761,15.656554 3.66600219,15.656554 Z M7.9170431,8.76767337 L5.36642562,8.76767337 C5.21998918,8.76767337 5.1012703,8.89884551 5.1012703,9.0606427 C5.1012703,9.22243989 5.21995382,9.35361202 5.36642562,9.35361202 L7.9170431,9.35361202 C8.06347954,9.35361202 8.18219842,9.22243989 8.18219842,9.0606427 C8.18219842,8.89884551 8.06347954,8.76767337 7.9170431,8.76767337 Z M9.90082919,10.0201758 L5.36642562,10.0201758 C5.21998918,10.0201758 5.1012703,10.151348 5.1012703,10.3131451 C5.1012703,10.4749423 5.21998918,10.6061145 5.36642562,10.6061145 L9.90086454,10.6061145 C10.047301,10.6061145 10.1660199,10.4749423 10.1660199,10.3131451 C10.1660199,10.151348 10.0472656,10.0201758 9.90082919,10.0201758 Z M7.9170431,11.5858429 L5.36642562,11.5858429 C5.21998918,11.5858429 5.1012703,11.7170151 5.1012703,11.8788123 C5.1012703,12.0406095 5.21995382,12.1717816 5.36642562,12.1717816 L7.9170431,12.1717816 C8.06347954,12.1717816 8.18219842,12.0406095 8.18219842,11.8788123 C8.18219842,11.7170151 8.06347954,11.5858429 7.9170431,11.5858429 Z M9.90082919,12.8383454 L5.36642562,12.8383454 C5.21998918,12.8383454 5.1012703,12.9695175 5.1012703,13.1313147 C5.1012703,13.2931119 5.21998918,13.424284 5.36642562,13.424284 L9.90086454,13.424284 C10.047301,13.424284 10.1660199,13.2931119 10.1660199,13.1313147 C10.1660199,12.9695175 10.0472656,12.8383454 9.90082919,12.8383454 Z M7.9170431,14.4040125 L5.36642562,14.4040125 C5.21998918,14.4040125 5.1012703,14.5351846 5.1012703,14.6969818 C5.1012703,14.858779 5.21995382,14.9899512 5.36642562,14.9899512 L7.9170431,14.9899512 C8.06347954,14.9899512 8.18219842,14.858779 8.18219842,14.6969818 C8.18219842,14.5351846 8.06347954,14.4040125 7.9170431,14.4040125 Z M9.90086454,15.656554 L5.36642562,15.656554 C5.21998918,15.656554 5.1012703,15.7877261 5.1012703,15.9495233 C5.1012703,16.1113205 5.21995382,16.2424927 5.36642562,16.2424927 L9.90086454,16.2424927 C10.047301,16.2424927 10.1660199,16.1113205 10.1660199,15.9495233 C10.1660199,15.7877261 10.047301,15.656554 9.90086454,15.656554 Z M9.90086454,4.07067201 L5.36642562,4.07067201 C5.21998918,4.07067201 5.1012703,4.20184414 5.1012703,4.36364134 C5.1012703,4.52543853 5.21995382,4.65661066 5.36642562,4.65661066 L9.90086454,4.65661066 C10.047301,4.65661066 10.1660199,4.52543853 10.1660199,4.36364134 C10.1660199,4.20184414 10.047301,4.07067201 9.90086454,4.07067201 Z M9.90082919,6.88888064 L3.09920617,6.88888064 C2.95276972,6.88888064 2.83405084,7.02005277 2.83405084,7.18184996 C2.83405084,7.34364716 2.95276972,7.47481929 3.09920617,7.47481929 L9.90086454,7.47481929 C10.047301,7.47481929 10.1660199,7.34364716 10.1660199,7.18184996 C10.1660199,7.02005277 10.0472656,6.88888064 9.90082919,6.88888064 Z M6.21661966,5.32321352 L5.36642562,5.32321352 C5.21998918,5.32321352 5.1012703,5.45438565 5.1012703,5.61618284 C5.1012703,5.77798004 5.21995382,5.90915217 5.36642562,5.90915217 L6.21661966,5.90915217 C6.36305611,5.90915217 6.48177499,5.77798004 6.48177499,5.61618284 C6.48177499,5.45438565 6.36305611,5.32321352 6.21661966,5.32321352 Z M8.20044111,5.32321352 L7.35024707,5.32321352 C7.20381062,5.32321352 7.08509174,5.45438565 7.08509174,5.61618284 C7.08509174,5.77798004 7.20381062,5.90915217 7.35024707,5.90915217 L8.20044111,5.90915217 C8.34687756,5.90915217 8.46559644,5.77798004 8.46559644,5.61618284 C8.46559644,5.45438565 8.34687756,5.32321352 8.20044111,5.32321352 Z M4.23279822,4.07067201 L3.09920617,4.07067201 C2.95276972,4.07067201 2.83405084,4.20184414 2.83405084,4.36364134 L2.83405084,5.61618284 C2.83405084,5.77798004 2.95276972,5.90915217 3.09920617,5.90915217 L4.23279822,5.90915217 C4.37923467,5.90915217 4.49795354,5.77798004 4.49795354,5.61618284 L4.49795354,4.36364134 C4.49795354,4.20184414 4.37923467,4.07067201 4.23279822,4.07067201 Z M3.96764289,5.32321352 L3.36436149,5.32321352 L3.36436149,4.65661066 L3.96764289,4.65661066 L3.96764289,5.32321352 Z" id="quan-ly-phien-lam-viec-copy" fill="#0076D7" fill-rule="nonzero"></path>
    </g>
</svg>