<?xml version="1.0" encoding="UTF-8"?>
<svg width="20px" height="19px" viewBox="0 0 20 19" version="1.1" xmlns="http://www.w3.org/2000/svg" xmlns:xlink="http://www.w3.org/1999/xlink">
    <!-- Generator: Sketch 50.2 (55047) - http://www.bohemiancoding.com/sketch -->
    <title>quan ly loai le hoi</title>
    <desc>Created with Sketch.</desc>
    <defs></defs>
    <g id="Page-1" stroke="none" stroke-width="1" fill="none" fill-rule="evenodd">
        <g id="quan-ly-loai-le-hoi" fill-rule="nonzero">
            <path d="M6.85157895,12.320398 L6.85157895,6.163904 C6.85157895,5.174992 7.67407407,4.373306 8.68865497,4.373306 L13.1093957,4.373306 L13.1093957,2.37082 C13.1093957,1.381908 12.2869006,0.580222 11.2723197,0.580222 L2.43083821,0.580222 C1.41625731,0.580146 0.593762183,1.381908 0.593762183,2.37082 L0.593762183,8.527314 C0.593762183,11.895976 3.39547758,14.626846 6.85161793,14.626846 C7.00518519,14.626846 7.15734893,14.621184 7.30818713,14.610582 C7.01395712,13.903364 6.85157895,13.130444 6.85157895,12.320398 Z" id="Shape" fill="#E0E2E6"></path>
            <g id="Group" fill="#969CA8">
                <path d="M6.85161793,15.20551 C3.07364522,15.20551 0,12.209704 0,8.527314 L0,2.37082 C0,1.064342 1.09044834,0.001406 2.43076023,0.001406 L11.2722807,0.001406 C12.6126706,0.001406 13.7031189,1.064266 13.7031189,2.370744 L13.7031189,4.373268 C13.7031189,4.692848 13.437232,4.952008 13.1093567,4.952008 L8.68865497,4.952008 C8.00307992,4.952008 7.4454191,5.495674 7.4454191,6.163866 L7.4454191,12.32036 C7.4454191,13.03685 7.58436647,13.734226 7.85844055,14.393032 C7.92982456,14.56464 7.91267057,14.759162 7.81231969,14.91633 C7.71196881,15.073498 7.54050682,15.174388 7.35095517,15.187688 C7.1834308,15.199582 7.0154386,15.20551 6.85161793,15.20551 Z M2.43076023,1.158924 C1.74526316,1.158924 1.18752437,1.70259 1.18752437,2.37082 L1.18752437,8.527314 C1.18752437,11.451794 3.5328655,13.852558 6.48639376,14.036706 C6.33446394,13.479702 6.25777778,12.905256 6.25777778,12.320436 L6.25777778,6.163904 C6.25777778,4.857426 7.34822612,3.794566 8.68853801,3.794566 L12.5155556,3.794566 L12.5155556,2.37082 C12.5155556,1.70259 11.9577778,1.158962 11.2722417,1.158962 L2.43076023,1.158924 Z" id="Shape"></path>
                <path d="M13.1094347,18.998632 C9.33146199,18.998632 6.25781676,16.00275 6.25781676,12.32036 L6.25781676,6.163904 C6.25781676,4.857426 7.34826511,3.794566 8.688577,3.794566 L17.5300975,3.794566 C18.8704094,3.794566 19.9608577,4.857426 19.9608577,6.163904 L19.9608577,8.16354 C19.9608577,8.48312 19.6949708,8.74228 19.3670955,8.74228 C19.0392203,8.74228 18.7733333,8.48312 18.7733333,8.16354 L18.7733333,6.163904 C18.7733333,5.495674 18.2155945,4.952046 17.5300975,4.952046 L8.68865497,4.952046 C8.00307992,4.952046 7.4454191,5.495712 7.4454191,6.163904 L7.4454191,12.320398 C7.4454191,15.36454 9.9862768,17.84119 13.1094347,17.84119 C16.2325926,17.84119 18.7735283,15.36454 18.7735283,12.320398 L18.7735283,11.396124 C18.7735283,11.076544 19.0394152,10.817384 19.3672904,10.817384 C19.6951657,10.817384 19.9610526,11.076544 19.9610526,11.396124 L19.9610526,12.320398 C19.9610136,16.002826 16.8874074,18.998632 13.1094347,18.998632 Z" id="Shape"></path>
                <path d="M10.7639766,10.49769 L9.57645224,10.49769 C9.248577,10.49769 8.98269006,10.23853 8.98269006,9.91895 C8.98269006,9.59937 9.248577,9.34021 9.57645224,9.34021 L10.7639766,9.34021 C11.0918519,9.34021 11.3577388,9.59937 11.3577388,9.91895 C11.3577388,10.23853 11.0919298,10.49769 10.7639766,10.49769 Z" id="Shape"></path>
                <path d="M16.6423782,10.49769 L15.4548538,10.49769 C15.1269786,10.49769 14.8610916,10.23853 14.8610916,9.91895 C14.8610916,9.59937 15.1269786,9.34021 15.4548538,9.34021 L16.6423782,9.34021 C16.9702534,9.34021 17.2361404,9.59937 17.2361404,9.91895 C17.2361404,10.23853 16.9702924,10.49769 16.6423782,10.49769 Z" id="Shape"></path>
                <path d="M13.1093957,15.881378 C11.9012476,15.881378 10.8287719,15.212502 10.377154,14.17742 C10.2488499,13.8833 10.3893957,13.543466 10.6911891,13.418408 C10.9930214,13.29335 11.3416764,13.430454 11.4699025,13.724498 C11.7307602,14.322276 12.3895517,14.723936 13.1093177,14.723936 C13.8290838,14.723936 14.4879922,14.322352 14.7487719,13.724498 C14.877037,13.43034 15.225731,13.29316 15.5274854,13.418408 C15.8293177,13.543466 15.9699025,13.8833 15.8415205,14.17742 C15.3900585,15.212578 14.3175828,15.881378 13.1093957,15.881378 Z" id="Shape"></path>
                <path d="M4.50619883,6.704606 L3.31867446,6.704606 C2.99079922,6.704606 2.72491228,6.445446 2.72491228,6.125866 C2.72491228,5.806286 2.99079922,5.547126 3.31867446,5.547126 L4.50619883,5.547126 C4.83407407,5.547126 5.09996101,5.806286 5.09996101,6.125866 C5.09996101,6.445446 4.83407407,6.704606 4.50619883,6.704606 Z" id="Shape"></path>
                <path d="M4.6654191,12.088446 C4.58791423,12.088446 4.50912281,12.073512 4.43337232,12.042086 C4.13153996,11.917028 3.99095517,11.577194 4.11933723,11.283074 C4.57091618,10.247916 5.6434308,9.579116 6.85161793,9.579116 C7.17949318,9.579116 7.44538012,9.838276 7.44538012,10.157856 C7.44538012,10.477436 7.17949318,10.736596 6.85161793,10.736596 C6.13185185,10.736596 5.47294347,11.13818 5.21216374,11.736034 C5.11606238,11.956244 4.89641326,12.088446 4.6654191,12.088446 Z" id="Shape"></path>
            </g>
        </g>
    </g>
</svg>