<?xml version="1.0" encoding="UTF-8"?>
<svg width="16px" height="20px" viewBox="0 0 16 20" version="1.1" xmlns="http://www.w3.org/2000/svg" xmlns:xlink="http://www.w3.org/1999/xlink">
    <!-- Generator: Sketch 50.2 (55047) - http://www.bohemiancoding.com/sketch -->
    <title>quan ly loai di san</title>
    <desc>Created with Sketch.</desc>
    <defs></defs>
    <g id="Page-1" stroke="none" stroke-width="1" fill="none" fill-rule="evenodd">
        <g id="quan-ly-loai-di-san" fill-rule="nonzero">
            <g id="Group" fill="#969CA8">
                <path d="M10.4655124,20 L1.44294527,20 C0.654766169,20 0.0135721393,19.3707031 0.0135721393,18.5971484 L0.0135721393,3.48445312 C0.0135721393,2.71089844 0.654766169,2.08160156 1.44294527,2.08160156 L12.5455522,2.08160156 C13.3337313,2.08160156 13.9749254,2.71089844 13.9749254,3.48445312 L13.9749254,16.5557422 L10.4655124,20 Z M1.44294527,3.135625 C1.24696517,3.135625 1.08752239,3.29210938 1.08752239,3.48445312 L1.08752239,18.5971484 C1.08752239,18.7894922 1.24696517,18.9459766 1.44294527,18.9459766 L10.0206965,18.9459766 L12.9009751,16.1191016 L12.9009751,3.48445312 C12.9009751,3.29214844 12.7415323,3.135625 12.5455522,3.135625 C12.5455522,3.135625 1.44294527,3.135625 1.44294527,3.135625 Z" id="Shape"></path>
                <path d="M11.3239005,10.3088672 L10.2499104,10.3088672 L10.2499104,8.13652344 L3.73862687,8.13652344 L3.73862687,10.3088672 L2.66467662,10.3088672 L2.66467662,7.99300781 C2.66467662,7.49097656 3.08083582,7.0825 3.59239801,7.0825 L10.3961791,7.0825 C10.9077015,7.0825 11.3239005,7.4909375 11.3239005,7.99300781 L11.3239005,10.3088672 Z" id="Shape"></path>
                <rect id="Rectangle-path" x="2.83275622" y="11.6996484" width="8.32310448" height="1.05402344"></rect>
                <rect id="Rectangle-path" x="2.83275622" y="13.9658203" width="8.32310448" height="1.05402344"></rect>
                <rect id="Rectangle-path" x="2.83275622" y="16.2319531" width="4.85050746" height="1.05402344"></rect>
                <path d="M7.52903483,6.33941406 C6.54463682,6.33941406 5.7438408,5.5534375 5.7438408,4.58734375 L5.7438408,3.78226562 L6.81779104,3.78226562 L6.81779104,4.58738281 C6.81779104,4.97226562 7.13687562,5.28542969 7.52899502,5.28542969 C7.92115423,5.28542969 8.24023881,4.97234375 8.24023881,4.58738281 L8.24023881,2.27691406 C8.24023881,1.60261719 7.68131343,1.05402344 6.99430846,1.05402344 C6.30726368,1.05402344 5.74829851,1.60257812 5.74829851,2.27691406 L4.67434826,2.27691406 C4.67430846,1.02140625 5.71502488,0 6.99422886,0 C8.27343284,0 9.31418905,1.02140625 9.31418905,2.27691406 L9.31418905,4.58738281 C9.31418905,5.5534375 8.51335323,6.33941406 7.52903483,6.33941406 Z" id="Shape"></path>
            </g>
            <path d="M14.5570547,2.60859375 L12.5255323,2.60859375 C13.0183881,2.60859375 13.4179502,3.00070312 13.4179502,3.48445312 L13.4179502,16.3373828 L10.2231244,19.4730078 L12.2546468,19.4730078 L15.4494726,16.3373828 L15.4494726,3.484375 C15.4494726,3.00070312 15.0499104,2.60859375 14.5570547,2.60859375 Z" id="Shape" fill="#E0E2E6"></path>
            <path d="M12.4770149,20 L8.92664677,20 L12.8809154,16.1191016 L12.8809154,3.48445312 C12.8809154,3.29214844 12.7214726,3.135625 12.5254925,3.135625 L12.5254925,2.08160156 L14.5570149,2.08160156 C15.345194,2.08160156 15.9863881,2.71089844 15.9863881,3.48445312 L15.9863881,16.5557422 L12.4770149,20 Z M11.519403,18.9459766 L12.0321592,18.9459766 L14.9124776,16.1191016 L14.9124776,3.48445312 C14.9124776,3.29214844 14.7530348,3.135625 14.5570547,3.135625 L13.9101692,3.135625 C13.9393831,3.2471875 13.9549055,3.36402344 13.9549055,3.48445312 L13.9549055,16.5557422 L11.519403,18.9459766 Z" id="Shape" fill="#969CA8"></path>
        </g>
    </g>
</svg>