<?xml version="1.0" encoding="UTF-8"?>
<svg width="16px" height="20px" viewBox="0 0 16 20" version="1.1" xmlns="http://www.w3.org/2000/svg" xmlns:xlink="http://www.w3.org/1999/xlink">
    <!-- Generator: Sketch 50.2 (55047) - http://www.bohemiancoding.com/sketch -->
    <title>quan ly thuc trang di tich</title>
    <desc>Created with Sketch.</desc>
    <defs></defs>
    <g id="Page-1" stroke="none" stroke-width="1" fill="none" fill-rule="evenodd">
        <g id="quan-ly-thuc-trang-di-tich" fill-rule="nonzero">
            <polygon id="Shape" fill="#E0E2E6" points="0.597866667 3.81347656 3.85188571 3.81347656 3.85188571 0.577382813"></polygon>
            <g id="Group" fill="#969CA8">
                <path d="M3.85188571,4.39078125 L0.597866667,4.39078125 C0.368609524,4.39078125 0.162209524,4.24820312 0.0760761905,4.0303125 C-0.0100571429,3.81242187 0.0412952381,3.56277344 0.205904762,3.39910156 L3.4599619,0.162929687 C3.62228571,0.0014453125 3.86308571,-0.0447265625 4.07131429,0.0456640625 C4.27958095,0.136054687 4.41493333,0.34546875 4.41493333,0.577304687 L4.41493333,3.81347656 C4.41489524,4.13230469 4.16278095,4.39078125 3.85188571,4.39078125 Z M1.98700952,3.23617188 L3.28891429,3.23617188 L3.28891429,1.94148438 L1.98700952,3.23617188 Z" id="Shape"></path>
                <path d="M15.4022095,12.498125 C15.0913143,12.498125 14.8392,12.2396875 14.8392,11.9208203 L14.8392,1.41144531 C14.8392,1.26984375 14.7155048,1.15464844 14.5635048,1.15464844 L6.4631619,1.15464844 C6.15226667,1.15464844 5.90015238,0.896210938 5.90015238,0.57734375 C5.90015238,0.258476563 6.15226667,3.90625e-05 6.4631619,3.90625e-05 L14.5635048,3.90625e-05 C15.3364571,3.90625e-05 15.965219,0.633164063 15.965219,1.41140625 L15.965219,11.9207813 C15.965219,12.2396875 15.7131429,12.498125 15.4022095,12.498125 Z" id="Shape"></path>
                <path d="M14.5635048,20 L1.43660952,20 C0.663657143,20 0.0348952381,19.366875 0.0348952381,18.5886328 L0.0348952381,3.81347656 C0.0348952381,3.65730469 0.0966095238,3.5078125 0.205942857,3.39910156 L3.45992381,0.162929687 C3.68308571,-0.0590234375 4.03946667,-0.053515625 4.25607619,0.175390625 C4.47253333,0.40421875 4.46708571,0.769726562 4.24384762,0.991679687 L1.1608381,4.05769531 L1.1608381,18.5885547 C1.1608381,18.7301563 1.28453333,18.8453516 1.43653333,18.8453516 L14.5634667,18.8453516 C14.7154667,18.8453516 14.8391619,18.7301172 14.8391619,18.5885547 L14.8391619,14.9689062 C14.8391619,14.6500781 15.0912762,14.3916016 15.4021714,14.3916016 C15.7130667,14.3916016 15.965181,14.6500781 15.965181,14.9689062 L15.965181,18.5885547 C15.965219,19.366875 15.336381,20 14.5635048,20 Z" id="Shape"></path>
                <path d="M15.4022095,4.39078125 L6.4631619,4.39078125 C6.15226667,4.39078125 5.90015238,4.13234375 5.90015238,3.81347656 C5.90015238,3.49460938 6.15226667,3.23617187 6.4631619,3.23617187 L14.8392,3.23617187 L14.8392,1.55675781 C14.8392,1.335 14.6633143,1.1546875 14.4470857,1.1546875 L6.46312381,1.1546875 C6.15222857,1.1546875 5.90011429,0.89625 5.90011429,0.577382813 C5.90011429,0.258515625 6.15222857,7.8125e-05 6.46312381,7.8125e-05 L14.4470857,7.8125e-05 C15.2841524,7.8125e-05 15.965219,0.6984375 15.965219,1.55675781 L15.965219,3.81347656 C15.965219,4.13230469 15.7131429,4.39078125 15.4022095,4.39078125 Z" id="Shape"></path>
            </g>
            <rect id="Rectangle-path" fill="#E0E2E6" x="2.81531429" y="7.40503906" width="4.72921905" height="2.54003906"></rect>
            <g id="Group" transform="translate(2.247619, 6.796875)" fill="#969CA8">
                <path d="M5.29702857,3.72527344 L0.567619048,3.72527344 C0.25672381,3.72527344 0.00460952381,3.46683594 0.00460952381,3.14796875 L0.00460952381,0.607929688 C0.00460952381,0.289101563 0.25672381,0.030625 0.567619048,0.030625 L5.29702857,0.030625 C5.60792381,0.030625 5.8600381,0.2890625 5.8600381,0.607929688 L5.8600381,3.14796875 C5.8600381,3.46683594 5.60792381,3.72527344 5.29702857,3.72527344 Z M1.13062857,2.57066406 L4.73401905,2.57066406 L4.73401905,1.18519531 L1.13062857,1.18519531 L1.13062857,2.57066406 Z" id="Shape"></path>
                <path d="M8.78742857,3.55738281 C8.63813333,3.55738281 8.49489524,3.49652344 8.38933333,3.38828125 L7.48857143,2.46460938 C7.26872381,2.23917969 7.26872381,1.87363281 7.48857143,1.64820313 C7.70853333,1.42277344 8.06491429,1.42277344 8.2848381,1.64820313 L8.78750476,2.16367188 L10.5391619,0.367539063 C10.7591238,0.142148438 11.1155048,0.142109375 11.3354286,0.367539063 C11.5552762,0.59296875 11.5552762,0.958515625 11.3354286,1.18394531 L9.1856,3.38832031 C9.07988571,3.49660156 8.93672381,3.55738281 8.78742857,3.55738281 Z" id="Shape"></path>
            </g>
            <rect id="Rectangle-path" fill="#E0E2E6" x="2.81531429" y="13.5215234" width="4.72921905" height="2.54003906"></rect>
            <g id="Group" transform="translate(2.247619, 12.929688)" fill="#969CA8">
                <path d="M5.29702857,3.70917969 L0.567619048,3.70917969 C0.25672381,3.70917969 0.00460952381,3.45074219 0.00460952381,3.131875 L0.00460952381,0.591835937 C0.00460952381,0.273007812 0.25672381,0.01453125 0.567619048,0.01453125 L5.29702857,0.01453125 C5.60792381,0.01453125 5.8600381,0.273007812 5.8600381,0.591835937 L5.8600381,3.131875 C5.8600381,3.45074219 5.60792381,3.70917969 5.29702857,3.70917969 Z M1.13062857,2.55457031 L4.73401905,2.55457031 L4.73401905,1.16914063 L1.13062857,1.16914063 L1.13062857,2.55457031 Z" id="Shape"></path>
                <path d="M8.78742857,3.54136719 C8.63813333,3.54136719 8.49489524,3.48050781 8.38933333,3.37226563 L7.48857143,2.44859375 C7.26872381,2.22316406 7.26872381,1.85761719 7.48857143,1.6321875 C7.70853333,1.40675781 8.06491429,1.40675781 8.2848381,1.6321875 L8.78750476,2.14761719 L10.5391619,0.351484375 C10.7591238,0.126054688 11.1155048,0.12609375 11.3354286,0.351484375 C11.5552762,0.576914063 11.5552762,0.942460938 11.3354286,1.16789063 L9.1856,3.37226563 C9.07988571,3.48050781 8.93672381,3.54136719 8.78742857,3.54136719 Z" id="Shape"></path>
            </g>
        </g>
    </g>
</svg>