<?xml version="1.0" encoding="UTF-8"?>
<svg width="20px" height="19px" viewBox="0 0 20 19" version="1.1" xmlns="http://www.w3.org/2000/svg" xmlns:xlink="http://www.w3.org/1999/xlink">
    <!-- Generator: Sketch 50.2 (55047) - http://www.bohemiancoding.com/sketch -->
    <title>quan ly loai di tich</title>
    <desc>Created with Sketch.</desc>
    <defs></defs>
    <g id="Page-1" stroke="none" stroke-width="1" fill="none" fill-rule="evenodd">
        <g id="quan-ly-loai-di-tich" fill-rule="nonzero">
            <g id="Group" fill="#969CA8">
                <path d="M16.10125,6.16374498 C15.7944141,6.16374498 15.5457031,5.92082731 15.5457031,5.62113855 L15.5457031,4.57072088 C15.5457031,4.44973896 15.4449219,4.35130522 15.3210547,4.35130522 L4.67902344,4.35130522 C4.55515625,4.35130522 4.454375,4.44973896 4.454375,4.57072088 L4.454375,5.62113855 C4.454375,5.92082731 4.20566406,6.16374498 3.89882813,6.16374498 C3.59199219,6.16374498 3.34328125,5.92082731 3.34328125,5.62113855 L3.34328125,4.57072088 C3.34328125,3.85135341 3.9425,3.26609237 4.67902344,3.26609237 L15.3210156,3.26609237 C16.0575391,3.26609237 16.6567578,3.85135341 16.6567578,4.57072088 L16.6567578,5.62113855 C16.6567578,5.92078916 16.4080469,6.16374498 16.10125,6.16374498 Z" id="Shape"></path>
                <path d="M17.7545312,15.7299016 L2.24546875,15.7299016 C1.00730469,15.7299016 0,14.7460602 0,13.5366988 L0,2.19881124 C0,0.989449799 1.00730469,0.00560843373 2.24546875,0.00560843373 L17.7544922,0.00560843373 C18.9926953,0.00560843373 20,0.989449799 20,2.19881124 L20,13.5367369 C20,14.7460221 18.9926562,15.7299016 17.7545312,15.7299016 Z M2.24546875,1.09082129 C1.61992187,1.09082129 1.11105469,1.58783534 1.11105469,2.19881124 L1.11105469,13.5367369 C1.11105469,14.1477129 1.61992187,14.6447269 2.24546875,14.6447269 L17.7544922,14.6447269 C18.3800391,14.6447269 18.8889062,14.1477129 18.8889062,13.5367369 L18.8889062,2.19881124 C18.8889062,1.58783534 18.3800391,1.09082129 17.7544922,1.09082129 C17.7544922,1.09082129 2.24546875,1.09082129 2.24546875,1.09082129 Z" id="Shape"></path>
                <path d="M11.8741406,18.9943153 C11.6564844,18.9943153 11.4510547,18.9106847 11.2957031,18.75899 L9.99996094,17.4933916 L8.70421875,18.7590663 C8.54890625,18.910761 8.34351563,18.9943534 8.12585938,18.9943916 C7.91582031,18.9943916 7.71558594,18.917247 7.56199219,18.7771888 C7.39515625,18.6249217 7.30320313,18.4172952 7.30320313,18.1923855 L7.30320313,13.1712731 C7.30320313,12.8715843 7.55191406,12.6286667 7.85875,12.6286667 L12.1411328,12.6286667 C12.4479688,12.6286667 12.6966797,12.8715843 12.6966797,13.1712731 L12.6966797,18.1923855 C12.6967187,18.6345361 12.3277344,18.9943153 11.8741406,18.9943153 Z M9.99996094,16.2906305 C10.2191797,16.2906305 10.4252344,16.3740321 10.5802734,16.5254217 L11.585625,17.5074699 L11.585625,13.7138414 L8.41433594,13.7138414 L8.41433594,17.5074699 L9.4196875,16.5254598 C9.57472656,16.3740321 9.78082031,16.2906305 9.99996094,16.2906305 Z" id="Shape"></path>
            </g>
            <path d="M13.5307422,11.8430663 C13.5307422,12.2829659 13.0392187,12.624241 12.8767578,13.0068353 C12.7083594,13.4033554 12.8025391,13.9827028 12.4966016,14.2815522 C12.190625,14.5804016 11.5974609,14.4883775 11.1914844,14.6528534 C10.7998437,14.8114538 10.4503906,15.2916044 10.0000391,15.2916044 C9.5496875,15.2916044 9.20023438,14.8115301 8.80851563,14.6528534 C8.40253906,14.4883775 7.809375,14.5803635 7.50339844,14.2815522 C7.19742188,13.9827028 7.29164063,13.4033554 7.12324219,13.0068353 C6.96085938,12.6243173 6.46925781,12.283004 6.46925781,11.8431426 C6.46925781,11.403243 6.96078125,11.0619679 7.12324219,10.6793735 C7.29164063,10.2828534 7.19746094,9.70350602 7.50339844,9.40465663 C7.809375,9.10580723 8.40253906,9.19783133 8.80851563,9.03335542 C9.20015625,8.87475502 9.54960938,8.39460442 9.99996094,8.39460442 C10.4503516,8.39460442 10.7997656,8.87467871 11.1914844,9.03335542 C11.5974609,9.19783133 12.190625,9.10584538 12.4966016,9.40465663 C12.8025781,9.70350602 12.7083594,10.2828534 12.8767578,10.6793735 C13.0392187,11.0618153 13.5307422,11.4031285 13.5307422,11.8430663 Z" id="Shape" fill="#E0E2E6"></path>
            <g id="Group" transform="translate(3.320312, 7.287149)" fill="#969CA8">
                <path d="M6.67964844,8.54698594 C6.214375,8.54698594 5.87039062,8.28709036 5.59394531,8.07824297 C5.4784375,7.99098795 5.35902344,7.90075703 5.27535156,7.86683936 C5.1815625,7.82883936 5.02492187,7.80835141 4.87335937,7.7884739 C4.53226562,7.74383534 4.1078125,7.68820884 3.79015625,7.37795181 C3.47253906,7.06780924 3.415625,6.65320482 3.36988281,6.32005622 C3.34953125,6.1720241 3.32855469,6.01903213 3.28964844,5.92742771 C3.25492187,5.84570482 3.16253906,5.72907229 3.07320313,5.61625502 C2.859375,5.346249 2.59328125,5.01027711 2.59328125,4.55584137 C2.59328125,4.10140562 2.85945312,3.76543373 3.07328125,3.49542771 C3.16261719,3.38261044 3.255,3.26597791 3.28964844,3.18429317 C3.32855469,3.09268876 3.34953125,2.93962048 3.36988281,2.79166466 C3.41558594,2.45851606 3.47253906,2.0439498 3.79015625,1.73369277 C4.10777344,1.4234739 4.5321875,1.36788554 4.87328125,1.32320884 C5.02484375,1.30333133 5.18148438,1.28276707 5.27527344,1.24484337 C5.35894531,1.2109257 5.47835938,1.12073293 5.59382813,1.03351606 C5.87027344,0.824668675 6.21429688,0.564773092 6.67953125,0.564773092 C7.14472656,0.564773092 7.48878906,0.824668675 7.76523438,1.03351606 C7.88074219,1.12077108 8.00015625,1.21100201 8.08382813,1.24491968 C8.17761719,1.28291968 8.33433594,1.30348394 8.48585938,1.32328514 C8.82695313,1.368 9.25140625,1.42362651 9.56898437,1.73380723 C9.88660156,2.0439498 9.94351562,2.45855422 9.98925781,2.79170281 C10.0096094,2.93973494 10.0305859,3.09272691 10.0694922,3.18433133 C10.1042188,3.26605422 10.1965625,3.38268675 10.2858594,3.49546586 C10.4996875,3.76547189 10.7658594,4.10148193 10.7658594,4.55587952 C10.7658594,5.01023896 10.4997656,5.34628715 10.2859375,5.61629317 C10.1966016,5.72911044 10.1042188,5.84574297 10.0694922,5.92746586 C10.0305859,6.01907028 10.0096094,6.17213855 9.98925781,6.32013253 C9.94355469,6.65324297 9.88660156,7.06784739 9.56898437,7.37802811 C9.25136719,7.68820884 8.82691406,7.74383534 8.48585938,7.78851205 C8.33429687,7.80838956 8.17757813,7.82887751 8.08382813,7.86687751 C8.00023438,7.90079518 7.88078125,7.99098795 7.76535156,8.07820482 C7.48898438,8.28709036 7.14492188,8.54698594 6.67964844,8.54698594 Z M6.67964844,1.64994779 C6.59398437,1.64994779 6.40886719,1.78977711 6.27371094,1.89187349 C6.10859375,2.01655622 5.9215625,2.15791165 5.7009375,2.24726506 C5.473125,2.33955622 5.23289062,2.37099398 5.02101562,2.39876908 C4.87394531,2.41803614 4.6278125,2.4502751 4.57585937,2.50105622 C4.52386719,2.55183735 4.49085938,2.7922751 4.47113281,2.93588153 C4.44269531,3.14282129 4.41050781,3.37745984 4.31601562,3.59996586 C4.22457031,3.81541365 4.07980469,3.99816466 3.95214844,4.15939759 C3.84757812,4.29140562 3.70445312,4.47221084 3.70445312,4.55587952 C3.70445312,4.63954819 3.84761719,4.82035341 3.95214844,4.95236145 C4.07980469,5.11363253 4.22457031,5.29630723 4.31601562,5.51183133 C4.41050781,5.7342992 4.44269531,5.9688996 4.47113281,6.17587751 C4.49085937,6.31948394 4.52386719,6.55992169 4.57585937,6.61066466 C4.62785156,6.66144578 4.87402344,6.69368474 5.02105469,6.71298996 C5.23292969,6.74072691 5.47308594,6.77220281 5.7009375,6.86449398 C5.92160156,6.95384739 6.10863281,7.09520281 6.27375,7.21988554 C6.40890625,7.32202008 6.59402344,7.4618494 6.6796875,7.4618494 C6.76535156,7.4618494 6.95046875,7.32202008 7.085625,7.21988554 C7.25066406,7.09520281 7.43777344,6.95384739 7.65832031,6.86449398 C7.88621094,6.77224096 8.12636719,6.74076506 8.33824219,6.71298996 C8.4853125,6.69372289 8.73144531,6.66144578 8.7834375,6.61070281 C8.83542969,6.55992169 8.8684375,6.31956024 8.88816406,6.17591566 C8.91660156,5.9689759 8.94878906,5.73433735 9.04328125,5.51183133 C9.13472656,5.29638353 9.27949219,5.11363253 9.40714844,4.95236145 C9.51171875,4.82035341 9.65484375,4.63954819 9.65484375,4.55587952 C9.65484375,4.47221084 9.51167969,4.29140562 9.40714844,4.15939759 C9.27949219,3.99820281 9.13472656,3.81545181 9.04328125,3.59996586 C8.94878906,3.37745984 8.91660156,3.14289759 8.88816406,2.93588153 C8.8684375,2.7922751 8.83542969,2.5518755 8.7834375,2.50109438 C8.73144531,2.45031325 8.48527344,2.4180743 8.33824219,2.39876908 C8.12636719,2.37099398 7.88613281,2.33955622 7.65835937,2.24726506 C7.43777344,2.1579498 7.25066406,2.01659438 7.08554687,1.89187349 C6.95042969,1.78977711 6.7653125,1.64994779 6.67964844,1.64994779 Z" id="Shape"></path>
                <path d="M2.23535156,1.10730321 L0.568789063,1.10730321 C0.261953125,1.10730321 0.0132421875,0.864385542 0.0132421875,0.564696787 C0.0132421875,0.265008032 0.261953125,0.0220903614 0.568789063,0.0220903614 L2.23535156,0.0220903614 C2.5421875,0.0220903614 2.79089844,0.265008032 2.79089844,0.564696787 C2.79089844,0.864385542 2.5421875,1.10730321 2.23535156,1.10730321 Z" id="Shape"></path>
                <path d="M12.7905859,1.10730321 L11.1239844,1.10730321 C10.8171484,1.10730321 10.5684375,0.864385542 10.5684375,0.564696787 C10.5684375,0.265008032 10.8171484,0.0220903614 11.1239844,0.0220903614 L12.7905859,0.0220903614 C13.0974219,0.0220903614 13.3461328,0.265008032 13.3461328,0.564696787 C13.3461328,0.864385542 13.0974219,1.10730321 12.7905859,1.10730321 Z" id="Shape"></path>
                <path d="M2.23535156,3.29798795 L0.568789063,3.29798795 C0.261953125,3.29798795 0.0132421875,3.05507028 0.0132421875,2.75538153 C0.0132421875,2.45569277 0.261953125,2.2127751 0.568789063,2.2127751 L2.23535156,2.2127751 C2.5421875,2.2127751 2.79089844,2.45569277 2.79089844,2.75538153 C2.79089844,3.05507028 2.5421875,3.29798795 2.23535156,3.29798795 Z" id="Shape"></path>
                <path d="M12.7905859,3.29798795 L11.1239844,3.29798795 C10.8171484,3.29798795 10.5684375,3.05507028 10.5684375,2.75538153 C10.5684375,2.45569277 10.8171484,2.2127751 11.1239844,2.2127751 L12.7905859,2.2127751 C13.0974219,2.2127751 13.3461328,2.45569277 13.3461328,2.75538153 C13.3461328,3.05507028 13.0974219,3.29798795 12.7905859,3.29798795 Z" id="Shape"></path>
            </g>
        </g>
    </g>
</svg>