<?xml version="1.0" encoding="UTF-8"?>
<svg width="20px" height="20px" viewBox="0 0 20 20" version="1.1" xmlns="http://www.w3.org/2000/svg" xmlns:xlink="http://www.w3.org/1999/xlink">
    <!-- Generator: Sketch 50.2 (55047) - http://www.bohemiancoding.com/sketch -->
    <title>quan ly don vi</title>
    <desc>Created with Sketch.</desc>
    <defs></defs>
    <g id="Page-1" stroke="none" stroke-width="1" fill="none" fill-rule="evenodd">
        <g id="quan-ly-don-vi" fill-rule="nonzero">
            <g id="Group" transform="translate(0.625000, 0.625000)" fill="#969CA8">
                <path d="M9.37503906,18.7480078 C6.87140625,18.7480078 4.51765625,17.7730859 2.74734375,16.0027344 C0.976992187,14.2324219 0.0020703125,11.8786719 0.0020703125,9.37503906 C0.0020703125,6.87140625 0.976992188,4.51757812 2.74726562,2.74726562 C4.51753906,0.976953125 6.87136719,0.00203125 9.37503906,0.00203125 C11.8787109,0.00203125 14.2324219,0.976992188 16.0027344,2.74734375 C16.2623047,3.00691406 16.2623047,3.42785156 16.0027344,3.6875 C15.7430859,3.94707031 15.3223047,3.94703125 15.0625781,3.6875 C13.5433594,2.16828125 11.5235156,1.33164062 9.37496094,1.33164062 C7.22640625,1.33164062 5.20660156,2.16828125 3.68738281,3.6875 C2.16816406,5.20671875 1.33152344,7.2265625 1.33152344,9.37511719 C1.33152344,11.5236719 2.16816406,13.5435156 3.68738281,15.0627344 C5.20660156,16.5819531 7.22644531,17.4185937 9.375,17.4185937 C11.5235547,17.4185937 13.5433984,16.5819531 15.0626172,15.0627344 C16.6588281,13.4665234 17.5143359,11.2569922 17.4098438,9.00054688 C17.3928125,8.63375 17.6764063,8.32277344 18.0430859,8.30574219 C18.4073047,8.28792969 18.7208594,8.57222656 18.7378906,8.93898438 C18.8596875,11.5682031 17.8627344,14.1428516 16.0026953,16.0028906 C14.2324219,17.7730859 11.8786719,18.7480078 9.37503906,18.7480078 Z" id="Shape"></path>
                <path d="M15.5326172,16.1973438 C15.3624219,16.1973438 15.1923828,16.1323828 15.0625781,16.0026563 L2.74726563,3.68742188 C2.48769531,3.42785156 2.48769531,3.00691406 2.74726563,2.74726562 C3.00691406,2.48773437 3.42769531,2.48773437 3.68742188,2.74726562 L16.0027344,15.0625781 C16.2623047,15.3221484 16.2623047,15.7430859 16.0027344,16.0027344 C15.8728906,16.1325 15.7027734,16.1973438 15.5326172,16.1973438 Z" id="Shape"></path>
                <path d="M3.21738281,16.1973438 C3.0471875,16.1973438 2.87714844,16.1323828 2.74734375,16.0026563 C2.48777344,15.7430859 2.48777344,15.3221484 2.74734375,15.0625 L9.61003906,8.19980469 C9.8696875,7.94027344 10.2904688,7.94027344 10.5501953,8.19980469 C10.8097656,8.459375 10.8097656,8.8803125 10.5501953,9.13996094 L3.68742188,16.0027344 C3.55761719,16.1325 3.3875,16.1973438 3.21738281,16.1973438 Z" id="Shape"></path>
            </g>
            <path d="M6.38433594,4.51160156 L4.51160156,6.38433594 C4.06003906,6.83589844 3.3278125,6.83589844 2.87625,6.38433594 L1.00351562,4.51160156 C0.551953125,4.06003906 0.551953125,3.3278125 1.00351562,2.87625 L2.87625,1.00351562 C3.3278125,0.551953125 4.06003906,0.551953125 4.51160156,1.00351562 L6.38433594,2.87625 C6.8359375,3.3278125 6.8359375,4.06003906 6.38433594,4.51160156 Z" id="Shape" fill="#E0E2E6"></path>
            <path d="M3.69386719,7.3878125 C3.20746094,7.3878125 2.75011719,7.19835937 2.40613281,6.85441406 L0.533398437,4.98164062 C0.189453125,4.63769531 0,4.18035156 0,3.69386719 C0,3.20738281 0.189453125,2.75011719 0.533398437,2.40613281 L2.40613281,0.533398438 C2.75015625,0.189453125 3.2075,0 3.69386719,0 C4.18023438,0 4.63769531,0.189453125 4.98160156,0.533398437 L6.85433594,2.40613281 C7.19835937,2.75015625 7.38773437,3.2075 7.38773437,3.69386719 C7.38773437,4.18023438 7.19828125,4.63761719 6.85433594,4.98160156 L4.98160156,6.85433594 C4.63769531,7.19835937 4.18035156,7.3878125 3.69386719,7.3878125 Z M3.69386719,1.32949219 C3.5625,1.32949219 3.4390625,1.38066406 3.34625,1.47355469 L1.47355469,3.34628906 C1.28183594,3.53800781 1.28183594,3.84984375 1.47355469,4.0415625 L3.34628906,5.91429687 C3.43910156,6.00714844 3.56261719,6.05835938 3.69390625,6.05835938 C3.82519531,6.05835938 3.94871094,6.0071875 4.04148437,5.91429687 L5.91429687,4.0415625 C6.10601562,3.84984375 6.10601562,3.53800781 5.91429687,3.34628906 L4.0415625,1.47355469 C3.94867188,1.38070313 3.82523438,1.32949219 3.69386719,1.32949219 Z" id="Shape" fill="#969CA8"></path>
            <path d="M11.8801953,11.8801953 C10.8417969,12.9185938 9.15816406,12.9185938 8.11976563,11.8801953 C7.08136719,10.8417969 7.08136719,9.15816406 8.11976563,8.11984375 C9.15816406,7.08144531 10.8417969,7.08144531 11.8801172,8.11984375 C12.9186328,9.15820313 12.9186328,10.8417969 11.8801953,11.8801953 Z" id="Shape" fill="#E0E2E6"></path>
            <path d="M10.0000391,13.3237891 C9.11226563,13.3237891 8.27761719,12.9780469 7.64980469,12.3502734 C6.35386719,11.0543359 6.35386719,8.94570312 7.64980469,7.64976562 C8.27757813,7.02203125 9.11226563,6.67625 10.0000391,6.67625 C10.8878125,6.67625 11.7224609,7.02199219 12.3502734,7.64976562 C13.6462109,8.94570312 13.6462109,11.0543359 12.3502734,12.3502734 C11.7224609,12.9779688 10.8878125,13.3237891 10.0000391,13.3237891 Z M10.0000391,8.00578125 C9.46738281,8.00578125 8.9665625,8.21316406 8.58992187,8.58988281 C7.81238281,9.36738281 7.81238281,10.6325781 8.58992187,11.4101563 C8.9665625,11.786875 9.46738281,11.9942578 10.0000391,11.9942578 C10.5326953,11.9942578 11.0335156,11.786875 11.4101562,11.4101563 C12.1876953,10.6326563 12.1876953,9.36746094 11.4101562,8.58988281 C11.0334375,8.21320312 10.5326172,8.00578125 10.0000391,8.00578125 Z" id="Shape" fill="#969CA8"></path>
            <path d="M18.9965625,17.12375 L17.1238281,18.9964844 C16.6722656,19.4480469 15.9400391,19.4480469 15.4884766,18.9964844 L13.6157422,17.12375 C13.1641797,16.6721875 13.1641797,15.9399609 13.6157422,15.4883984 L15.4884766,13.6156641 C15.9400391,13.1641016 16.6722656,13.1641016 17.1238281,13.6156641 L18.9965625,15.4883984 C19.448125,15.9400391 19.448125,16.6721875 18.9965625,17.12375 Z" id="Shape" fill="#E0E2E6"></path>
            <path d="M16.3061328,20 C15.8197266,20 15.3623828,19.8105469 15.0183984,19.4666016 L13.1456641,17.5938672 C12.8016406,17.2498438 12.6122656,16.7925 12.6122656,16.3061328 C12.6122656,15.8197656 12.8017188,15.3623828 13.1456641,15.0183984 L15.0183984,13.1456641 C15.3624219,12.8016406 15.8197656,12.6122656 16.3061328,12.6122656 C16.7925391,12.6122656 17.2498828,12.8017188 17.5938672,13.1456641 L19.4666016,15.0183984 C19.810625,15.3624219 20,15.8197656 20,16.3061328 C20,16.7925 19.8105469,17.2498828 19.4666016,17.5938672 L17.5938672,19.4666016 C17.2498438,19.810625 16.7925,20 16.3061328,20 Z M16.3061328,13.9417187 C16.1747656,13.9417187 16.0513281,13.9928906 15.9585156,14.0857813 L14.0857813,15.9585156 C13.8940625,16.1502344 13.8940625,16.4620703 14.0857813,16.6537891 L15.9585156,18.5265234 C16.0513281,18.619375 16.1748438,18.6705859 16.3061328,18.6705859 C16.4374219,18.6705859 16.5609375,18.6194141 16.6537109,18.5265234 L18.5264453,16.6537891 C18.7181641,16.4620703 18.7181641,16.1502344 18.5264453,15.9585156 L16.6537109,14.0857813 C16.5608984,13.9928516 16.4374219,13.9417187 16.3061328,13.9417187 Z" id="Shape" fill="#969CA8"></path>
            <path d="M15.4883984,6.38433594 L13.6156641,4.51160156 C13.1641016,4.06003906 13.1641016,3.3278125 13.6156641,2.87625 L15.4883984,1.00351563 C15.9399609,0.551953125 16.6721875,0.551953125 17.12375,1.00351563 L18.9964844,2.87625 C19.4480469,3.3278125 19.4480469,4.06003906 18.9964844,4.51160156 L17.12375,6.38433594 C16.6721875,6.8359375 15.9400391,6.8359375 15.4883984,6.38433594 Z" id="Shape" fill="#E0E2E6"></path>
            <path d="M16.3061328,7.3878125 C15.8197266,7.3878125 15.3623828,7.19835937 15.0183984,6.85441406 L13.1456641,4.98160156 C12.8016406,4.63757812 12.6122656,4.18023437 12.6122656,3.69386719 C12.6122656,3.2075 12.8017188,2.75011719 13.1456641,2.40613281 L15.0183984,0.533398437 C15.3623828,0.189453125 15.8196484,0 16.3061328,0 C16.7925781,0 17.2498828,0.189453125 17.5938672,0.533398437 L19.4666016,2.40613281 C19.810625,2.75015625 20,3.2075 20,3.69386719 C20,4.18023438 19.8105469,4.63761719 19.4666016,4.98160156 L17.5938672,6.85433594 C17.2498438,7.19835937 16.7925,7.3878125 16.3061328,7.3878125 Z M16.3061328,1.32949219 C16.1747656,1.32949219 16.0513281,1.38066406 15.9585156,1.47355469 L14.0857813,3.34628906 C13.8940625,3.53800781 13.8940625,3.84984375 14.0857813,4.0415625 L15.9585156,5.91429687 C16.0513281,6.00714844 16.1748438,6.05835938 16.3061328,6.05835938 C16.4374219,6.05835938 16.5609375,6.0071875 16.6537109,5.91429687 L18.5264453,4.0415625 C18.7181641,3.84984375 18.7181641,3.53800781 18.5264453,3.34628906 L16.6537109,1.47355469 C16.5608984,1.38070313 16.4374219,1.32949219 16.3061328,1.32949219 Z" id="Shape" fill="#969CA8"></path>
            <path d="M2.87625,18.9965625 L1.00351562,17.1238281 C0.551953125,16.6722656 0.551953125,15.9400391 1.00351562,15.4884766 L2.87625,13.6157422 C3.3278125,13.1641797 4.06003906,13.1641797 4.51160156,13.6157422 L6.38433594,15.4884766 C6.83589844,15.9400391 6.83589844,16.6722656 6.38433594,17.1238281 L4.51160156,18.9965625 C4.06003906,19.448125 3.3278125,19.448125 2.87625,18.9965625 Z" id="Shape" fill="#E0E2E6"></path>
            <path d="M3.69386719,20 C3.20746094,20 2.75011719,19.8105469 2.40613281,19.4666016 L0.533398438,17.5938672 C0.189453125,17.2498438 0,16.7925 0,16.3061328 C0,15.8197266 0.189453125,15.3623828 0.533398437,15.0183984 L2.40613281,13.1456641 C2.75015625,12.8016406 3.2075,12.6122656 3.69386719,12.6122656 C4.18023438,12.6122656 4.63761719,12.8017188 4.98160156,13.1456641 L6.85433594,15.0183984 C7.19835937,15.3624219 7.38773437,15.8197656 7.38773437,16.3061328 C7.38773437,16.7925391 7.19828125,17.2498828 6.85433594,17.5938672 L4.98160156,19.4666016 C4.63769531,19.810625 4.18035156,20 3.69386719,20 Z M3.69386719,13.9417187 C3.5625,13.9417187 3.4390625,13.9928906 3.34625,14.0857813 L1.47351563,15.9585156 C1.28179687,16.1502344 1.28179687,16.4620703 1.47351563,16.6537891 L3.34625,18.5265234 C3.4390625,18.619375 3.56257812,18.6705859 3.69386719,18.6705859 C3.82515625,18.6705859 3.94867188,18.6194141 4.04144531,18.5265234 L5.91417969,16.6537891 C6.10589844,16.4620703 6.10589844,16.1502344 5.91417969,15.9585156 L4.04144531,14.0857813 C3.94867188,13.9928516 3.82523438,13.9417187 3.69386719,13.9417187 Z" id="Shape" fill="#969CA8"></path>
        </g>
    </g>
</svg>