<?xml version="1.0" encoding="UTF-8"?>
<svg width="13px" height="13px" viewBox="0 0 13 13" version="1.1" xmlns="http://www.w3.org/2000/svg" xmlns:xlink="http://www.w3.org/1999/xlink">
    <!-- Generator: Sketch 49.3 (51167) - http://www.bohemiancoding.com/sketch -->
    <title>search</title>
    <desc>Created with Sketch.</desc>
    <defs></defs>
    <g id="Page-1" stroke="none" stroke-width="1" fill="none" fill-rule="evenodd">
        <g id="06.-Don-Vi-Su-Dung" transform="translate(-1293.000000, -189.000000)" fill="#FFFFFF" fill-rule="nonzero">
            <g id="Group-3" transform="translate(1273.000000, 177.000000)">
                <path d="M32.8023435,23.8409402 L29.5976211,20.6230032 C30.4216116,19.6773163 30.8730808,18.4874487 30.8730808,17.2487449 C30.8730808,14.3546326 28.4342015,12 25.4365404,12 C22.4388793,12 20,14.3546326 20,17.2487449 C20,20.1428571 22.4388793,22.4974897 25.4365404,22.4974897 C26.5619043,22.4974897 27.6343209,22.1697855 28.5512053,21.5476951 L31.7802739,24.7900502 C31.915242,24.9253765 32.0967751,25 32.2913087,25 C32.475442,25 32.6501204,24.9322227 32.7827247,24.8089913 C33.0644793,24.5472387 33.0734614,24.1131903 32.8023435,23.8409402 Z M25.4365404,13.3692378 C27.6522852,13.3692378 29.4548529,15.109539 29.4548529,17.2487449 C29.4548529,19.3879507 27.6522852,21.1282519 25.4365404,21.1282519 C23.2207956,21.1282519 21.4182279,19.3879507 21.4182279,17.2487449 C21.4182279,15.109539 23.2207956,13.3692378 25.4365404,13.3692378 Z" id="search"></path>
            </g>
        </g>
    </g>
</svg>