<?xml version="1.0" encoding="UTF-8"?>
<svg width="13px" height="16px" viewBox="0 0 13 16" version="1.1" xmlns="http://www.w3.org/2000/svg" xmlns:xlink="http://www.w3.org/1999/xlink">
    <!-- Generator: Sketch 49.3 (51167) - http://www.bohemiancoding.com/sketch -->
    <title>Shape</title>
    <desc>Created with Sketch.</desc>
    <defs></defs>
    <g id="Page-1" stroke="none" stroke-width="1" fill="none" fill-rule="evenodd">
        <g id="03.1.-Lich-Su-Chinh-Sua" transform="translate(-250.000000, -254.000000)" fill="#2C2C2C" fill-rule="nonzero">
            <path d="M250,259.923995 C250,256.657456 252.767464,254 256.169384,254 C258.985561,254 261.361085,255.822986 262.0982,258.30332 C261.963428,258.443403 261.869106,258.621045 261.842692,258.822178 L261.775288,259.339097 L261.660976,259.924584 L261.030524,259.92396 C261.030524,257.349937 258.84949,255.255897 256.169384,255.255897 C253.488557,255.255897 251.307632,257.349972 251.307632,259.92396 C251.307632,261.669958 252.312919,263.192543 253.795051,263.9933 L252.844358,264.906075 C251.136379,263.851173 250,262.014362 250,259.923995 Z M256.169384,256.203217 C255.807972,256.203217 255.515587,256.484492 255.515587,256.831113 L255.515587,259.923995 C255.515587,260.270616 255.808008,260.551787 256.169384,260.551787 L259.868958,260.551787 C260.230263,260.551787 260.522864,260.270616 260.522864,259.923995 C260.522864,259.577061 260.230263,259.29589 259.868958,259.29589 L256.823327,259.29589 L256.823327,256.831113 C256.823327,256.484492 256.530256,256.203217 256.169384,256.203217 Z M262.979432,258.971062 C262.974958,258.806829 262.83932,258.67371 262.668933,258.665291 C262.505583,258.656282 262.34945,258.7762 262.327908,258.939809 L262.258122,259.475368 L262.135907,260.100701 C262.08539,260.317599 262.033322,260.541739 261.936293,260.785456 L261.789758,261.197112 L261.582025,261.635898 C261.507765,261.815792 261.395184,261.996934 261.275748,262.188851 C261.215163,262.285935 261.153966,262.384025 261.096593,262.484366 C261.036442,262.562394 260.977553,262.641635 260.919134,262.721534 C260.765129,262.929805 260.62011,263.126607 260.425367,263.322613 C260.256207,263.525374 260.053201,263.70662 259.839081,263.898294 C259.775935,263.95484 259.713222,264.010936 259.651158,264.067898 C259.581625,264.118692 259.512742,264.170076 259.444688,264.221078 C259.216929,264.391478 259.002556,264.552039 258.747049,264.692919 C258.549997,264.824825 258.324763,264.931541 258.107396,265.034135 C258.016537,265.077134 257.926328,265.119751 257.838898,265.163547 C257.728013,265.201833 257.620087,265.24303 257.513641,265.283984 C257.314424,265.360384 257.126501,265.432244 256.927319,265.474446 L256.495002,265.589547 L256.070046,265.659191 C255.853762,265.703818 255.663529,265.714073 255.479251,265.724711 L255.132885,265.750108 L255.083955,265.748895 L255.083955,264.283965 C255.083955,264.157221 255.004391,264.0425 254.882068,263.993785 C254.75942,263.945416 254.619416,263.97206 254.525454,264.061765 L251.712345,266.762982 C251.651147,266.821953 251.616687,266.901852 251.616687,266.984973 C251.616687,267.068129 251.651147,267.147994 251.712345,267.206965 L254.525526,269.908286 C254.58824,269.968089 254.671845,270 254.756822,270 C254.798931,270 254.841618,269.992204 254.88214,269.976231 C255.004463,269.927481 255.084027,269.812795 255.084027,269.685809 L255.084027,268.154943 L255.686118,268.049058 C255.964538,267.993759 256.311229,267.924532 256.643198,267.806346 L257.030194,267.681612 L257.671759,267.421092 C257.942205,267.318706 258.198362,267.17495 258.445968,267.035906 C258.551765,266.976277 258.658788,266.916301 258.768013,266.85875 C258.779957,266.852374 258.791071,266.84541 258.802581,266.837822 C258.887883,266.778851 258.974483,266.720676 259.061733,266.662363 C259.325973,266.486211 259.598765,266.303718 259.832298,266.092987 C260.120641,265.872416 260.37254,265.61685 260.616104,265.369427 L260.792914,265.190849 C260.800383,265.183054 260.807852,265.175084 260.815069,265.166492 L260.975063,264.972149 C261.192828,264.709203 261.418675,264.436417 261.588881,264.156667 C261.779979,263.894518 261.923736,263.621316 262.062802,263.356707 C262.110577,263.265339 262.158351,263.174838 262.206992,263.086346 C262.213379,263.07408 262.219585,263.06178 262.224456,263.049099 C262.267973,262.936873 262.314449,262.827315 262.360527,262.719767 C262.46203,262.481386 262.566781,262.235245 262.62585,261.993573 L262.776859,261.478491 L262.86263,261.025464 C262.931044,260.726865 262.95089,260.453559 262.968427,260.212615 L263,259.802829 L262.979432,258.971062 Z" id="Shape"></path>
        </g>
    </g>
</svg>