<?xml version="1.0" encoding="UTF-8"?>
<svg width="13px" height="13px" viewBox="0 0 13 13" version="1.1" xmlns="http://www.w3.org/2000/svg" xmlns:xlink="http://www.w3.org/1999/xlink">
    <!-- Generator: Sketch 49.3 (51167) - http://www.bohemiancoding.com/sketch -->
    <title>tai lai</title>
    <desc>Created with Sketch.</desc>
    <defs></defs>
    <g id="Page-1" stroke="none" stroke-width="1" fill="none" fill-rule="evenodd">
        <g id="10.-Cau-Hinh-He-Thong" transform="translate(-1239.000000, -364.000000)" fill="#0076D7" fill-rule="nonzero">
            <g id="Group-3" transform="translate(1225.000000, 356.000000)">
                <g id="Group-2">
                    <path d="M20.9453401,8.16260642 L24.2409438,11.4206942 C24.4031222,11.580179 24.4505326,11.8205414 24.3614935,12.0277014 C24.2738998,12.2354289 24.0660455,12.3705086 23.8367987,12.3699411 L22.7616803,12.362279 L22.7770019,16.9833661 C22.7752674,17.4411046 22.396273,17.8117223 21.9305522,17.8117223 L19.0815895,17.8117223 C18.6150014,17.8117223 18.2362961,17.4411046 18.2345616,16.9833661 L18.2501723,12.3611439 L17.1747648,12.3696573 C16.945518,12.3699411 16.738531,12.2348614 16.65007,12.0274176 C16.5610309,11.8199738 16.6087305,11.580179 16.7706198,11.4204104 L20.0662234,8.16232264 C20.1723187,8.05760751 20.3564678,8 20.5056372,8 C20.672441,8 20.8392448,8.05760751 20.9453401,8.16260642 Z M26.1477685,13.4971185 C26.6163802,13.4971185 26.9997109,13.8702903 27,14.3305828 L27,18.9823183 C27,20.0941716 26.0812782,21 24.9480531,21 L16.0380707,21 C14.9051346,21 14,20.0941716 14,18.9823183 L14,14.3305828 C14,13.8700065 14.3709,13.4968348 14.8398008,13.4968348 C15.3089906,13.4968348 15.6796015,13.8702903 15.6796015,14.3305828 L15.6796015,18.9826021 C15.6796015,19.1750055 15.8412017,19.3279633 16.0377816,19.3279633 L24.9480531,19.3279633 C25.1449221,19.3279633 25.295826,19.1750055 25.295826,18.9826021 L25.295826,14.3308666 C25.295826,13.8702903 25.6785786,13.4971185 26.1477685,13.4971185 Z" id="tai-lai"></path>
                </g>
            </g>
        </g>
    </g>
</svg>