<?xml version="1.0" encoding="UTF-8"?>
<svg width="20px" height="20px" viewBox="0 0 20 20" version="1.1" xmlns="http://www.w3.org/2000/svg" xmlns:xlink="http://www.w3.org/1999/xlink">
    <!-- Generator: Sketch 50.2 (55047) - http://www.bohemiancoding.com/sketch -->
    <title>Thong ke</title>
    <desc>Created with Sketch.</desc>
    <defs></defs>
    <g id="Page-1" stroke="none" stroke-width="1" fill="none" fill-rule="evenodd">
        <g id="Thong-ke" fill-rule="nonzero">
            <path d="M8.7,20 C6.37824219,20.0000391 4.19410156,19.0945703 2.54988281,17.4503906 C0.905664062,15.8062109 0.00015625,13.6219922 0.0002734375,11.3002734 C0.000390625,9.01542969 0.879453125,6.85707031 2.47558594,5.22269531 C4.06890625,3.59125 6.20027344,2.66117187 8.47695312,2.60386719 C8.48175781,2.60375 8.491875,2.60363281 8.49667969,2.60363281 C8.92382812,2.60363281 9.27132813,2.95074219 9.27132813,3.37742187 L9.27132813,10.7290625 L16.6228906,10.7290625 C16.8300391,10.7290625 17.0318359,10.8141016 17.1765625,10.9625391 C17.3215625,11.1111719 17.4017187,11.3155469 17.3966016,11.5232813 C17.3392969,13.8001172 16.4092187,15.9314844 14.7777344,17.5248047 C13.1432422,19.1208594 10.9848437,19.9999609 8.7,20 Z M8.12828125,3.76515625 C4.18191406,4.05496094 1.1434375,7.29535156 1.14328125,11.3003516 C1.14324219,13.3167578 1.92976562,15.2139063 3.358125,16.6422656 C4.78640625,18.0705469 6.68355469,18.8571484 8.70003906,18.8571094 L8.70003906,19.4285937 L8.70003906,18.8571094 C12.7050391,18.8569922 15.9454297,15.8183984 16.2352734,11.8721484 L8.69976562,11.8721484 C8.38417969,11.8721484 8.12828125,11.61625 8.12828125,11.3006641 L8.12828125,3.76515625 Z" id="Shape" fill="#969CA8"></path>
            <path d="M11.3027734,0.77375 L11.3027734,8.36351562 C11.3027734,8.54757812 11.4519922,8.696875 11.6361328,8.696875 L19.2258984,8.696875 C19.3401953,8.696875 19.4309375,8.6021875 19.4280859,8.48789062 C19.3189844,4.16496094 15.8346484,0.680585937 11.5117188,0.571484375 C11.3974609,0.568710937 11.3027734,0.659453125 11.3027734,0.77375 Z" id="Shape" fill="#E0E2E6"></path>
            <g id="Group" transform="translate(8.125000, 0.000000)" fill="#969CA8">
                <path d="M11.1008984,9.2684375 L3.51113281,9.2684375 C3.01222656,9.2684375 2.60628906,8.8625 2.60628906,8.36359375 L2.60628906,0.77375 C2.60628906,0.347070312 2.95402344,0 3.38144531,0 C3.38625,0 3.39640625,0.0001171875 3.40128906,0.000234375 C8.035625,0.117226562 11.7575,3.83910156 11.8744922,8.47355469 C11.8796875,8.68175781 11.7994531,8.88640625 11.6542969,9.03515625 C11.5075391,9.185625 11.3109766,9.2684375 11.1008984,9.2684375 Z M3.74929687,8.12542969 L10.7130859,8.12542969 C10.4358984,4.40195312 7.47285156,1.43917969 3.74929687,1.16164062 L3.74929687,8.12542969 Z" id="Shape"></path>
                <path d="M0.573476563,16.5230859 C0.257890625,16.5230859 0.0019921875,16.2671875 0.0019921875,15.9516016 L0.0019921875,9.52863281 C0.0019921875,9.21304687 0.257890625,8.95714844 0.573476563,8.95714844 C0.8890625,8.95714844 1.14496094,9.21304687 1.14496094,9.52863281 L1.14496094,15.9515625 C1.14496094,16.2672266 0.889101562,16.5230859 0.573476563,16.5230859 Z" id="Shape"></path>
            </g>
        </g>
    </g>
</svg>