<?xml version="1.0" encoding="UTF-8"?>
<svg width="16px" height="18px" viewBox="0 0 16 18" version="1.1" xmlns="http://www.w3.org/2000/svg" xmlns:xlink="http://www.w3.org/1999/xlink">
    <!-- Generator: Sketch 50.2 (55047) - http://www.bohemiancoding.com/sketch -->
    <title>gioithieuj</title>
    <desc>Created with Sketch.</desc>
    <defs></defs>
    <g id="Page-1" stroke="none" stroke-width="1" fill="none" fill-rule="evenodd">
        <g id="gioithieuj" fill-rule="nonzero">
            <path d="M13.9076017,18 L2.09239827,18 C0.956987013,18 0.0332121212,17.0622422 0.0332121212,15.9096094 L0.0332121212,2.09039062 C0.0332121212,0.937757813 0.956987013,0 2.09239827,0 L13.9076017,0 C15.043013,0 15.9667879,0.937757813 15.9667879,2.09039062 L15.9667879,15.9096094 C15.9667879,17.0622422 15.0430823,18 13.9076017,18 Z M2.09239827,1.00191797 C1.50119481,1.00191797 1.02019048,1.49020312 1.02019048,2.09039062 L1.02019048,15.9096094 C1.02019048,16.5097617 1.50119481,16.998082 2.09239827,16.998082 L13.9076017,16.998082 C14.4988052,16.998082 14.9798095,16.5097969 14.9798095,15.9096094 L14.9798095,2.09039063 C14.9798095,1.49023828 14.4988052,1.00191797 13.9076017,1.00191797 L2.09239827,1.00191797 Z" id="Shape" fill="#1577EE"></path>
            <path d="M9.85101299,0.861890625 L13.0962424,0.861890625 L13.0962424,7.98212109 C13.0962424,8.21731641 12.86071,8.37689063 12.6467186,8.28671484 L11.5981991,7.84455469 C11.5184069,7.810875 11.4287446,7.810875 11.3489524,7.84455469 L10.3004329,8.28671484 C10.0865108,8.37692578 9.85090909,8.21731641 9.85090909,7.98212109 L9.85090909,0.861890625 L9.85101299,0.861890625 Z" id="Shape" fill="#85BCFF"></path>
            <path d="M12.7717056,8.81321484 C12.6637922,8.81321484 12.5580606,8.79166406 12.4575584,8.74933594 L11.4737316,8.33449219 L10.4899048,8.74933594 C10.3893333,8.79173437 10.283671,8.81321484 10.1757576,8.81321484 C9.72460606,8.81321484 9.35761039,8.44041797 9.35761039,7.98212109 L9.35761039,0.360949219 L13.5898182,0.360949219 L13.5898182,7.98212109 C13.5897835,8.44034766 13.2227879,8.81317969 12.7717056,8.81321484 Z M10.3445195,1.36286719 L10.3445195,7.72569141 L11.1597576,7.38193359 C11.3596537,7.29755859 11.5876017,7.29752344 11.787671,7.38196875 L12.6028052,7.72569141 L12.6028052,1.36286719 L10.3445195,1.36286719 Z" id="Shape" fill="#1577EE"></path>
            <path d="M4.01246753,0.500941406 L2.09239827,0.500941406 C1.22770563,0.500941406 0.526718615,1.21253906 0.526718615,2.09032031 L0.526718615,15.9096094 C0.526718615,16.7873906 1.22770563,17.4989883 2.09239827,17.4989883 L4.01246753,17.4989883 L4.01246753,0.500941406 Z" id="Shape" fill="#85BCFF"></path>
            <path d="M4.50593939,18 L2.09239827,18 C0.956987013,18 0.0332121212,17.0622422 0.0332121212,15.9096094 L0.0332121212,2.09039062 C0.0332121212,0.937757813 0.956987013,0 2.09239827,0 L4.50593939,0 L4.50593939,18 Z M2.09239827,1.00191797 C1.50119481,1.00191797 1.02019048,1.49020312 1.02019048,2.09039062 L1.02019048,15.9096094 C1.02019048,16.5097617 1.50119481,16.998082 2.09239827,16.998082 L3.51896104,16.998082 L3.51896104,1.00191797 L2.09239827,1.00191797 Z" id="Shape" fill="#1577EE"></path>
        </g>
    </g>
</svg>