<?xml version="1.0" encoding="UTF-8"?>
<svg width="17px" height="16px" viewBox="0 0 17 16" version="1.1" xmlns="http://www.w3.org/2000/svg" xmlns:xlink="http://www.w3.org/1999/xlink">
    <!-- Generator: Sketch 50.2 (55047) - http://www.bohemiancoding.com/sketch -->
    <title>hinhanhditich</title>
    <desc>Created with Sketch.</desc>
    <defs></defs>
    <g id="Page-1" stroke="none" stroke-width="1" fill="none" fill-rule="evenodd">
        <g id="hinhanhditich" fill-rule="nonzero">
            <path d="M4.16506641,2.82840816 L4.16506641,1.43379592 C4.16506641,0.908636735 4.59793555,0.482906122 5.13197461,0.482906122 L11.8680586,0.482906122 C12.4020645,0.482906122 12.8349668,0.908604082 12.8349668,1.43379592 L12.8349668,2.82840816" id="Shape" fill="#D8D8D8"></path>
            <g id="Group" fill="#1577EE">
                <path d="M12.8349336,3.30386939 C12.5679141,3.30386939 12.3514961,3.09100408 12.3514961,2.82844082 L12.3514961,1.43382857 C12.3514961,1.17165714 12.1346133,0.9584 11.8680586,0.9584 L5.13194141,0.9584 C4.86535352,0.9584 4.64850391,1.1716898 4.64850391,1.43382857 L4.64850391,2.82844082 C4.64850391,3.09103673 4.43205273,3.30386939 4.16506641,3.30386939 C3.89808008,3.30386939 3.68162891,3.09100408 3.68162891,2.82844082 L3.68162891,1.43382857 C3.68162891,0.647346939 4.33224414,0.00751020408 5.13197461,0.00751020408 L11.8680586,0.00751020408 C12.6677891,0.00751020408 13.3184043,0.647346939 13.3184043,1.43382857 L13.3184043,2.82844082 C13.3184043,3.09100408 13.1019531,3.30386939 12.8349336,3.30386939 Z" id="Shape"></path>
                <path d="M14.5857676,15.9924571 L2.41423242,15.9924571 C1.08301953,15.9924571 0,14.9273143 0,13.6181551 L0,4.75898776 C0,3.44982857 1.08301953,2.38475102 2.41423242,2.38475102 L14.5857344,2.38475102 C15.9169473,2.38475102 16.9999668,3.44982857 16.9999668,4.75898776 L16.9999668,13.6181551 C17,14.9273143 15.9169805,15.9924571 14.5857676,15.9924571 Z M2.41423242,3.33560816 C1.61616211,3.33560816 0.966875,3.97413878 0.966875,4.75898776 L0.966875,13.6181551 C0.966875,14.4030041 1.61616211,15.0415347 2.41423242,15.0415347 L14.5857344,15.0415347 C15.3838047,15.0415347 16.0330918,14.4030041 16.0330918,13.6181551 L16.0330918,4.75898776 C16.0330918,3.97413878 15.3838047,3.33560816 14.5857344,3.33560816 L2.41423242,3.33560816 Z" id="Shape"></path>
            </g>
            <ellipse id="Oval" fill="#85BCFF" cx="8.5" cy="9.46902857" rx="4.14175781" ry="4.07314286"></ellipse>
            <g id="Group" transform="translate(3.851562, 4.277551)" fill="#1577EE">
                <path d="M4.6484375,9.7396898 C2.09820508,9.7396898 0.0234414062,7.69929796 0.0234414062,5.19131429 C0.0234414062,2.68333061 2.09820508,0.642906122 4.6484375,0.642906122 C7.19866992,0.642906122 9.27343359,2.68329796 9.27343359,5.19128163 C9.27343359,7.69926531 7.19866992,9.7396898 4.6484375,9.7396898 Z M4.6484375,1.59376327 C2.63134766,1.59376327 0.990316406,3.20760816 0.990316406,5.19128163 C0.990316406,7.1749551 2.63134766,8.7888 4.6484375,8.7888 C6.66552734,8.7888 8.30655859,7.1749551 8.30655859,5.19128163 C8.30655859,3.20760816 6.66552734,1.59376327 4.6484375,1.59376327 Z" id="Shape"></path>
                <path d="M4.6484375,7.42605714 C3.39541797,7.42605714 2.37604883,6.42354286 2.37604883,5.19131429 C2.37604883,3.95908571 3.39545117,2.95657143 4.6484375,2.95657143 C4.91545703,2.95657143 5.131875,3.16943673 5.131875,3.432 C5.131875,3.69456327 4.91542383,3.90742857 4.6484375,3.90742857 C3.92859375,3.90742857 3.34292383,4.48336327 3.34292383,5.19131429 C3.34292383,5.89926531 3.92859375,6.47516735 4.6484375,6.47516735 C5.36828125,6.47516735 5.95395117,5.89923265 5.95395117,5.19128163 C5.95395117,4.92868571 6.17040234,4.71585306 6.43738867,4.71585306 C6.7044082,4.71585306 6.92082617,4.92871837 6.92082617,5.19128163 C6.92082617,6.42354286 5.90145703,7.42605714 4.6484375,7.42605714 Z" id="Shape"></path>
                <path d="M10.4498203,0.959869388 L8.51603711,0.959869388 C8.24901758,0.959869388 8.03259961,0.747004082 8.03259961,0.484440816 C8.03259961,0.221844898 8.24905078,0.0090122449 8.51603711,0.0090122449 L10.4498203,0.0090122449 C10.7168398,0.0090122449 10.9332578,0.221877551 10.9332578,0.484440816 C10.9332578,0.747004082 10.7168398,0.959869388 10.4498203,0.959869388 Z" id="Shape"></path>
            </g>
        </g>
    </g>
</svg>