<?xml version="1.0" encoding="UTF-8"?>
<svg width="12px" height="14px" viewBox="0 0 12 14" version="1.1" xmlns="http://www.w3.org/2000/svg" xmlns:xlink="http://www.w3.org/1999/xlink">
    <!-- Generator: Sketch 50.2 (55047) - http://www.bohemiancoding.com/sketch -->
    <title>placeholder (4)</title>
    <desc>Created with Sketch.</desc>
    <defs></defs>
    <g id="Page-1" stroke="none" stroke-width="1" fill="none" fill-rule="evenodd">
        <g id="02.1.-Trang-Chi-Tiet---Tai-Lieu-Lien-Quan" transform="translate(-20.000000, -191.000000)" fill-rule="nonzero">
            <g id="placeholder-(4)" transform="translate(20.000000, 191.000000)">
                <path d="M6.0000274,14 C5.9249589,14 5.84989041,13.9789453 5.78410959,13.9368633 C5.72556164,13.8994023 4.33432877,13.003457 2.92293151,11.5889375 C0.991917808,9.65357422 0.0127945205,7.76494141 0.0127945205,5.97556641 C0.0127671233,2.68061719 2.69863014,0 6.0000274,0 C9.30136986,0 11.9872055,2.68061719 11.9872055,5.97556641 C11.9872055,7.71804687 11.0611507,9.55439844 9.23473973,11.433625 C9.08087671,11.5919727 8.82756164,11.5958281 8.6689589,11.4422109 C8.51035616,11.2886484 8.50646575,11.0358281 8.66035616,10.8775352 C9.8129589,9.69158203 11.1869863,7.87841797 11.1869863,5.97556641 C11.1869041,3.12101563 8.86008219,0.798683594 6.0000274,0.798683594 C3.13989041,0.798683594 0.813013699,3.12101563 0.813013699,5.97556641 C0.813013699,9.32550391 4.99490411,12.4229766 6.00065753,13.1192305 C6.22630137,12.9639727 6.61090411,12.6890859 7.06909589,12.3200547 C7.24106849,12.1815586 7.4929863,12.2084375 7.63175342,12.3800469 C7.77052055,12.5516836 7.74361644,12.803082 7.57164384,12.9416055 C6.80046575,13.5627188 6.23893151,13.922207 6.21539726,13.9371914 C6.14975342,13.979082 6.07484932,14 6.0000274,14 Z" id="Shape" fill="#A4ABB7"></path>
                <path d="M9.48383562,5.86323828 C9.48383562,7.7805 7.9209589,9.34029687 5.99994521,9.34029687 C4.07893151,9.34029687 2.51608219,7.78052734 2.51608219,5.86323828 C2.51608219,3.94594922 4.07890411,2.38615234 5.99994521,2.38615234 C7.9209863,2.38615234 9.48383562,3.94594922 9.48383562,5.86323828 Z" id="Shape" fill="#E0E2E6"></path>
                <g id="Group" transform="translate(2.109589, 1.968750)" fill="#A4ABB7">
                    <path d="M3.89035616,7.770875 C1.74873973,7.770875 0.00638356164,6.03194922 0.00638356164,3.89448828 C0.00638356164,1.75702734 1.74868493,0.018046875 3.89035616,0.018046875 C6.0320274,0.018046875 7.77438356,1.757 7.77438356,3.89448828 C7.77438356,6.03192187 6.032,7.770875 3.89035616,7.770875 Z M3.89035616,0.816757813 C2.1899726,0.816757813 0.806630137,2.19742578 0.806630137,3.89448828 C0.806630137,5.59155078 2.1899726,6.97219141 3.89035616,6.97219141 C5.59073973,6.97219141 6.97410959,5.59155078 6.97410959,3.89448828 C6.97410959,2.19742578 5.59073973,0.816757813 3.89035616,0.816757813 Z" id="Shape"></path>
                </g>
            </g>
        </g>
    </g>
</svg>