<?xml version="1.0" encoding="UTF-8"?>
<svg width="13px" height="14px" viewBox="0 0 13 14" version="1.1" xmlns="http://www.w3.org/2000/svg" xmlns:xlink="http://www.w3.org/1999/xlink">
    <!-- Generator: Sketch 50.2 (55047) - http://www.bohemiancoding.com/sketch -->
    <title>Shape</title>
    <desc>Created with Sketch.</desc>
    <defs></defs>
    <g id="Page-1" stroke="none" stroke-width="1" fill="none" fill-rule="evenodd">
        <g id="02.3.-Trang-Chi-Tiet---Video-Tai-Lieu" transform="translate(-1241.000000, -26.000000)" fill="#FFFFFF" fill-rule="nonzero">
            <g id="Header">
                <path d="M1253.80234,38.7517818 L1250.59762,35.2863111 C1251.42161,34.2678791 1251.87308,32.9864832 1251.87308,31.6524945 C1251.87308,28.5357582 1249.4342,26 1246.43654,26 C1243.43888,26 1241,28.5357582 1241,31.6524945 C1241,34.7692308 1243.43888,37.3049889 1246.43654,37.3049889 C1247.5619,37.3049889 1248.63432,36.9520767 1249.55121,36.2821332 L1252.78027,39.7739002 C1252.91524,39.9196363 1253.09678,40 1253.29131,40 C1253.47544,40 1253.65012,39.9270091 1253.78272,39.7942984 C1254.06448,39.5124109 1254.07346,39.0449742 1253.80234,38.7517818 Z M1246.43654,27.4745638 C1248.65229,27.4745638 1250.45485,29.3487343 1250.45485,31.6524945 C1250.45485,33.9562546 1248.65229,35.8304252 1246.43654,35.8304252 C1244.2208,35.8304252 1242.41823,33.9562546 1242.41823,31.6524945 C1242.41823,29.3487343 1244.2208,27.4745638 1246.43654,27.4745638 Z" id="Shape"></path>
            </g>
        </g>
    </g>
</svg>