<?xml version="1.0" encoding="UTF-8"?>
<svg width="18px" height="16px" viewBox="0 0 18 16" version="1.1" xmlns="http://www.w3.org/2000/svg" xmlns:xlink="http://www.w3.org/1999/xlink">
    <!-- Generator: Sketch 50.2 (55047) - http://www.bohemiancoding.com/sketch -->
    <title>tailieulienquan</title>
    <desc>Created with Sketch.</desc>
    <defs></defs>
    <g id="Page-1" stroke="none" stroke-width="1" fill="none" fill-rule="evenodd">
        <g id="tailieulienquan" fill-rule="nonzero">
            <g id="Group" fill="#1577EE">
                <path d="M16.2776953,15.9692197 L1.72230469,15.9692197 C0.77259375,15.9692197 0,15.1807713 0,14.2117309 L0,1.86791031 C0,0.854923767 0.807644531,0.0307802691 1.80035156,0.0307802691 L5.18210156,0.0307802691 C5.76907031,0.0307802691 6.2904375,0.411730942 6.4794375,0.978762332 L7.20671484,3.16057399 L16.1996836,3.16057399 C17.1923906,3.16057399 18,3.98471749 18,4.99770404 L18,6.32767713 C18,6.61815247 17.7691641,6.85366816 17.4845391,6.85366816 C17.1999141,6.85366816 16.9690781,6.61811659 16.9690781,6.32767713 L16.9690781,4.99770404 C16.9690781,4.56480717 16.6239492,4.21259193 16.1997188,4.21259193 L6.83760938,4.21259193 C6.61689844,4.21259193 6.42065625,4.06920179 6.34957031,3.856 L5.50346484,1.31759641 C5.45667188,1.17714798 5.32747266,1.08279821 5.18210156,1.08279821 L1.80035156,1.08279821 C1.37605078,1.08279821 1.03095703,1.43497758 1.03095703,1.86791031 L1.03095703,14.2117309 C1.03095703,14.6007534 1.34110547,14.9172018 1.72230469,14.9172018 L16.2776953,14.9172018 C16.6589297,14.9172018 16.969043,14.6007175 16.969043,14.2117309 L16.969043,9.60347982 C16.969043,9.31300448 17.1998789,9.07748879 17.4845039,9.07748879 C17.7691289,9.07748879 18,9.31300448 18,9.60347982 L18,14.2117309 C18,15.1808072 17.2274063,15.9692197 16.2776953,15.9692197 Z" id="Shape"></path>
                <path d="M17.4845391,6.45686099 C17.1998789,6.45686099 16.9690781,6.22130942 16.9690781,5.93086996 L16.9690781,2.89040359 C16.9690781,2.45750673 16.6239492,2.10529148 16.1997187,2.10529148 L9.37244531,2.10529148 C9.08778516,2.10529148 8.85698437,1.86973991 8.85698437,1.57930045 C8.85698437,1.28886099 9.08782031,1.05330942 9.37244531,1.05330942 L16.1996836,1.05330942 C17.1923906,1.05330942 18,1.87745291 18,2.89043946 L18,5.93086996 C18,6.22130942 17.7692344,6.45686099 17.4845391,6.45686099 Z" id="Shape"></path>
            </g>
            <path d="M14.6241914,9.60362332 L3.37580859,9.60362332 C3.06991406,9.60362332 2.82192188,9.35056502 2.82192188,9.03842152 L2.82192188,6.90095067 C2.82192188,6.58880717 3.06987891,6.33574888 3.37580859,6.33574888 L14.6241914,6.33574888 C14.9300859,6.33574888 15.1780781,6.5887713 15.1780781,6.90095067 L15.1780781,9.03842152 C15.1780781,9.35056502 14.9300859,9.60362332 14.6241914,9.60362332 Z" id="Shape" fill="#85BCFF"></path>
            <path d="M14.6241914,10.1295785 L3.37580859,10.1295785 C2.78620312,10.1295785 2.30649609,9.64007175 2.30649609,9.03842152 L2.30649609,6.90095067 C2.30649609,6.29930045 2.78620312,5.80975785 3.37580859,5.80975785 L14.6241914,5.80975785 C15.2137969,5.80975785 15.6935039,6.29930045 15.6935039,6.90095067 L15.6935039,9.03842152 C15.6935039,9.64010762 15.213832,10.1295785 14.6241914,10.1295785 Z M3.37580859,6.86177578 C3.35467969,6.86177578 3.33745312,6.87935426 3.33745312,6.90095067 L3.33745312,9.03842152 C3.33745312,9.05998206 3.35467969,9.07756054 3.37580859,9.07756054 L14.6241914,9.07756054 C14.6453203,9.07756054 14.6625469,9.05998206 14.6625469,9.03842152 L14.6625469,6.90095067 C14.6625469,6.87931839 14.6453203,6.86177578 14.6241914,6.86177578 L3.37580859,6.86177578 Z" id="Shape" fill="#1577EE"></path>
        </g>
    </g>
</svg>