<?xml version="1.0" encoding="UTF-8"?>
<svg width="15px" height="14px" viewBox="0 0 15 14" version="1.1" xmlns="http://www.w3.org/2000/svg" xmlns:xlink="http://www.w3.org/1999/xlink">
    <!-- Generator: Sketch 50.2 (55047) - http://www.bohemiancoding.com/sketch -->
    <title>download copy 9</title>
    <desc>Created with Sketch.</desc>
    <defs></defs>
    <g id="Page-1" stroke="none" stroke-width="1" fill="none" fill-rule="evenodd">
        <g id="02.1.-Trang-Chi-Tiet---Tai-Lieu-Lien-Quan" transform="translate(-1302.000000, -690.000000)" fill-rule="nonzero">
            <g id="download-copy-9" transform="translate(1302.000000, 690.000000)">
                <path d="M14.2266374,13.9960333 L0.744122807,13.9960333 C0.333830409,13.9960333 0,13.6630667 0,13.2537417 L0,11.8127917 C0,11.4034667 0.333830409,11.0705292 0.744122807,11.0705292 L6.17216374,11.0705292 C6.41391813,11.0705292 6.60991228,11.2660042 6.60991228,11.5071833 C6.60991228,11.7483333 6.41394737,11.9438375 6.17216374,11.9438375 L0.875497076,11.9438375 L0.875497076,13.1227542 L14.0952924,13.1227542 L14.0952924,11.9438375 L8.79862573,11.9438375 C8.55690058,11.9438375 8.36087719,11.7483625 8.36087719,11.5071833 C8.36087719,11.2660333 8.55690058,11.0705292 8.79862573,11.0705292 L14.2266667,11.0705292 C14.6369591,11.0705292 14.9707895,11.4034667 14.9707895,11.8127917 L14.9707895,13.2537417 C14.9707602,13.6630667 14.6369298,13.9960333 14.2266374,13.9960333 Z" id="Shape" fill="#1577EE"></path>
                <polygon id="Shape" fill="#85BCFF" points="7.48538012 9.65407917 9.70649123 6.20932083 8.40052632 6.20932083 8.40052632 4.38214583 8.40052632 2.59058333 8.40052632 0.440591667 6.57023392 0.440591667 6.57023392 6.20932083 5.26426901 6.20932083"></polygon>
                <path d="M7.48538012,10.0907333 C7.33646199,10.0907333 7.19777778,10.01525 7.11719298,9.8903 L4.89608187,6.44554167 C4.80944444,6.31117083 4.80327485,6.14037083 4.88002924,6.00010833 C4.95675439,5.85990417 5.10412281,5.77266667 5.26426901,5.77266667 L6.13248538,5.77266667 L6.13248538,0.440591667 C6.13248538,0.199441667 6.32845029,0.0039375 6.57023392,0.0039375 L8.40052632,0.0039375 C8.64225146,0.0039375 8.83827485,0.1994125 8.83827485,0.440591667 L8.83827485,5.77260833 L9.70649123,5.77260833 C9.86660819,5.77260833 10.0140058,5.85984583 10.0907018,6.00005 C10.1674269,6.14025417 10.1612573,6.3111125 10.0746491,6.44548333 L7.85350877,9.89027083 C7.77298246,10.0151917 7.63426901,10.0907333 7.48538012,10.0907333 Z M6.06625731,6.645975 L7.48538012,8.84689167 L8.90450292,6.64594583 L8.40052632,6.64594583 C8.15880117,6.64594583 7.96277778,6.45047083 7.96277778,6.20929167 L7.96277778,0.877245833 L7.00798246,0.877245833 L7.00798246,6.2092625 C7.00798246,6.4504125 6.81201754,6.64591667 6.57023392,6.64591667 L6.06625731,6.64591667 L6.06625731,6.645975 Z" id="Shape" fill="#1577EE"></path>
            </g>
        </g>
    </g>
</svg>