<?xml version="1.0" encoding="UTF-8"?>
<svg width="19px" height="16px" viewBox="0 0 19 16" version="1.1" xmlns="http://www.w3.org/2000/svg" xmlns:xlink="http://www.w3.org/1999/xlink">
    <!-- Generator: Sketch 50.2 (55047) - http://www.bohemiancoding.com/sketch -->
    <title>video-play</title>
    <desc>Created with Sketch.</desc>
    <defs></defs>
    <g id="Page-1" stroke="none" stroke-width="1" fill="none" fill-rule="evenodd">
        <g id="02.1.-Trang-Chi-Tiet---Tai-Lieu-Lien-Quan" transform="translate(-20.000000, -456.000000)" fill-rule="nonzero">
            <g id="video-play" transform="translate(20.000000, 456.000000)">
                <path d="M14.5104336,12.5571507 L0.495039063,12.5571507 L0.495039063,13.3476164 C0.495039063,14.5421005 1.47869727,15.5103562 2.69209961,15.5103562 L16.3078262,15.5103562 C17.5211914,15.5103562 18.5048867,14.5420639 18.5048867,13.3476164 L18.5048867,12.5571507" id="Shape" fill="#D8D8D8"></path>
                <g id="Group" fill="#888888">
                    <path d="M16.3079004,15.9976256 L2.69209961,15.9976256 C1.2076875,15.9976256 0,14.8088037 0,13.3475799 L0,12.5570776 C0,12.2879635 0.221654297,12.0697717 0.495039063,12.0697717 L14.5104336,12.0697717 C14.7838184,12.0697717 15.0054727,12.288 15.0054727,12.5570776 C15.0054727,12.8261553 14.7837813,13.0443836 14.5104336,13.0443836 L0.990115234,13.0443836 L0.990115234,13.3475434 C0.990115234,14.2713425 1.75364063,15.0229406 2.69209961,15.0229406 L16.3078262,15.0229406 C17.2463594,15.0229406 18.0098848,14.2713425 18.0098848,13.3475434 L18.0098848,12.5570776 C18.0098848,12.2879635 18.2315762,12.0697717 18.5049238,12.0697717 C18.7783086,12.0697717 18.9999629,12.288 18.9999629,12.5570776 L18.9999629,13.3475434 C19,14.8088402 17.7923125,15.9976256 16.3079004,15.9976256 Z" id="Shape"></path>
                    <path d="M16.3079004,15.9976256 L2.69209961,15.9976256 C1.2076875,15.9976256 0,14.8088037 0,13.3475799 L0,2.65242009 C0,1.19119635 1.2076875,0.00237442922 2.69209961,0.00237442922 L16.3078262,0.00237442922 C17.7922383,0.00237442922 18.9999258,1.19119635 18.9999258,2.65242009 L18.9999258,13.3476164 C18.9999629,14.8088402 17.7923125,15.9976256 16.3079004,15.9976256 Z M2.69209961,0.976986301 C1.75364063,0.976986301 0.990115234,1.72858447 0.990115234,2.65238356 L0.990115234,13.3475799 C0.990115234,14.271379 1.75364063,15.0229772 2.69209961,15.0229772 L16.3078262,15.0229772 C17.2462852,15.0229772 18.0098105,14.271379 18.0098105,13.3475799 L18.0098105,2.65238356 C18.0098105,1.72858447 17.2462852,0.976986301 16.3078262,0.976986301 C16.3078262,0.976986301 2.69209961,0.976986301 2.69209961,0.976986301 Z" id="Shape"></path>
                </g>
                <path d="M8.14591602,7.75536073 L8.14591602,5.14016438 C8.14591602,4.93315068 8.37276562,4.80306849 8.55567773,4.90516895 L10.8982441,6.21274886 C11.0836426,6.31623744 11.0836426,6.57921461 10.8982441,6.68266667 L8.55567773,7.99028311 C8.37272852,8.09245662 8.14591602,7.9623379 8.14591602,7.75536073 Z" id="Shape" fill="#D8D8D8"></path>
                <g id="Group" transform="translate(3.785156, 2.410959)" fill="#888888">
                    <path d="M4.63551758,6.10224658 C4.21106055,6.10224658 3.8657207,5.76230137 3.8657207,5.34440183 L3.8657207,2.72920548 C3.8657207,2.31134247 4.21106055,1.97136073 4.63551758,1.97136073 C4.76758984,1.97136073 4.89873438,2.00555251 5.01473828,2.07031963 L7.35730469,3.37786301 C7.59781055,3.51218265 7.74721289,3.76463927 7.74721289,4.03678539 C7.74721289,4.30889498 7.59781055,4.56138813 7.3573418,4.6956347 L5.01473828,6.00325114 C4.89873438,6.06801826 4.76758984,6.10224658 4.63551758,6.10224658 Z M4.85576172,3.10206393 L4.85576172,4.97154338 L6.53039648,4.03674886 L4.85576172,3.10206393 Z" id="Shape"></path>
                    <path d="M5.71484375,8.22049315 C3.42185547,8.22049315 1.55636719,6.38410959 1.55636719,4.12697717 C1.55636719,3.85786301 1.77802148,3.63967123 2.05140625,3.63967123 C2.32479102,3.63967123 2.54644531,3.85789954 2.54644531,4.12697717 C2.54644531,5.84672146 3.96773438,7.24584475 5.71480664,7.24584475 C7.46187891,7.24584475 8.88316797,5.84675799 8.88316797,4.12697717 C8.88316797,2.40719635 7.46187891,1.00810959 5.71480664,1.00810959 C5.44138477,1.00810959 5.21976758,0.789881279 5.21976758,0.520803653 C5.21976758,0.251726027 5.44142188,0.0334977169 5.71480664,0.0334977169 C8.00775781,0.0334977169 9.8732832,1.86988128 9.8732832,4.1270137 C9.8732832,6.38414612 8.00779492,8.22049315 5.71484375,8.22049315 Z" id="Shape"></path>
                    <path d="M0.524986328,11.5830868 C0.251564453,11.5830868 0.0299472656,11.3648584 0.0299472656,11.0957808 L0.0299472656,9.16273973 C0.0299472656,8.89362557 0.251564453,8.67543379 0.524986328,8.67543379 C0.798408203,8.67543379 1.02002539,8.8936621 1.02002539,9.16273973 L1.02002539,11.0957808 C1.02002539,11.3649315 0.798408203,11.5830868 0.524986328,11.5830868 Z" id="Shape"></path>
                </g>
            </g>
        </g>
    </g>
</svg>