<?xml version="1.0" encoding="UTF-8"?>
<svg width="19px" height="12px" viewBox="0 0 19 12" version="1.1" xmlns="http://www.w3.org/2000/svg" xmlns:xlink="http://www.w3.org/1999/xlink">
    <!-- Generator: Sketch 50.2 (55047) - http://www.bohemiancoding.com/sketch -->
    <title>show copy 9</title>
    <desc>Created with Sketch.</desc>
    <defs></defs>
    <g id="Page-1" stroke="none" stroke-width="1" fill="none" fill-rule="evenodd">
        <g id="02.1.-Trang-Chi-Tiet---Tai-Lieu-Lien-Quan" transform="translate(-1218.000000, -691.000000)" fill-rule="nonzero">
            <g id="show-copy-9" transform="translate(1218.000000, 691.000000)">
                <g id="Group" fill="#1577EE">
                    <path d="M9.51848148,11.9942545 C7.36866667,11.9942545 5.0597037,11.0019273 2.84133333,9.12461818 C1.19033333,7.72741818 0.173962963,6.34676364 0.131555556,6.28869091 C0.00548148148,6.11614545 0.00548148148,5.88385455 0.131592593,5.71130909 C0.176111111,5.6504 1.24218519,4.20250909 2.96511111,2.77174545 C5.17481481,0.9364 7.3797037,0.00578181818 9.51848148,0.00578181818 C11.6572593,0.00578181818 13.8621481,0.9364 16.0718889,2.77178182 C17.7947037,4.20250909 18.8608148,5.65032727 18.9053704,5.71130909 C19.0314815,5.88385455 19.0314815,6.11614545 18.9054074,6.28869091 C18.8711481,6.33549091 18.052,7.44916364 16.6918889,8.68858182 C16.4877778,8.87454545 16.1686296,8.86290909 15.9791852,8.66247273 C15.7896667,8.46203636 15.8016296,8.14876364 16.0057037,7.96272727 C16.8887407,7.15807273 17.5389259,6.39821818 17.8604074,6.00007273 C17.4719259,5.51923636 16.6028519,4.50978182 15.4204074,3.52789091 C14.0298148,2.37287273 11.8771111,0.996072727 9.51840741,0.996072727 C7.1597037,0.996072727 5.007,2.37287273 3.61644444,3.52781818 C2.43444444,4.50938182 1.56562963,5.51832727 1.17685185,5.99952727 C2.07259259,7.1044 5.51814815,11.0039273 9.51840741,11.0039273 C10.892963,11.0039273 12.3362963,10.5441455 13.8083704,9.63738182 C14.0443333,9.492 14.3556667,9.56207273 14.5035556,9.79363636 C14.6516296,10.0252727 14.5802963,10.3308727 14.3444074,10.4761818 C12.7092593,11.4835636 11.0855926,11.9942545 9.51848148,11.9942545 Z" id="Shape"></path>
                    <path d="M9.51848148,11.9942545 C6.15203704,11.9942545 3.41322222,9.30523636 3.41322222,6 C3.41322222,2.69476364 6.15207407,0.00581818182 9.51848148,0.00581818182 C12.8848889,0.00581818182 15.6237407,2.69483636 15.6237407,6.00007273 C15.6237407,6.27352727 15.3979259,6.4952 15.1194444,6.4952 C14.840963,6.4952 14.6151481,6.27352727 14.6151481,6.00007273 C14.6151481,3.24090909 12.3288148,0.996109091 9.51851852,0.996109091 C6.70822222,0.996109091 4.42185185,3.24087273 4.42185185,6.00007273 C4.42185185,8.75927273 6.70818519,11.0040364 9.51848148,11.0040364 C9.79696296,11.0040364 10.0227778,11.2257091 10.0227778,11.4991636 C10.0227778,11.7726182 9.79696296,11.9942545 9.51848148,11.9942545 Z" id="Shape"></path>
                </g>
                <ellipse id="Oval" fill="#85BCFF" cx="9.51851852" cy="6.00010909" rx="3.17422222" ry="3.11650909"></ellipse>
                <path d="M9.51848148,9.61167273 C7.49014815,9.61167273 5.84,7.99152727 5.84,6.00007273 C5.84,4.00861818 7.49022222,2.38847273 9.51848148,2.38847273 C11.5467407,2.38847273 13.196963,4.00861818 13.196963,6.00007273 C13.196963,7.99152727 11.5467778,9.61167273 9.51848148,9.61167273 Z M9.51848148,3.37869091 C8.0462963,3.37869091 6.84859259,4.55465455 6.84859259,6.00003636 C6.84859259,7.44541818 8.0462963,8.62138182 9.51848148,8.62138182 C10.9906667,8.62138182 12.1883704,7.44541818 12.1883704,6.00003636 C12.1883704,4.55465455 10.9906667,3.37869091 9.51848148,3.37869091 Z" id="Shape" fill="#1577EE"></path>
            </g>
        </g>
    </g>
</svg>